<svg width="892" height="96" viewBox="0 0 892 96" fill="none" xmlns="http://www.w3.org/2000/svg">
<path d="M887.674 92.4618C879.214 100.314 875.54 92.6465 863.594 92.6465C851.648 92.6465 851.658 91.6489 839.712 91.6489C827.766 91.6489 827.775 91.4918 815.83 91.4918C803.884 91.4918 803.893 92.1569 791.957 92.1569C780.021 92.1569 780.021 91.7135 768.085 91.7135C756.149 91.7135 756.149 91.6212 744.203 91.6212C732.257 91.6212 732.267 91.4549 720.331 91.4549C708.395 91.4549 708.395 91.6119 696.449 91.6119C684.503 91.6119 684.513 92.7019 672.577 92.7019C660.641 92.7019 660.641 92.4156 648.695 92.4156C636.749 92.4156 636.759 92.8682 624.823 92.8682C612.887 92.8682 612.887 91.8706 600.941 91.8706C588.995 91.8706 589.005 92.7574 577.059 92.7574C565.113 92.7574 565.123 91.538 553.186 91.538C541.25 91.538 541.25 92.9421 529.304 92.9421C517.358 92.9421 517.368 91.7043 505.422 91.7043C493.476 91.7043 493.486 91.6673 481.54 91.6673C469.594 91.6673 469.604 91.575 457.658 91.575C445.712 91.575 445.722 91.575 433.776 91.575C421.83 91.575 421.84 91.6581 409.894 91.6581C397.948 91.6581 397.958 91.5565 386.012 91.5565C374.066 91.5565 374.066 91.7505 362.13 91.7505C350.194 91.7505 350.194 92.9883 338.248 92.9883C326.302 92.9883 326.312 92.8959 314.366 92.8959C302.42 92.8959 302.43 91.5565 290.484 91.5565C278.538 91.5565 278.548 92.2308 266.602 92.2308C254.656 92.2308 254.666 92.4618 242.72 92.4618C230.774 92.4618 230.774 92.9513 218.838 92.9513C206.902 92.9513 206.902 92.6096 194.956 92.6096C183.01 92.6096 183.02 92.3509 171.074 92.3509C159.128 92.3509 159.138 92.0368 147.192 92.0368C135.246 92.0368 135.246 91.7228 123.31 91.7228C111.374 91.7228 111.364 92.5357 99.4277 92.5357C87.4917 92.5357 87.4818 91.4549 75.5457 91.4549C63.6096 91.4549 63.5997 92.3879 51.6636 92.3879C39.7276 92.3879 39.7177 91.6212 27.7717 91.6212C15.8257 91.6212 11.9032 100.545 3.44392 92.6927C-5.01533 84.8409 4.77125 81.1921 4.77125 70.1072C4.77125 59.0223 3.0477 59.0223 3.0477 47.9373C3.0477 36.8524 4.3255 36.8524 4.3255 25.7675C4.3255 14.6826 -4.82713 11.1262 3.5925 3.30209C12.0121 -4.52201 15.8554 4.01337 27.7915 4.01337C39.7276 4.01337 39.7276 2.90488 51.6736 2.90488C63.6195 2.90488 63.6096 3.43141 75.5556 3.43141C87.5016 3.43141 87.4917 2.86793 99.4277 2.86793C111.364 2.86793 111.364 2.89564 123.3 2.89564C135.236 2.89564 135.236 3.86557 147.182 3.86557C159.128 3.86557 159.118 3.20972 171.054 3.20972C182.99 3.20972 182.99 3.07116 194.936 3.07116C206.882 3.07116 206.872 3.21895 218.808 3.21895C230.744 3.21895 230.744 3.82862 242.69 3.82862C254.636 3.82862 254.626 4.26278 266.562 4.26278C278.498 4.26278 278.498 3.27438 290.444 3.27438C302.39 3.27438 302.381 3.22819 314.326 3.22819C326.272 3.22819 326.263 4.09651 338.199 4.09651C350.135 4.09651 350.135 3.86557 362.081 3.86557C374.027 3.86557 374.017 4.33668 385.963 4.33668C397.909 4.33668 397.899 4.17041 409.845 4.17041C421.791 4.17041 421.781 3.9949 433.727 3.9949C445.673 3.9949 445.663 4.26278 457.609 4.26278C469.555 4.26278 469.545 3.98566 481.491 3.98566C493.437 3.98566 493.427 3.06192 505.373 3.06192C517.319 3.06192 517.319 4.3644 529.255 4.3644C541.191 4.3644 541.191 4.08727 553.137 4.08727C565.083 4.08727 565.073 3.50531 577.019 3.50531C588.965 3.50531 588.955 3.94871 600.901 3.94871C612.847 3.94871 612.837 3.09887 624.783 3.09887C636.729 3.09887 636.719 3.46836 648.665 3.46836C660.611 3.46836 660.611 3.6254 672.547 3.6254C684.483 3.6254 684.483 3.78244 696.429 3.78244C708.375 3.78244 708.365 3.2559 720.311 3.2559C732.257 3.2559 732.247 2.96954 744.193 2.96954C756.139 2.96954 756.139 3.31133 768.075 3.31133C780.011 3.31133 780.021 3.6993 791.957 3.6993C803.893 3.6993 803.903 4.13346 815.839 4.13346C827.775 4.13346 827.785 4.05032 839.721 4.05032C851.658 4.05032 851.667 4.05032 863.613 4.05032C875.559 4.05032 879.145 -4.3465 887.604 3.51455C896.064 11.3756 887.069 14.7011 887.069 25.786C887.069 36.8709 888.169 36.8709 888.169 47.9558C888.169 59.0407 884.771 59.3363 887.317 70.1626C890.051 81.8202 896.123 84.6561 887.694 92.4802L887.674 92.4618Z" fill="#FFEBC2"/>
</svg>
