<svg width="328" height="140" viewBox="0 0 328 140" fill="none" xmlns="http://www.w3.org/2000/svg">
<path d="M323.512 136.45C315.418 144.314 311.877 136.659 300.447 136.659C289.017 136.659 289.026 135.527 277.596 135.527C266.166 135.527 266.176 135.356 254.745 135.356C243.315 135.356 243.325 136.117 231.904 136.117C220.484 136.117 220.484 135.613 209.053 135.613C197.623 135.613 197.633 135.508 186.212 135.508C174.791 135.508 174.791 135.318 163.361 135.318C151.931 135.318 151.941 135.489 140.51 135.489C129.08 135.489 129.09 136.725 117.659 136.725C106.229 136.725 106.229 136.402 94.8085 136.402C83.3879 136.402 83.3879 136.916 71.9576 136.916C60.5272 136.916 60.5272 135.774 49.1067 135.774C37.6861 135.774 37.6764 136.782 26.2558 136.782C14.8352 136.782 12.1044 143.506 3.99982 135.641C-4.10479 127.777 2.61491 125.133 2.61491 114.045C2.61491 102.957 4.05833 102.948 4.05833 91.8594C4.05833 80.7712 4.09734 80.7617 4.09734 69.6736C4.09734 58.5855 4.20462 58.576 4.20462 47.4878C4.20462 36.3997 4.20462 36.3902 4.20462 25.2925C4.20462 14.1949 -4.1438 11.4371 3.91204 3.60127C11.9679 -4.23459 14.8352 3.9246 26.2558 3.9246C37.6764 3.9246 37.6764 3.70588 49.1067 3.70588C60.537 3.70588 60.5272 2.30797 71.9576 2.30797C83.3879 2.30797 83.3781 2.41258 94.7987 2.41258C106.219 2.41258 106.219 3.93411 117.65 3.93411C129.08 3.93411 129.07 3.16383 140.491 3.16383C151.911 3.16383 151.911 2.89757 163.342 2.89757C174.772 2.89757 174.762 2.3365 186.193 2.3365C197.623 2.3365 197.613 2.71688 209.043 2.71688C220.474 2.71688 220.474 3.00217 231.894 3.00217C243.315 3.00217 243.315 3.36353 254.745 3.36353C266.176 3.36353 266.176 3.7249 277.596 3.7249C289.017 3.7249 289.026 2.80247 300.447 2.80247C311.868 2.80247 314.53 -4.10146 322.625 3.76293C330.72 11.6273 323.434 14.1949 323.434 25.2925C323.434 36.3902 322.537 36.3902 322.537 47.4783C322.537 58.576 323.981 58.576 323.981 69.6641C323.981 80.7617 322.342 80.7617 322.342 91.8499C322.342 102.938 321.757 103.014 324.195 113.845C326.828 125.523 331.578 128.604 323.512 136.44V136.45Z" fill="#FFEBC2"/>
</svg>
