<svg width="284" height="320" viewBox="0 0 284 320" fill="none" xmlns="http://www.w3.org/2000/svg">
<path d="M280.789 317.354C274.632 323.225 271.959 317.494 263.266 317.494C254.582 317.494 254.582 316.736 245.889 316.736C237.196 316.736 237.206 316.614 228.512 316.614C219.819 316.614 219.829 317.12 211.136 317.12C202.452 317.12 202.452 316.783 193.759 316.783C185.066 316.783 185.076 316.717 176.382 316.717C167.689 316.717 167.689 316.586 159.006 316.586C150.322 316.586 150.322 316.708 141.629 316.708C132.945 316.708 132.945 317.541 124.252 317.541C115.559 317.541 115.569 317.326 106.875 317.326C98.1823 317.326 98.1823 317.672 89.4988 317.672C80.8153 317.672 80.8153 316.904 72.1221 316.904C63.4289 316.904 63.4289 317.579 54.7454 317.579C46.062 317.579 46.0522 316.652 37.3687 316.652C28.6853 316.652 28.6755 317.719 19.9822 317.719C11.289 317.719 9.07652 322.766 2.91881 316.895C-3.20954 311.052 3.08523 308.927 3.08523 300.65C3.08523 292.372 3.16355 292.372 3.16355 284.095C3.16355 275.818 3.16355 275.818 3.16355 267.541C3.16355 259.263 3.09502 259.263 3.09502 250.986C3.09502 242.709 3.17334 242.709 3.17334 234.432C3.17334 226.155 3.02649 226.155 3.02649 217.877C3.02649 209.6 2.03774 209.6 2.03774 201.323C2.03774 193.046 2.10626 193.046 2.10626 184.768C2.10626 176.491 3.17334 176.491 3.17334 168.214C3.17334 159.937 2.63491 159.937 2.63491 151.66C2.63491 143.382 2.4489 143.382 2.4489 135.105C2.4489 126.828 2.05732 126.828 2.05732 118.551C2.05732 110.273 2.33143 110.273 2.33143 101.996C2.33143 93.719 2.53701 93.719 2.53701 85.4324C2.53701 77.1458 2.79154 77.1552 2.79154 68.878C2.79154 60.6007 3.04607 60.6008 3.04607 52.3142C3.04607 44.0276 2.39995 44.0369 2.39995 35.7504C2.39995 27.4638 3.26145 27.4638 3.26145 19.1865C3.26145 10.9093 -3.58154 8.38122 2.55659 2.53847C8.69472 -3.30427 11.3086 3.10027 20.0018 3.10027C28.6951 3.10027 28.6853 2.15457 37.3785 2.15457C46.0718 2.15457 46.062 3.23136 54.7552 3.23136C63.4484 3.23136 63.4387 2.00476 72.1319 2.00476C80.8251 2.00476 80.8153 2.91301 89.5086 2.91301C98.2018 2.91301 98.192 2.2763 106.885 2.2763C115.579 2.2763 115.579 2.91301 124.262 2.91301C132.945 2.91301 132.945 2.06094 141.639 2.06094C150.332 2.06094 150.322 2.46356 159.015 2.46356C167.709 2.46356 167.699 2.03285 176.392 2.03285C185.085 2.03285 185.085 2.05158 193.769 2.05158C202.452 2.05158 202.452 2.79128 211.145 2.79128C219.839 2.79128 219.839 2.29502 228.522 2.29502C237.206 2.29502 237.215 2.19203 245.899 2.19203C254.582 2.19203 254.592 2.30439 263.285 2.30439C271.979 2.30439 274.387 -3.1451 280.545 2.71637C286.673 8.55912 280.153 10.8719 280.153 19.1491C280.153 27.4263 280.936 27.4263 280.936 35.7035C280.936 43.9808 280.975 43.9808 280.975 52.258C280.975 60.5352 280.28 60.5352 280.28 68.8124C280.28 77.0897 280.466 77.0897 280.466 85.3669C280.466 93.6441 280.094 93.6441 280.094 101.921C280.094 110.199 280.231 110.199 280.231 118.476C280.231 126.753 280.378 126.753 280.378 135.03C280.378 143.307 280.163 143.307 280.163 151.585C280.163 159.862 280.378 159.862 280.378 168.139C280.378 176.416 281.112 176.416 281.112 184.694C281.112 192.971 280.075 192.971 280.075 201.248C280.075 209.525 280.3 209.525 280.3 217.802C280.3 226.08 280.77 226.08 280.77 234.366C280.77 242.653 280.417 242.643 280.417 250.921C280.417 259.198 281.093 259.198 281.093 267.485C281.093 275.771 280.799 275.762 280.799 284.048C280.799 292.335 278.822 292.522 280.672 300.612C282.669 309.32 286.957 311.474 280.828 317.316L280.789 317.354Z" fill="#FFEBC2"/>
</svg>
