<svg width="892" height="760" viewBox="0 0 892 760" fill="none" xmlns="http://www.w3.org/2000/svg">
<path d="M888.791 757.395C882.568 762.59 879.531 757.739 870.679 757.739C861.827 757.739 861.827 755.92 852.974 755.92C844.122 755.92 844.122 755.633 835.27 755.633C826.417 755.633 826.417 756.854 817.565 756.854C808.712 756.854 808.712 756.035 799.86 756.035C791.008 756.035 791.008 755.871 782.155 755.871C773.303 755.871 773.303 755.559 764.451 755.559C755.598 755.559 755.598 755.838 746.756 755.838C737.913 755.838 737.903 757.837 729.061 757.837C720.218 757.837 720.208 757.321 711.356 757.321C702.504 757.321 702.504 758.157 693.651 758.157C684.799 758.157 684.799 756.321 675.956 756.321C667.114 756.321 667.104 757.944 658.252 757.944C649.399 757.944 649.399 755.723 640.547 755.723C631.695 755.723 631.695 758.288 622.842 758.288C613.99 758.288 613.99 756.018 605.137 756.018C596.285 756.018 596.285 755.953 587.433 755.953C578.58 755.953 578.58 755.781 569.728 755.781C560.876 755.781 560.876 755.781 552.023 755.781C543.171 755.781 543.171 755.936 534.318 755.936C525.466 755.936 525.466 755.748 516.614 755.748C507.761 755.748 507.761 756.092 498.909 756.092C490.057 756.092 490.057 758.345 481.204 758.345C472.352 758.345 472.352 758.181 463.499 758.181C454.647 758.181 454.647 755.723 445.795 755.723C436.942 755.723 436.942 756.96 428.09 756.96C419.237 756.96 419.237 757.387 410.385 757.387C401.533 757.387 401.533 758.288 392.68 758.288C383.828 758.288 383.828 757.665 374.976 757.665C366.123 757.665 366.123 757.198 357.271 757.198C348.418 757.198 348.418 756.624 339.566 756.624C330.714 756.624 330.714 756.051 321.861 756.051C313.009 756.051 313.009 757.534 304.156 757.534C295.304 757.534 295.304 755.559 286.452 755.559C277.599 755.559 277.599 757.272 268.747 757.272C259.895 757.272 259.895 755.862 251.042 755.862C242.19 755.862 242.19 758.124 233.337 758.124C224.485 758.124 224.485 755.551 215.633 755.551C206.78 755.551 206.78 758.493 197.928 758.493C189.076 758.493 189.076 756.305 180.223 756.305C171.371 756.305 171.371 757.821 162.518 757.821C153.666 757.821 153.666 756.305 144.814 756.305C135.961 756.305 135.961 758.337 127.109 758.337C118.256 758.337 118.256 757.37 109.404 757.37C100.552 757.37 100.552 758.403 91.6894 758.403C82.8271 758.403 82.837 758.362 73.9847 758.362C65.1323 758.362 65.1323 756.592 56.27 756.592C47.4077 756.592 47.4176 757.788 38.5553 757.788C29.693 757.788 29.7029 758.042 20.8406 758.042C11.9783 758.042 8.74301 762.754 2.51061 757.559C-3.72178 752.363 3.6122 749.668 3.6122 742.276C3.6122 734.885 4.56492 734.885 4.56492 727.494C4.56492 720.102 2.3816 720.102 2.3816 712.711C2.3816 705.32 2.27243 705.32 2.27243 697.929C2.27243 690.537 4.1878 690.537 4.1878 683.146C4.1878 675.755 3.68167 675.755 3.68167 668.363C3.68167 660.972 4.71379 660.972 4.71379 653.581C4.71379 646.19 4.34659 646.19 4.34659 638.798C4.34659 631.407 3.94962 631.407 3.94962 624.024C3.94962 616.641 4.53515 616.633 4.53515 609.25C4.53515 601.867 3.92977 601.858 3.92977 594.467C3.92977 587.076 1.87547 587.076 1.87547 579.685C1.87547 572.293 4.77333 572.293 4.77333 564.91C4.77333 557.527 4.14811 557.519 4.14811 550.128C4.14811 542.736 2.84804 542.736 2.84804 535.345C2.84804 527.954 3.84046 527.954 3.84046 520.571C3.84046 513.188 1.95486 513.179 1.95486 505.788C1.95486 498.397 2.77857 498.397 2.77857 491.006C2.77857 483.614 3.12591 483.614 3.12591 476.223C3.12591 468.832 3.46334 468.832 3.46334 461.44C3.46334 454.049 2.30221 454.049 2.30221 446.658C2.30221 439.267 1.67698 439.267 1.67698 431.875C1.67698 424.484 2.44115 424.484 2.44115 417.093C2.44115 409.702 3.30455 409.702 3.30455 402.31C3.30455 394.919 4.27712 394.919 4.27712 387.528C4.27712 380.136 4.08856 380.136 4.08856 372.745C4.08856 365.354 4.08856 365.354 4.08856 357.963C4.08856 350.571 2.80834 350.571 2.80834 343.18C2.80834 335.789 4.00917 335.789 4.00917 328.397C4.00917 321.006 1.73653 321.006 1.73653 313.615C1.73653 306.224 3.50303 306.224 3.50303 298.832C3.50303 291.441 2.91751 291.441 2.91751 284.05C2.91751 276.659 1.62736 276.659 1.62736 269.267C1.62736 261.876 3.64197 261.876 3.64197 254.485C3.64197 247.093 1.5182 247.093 1.5182 239.702C1.5182 232.311 3.10607 232.311 3.10607 224.92C3.10607 217.528 2.15334 217.528 2.15334 210.137C2.15334 202.746 1.78615 202.746 1.78615 195.354C1.78615 187.963 1.54797 187.963 1.54797 180.572C1.54797 173.181 1.40903 173.181 1.40903 165.789C1.40903 158.398 3.60228 158.398 3.60228 151.007C3.60228 143.616 3.43356 143.616 3.43356 136.224C3.43356 128.833 4.09849 128.833 4.09849 121.442C4.09849 114.05 2.17319 114.05 2.17319 106.659C2.17319 99.2679 3.23508 99.2679 3.23508 91.8766C3.23508 84.4853 2.92743 84.4853 2.92743 77.094C2.92743 69.7027 3.30455 69.7027 3.30455 62.3115C3.30455 54.9202 2.06403 54.9202 2.06403 47.5207C2.06403 40.1213 3.6122 40.1294 3.6122 32.73C3.6122 25.3305 4.39621 25.3387 4.39621 17.9392C4.39621 10.5397 -3.65231 8.03229 2.63963 2.77153C8.93157 -2.48922 11.9981 2.77153 20.8505 2.77153C29.7029 2.77153 29.7029 2.05863 38.5553 2.05863C47.4077 2.05863 47.4077 4.35304 56.26 4.35304C65.1124 4.35304 65.1124 2.12418 73.9648 2.12418C82.8172 2.12418 82.8172 2.08321 91.6696 2.08321C100.522 2.08321 100.522 2.08321 109.374 2.08321C118.227 2.08321 118.227 3.54999 127.079 3.54999C135.931 3.54999 135.931 2.54209 144.774 2.54209C153.616 2.54209 153.626 2.04224 162.469 2.04224C171.311 2.04224 171.321 4.58248 180.174 4.58248C189.026 4.58248 189.026 3.91054 197.878 3.91054C206.731 3.91054 206.731 2.55848 215.573 2.55848C224.416 2.55848 224.426 3.53361 233.278 3.53361C242.13 3.53361 242.13 2.2389 250.983 2.2389C259.835 2.2389 259.835 3.67291 268.687 3.67291C277.54 3.67291 277.54 3.14847 286.392 3.14847C295.245 3.14847 295.245 4.28748 304.097 4.28748C312.949 4.28748 312.949 1.69808 321.802 1.69808C330.654 1.69808 330.654 1.76363 339.506 1.76363C348.359 1.76363 348.359 3.63194 357.211 3.63194C366.064 3.63194 366.064 4.25471 374.916 4.25471C383.768 4.25471 383.768 4.25471 392.621 4.25471C401.473 4.25471 401.473 2.41918 410.326 2.41918C419.178 2.41918 419.178 3.90235 428.03 3.90235C436.883 3.90235 436.883 1.68169 445.735 1.68169C454.587 1.68169 454.587 3.84499 463.44 3.84499C472.292 3.84499 472.292 2.22251 481.145 2.22251C489.997 2.22251 489.997 4.53331 498.849 4.53331C507.702 4.53331 507.702 3.48444 516.554 3.48444C525.406 3.48444 525.406 2.11599 534.259 2.11599C543.111 2.11599 543.111 3.30416 551.964 3.30416C560.816 3.30416 560.816 3.66471 569.668 3.66471C578.521 3.66471 578.521 2.63223 587.373 2.63223C596.226 2.63223 596.226 2.87806 605.078 2.87806C613.93 2.87806 613.93 1.9521 622.783 1.9521C631.635 1.9521 631.635 3.6811 640.487 3.6811C649.34 3.6811 649.34 3.64833 658.192 3.64833C667.045 3.64833 667.045 3.95971 675.897 3.95971C684.749 3.95971 684.749 2.62404 693.602 2.62404C702.454 2.62404 702.454 2.50932 711.306 2.50932C720.159 2.50932 720.159 3.67291 729.011 3.67291C737.864 3.67291 737.864 2.83709 746.716 2.83709C755.568 2.83709 755.568 3.23042 764.421 3.23042C773.273 3.23042 773.273 3.41888 782.125 3.41888C790.978 3.41888 790.978 3.99249 799.84 3.99249C808.703 3.99249 808.693 3.99249 817.545 3.99249C826.397 3.99249 826.397 1.91113 835.26 1.91113C844.122 1.91113 844.112 3.30416 852.974 3.30416C861.837 3.30416 861.827 1.85377 870.689 1.85377C879.551 1.85377 883.025 -2.71047 889.257 2.48473C895.49 7.67993 887.004 10.5725 887.004 17.9638C887.004 25.3551 889.495 25.3551 889.495 32.7464C889.495 40.1376 886.994 40.1376 886.994 47.5289C886.994 54.9202 889.783 54.9202 889.783 62.3115C889.783 69.7027 888.295 69.7027 888.295 77.094C888.295 84.4853 887.808 84.4853 887.808 91.8766C887.808 99.2679 889.863 99.2679 889.863 106.659C889.863 114.05 889.019 114.05 889.019 121.442C889.019 128.833 888.632 128.833 888.632 136.216C888.632 143.599 889.942 143.607 889.942 150.99C889.942 158.373 887.362 158.382 887.362 165.773C887.362 173.164 890.011 173.164 890.011 180.556C890.011 187.947 888.701 187.947 888.701 195.33C888.701 202.713 888.801 202.721 888.801 210.112C888.801 217.504 887.233 217.504 887.233 224.895C887.233 232.286 888.771 232.286 888.771 239.669C888.771 247.052 887.243 247.061 887.243 254.452C887.243 261.843 890.22 261.843 890.22 269.234C890.22 276.626 889.803 276.626 889.803 284.017C889.803 291.408 888.771 291.408 888.771 298.8C888.771 306.191 887.282 306.191 887.282 313.582C887.282 320.973 889.763 320.973 889.763 328.365C889.763 335.756 887.024 335.756 887.024 343.147C887.024 350.539 888.156 350.539 888.156 357.93C888.156 365.321 886.756 365.321 886.756 372.712C886.756 380.104 890.091 380.104 890.091 387.495C890.091 394.886 887.511 394.886 887.511 402.277C887.511 409.669 887.818 409.669 887.818 417.06C887.818 424.451 887.967 424.451 887.967 431.843C887.967 439.234 886.925 439.234 886.925 446.625C886.925 454.016 889.803 454.016 889.803 461.408C889.803 468.799 889.257 468.799 889.257 476.19C889.257 483.582 888.979 483.582 888.979 490.973C888.979 498.364 888.493 498.364 888.493 505.755C888.493 513.147 888.225 513.147 888.225 520.538C888.225 527.929 889.793 527.929 889.793 535.321C889.793 542.712 887.749 542.712 887.749 550.103C887.749 557.494 889.208 557.494 889.208 564.886C889.208 572.277 888.275 572.277 888.275 579.668C888.275 587.059 887.868 587.059 887.868 594.451C887.868 601.842 887.461 601.842 887.461 609.233C887.461 616.625 887.947 616.625 887.947 624.016C887.947 631.407 888.275 631.407 888.275 638.798C888.275 646.19 887.699 646.19 887.699 653.581C887.699 660.972 890.17 660.972 890.17 668.363C890.17 675.755 890.031 675.755 890.031 683.146C890.031 690.537 888.076 690.537 888.076 697.929C888.076 705.32 886.925 705.32 886.925 712.719C886.925 720.119 889.277 720.111 889.277 727.51C889.277 734.91 886.379 735.098 888.344 742.309C890.488 750.184 895.112 752.159 888.821 757.419L888.791 757.395Z" fill="#FFEBC2"/>
</svg>
