<svg width="284" height="288" viewBox="0 0 284 288" fill="none" xmlns="http://www.w3.org/2000/svg">
<path d="M280.789 285.618C274.632 290.902 271.959 285.745 263.266 285.745C254.582 285.745 254.582 285.062 245.889 285.062C237.196 285.062 237.206 284.953 228.512 284.953C219.819 284.953 219.829 285.408 211.136 285.408C202.452 285.408 202.452 285.104 193.759 285.104C185.066 285.104 185.076 285.045 176.382 285.045C167.689 285.045 167.689 284.927 159.006 284.927C150.322 284.927 150.322 285.037 141.629 285.037C132.945 285.037 132.945 285.787 124.252 285.787C115.559 285.787 115.569 285.593 106.875 285.593C98.1823 285.593 98.1823 285.905 89.4988 285.905C80.8153 285.905 80.8153 285.214 72.1221 285.214C63.4289 285.214 63.4289 285.821 54.7454 285.821C46.062 285.821 46.0522 284.986 37.3687 284.986C28.6853 284.986 28.6755 285.947 19.9822 285.947C11.289 285.947 9.07652 290.489 2.91881 285.206C-3.20954 279.947 3.08523 278.034 3.08523 270.585C3.08523 263.135 3.16355 263.135 3.16355 255.686C3.16355 248.236 3.16355 248.236 3.16355 240.787C3.16355 233.337 3.09502 233.337 3.09502 225.888C3.09502 218.438 3.17334 218.438 3.17334 210.989C3.17334 203.539 3.02649 203.539 3.02649 196.09C3.02649 188.64 2.03774 188.64 2.03774 181.191C2.03774 173.741 2.10626 173.741 2.10626 166.292C2.10626 158.842 3.17334 158.842 3.17334 151.393C3.17334 143.943 2.63491 143.943 2.63491 136.494C2.63491 129.044 2.4489 129.044 2.4489 121.595C2.4489 114.145 2.05732 114.145 2.05732 106.696C2.05732 99.2461 2.33143 99.2461 2.33143 91.7966C2.33143 84.3471 2.53701 84.3471 2.53701 76.8892C2.53701 69.4312 2.79154 69.4397 2.79154 61.9902C2.79154 54.5407 3.04607 54.5407 3.04607 47.0828C3.04607 39.6248 2.39995 39.6333 2.39995 32.1753C2.39995 24.7174 3.26145 24.7174 3.26145 17.2679C3.26145 9.81839 -3.58154 7.54309 2.55659 2.28462C8.69472 -2.97385 11.3086 2.79025 20.0018 2.79025C28.6951 2.79025 28.6853 1.93911 37.3785 1.93911C46.0718 1.93911 46.062 2.90822 54.7552 2.90822C63.4484 2.90822 63.4387 1.80428 72.1319 1.80428C80.8251 1.80428 80.8153 2.6217 89.5086 2.6217C98.2018 2.6217 98.192 2.04867 106.885 2.04867C115.579 2.04867 115.579 2.6217 124.262 2.6217C132.945 2.6217 132.945 1.85484 141.639 1.85484C150.332 1.85484 150.322 2.21721 159.015 2.21721C167.709 2.21721 167.699 1.82956 176.392 1.82956C185.085 1.82956 185.085 1.84642 193.769 1.84642C202.452 1.84642 202.452 2.51215 211.145 2.51215C219.839 2.51215 219.839 2.06552 228.522 2.06552C237.206 2.06552 237.215 1.97282 245.899 1.97282C254.582 1.97282 254.592 2.07395 263.285 2.07395C271.979 2.07395 274.387 -2.83059 280.545 2.44474C286.673 7.70321 280.153 9.78469 280.153 17.2342C280.153 24.6837 280.936 24.6837 280.936 32.1332C280.936 39.5827 280.975 39.5827 280.975 47.0322C280.975 54.4817 280.28 54.4817 280.28 61.9312C280.28 69.3807 280.466 69.3807 280.466 76.8302C280.466 84.2797 280.094 84.2797 280.094 91.7292C280.094 99.1787 280.231 99.1787 280.231 106.628C280.231 114.078 280.378 114.078 280.378 121.527C280.378 128.977 280.163 128.977 280.163 136.426C280.163 143.876 280.378 143.876 280.378 151.325C280.378 158.775 281.112 158.775 281.112 166.224C281.112 173.674 280.075 173.674 280.075 181.123C280.075 188.573 280.3 188.573 280.3 196.022C280.3 203.472 280.77 203.472 280.77 210.93C280.77 218.388 280.417 218.379 280.417 225.829C280.417 233.278 281.093 233.278 281.093 240.736C281.093 248.194 280.799 248.186 280.799 255.643C280.799 263.101 278.822 263.27 280.672 270.551C282.669 278.388 286.957 280.326 280.828 285.585L280.789 285.618Z" fill="#FFEBC2"/>
</svg>
