<svg width="892" height="800" viewBox="0 0 892 800" fill="none" xmlns="http://www.w3.org/2000/svg">
<path d="M888.791 797.258C882.568 802.726 879.531 797.62 870.679 797.62C861.827 797.62 861.827 795.705 852.974 795.705C844.122 795.705 844.122 795.403 835.27 795.403C826.417 795.403 826.417 796.688 817.565 796.688C808.712 796.688 808.712 795.826 799.86 795.826C791.008 795.826 791.008 795.653 782.155 795.653C773.303 795.653 773.303 795.326 764.451 795.326C755.598 795.326 755.598 795.619 746.756 795.619C737.913 795.619 737.903 797.723 729.061 797.723C720.218 797.723 720.208 797.18 711.356 797.18C702.504 797.18 702.504 798.06 693.651 798.06C684.799 798.06 684.799 796.128 675.956 796.128C667.114 796.128 667.104 797.836 658.252 797.836C649.399 797.836 649.399 795.498 640.547 795.498C631.695 795.498 631.695 798.198 622.842 798.198C613.99 798.198 613.99 795.809 605.137 795.809C596.285 795.809 596.285 795.74 587.433 795.74C578.58 795.74 578.58 795.558 569.728 795.558C560.876 795.558 560.876 795.558 552.023 795.558C543.171 795.558 543.171 795.722 534.318 795.722C525.466 795.722 525.466 795.524 516.614 795.524C507.761 795.524 507.761 795.886 498.909 795.886C490.057 795.886 490.057 798.258 481.204 798.258C472.352 798.258 472.352 798.086 463.499 798.086C454.647 798.086 454.647 795.498 445.795 795.498C436.942 795.498 436.942 796.801 428.09 796.801C419.237 796.801 419.237 797.249 410.385 797.249C401.533 797.249 401.533 798.198 392.68 798.198C383.828 798.198 383.828 797.542 374.976 797.542C366.123 797.542 366.123 797.051 357.271 797.051C348.418 797.051 348.418 796.447 339.566 796.447C330.714 796.447 330.714 795.843 321.861 795.843C313.009 795.843 313.009 797.404 304.156 797.404C295.304 797.404 295.304 795.326 286.452 795.326C277.599 795.326 277.599 797.128 268.747 797.128C259.895 797.128 259.895 795.645 251.042 795.645C242.19 795.645 242.19 798.025 233.337 798.025C224.485 798.025 224.485 795.317 215.633 795.317C206.78 795.317 206.78 798.414 197.928 798.414C189.076 798.414 189.076 796.11 180.223 796.11C171.371 796.11 171.371 797.706 162.518 797.706C153.666 797.706 153.666 796.11 144.814 796.11C135.961 796.11 135.961 798.25 127.109 798.25C118.256 798.25 118.256 797.232 109.404 797.232C100.552 797.232 100.552 798.319 91.6894 798.319C82.8271 798.319 82.837 798.275 73.9847 798.275C65.1323 798.275 65.1323 796.412 56.27 796.412C47.4077 796.412 47.4176 797.672 38.5553 797.672C29.693 797.672 29.7029 797.939 20.8406 797.939C11.9783 797.939 8.74301 802.899 2.51061 797.43C-3.72178 791.962 3.6122 789.124 3.6122 781.343C3.6122 773.563 4.56492 773.563 4.56492 765.783C4.56492 758.003 2.3816 758.003 2.3816 750.222C2.3816 742.442 2.27243 742.442 2.27243 734.662C2.27243 726.881 4.1878 726.881 4.1878 719.101C4.1878 711.321 3.68167 711.321 3.68167 703.541C3.68167 695.76 4.71379 695.76 4.71379 687.98C4.71379 680.2 4.34659 680.2 4.34659 672.419C4.34659 664.639 3.94962 664.639 3.94962 656.867C3.94962 649.096 4.53515 649.087 4.53515 641.315C4.53515 633.544 3.92977 633.535 3.92977 625.755C3.92977 617.975 1.87547 617.975 1.87547 610.194C1.87547 602.414 4.77333 602.414 4.77333 594.642C4.77333 586.871 4.14811 586.862 4.14811 579.082C4.14811 571.301 2.84804 571.301 2.84804 563.521C2.84804 555.741 3.84046 555.741 3.84046 547.969C3.84046 540.198 1.95486 540.189 1.95486 532.409C1.95486 524.628 2.77857 524.628 2.77857 516.848C2.77857 509.068 3.12591 509.068 3.12591 501.287C3.12591 493.507 3.46334 493.507 3.46334 485.727C3.46334 477.947 2.30221 477.947 2.30221 470.166C2.30221 462.386 1.67698 462.386 1.67698 454.606C1.67698 446.825 2.44115 446.825 2.44115 439.045C2.44115 431.265 3.30455 431.265 3.30455 423.484C3.30455 415.704 4.27712 415.704 4.27712 407.924C4.27712 400.144 4.08856 400.144 4.08856 392.363C4.08856 384.583 4.08856 384.583 4.08856 376.803C4.08856 369.022 2.80834 369.022 2.80834 361.242C2.80834 353.462 4.00917 353.462 4.00917 345.682C4.00917 337.901 1.73653 337.901 1.73653 330.121C1.73653 322.341 3.50303 322.341 3.50303 314.56C3.50303 306.78 2.91751 306.78 2.91751 299C2.91751 291.22 1.62736 291.22 1.62736 283.439C1.62736 275.659 3.64197 275.659 3.64197 267.879C3.64197 260.098 1.5182 260.098 1.5182 252.318C1.5182 244.538 3.10607 244.538 3.10607 236.757C3.10607 228.977 2.15334 228.977 2.15334 221.197C2.15334 213.417 1.78615 213.417 1.78615 205.636C1.78615 197.856 1.54797 197.856 1.54797 190.076C1.54797 182.295 1.40903 182.295 1.40903 174.515C1.40903 166.735 3.60228 166.735 3.60228 158.955C3.60228 151.174 3.43356 151.174 3.43356 143.394C3.43356 135.614 4.09849 135.614 4.09849 127.833C4.09849 120.053 2.17319 120.053 2.17319 112.273C2.17319 104.492 3.23508 104.492 3.23508 96.7122C3.23508 88.9319 2.92743 88.9319 2.92743 81.1516C2.92743 73.3713 3.30455 73.3713 3.30455 65.591C3.30455 57.8107 2.06403 57.8107 2.06403 50.0218C2.06403 42.2329 3.6122 42.2415 3.6122 34.4526C3.6122 26.6637 4.39621 26.6723 4.39621 18.8834C4.39621 11.0945 -3.65231 8.45504 2.63963 2.9174C8.93157 -2.62023 11.9981 2.9174 20.8505 2.9174C29.7029 2.9174 29.7029 2.16698 38.5553 2.16698C47.4077 2.16698 47.4077 4.58214 56.26 4.58214C65.1124 4.58214 65.1124 2.23598 73.9648 2.23598C82.8172 2.23598 82.8172 2.19285 91.6696 2.19285C100.522 2.19285 100.522 2.19285 109.374 2.19285C118.227 2.19285 118.227 3.73684 127.079 3.73684C135.931 3.73684 135.931 2.67589 144.774 2.67589C153.616 2.67589 153.626 2.14973 162.469 2.14973C171.311 2.14973 171.321 4.82366 180.174 4.82366C189.026 4.82366 189.026 4.11636 197.878 4.11636C206.731 4.11636 206.731 2.69314 215.573 2.69314C224.416 2.69314 224.426 3.71958 233.278 3.71958C242.13 3.71958 242.13 2.35674 250.983 2.35674C259.835 2.35674 259.835 3.86622 268.687 3.86622C277.54 3.86622 277.54 3.31418 286.392 3.31418C295.245 3.31418 295.245 4.51314 304.097 4.51314C312.949 4.51314 312.949 1.78745 321.802 1.78745C330.654 1.78745 330.654 1.85645 339.506 1.85645C348.359 1.85645 348.359 3.82309 357.211 3.82309C366.064 3.82309 366.064 4.47864 374.916 4.47864C383.768 4.47864 383.768 4.47864 392.621 4.47864C401.473 4.47864 401.473 2.5465 410.326 2.5465C419.178 2.5465 419.178 4.10774 428.03 4.10774C436.883 4.10774 436.883 1.7702 445.735 1.7702C454.587 1.7702 454.587 4.04736 463.44 4.04736C472.292 4.04736 472.292 2.33949 481.145 2.33949C489.997 2.33949 489.997 4.77191 498.849 4.77191C507.702 4.77191 507.702 3.66783 516.554 3.66783C525.406 3.66783 525.406 2.22736 534.259 2.22736C543.111 2.22736 543.111 3.47807 551.964 3.47807C560.816 3.47807 560.816 3.85759 569.668 3.85759C578.521 3.85759 578.521 2.77077 587.373 2.77077C596.226 2.77077 596.226 3.02954 605.078 3.02954C613.93 3.02954 613.93 2.05484 622.783 2.05484C631.635 2.05484 631.635 3.87485 640.487 3.87485C649.34 3.87485 649.34 3.84034 658.192 3.84034C667.045 3.84034 667.045 4.16812 675.897 4.16812C684.749 4.16812 684.749 2.76214 693.602 2.76214C702.454 2.76214 702.454 2.64138 711.306 2.64138C720.159 2.64138 720.159 3.86622 729.011 3.86622C737.864 3.86622 737.864 2.98641 746.716 2.98641C755.568 2.98641 755.568 3.40044 764.421 3.40044C773.273 3.40044 773.273 3.59883 782.125 3.59883C790.978 3.59883 790.978 4.20262 799.84 4.20262C808.703 4.20262 808.693 4.20262 817.545 4.20262C826.397 4.20262 826.397 2.01172 835.26 2.01172C844.122 2.01172 844.112 3.47807 852.974 3.47807C861.837 3.47807 861.827 1.95134 870.689 1.95134C879.551 1.95134 883.025 -2.85312 889.257 2.61551C895.49 8.08414 887.004 11.129 887.004 18.9093C887.004 26.6896 889.495 26.6896 889.495 34.4699C889.495 42.2501 886.994 42.2501 886.994 50.0304C886.994 57.8107 889.783 57.8107 889.783 65.591C889.783 73.3713 888.295 73.3713 888.295 81.1516C888.295 88.9319 887.808 88.9319 887.808 96.7122C887.808 104.492 889.863 104.492 889.863 112.273C889.863 120.053 889.019 120.053 889.019 127.833C889.019 135.614 888.632 135.614 888.632 143.385C888.632 151.157 889.942 151.166 889.942 158.937C889.942 166.709 887.362 166.718 887.362 174.498C887.362 182.278 890.011 182.278 890.011 190.058C890.011 197.839 888.701 197.839 888.701 205.61C888.701 213.382 888.801 213.391 888.801 221.171C888.801 228.951 887.233 228.951 887.233 236.732C887.233 244.512 888.771 244.512 888.771 252.284C888.771 260.055 887.243 260.064 887.243 267.844C887.243 275.624 890.22 275.624 890.22 283.405C890.22 291.185 889.803 291.185 889.803 298.965C889.803 306.746 888.771 306.746 888.771 314.526C888.771 322.306 887.282 322.306 887.282 330.086C887.282 337.867 889.763 337.867 889.763 345.647C889.763 353.427 887.024 353.427 887.024 361.208C887.024 368.988 888.156 368.988 888.156 376.768C888.156 384.549 886.756 384.549 886.756 392.329C886.756 400.109 890.091 400.109 890.091 407.889C890.091 415.67 887.511 415.67 887.511 423.45C887.511 431.23 887.818 431.23 887.818 439.011C887.818 446.791 887.967 446.791 887.967 454.571C887.967 462.351 886.925 462.351 886.925 470.132C886.925 477.912 889.803 477.912 889.803 485.692C889.803 493.473 889.257 493.473 889.257 501.253C889.257 509.033 888.979 509.033 888.979 516.813C888.979 524.594 888.493 524.594 888.493 532.374C888.493 540.154 888.225 540.154 888.225 547.935C888.225 555.715 889.793 555.715 889.793 563.495C889.793 571.276 887.749 571.276 887.749 579.056C887.749 586.836 889.208 586.836 889.208 594.616C889.208 602.397 888.275 602.397 888.275 610.177C888.275 617.957 887.868 617.957 887.868 625.738C887.868 633.518 887.461 633.518 887.461 641.298C887.461 649.078 887.947 649.078 887.947 656.859C887.947 664.639 888.275 664.639 888.275 672.419C888.275 680.2 887.699 680.2 887.699 687.98C887.699 695.76 890.17 695.76 890.17 703.541C890.17 711.321 890.031 711.321 890.031 719.101C890.031 726.881 888.076 726.881 888.076 734.662C888.076 742.442 886.925 742.442 886.925 750.231C886.925 758.02 889.277 758.011 889.277 765.8C889.277 773.589 886.379 773.787 888.344 781.378C890.488 789.667 895.112 791.746 888.821 797.284L888.791 797.258Z" fill="#FFEBC2"/>
</svg>
