<svg width="892" height="632" viewBox="0 0 892 632" fill="none" xmlns="http://www.w3.org/2000/svg">
<path d="M887.898 628.134C879.489 636.596 875.567 628.529 863.623 628.529C851.679 628.529 851.689 626.394 839.745 626.394C827.801 626.394 827.811 626.068 815.867 626.068C803.923 626.068 803.933 627.501 791.999 627.501C780.065 627.501 780.065 626.542 768.131 626.542C756.196 626.542 756.196 626.355 744.252 626.355C732.308 626.355 732.318 625.989 720.384 625.989C708.45 625.989 708.45 626.315 696.506 626.315C684.562 626.315 684.572 628.648 672.638 628.648C660.704 628.648 660.704 628.045 648.76 628.045C636.816 628.045 636.826 629.014 624.891 629.014C612.957 629.014 612.957 626.869 601.013 626.869C589.069 626.869 589.079 628.767 577.135 628.767C565.191 628.767 565.201 626.167 553.267 626.167C541.333 626.167 541.333 629.162 529.389 629.162C517.445 629.162 517.455 626.503 505.511 626.503C493.567 626.503 493.577 626.424 481.633 626.424C469.689 626.424 469.698 626.226 457.754 626.226C445.81 626.226 445.82 626.226 433.876 626.226C421.932 626.226 421.942 626.404 409.998 626.404C398.054 626.404 398.064 626.186 386.12 626.186C374.176 626.186 374.176 626.592 362.242 626.592C350.308 626.592 350.308 629.231 338.364 629.231C326.42 629.231 326.43 629.033 314.486 629.033C302.542 629.033 302.552 626.157 290.607 626.157C278.663 626.157 278.673 627.6 266.729 627.6C254.785 627.6 254.795 628.104 242.851 628.104C230.907 628.104 230.907 629.162 218.973 629.162C207.039 629.162 207.039 628.44 195.095 628.44C183.151 628.44 183.161 627.897 171.217 627.897C159.273 627.897 159.283 627.224 147.339 627.224C135.395 627.224 135.395 626.552 123.461 626.552C111.526 626.552 111.517 628.282 99.5824 628.282C87.6483 628.282 87.6384 625.969 75.7043 625.969C63.7702 625.969 63.7603 627.976 51.8261 627.976C39.892 627.976 39.8821 626.325 27.9381 626.325C15.9941 626.325 11.577 637.06 3.15873 628.608C-5.25953 620.156 5.81295 615.718 5.81295 603.697C5.81295 591.687 2.36642 591.687 2.36642 579.676C2.36642 567.665 4.93151 567.665 4.93151 555.655C4.93151 543.644 3.14882 543.644 3.14882 531.624C3.14882 519.603 4.93151 519.613 4.93151 507.592C4.93151 495.582 2.54469 495.582 2.54469 483.561C2.54469 471.541 3.68363 471.55 3.68363 459.54C3.68363 447.529 2.47536 447.529 2.47536 435.509C2.47536 423.488 2.52488 423.498 2.52488 411.477C2.52488 399.467 4.60468 399.467 4.60468 387.446C4.60468 375.435 3.19834 375.435 3.19834 363.415C3.19834 351.404 2.90123 351.404 2.90123 339.384C2.90123 327.363 3.21815 327.373 3.21815 315.353C3.21815 303.332 4.52545 303.342 4.52545 291.321C4.52545 279.311 5.44651 279.311 5.44651 267.29C5.44651 255.279 3.32709 255.279 3.32709 243.259C3.32709 231.248 3.21815 231.248 3.21815 219.228C3.21815 207.217 5.07016 207.217 5.07016 195.206C5.07016 183.196 4.58488 183.196 4.58488 171.175C4.58488 159.155 5.58516 159.164 5.58516 147.144C5.58516 135.123 5.22863 135.123 5.22863 123.113C5.22863 111.092 4.84238 111.092 4.84238 99.0815C4.84238 87.0709 5.40689 87.061 5.40689 75.0503C5.40689 63.0298 4.82257 63.0298 4.82257 51.0191C4.82257 39.0084 2.8418 38.9986 2.8418 26.978C2.8418 14.9575 -3.25896 12.6443 5.21872 4.11327C13.6964 -4.41776 16.0238 3.98476 27.9579 3.98476C39.892 3.98476 39.892 2.72933 51.8361 2.72933C63.7801 2.72933 63.7702 3.6882 75.7142 3.6882C87.6582 3.6882 87.6483 1.8693 99.5824 1.8693C111.517 1.8693 111.517 2.67002 123.451 2.67002C135.385 2.67002 135.385 3.00612 147.329 3.00612C159.273 3.00612 159.263 3.33233 171.197 3.33233C183.131 3.33233 183.131 2.20541 195.075 2.20541C207.019 2.20541 207.009 1.6024 218.943 1.6024C230.877 1.6024 230.877 2.33391 242.821 2.33391C254.766 2.33391 254.756 3.17417 266.69 3.17417C278.624 3.17417 278.624 4.11327 290.568 4.11327C302.512 4.11327 302.502 3.93534 314.446 3.93534C326.39 3.93534 326.38 3.93534 338.314 3.93534C350.248 3.93534 350.248 2.69967 362.192 2.69967C374.136 2.69967 374.126 3.85625 386.07 3.85625C398.015 3.85625 398.005 1.66171 409.949 1.66171C421.893 1.66171 421.883 3.37187 433.827 3.37187C445.771 3.37187 445.761 2.80841 457.705 2.80841C469.649 2.80841 469.639 1.56286 481.583 1.56286C493.527 1.56286 493.517 3.51027 505.461 3.51027C517.405 3.51027 517.405 1.46401 529.339 1.46401C541.273 1.46401 541.273 2.99623 553.217 2.99623C565.161 2.99623 565.152 2.06701 577.096 2.06701C589.04 2.06701 589.03 1.71114 600.974 1.71114C612.918 1.71114 612.908 1.48378 624.852 1.48378C636.796 1.48378 636.786 1.34538 648.73 1.34538C660.674 1.34538 660.674 3.46084 672.608 3.46084C684.542 3.46084 684.542 3.30268 696.486 3.30268C708.43 3.30268 708.42 3.94522 720.364 3.94522C732.308 3.94522 732.298 2.08678 744.243 2.08678C756.187 2.08678 756.187 3.11486 768.121 3.11486C780.055 3.11486 780.065 2.8183 791.999 2.8183C803.933 2.8183 803.943 3.18405 815.877 3.18405C827.811 3.18405 827.821 1.97804 839.755 1.97804C851.689 1.97804 851.699 3.47073 863.643 3.47073C875.587 3.47073 878.251 -4.59569 886.66 3.86614C895.068 12.328 888.205 15.0267 888.205 27.0373C888.205 39.048 887.997 39.048 887.997 51.0586C887.997 63.0693 888.838 63.0693 888.838 75.08C888.838 87.0906 886.145 87.0906 886.145 99.1112C886.145 111.122 888.749 111.122 888.749 123.142C888.749 135.163 888.799 135.153 888.799 147.174C888.799 159.194 888.799 159.184 888.799 171.195C888.799 183.206 887.085 183.206 887.085 195.226C887.085 207.247 888.264 207.237 888.264 219.257C888.264 231.268 888.848 231.268 888.848 243.289C888.848 255.299 885.877 255.299 885.877 267.32C885.877 279.34 886.66 279.33 886.66 291.351C886.66 303.372 888.244 303.362 888.244 315.382C888.244 327.403 887.095 327.393 887.095 339.413C887.095 351.434 888.611 351.424 888.611 363.445C888.611 375.465 886.927 375.455 886.927 387.476C886.927 399.486 887.541 399.486 887.541 411.507C887.541 423.518 886.214 423.518 886.214 435.528C886.214 447.539 889.244 447.539 889.244 459.56C889.244 471.58 889.175 471.57 889.175 483.591C889.175 495.611 886.986 495.611 886.986 507.622C886.986 519.633 886.253 519.643 886.253 531.653C886.253 539.667 886.253 547.677 886.253 555.684C886.253 567.705 888.403 567.705 888.403 579.716C888.403 591.736 884.075 592.201 886.679 603.935C889.512 616.657 896.385 619.642 887.907 628.183L887.898 628.134Z" fill="#FFEBC2"/>
</svg>
