<svg width="372" height="118" viewBox="0 0 372 118" fill="none" xmlns="http://www.w3.org/2000/svg">
<path d="M367.634 114.485C359.64 122.246 355.996 114.719 344.612 114.719C333.228 114.719 333.228 113.454 321.835 113.454C310.442 113.454 310.451 113.257 299.058 113.257C287.665 113.257 287.674 114.101 276.281 114.101C264.888 114.101 264.897 113.538 253.504 113.538C242.111 113.538 242.12 113.426 230.727 113.426C219.333 113.426 219.343 113.21 207.95 113.21C196.556 113.21 196.566 113.407 185.173 113.407C173.779 113.407 173.789 114.794 162.396 114.794C151.002 114.794 151.012 114.438 139.619 114.438C128.225 114.438 128.225 115.019 116.842 115.019C105.458 115.019 105.448 113.745 94.0647 113.745C82.6811 113.745 82.6713 114.869 71.2877 114.869C59.9041 114.869 59.8943 113.323 48.5106 113.323C37.127 113.323 37.1172 115.104 25.7238 115.104C14.3304 115.104 11.4796 121.506 3.48559 113.745C-4.50842 105.983 3.7501 103.2 3.7501 92.1391C3.7501 81.0787 3.86765 81.0787 3.86765 70.0182C3.86765 58.9578 3.86765 58.9578 3.86765 47.8973C3.86765 36.8369 3.7501 36.8369 3.7501 25.7764C3.7501 14.716 -4.49862 12.1758 3.61294 4.29292C11.7245 -3.58999 14.3206 4.32104 25.714 4.32104C37.1074 4.32104 37.0976 2.75571 48.4911 2.75571C59.8845 2.75571 59.8747 2.86819 71.2681 2.86819C82.6615 2.86819 82.6517 4.57412 94.0451 4.57412C105.439 4.57412 105.429 3.72116 116.822 3.72116C128.216 3.72116 128.206 3.42121 139.599 3.42121C150.993 3.42121 150.983 2.7932 162.376 2.7932C173.77 2.7932 173.76 3.22437 185.153 3.22437C196.547 3.22437 196.537 3.55244 207.93 3.55244C219.324 3.55244 219.314 3.95549 230.707 3.95549C242.101 3.95549 242.101 4.35854 253.484 4.35854C264.868 4.35854 264.878 3.32748 276.261 3.32748C287.645 3.32748 287.655 4.69598 299.038 4.69598C310.422 4.69598 310.432 3.50557 321.815 3.50557C333.199 3.50557 333.209 4.48039 344.602 4.48039C355.996 4.48039 359.944 -4.63042 367.938 3.13064C375.932 10.8917 366.292 14.7066 366.292 25.7671C366.292 36.8275 368.428 36.8275 368.428 47.888C368.428 58.9484 366.841 58.9484 366.841 70.0089C366.841 81.0693 365.459 81.2099 367.928 92.0173C370.583 103.659 375.736 106.602 367.624 114.485H367.634Z" fill="#FFEBC2"/>
</svg>
