<svg width="458" height="134" viewBox="0 0 458 134" fill="none" xmlns="http://www.w3.org/2000/svg">
<path d="M453.579 130.493C444.894 138.215 441.445 130.776 429.606 130.776C417.767 130.776 417.767 129.211 405.928 129.211C394.089 129.211 394.089 128.965 382.25 128.965C370.411 128.965 370.411 130.012 358.562 130.012C346.713 130.012 346.723 129.314 334.884 129.314C323.045 129.314 323.045 129.173 311.206 129.173C299.367 129.173 299.367 128.909 287.528 128.909C275.689 128.909 275.689 129.154 263.849 129.154C252.01 129.154 252.01 130.87 240.171 130.87C228.332 130.87 228.332 130.427 216.483 130.427C204.634 130.427 204.644 131.144 192.805 131.144C180.966 131.144 180.966 129.569 169.127 129.569C157.288 129.569 157.288 130.964 145.449 130.964C133.61 130.964 133.61 129.05 121.761 129.05C109.912 129.05 109.922 131.257 98.073 131.257C86.2241 131.257 86.234 129.305 74.3851 129.305C62.5362 129.305 62.546 129.248 50.6971 129.248C38.8482 129.248 38.8482 129.107 27.0091 129.107C15.1701 129.107 12.7924 137.121 4.09736 129.399C-3.94928 122.243 4.32333 119.678 4.32333 109.146C4.32333 98.6138 4.49036 98.6138 4.49036 88.0912C4.49036 77.5685 4.17596 77.5591 4.17596 67.0364C4.17596 56.5138 2.15202 56.5043 2.15202 45.9817C2.15202 35.459 2.29939 35.4496 2.29939 24.9175C2.29939 14.3854 -3.92963 11.849 4.11701 4.6925C12.8023 -3.02977 15.1504 3.93819 26.9895 3.93819C38.8286 3.93819 38.8286 3.57046 50.6676 3.57046C62.5067 3.57046 62.5067 2.79729 74.3458 2.79729C86.1848 2.79729 86.1848 3.32531 98.0337 3.32531C109.883 3.32531 109.873 3.73075 121.712 3.73075C133.551 3.73075 133.551 4.23048 145.39 4.23048C157.229 4.23048 157.229 4.73022 169.068 4.73022C180.907 4.73022 180.907 3.45731 192.746 3.45731C204.585 3.45731 204.585 5.15452 216.424 5.15452C228.263 5.15452 228.263 3.68361 240.112 3.68361C251.961 3.68361 251.951 4.89051 263.791 4.89051C275.63 4.89051 275.63 2.94815 287.469 2.94815C299.308 2.94815 299.308 5.16395 311.147 5.16395C322.986 5.16395 322.986 2.637 334.835 2.637C346.684 2.637 346.674 4.51335 358.523 4.51335C370.372 4.51335 370.362 3.21216 382.211 3.21216C394.06 3.21216 394.05 4.52278 405.899 4.52278C417.748 4.52278 417.748 2.77843 429.587 2.77843C441.426 2.77843 444.776 -4.03867 453.471 3.68361C461.518 10.8401 454.483 14.4137 454.483 24.9364C454.483 35.459 454.444 35.4685 454.444 45.9911C454.444 56.5138 452.852 56.5232 452.852 67.0459C452.852 77.5685 453.923 77.578 453.923 88.1006C453.923 98.6327 451.703 98.7081 454.129 108.976C456.772 120.149 461.606 123.365 453.56 130.521L453.579 130.493Z" fill="#FFEBC2"/>
</svg>
