<svg width="369" height="16" viewBox="0 0 369 16" fill="none" xmlns="http://www.w3.org/2000/svg">
<path d="M0.292893 7.29289C-0.0976311 7.68342 -0.0976311 8.31658 0.292893 8.70711L6.65685 15.0711C7.04738 15.4616 7.68054 15.4616 8.07107 15.0711C8.46159 14.6805 8.46159 14.0474 8.07107 13.6569L2.41421 8L8.07107 2.34315C8.46159 1.95262 8.46159 1.31946 8.07107 0.928932C7.68054 0.538408 7.04738 0.538408 6.65685 0.928932L0.292893 7.29289ZM1 9H365V7H1V9Z" fill="#7A590C"/>
<path d="M369 8L368.707 8.29344C368.583 8.54054 368.205 8.67954 367.965 9.03475C367.888 9.55212 367.317 9.64479 367 10C366.792 10.4556 366.421 10.749 366.035 10.9653C365.618 11.1429 365.417 11.4595 365.293 11.7066C365.046 11.8301 365 12 365 12L364.707 11.7066C363.903 12.139 364.452 11.0734 363.965 10.9653C363.811 10.5328 363.216 10.4633 363 10C362.707 9.62934 362.459 9.20463 362.035 9.03475C361.903 8.57915 361.741 8.21622 361.293 8.29344L361 8C361 8 361.201 7.97683 361.293 7.70656C361.463 7.51351 361.618 7.14286 362.035 6.96525C362.259 6.60232 362.853 6.5251 363 6C363.34 5.66795 363.533 5.19691 363.965 5.03475C364.104 4.57915 364.467 4.43243 364.707 4.29344C364.977 4.19305 365 4 365 4L365.293 4.29344C365.517 4.43243 365.602 4.87259 366.035 5.03475C366.166 5.49035 366.822 5.50579 367 6C367.51 6.15444 367.826 6.50193 367.965 6.96525C368.351 7.17374 368.776 7.26641 368.707 7.70656L369 8Z" fill="#7A590C"/>
</svg>
