<svg width="129" height="26" viewBox="0 0 129 26" fill="none" xmlns="http://www.w3.org/2000/svg">
<path opacity="0.3" d="M128.097 1.25961C128.646 1.31301 129.049 1.80192 128.995 2.35162L128.125 11.3094C128.072 11.8591 127.583 12.2615 127.033 12.2081C126.483 12.1547 126.081 11.6658 126.134 11.1161L126.908 3.15354L118.945 2.38C118.396 2.3266 117.993 1.83769 118.047 1.28799C118.1 0.738295 118.589 0.335968 119.139 0.38937L128.097 1.25961ZM1.63542 1.48276C2.73083 2.38418 3.84594 3.26252 4.97999 4.11704L3.77641 5.71435C2.61953 4.84263 1.482 3.94663 0.364579 3.02709L1.63542 1.48276ZM11.992 8.94371C14.3917 10.4479 16.8604 11.8521 19.3923 13.1503L18.4797 14.93C15.8965 13.6054 13.3779 12.1729 10.9298 10.6383L11.992 8.94371ZM27.1272 16.7033C29.7441 17.7709 32.417 18.7297 35.1401 19.5742L34.5477 21.4844C31.7691 20.6228 29.0419 19.6445 26.3717 18.5551L27.1272 16.7033ZM43.3715 21.7406C46.1265 22.3395 48.9243 22.8237 51.7598 23.1879L51.505 25.1716C48.6122 24.8 45.7577 24.306 42.9467 23.695L43.3715 21.7406ZM60.2425 23.9101C61.6542 23.9698 63.0735 24 64.5 24V26C63.0453 26 61.5978 25.9692 60.158 25.9083L60.2425 23.9101ZM64.5 24C65.9265 24 67.3458 23.9698 68.7575 23.9101L68.842 25.9083C67.4022 25.9692 65.9547 26 64.5 26V24ZM77.2402 23.1879C80.0757 22.8237 82.8735 22.3395 85.6285 21.7406L86.0533 23.695C83.2423 24.306 80.3878 24.8 77.495 25.1716L77.2402 23.1879ZM93.8599 19.5742C96.583 18.7297 99.2559 17.7709 101.873 16.7033L102.628 18.5551C99.9581 19.6445 97.2309 20.6228 94.4523 21.4844L93.8599 19.5742ZM109.608 13.1503C112.14 11.8521 114.608 10.4479 117.008 8.9437L118.07 10.6383C115.622 12.1729 113.104 13.6054 110.52 14.93L109.608 13.1503ZM124.02 4.11704C125.154 3.26252 126.269 2.38418 127.365 1.48276L128.635 3.02709C127.518 3.94662 126.38 4.84263 125.224 5.71435L124.02 4.11704ZM128.097 1.25961C128.646 1.31301 129.049 1.80192 128.995 2.35162L128.125 11.3094C128.072 11.8591 127.583 12.2615 127.033 12.2081C126.483 12.1547 126.081 11.6658 126.134 11.1161L126.908 3.15354L118.945 2.38C118.396 2.3266 117.993 1.83769 118.047 1.28799C118.1 0.738295 118.589 0.335968 119.139 0.38937L128.097 1.25961ZM1.63542 1.48276C2.73083 2.38418 3.84594 3.26252 4.97999 4.11704L3.77641 5.71435C2.61953 4.84263 1.482 3.94663 0.364579 3.02709L1.63542 1.48276ZM11.992 8.94371C14.3917 10.4479 16.8604 11.8521 19.3923 13.1503L18.4797 14.93C15.8965 13.6054 13.3779 12.1729 10.9298 10.6383L11.992 8.94371ZM27.1272 16.7033C29.7441 17.7709 32.417 18.7297 35.1401 19.5742L34.5477 21.4844C31.7691 20.6228 29.0419 19.6445 26.3717 18.5551L27.1272 16.7033ZM43.3715 21.7406C46.1265 22.3395 48.9243 22.8237 51.7598 23.1879L51.505 25.1716C48.6122 24.8 45.7577 24.306 42.9467 23.695L43.3715 21.7406ZM60.2425 23.9101C61.6542 23.9698 63.0735 24 64.5 24V26C63.0453 26 61.5978 25.9692 60.158 25.9083L60.2425 23.9101ZM64.5 24C65.9265 24 67.3458 23.9698 68.7575 23.9101L68.842 25.9083C67.4022 25.9692 65.9547 26 64.5 26V24ZM77.2402 23.1879C80.0757 22.8237 82.8735 22.3395 85.6285 21.7406L86.0533 23.695C83.2423 24.306 80.3878 24.8 77.495 25.1716L77.2402 23.1879ZM93.8599 19.5742C96.583 18.7297 99.2559 17.7709 101.873 16.7033L102.628 18.5551C99.9581 19.6445 97.2309 20.6228 94.4523 21.4844L93.8599 19.5742ZM109.608 13.1503C112.14 11.8521 114.608 10.4479 117.008 8.9437L118.07 10.6383C115.622 12.1729 113.104 13.6054 110.52 14.93L109.608 13.1503ZM124.02 4.11704C125.154 3.26252 126.269 2.38418 127.365 1.48276L128.635 3.02709C127.518 3.94662 126.38 4.84263 125.224 5.71435L124.02 4.11704Z" fill="#5C4D3D"/>
</svg>
