<svg width="129" height="26" viewBox="0 0 129 26" fill="none" xmlns="http://www.w3.org/2000/svg">
<path opacity="0.3" d="M128.097 24.7404C128.646 24.687 129.049 24.1981 128.995 23.6484L128.125 14.6906C128.072 14.1409 127.583 13.7385 127.033 13.7919C126.483 13.8453 126.081 14.3342 126.134 14.8839L126.908 22.8465L118.945 23.62C118.396 23.6734 117.993 24.1623 118.047 24.712C118.1 25.2617 118.589 25.664 119.139 25.6106L128.097 24.7404ZM1.63542 24.5172C2.73083 23.6158 3.84594 22.7375 4.97999 21.883L3.77641 20.2857C2.61953 21.1574 1.482 22.0534 0.364579 22.9729L1.63542 24.5172ZM11.992 17.0563C14.3917 15.5521 16.8604 14.1479 19.3923 12.8497L18.4797 11.07C15.8965 12.3946 13.3779 13.8271 10.9298 15.3617L11.992 17.0563ZM27.1272 9.2967C29.7441 8.22909 32.417 7.27026 35.1401 6.42582L34.5477 4.51555C31.7691 5.37719 29.0419 6.35555 26.3717 7.44487L27.1272 9.2967ZM43.3715 4.25936C46.1265 3.66049 48.9243 3.1763 51.7598 2.81205L51.505 0.828354C48.6122 1.19996 45.7577 1.69396 42.9467 2.305L43.3715 4.25936ZM60.2425 2.08988C61.6542 2.03016 63.0735 2 64.5 2V0C63.0453 0 61.5978 0.0307589 60.158 0.0916668L60.2425 2.08988ZM64.5 2C65.9265 2 67.3458 2.03016 68.7575 2.08988L68.842 0.0916673C67.4022 0.030759 65.9547 0 64.5 0V2ZM77.2402 2.81205C80.0757 3.1763 82.8735 3.66049 85.6285 4.25936L86.0533 2.305C83.2423 1.69396 80.3878 1.19996 77.495 0.828355L77.2402 2.81205ZM93.8599 6.42582C96.583 7.27026 99.2559 8.22909 101.873 9.2967L102.628 7.44487C99.9581 6.35555 97.2309 5.3772 94.4523 4.51556L93.8599 6.42582ZM109.608 12.8497C112.14 14.1479 114.608 15.5521 117.008 17.0563L118.07 15.3617C115.622 13.8271 113.104 12.3946 110.52 11.07L109.608 12.8497ZM124.02 21.883C125.154 22.7375 126.269 23.6158 127.365 24.5172L128.635 22.9729C127.518 22.0534 126.38 21.1574 125.224 20.2857L124.02 21.883ZM128.097 24.7404C128.646 24.687 129.049 24.1981 128.995 23.6484L128.125 14.6906C128.072 14.1409 127.583 13.7385 127.033 13.7919C126.483 13.8453 126.081 14.3342 126.134 14.8839L126.908 22.8465L118.945 23.62C118.396 23.6734 117.993 24.1623 118.047 24.712C118.1 25.2617 118.589 25.664 119.139 25.6106L128.097 24.7404ZM1.63542 24.5172C2.73083 23.6158 3.84594 22.7375 4.97999 21.883L3.77641 20.2857C2.61953 21.1574 1.482 22.0534 0.364579 22.9729L1.63542 24.5172ZM11.992 17.0563C14.3917 15.5521 16.8604 14.1479 19.3923 12.8497L18.4797 11.07C15.8965 12.3946 13.3779 13.8271 10.9298 15.3617L11.992 17.0563ZM27.1272 9.2967C29.7441 8.22909 32.417 7.27026 35.1401 6.42582L34.5477 4.51555C31.7691 5.37719 29.0419 6.35555 26.3717 7.44487L27.1272 9.2967ZM43.3715 4.25936C46.1265 3.66049 48.9243 3.1763 51.7598 2.81205L51.505 0.828354C48.6122 1.19996 45.7577 1.69396 42.9467 2.305L43.3715 4.25936ZM60.2425 2.08988C61.6542 2.03016 63.0735 2 64.5 2V0C63.0453 0 61.5978 0.0307589 60.158 0.0916668L60.2425 2.08988ZM64.5 2C65.9265 2 67.3458 2.03016 68.7575 2.08988L68.842 0.0916673C67.4022 0.030759 65.9547 0 64.5 0V2ZM77.2402 2.81205C80.0757 3.1763 82.8735 3.66049 85.6285 4.25936L86.0533 2.305C83.2423 1.69396 80.3878 1.19996 77.495 0.828355L77.2402 2.81205ZM93.8599 6.42582C96.583 7.27026 99.2559 8.22909 101.873 9.2967L102.628 7.44487C99.9581 6.35555 97.2309 5.3772 94.4523 4.51556L93.8599 6.42582ZM109.608 12.8497C112.14 14.1479 114.608 15.5521 117.008 17.0563L118.07 15.3617C115.622 13.8271 113.104 12.3946 110.52 11.07L109.608 12.8497ZM124.02 21.883C125.154 22.7375 126.269 23.6158 127.365 24.5172L128.635 22.9729C127.518 22.0534 126.38 21.1574 125.224 20.2857L124.02 21.883Z" fill="#5C4D3D"/>
</svg>
