<svg width="85" height="105" viewBox="0 0 85 105" fill="none" xmlns="http://www.w3.org/2000/svg">
<path opacity="0.3" d="M76.4233 103.942C76.7957 104.35 77.4282 104.379 77.8361 104.006L84.4824 97.9378C84.8902 97.5654 84.919 96.9329 84.5466 96.5251C84.1742 96.1172 83.5417 96.0885 83.1338 96.4609L77.226 101.855L71.8318 95.9473C71.4594 95.5394 70.8269 95.5107 70.419 95.8831C70.0112 96.2555 69.9824 96.888 70.3548 97.2958L76.4233 103.942ZM0.761434 2.61207C2.1397 2.94804 3.5113 3.31361 4.87521 3.70863L5.4316 1.78758C4.04024 1.38461 2.64105 1.01169 1.23509 0.668964L0.761434 2.61207ZM12.9428 6.42514C15.5856 7.44328 18.1897 8.57668 20.747 9.82418L21.6238 8.02665C19.0147 6.75387 16.3579 5.59754 13.6618 4.55885L12.9428 6.42514ZM28.2289 13.883C30.6526 15.3369 33.0228 16.9007 35.3317 18.5734L36.505 16.9537C34.1492 15.247 31.7307 13.6513 29.2577 12.1679L28.2289 13.883ZM42.0018 23.861C44.1332 25.7064 46.1985 27.6549 48.1905 29.7055L49.6251 28.3119C47.5929 26.2199 45.4857 24.2319 43.3109 22.349L42.0018 23.861ZM53.8556 36.0604C54.75 37.1542 55.6253 38.2719 56.4808 39.4134L58.0812 38.214C57.2088 37.0499 56.3161 35.91 55.4039 34.7944L53.8556 36.0604ZM56.4808 39.4134C57.3362 40.5549 58.1633 41.7087 58.9621 42.8742L60.6118 41.7435C59.7971 40.5548 58.9536 39.378 58.0812 38.214L56.4808 39.4134ZM63.4714 50.0953C64.8804 52.5827 66.1709 55.112 67.3438 57.6757L69.1625 56.8436C67.9657 54.2278 66.6491 51.6472 65.2116 49.1095L63.4714 50.0953ZM70.5467 65.5618C71.504 68.2474 72.3397 70.9612 73.0548 73.6956L74.9897 73.1896C74.2601 70.3996 73.4074 67.6305 72.4305 64.8902L70.5467 65.5618ZM74.8504 82.016C75.3299 84.8206 75.6868 87.6382 75.9222 90.4605L77.9153 90.2943C77.6751 87.415 77.311 84.5404 76.8218 81.6789L74.8504 82.016ZM76.265 98.9663C76.2613 100.386 76.2272 101.805 76.1628 103.222L78.1608 103.313C78.2265 101.868 78.2613 100.42 78.265 98.9715L76.265 98.9663ZM76.4233 103.942C76.7957 104.35 77.4282 104.379 77.8361 104.006L84.4824 97.9378C84.8902 97.5654 84.919 96.9329 84.5466 96.5251C84.1742 96.1172 83.5417 96.0885 83.1338 96.4609L77.226 101.855L71.8318 95.9473C71.4594 95.5394 70.8269 95.5107 70.419 95.8831C70.0112 96.2555 69.9824 96.888 70.3548 97.2958L76.4233 103.942ZM0.761434 2.61207C2.1397 2.94804 3.5113 3.31361 4.87521 3.70863L5.4316 1.78758C4.04024 1.38461 2.64105 1.01169 1.23509 0.668964L0.761434 2.61207ZM12.9428 6.42514C15.5856 7.44328 18.1897 8.57668 20.747 9.82418L21.6238 8.02665C19.0147 6.75387 16.3579 5.59754 13.6618 4.55885L12.9428 6.42514ZM28.2289 13.883C30.6526 15.3369 33.0228 16.9007 35.3317 18.5734L36.505 16.9537C34.1492 15.247 31.7307 13.6513 29.2577 12.1679L28.2289 13.883ZM42.0018 23.861C44.1332 25.7064 46.1985 27.6549 48.1905 29.7055L49.6251 28.3119C47.5929 26.2199 45.4857 24.2319 43.3109 22.349L42.0018 23.861ZM53.8556 36.0604C54.75 37.1542 55.6253 38.2719 56.4808 39.4134L58.0812 38.214C57.2088 37.0499 56.3161 35.91 55.4039 34.7944L53.8556 36.0604ZM56.4808 39.4134C57.3362 40.5549 58.1633 41.7087 58.9621 42.8742L60.6118 41.7435C59.7971 40.5548 58.9536 39.378 58.0812 38.214L56.4808 39.4134ZM63.4714 50.0953C64.8804 52.5827 66.1709 55.112 67.3438 57.6757L69.1625 56.8436C67.9657 54.2278 66.6491 51.6472 65.2116 49.1095L63.4714 50.0953ZM70.5467 65.5618C71.504 68.2474 72.3397 70.9612 73.0548 73.6956L74.9897 73.1896C74.2601 70.3996 73.4074 67.6305 72.4305 64.8902L70.5467 65.5618ZM74.8504 82.016C75.3299 84.8206 75.6868 87.6382 75.9222 90.4605L77.9153 90.2943C77.6751 87.415 77.311 84.5404 76.8218 81.6789L74.8504 82.016ZM76.265 98.9663C76.2613 100.386 76.2272 101.805 76.1628 103.222L78.1608 103.313C78.2265 101.868 78.2613 100.42 78.265 98.9715L76.265 98.9663Z" fill="#5C4D3D"/>
</svg>
