<svg width="384" height="164" viewBox="0 0 384 164" fill="none" xmlns="http://www.w3.org/2000/svg">
<path d="M384 81.629C384 72.2663 381.6 92.1849 377.16 100.852C372.68 116.164 366.12 110.546 357.8 121.781C349.48 134.127 339.36 136.927 327.76 139.314C316.16 138.435 303.12 144.202 288.92 150.317C274.68 148.378 259.32 160.889 243.04 160.061C226.8 163.325 209.68 166.441 192 161.171C174.32 157.061 157.2 157.376 140.96 156.415C124.72 150.367 109.32 148.527 95.08 150.317C80.84 144.881 67.8 132.122 56.24 135.254C44.64 139.33 34.56 131.061 26.2 121.781C17.88 114.622 11.32 97.5374 6.84 105.674C2.36 99.1117 0 95.7643 0 81.629C0 51.6848 2.4 56.3247 6.84 53.7562C11.32 55.1482 17.88 47.2934 26.2 41.4769C34.52 36.5386 44.64 15.5594 56.24 27.0102C67.84 17.0011 80.88 11.9469 95.08 12.9412C109.32 19.5531 124.68 12.4938 140.96 3.57842C157.2 7.27381 174.32 -4.60778 192 2.08701C209.68 3.51214 226.8 2.46815 243.04 0.695023C259.28 -0.199824 274.68 1.07616 288.92 12.9412C303.16 33.2575 316.2 23.9942 327.76 27.2753C339.36 36.1906 349.44 27.5073 357.8 41.4769C366.12 48.1551 372.68 39.7535 377.16 57.899C381.64 63.4006 384 81.6953 384 81.6124V81.629Z" fill="#4C6545"/>
</svg>
