<svg width="107" height="91" viewBox="0 0 107 91" fill="none" xmlns="http://www.w3.org/2000/svg">
<path opacity="0.3" d="M98.8806 0.713737C99.3142 0.371658 99.943 0.445847 100.285 0.87944L105.86 7.9452C106.202 8.37879 106.127 9.00759 105.694 9.34967C105.26 9.69175 104.631 9.61757 104.289 9.18398L99.3343 2.9033L93.0536 7.85841C92.62 8.20049 91.9912 8.1263 91.6492 7.69271C91.3071 7.25912 91.3813 6.63032 91.8148 6.28824L98.8806 0.713737ZM0.00561789 88.9988C1.27836 89.006 2.61179 88.9802 3.99902 88.9186L4.08788 90.9166C2.66863 90.9797 1.30178 91.0062 -0.00561789 90.9988L0.00561789 88.9988ZM12.025 88.2112C14.573 87.8811 17.2292 87.4403 19.9632 86.876L20.3675 88.8348C17.5844 89.4092 14.879 89.8581 12.2819 90.1946L12.025 88.2112ZM27.7876 84.9651C30.3131 84.2515 32.8766 83.4318 35.4572 82.497L36.1384 84.3774C33.5111 85.3291 30.9017 86.1635 28.3314 86.8897L27.7876 84.9651ZM42.9247 79.4756C45.3384 78.3924 47.749 77.2023 50.1396 75.8982L51.0974 77.6539C48.6597 78.9837 46.2026 80.1967 43.7436 81.3003L42.9247 79.4756ZM57.0446 71.7619C59.2581 70.3095 61.4388 68.7487 63.5725 67.0732L64.8077 68.6462C62.6279 70.3578 60.401 71.9517 58.1418 73.4341L57.0446 71.7619ZM69.6689 61.8376C71.5966 60.0274 73.4694 58.1082 75.2749 56.0749L76.7704 57.4028C74.9238 59.4825 73.0088 61.4449 71.038 63.2955L69.6689 61.8376ZM80.3289 49.8297C81.8886 47.711 83.3791 45.4871 84.7901 43.1535L86.5016 44.1884C85.059 46.5742 83.5348 48.8484 81.9395 51.0154L80.3289 49.8297ZM88.6441 36.0876C89.7961 33.7349 90.8723 31.2848 91.8646 28.7339L93.7285 29.459C92.716 32.062 91.6172 34.5636 90.4403 36.9671L88.6441 36.0876ZM94.4793 21.1181C95.2327 18.606 95.9095 16.0065 96.5036 13.3169L98.4566 13.7482C97.852 16.4853 97.1628 19.1326 96.395 21.6927L94.4793 21.1181ZM97.9666 5.40952C98.1658 4.0868 98.3461 2.74427 98.5069 1.38166L100.493 1.61599C100.33 2.9996 100.147 4.36332 99.9443 5.70741L97.9666 5.40952ZM98.8806 0.713737C99.3142 0.371658 99.943 0.445847 100.285 0.87944L105.86 7.9452C106.202 8.37879 106.127 9.00759 105.694 9.34967C105.26 9.69175 104.631 9.61757 104.289 9.18398L99.3343 2.9033L93.0536 7.85841C92.62 8.20049 91.9912 8.1263 91.6492 7.69271C91.3071 7.25912 91.3813 6.63032 91.8148 6.28824L98.8806 0.713737ZM0.00561789 88.9988C1.27836 89.006 2.61179 88.9802 3.99902 88.9186L4.08788 90.9166C2.66863 90.9797 1.30178 91.0062 -0.00561789 90.9988L0.00561789 88.9988ZM12.025 88.2112C14.573 87.8811 17.2292 87.4403 19.9632 86.876L20.3675 88.8348C17.5844 89.4092 14.879 89.8581 12.2819 90.1946L12.025 88.2112ZM27.7876 84.9651C30.3131 84.2515 32.8766 83.4318 35.4572 82.497L36.1384 84.3774C33.5111 85.3291 30.9017 86.1635 28.3314 86.8897L27.7876 84.9651ZM42.9247 79.4756C45.3384 78.3924 47.749 77.2023 50.1396 75.8982L51.0974 77.6539C48.6597 78.9837 46.2026 80.1967 43.7436 81.3003L42.9247 79.4756ZM57.0446 71.7619C59.2581 70.3095 61.4388 68.7487 63.5725 67.0732L64.8077 68.6462C62.6279 70.3578 60.401 71.9517 58.1418 73.4341L57.0446 71.7619ZM69.6689 61.8376C71.5966 60.0274 73.4694 58.1082 75.2749 56.0749L76.7704 57.4028C74.9238 59.4825 73.0088 61.4449 71.038 63.2955L69.6689 61.8376ZM80.3289 49.8297C81.8886 47.711 83.3791 45.4871 84.7901 43.1535L86.5016 44.1884C85.059 46.5742 83.5348 48.8484 81.9395 51.0154L80.3289 49.8297ZM88.6441 36.0876C89.7961 33.7349 90.8723 31.2848 91.8646 28.7339L93.7285 29.459C92.716 32.062 91.6172 34.5636 90.4403 36.9671L88.6441 36.0876ZM94.4793 21.1181C95.2327 18.606 95.9095 16.0065 96.5036 13.3169L98.4566 13.7482C97.852 16.4853 97.1628 19.1326 96.395 21.6927L94.4793 21.1181ZM97.9666 5.40952C98.1658 4.0868 98.3461 2.74427 98.5069 1.38166L100.493 1.61599C100.33 2.9996 100.147 4.36332 99.9443 5.70741L97.9666 5.40952Z" fill="#5C4D3D"/>
</svg>
