<svg width="107" height="91" viewBox="0 0 107 91" fill="none" xmlns="http://www.w3.org/2000/svg">
<path opacity="0.3" d="M98.8806 90.2863C99.3142 90.6283 99.943 90.5542 100.285 90.1206L105.86 83.0548C106.202 82.6212 106.127 81.9924 105.694 81.6503C105.26 81.3083 104.631 81.3824 104.289 81.816L99.3343 88.0967L93.0536 83.1416C92.62 82.7995 91.9912 82.8737 91.6492 83.3073C91.3071 83.7409 91.3813 84.3697 91.8148 84.7118L98.8806 90.2863ZM0.00561789 2.00116C1.27836 1.99401 2.61179 2.01975 3.99902 2.08145L4.08788 0.0834243C2.66863 0.0203022 1.30178 -0.00615144 -0.00561789 0.00119346L0.00561789 2.00116ZM12.025 2.78882C14.573 3.11893 17.2292 3.55965 19.9632 4.12396L20.3675 2.16525C17.5844 1.59081 14.879 1.14186 12.2819 0.805392L12.025 2.78882ZM27.7876 6.0349C30.3131 6.74847 32.8766 7.56822 35.4572 8.50304L36.1384 6.62261C33.5111 5.67089 30.9017 4.83648 28.3314 4.11025L27.7876 6.0349ZM42.9247 11.5244C45.3384 12.6076 47.749 13.7977 50.1396 15.1018L51.0974 13.3461C48.6597 12.0163 46.2026 10.8033 43.7436 9.69969L42.9247 11.5244ZM57.0446 19.2381C59.2581 20.6905 61.4388 22.2513 63.5725 23.9268L64.8077 22.3538C62.6279 20.6422 60.401 19.0483 58.1418 17.5659L57.0446 19.2381ZM69.6689 29.1624C71.5966 30.9726 73.4694 32.8918 75.2749 34.9251L76.7704 33.5972C74.9238 31.5175 73.0088 29.5551 71.038 27.7045L69.6689 29.1624ZM80.3289 41.1703C81.8886 43.289 83.3791 45.5129 84.7901 47.8465L86.5016 46.8116C85.059 44.4258 83.5348 42.1516 81.9395 39.9846L80.3289 41.1703ZM88.6441 54.9124C89.7961 57.2651 90.8723 59.7152 91.8646 62.2661L93.7285 61.541C92.716 58.938 91.6172 56.4364 90.4403 54.0329L88.6441 54.9124ZM94.4793 69.8819C95.2327 72.394 95.9095 74.9935 96.5036 77.6831L98.4566 77.2518C97.852 74.5147 97.1628 71.8674 96.395 69.3073L94.4793 69.8819ZM97.9666 85.5905C98.1658 86.9132 98.3461 88.2557 98.5069 89.6183L100.493 89.384C100.33 88.0004 100.147 86.6367 99.9443 85.2926L97.9666 85.5905ZM98.8806 90.2863C99.3142 90.6283 99.943 90.5542 100.285 90.1206L105.86 83.0548C106.202 82.6212 106.127 81.9924 105.694 81.6503C105.26 81.3083 104.631 81.3824 104.289 81.816L99.3343 88.0967L93.0536 83.1416C92.62 82.7995 91.9912 82.8737 91.6492 83.3073C91.3071 83.7409 91.3813 84.3697 91.8148 84.7118L98.8806 90.2863ZM0.00561789 2.00116C1.27836 1.99401 2.61179 2.01975 3.99902 2.08145L4.08788 0.0834243C2.66863 0.0203022 1.30178 -0.00615144 -0.00561789 0.00119346L0.00561789 2.00116ZM12.025 2.78882C14.573 3.11893 17.2292 3.55965 19.9632 4.12396L20.3675 2.16525C17.5844 1.59081 14.879 1.14186 12.2819 0.805392L12.025 2.78882ZM27.7876 6.0349C30.3131 6.74847 32.8766 7.56822 35.4572 8.50304L36.1384 6.62261C33.5111 5.67089 30.9017 4.83648 28.3314 4.11025L27.7876 6.0349ZM42.9247 11.5244C45.3384 12.6076 47.749 13.7977 50.1396 15.1018L51.0974 13.3461C48.6597 12.0163 46.2026 10.8033 43.7436 9.69969L42.9247 11.5244ZM57.0446 19.2381C59.2581 20.6905 61.4388 22.2513 63.5725 23.9268L64.8077 22.3538C62.6279 20.6422 60.401 19.0483 58.1418 17.5659L57.0446 19.2381ZM69.6689 29.1624C71.5966 30.9726 73.4694 32.8918 75.2749 34.9251L76.7704 33.5972C74.9238 31.5175 73.0088 29.5551 71.038 27.7045L69.6689 29.1624ZM80.3289 41.1703C81.8886 43.289 83.3791 45.5129 84.7901 47.8465L86.5016 46.8116C85.059 44.4258 83.5348 42.1516 81.9395 39.9846L80.3289 41.1703ZM88.6441 54.9124C89.7961 57.2651 90.8723 59.7152 91.8646 62.2661L93.7285 61.541C92.716 58.938 91.6172 56.4364 90.4403 54.0329L88.6441 54.9124ZM94.4793 69.8819C95.2327 72.394 95.9095 74.9935 96.5036 77.6831L98.4566 77.2518C97.852 74.5147 97.1628 71.8674 96.395 69.3073L94.4793 69.8819ZM97.9666 85.5905C98.1658 86.9132 98.3461 88.2557 98.5069 89.6183L100.493 89.384C100.33 88.0004 100.147 86.6367 99.9443 85.2926L97.9666 85.5905Z" fill="#5C4D3D"/>
</svg>
