<svg width="66" height="40" viewBox="0 0 66 40" fill="none" xmlns="http://www.w3.org/2000/svg">
<path d="M64.7356 38.7878C61.94 41.4339 60.6459 38.9187 56.6946 38.9187C52.7433 38.9187 52.7433 38.1988 48.792 38.1988C44.8407 38.1988 44.8407 38.0866 40.8894 38.0866C36.9381 38.0866 36.9381 38.5728 32.9868 38.5728C29.0354 38.5728 29.0354 38.2455 25.0841 38.2455C21.1328 38.2455 21.1328 38.1801 17.1815 38.1801C13.2302 38.1801 13.2302 38.0585 9.27888 38.0585C5.32757 38.0585 4.52743 40.9571 1.73187 38.311C-1.06368 35.6649 1.04039 34.9169 1.04039 31.1768C1.04039 27.4367 1.25771 27.4367 1.25771 23.6967C1.25771 19.9566 0.911974 19.9566 0.911974 16.2165C0.911974 12.4765 1.68248 12.4765 1.68248 8.7364C1.68248 4.99634 -1.68601 3.64991 1.10954 1.00382C3.90509 -1.64228 5.31769 1.77988 9.269 1.77988C13.2203 1.77988 13.2203 0.760711 17.1716 0.760711C21.1229 0.760711 21.1229 1.65833 25.0743 1.65833C29.0256 1.65833 29.0256 1.68638 32.9769 1.68638C36.9282 1.68638 36.9282 1.75183 40.8795 1.75183C44.8308 1.75183 44.8308 1.75183 48.7821 1.75183C52.7334 1.75183 52.7334 1.68638 56.6848 1.68638C60.6361 1.68638 61.4066 -1.03452 64.2021 1.61158C66.9977 4.25767 64.1824 4.97763 64.1824 8.7177C64.1824 12.4578 65.1307 12.4578 65.1307 16.1978C65.1307 19.9379 65.0615 19.9379 65.0615 23.678C65.0615 27.418 63.1847 27.6237 64.0441 31.2796C64.9825 35.2535 67.5212 36.1324 64.7257 38.7785L64.7356 38.7878Z" fill="#FFEBC2"/>
</svg>
