<svg width="328" height="8" viewBox="0 0 328 8" fill="none" xmlns="http://www.w3.org/2000/svg">
<line y1="3.5" x2="328" y2="3.5" stroke="#BFA98D"/>
<path d="M8 4L7.70656 4.29344C7.58301 4.54054 7.20463 4.67954 6.96525 5.03475C6.88803 5.55212 6.3166 5.64479 6 6C5.79151 6.4556 5.42085 6.74903 5.03475 6.96525C4.61776 7.14286 4.41699 7.45946 4.29344 7.70656C4.04633 7.83012 4 8 4 8L3.70656 7.70656C2.90347 8.139 3.45174 7.07336 2.96525 6.96525C2.81081 6.53282 2.21622 6.46332 2 6C1.70656 5.62934 1.45946 5.20463 1.03475 5.03475C0.903475 4.57915 0.741313 4.21622 0.293436 4.29344L0 4C0 4 0.200772 3.97683 0.293436 3.70656C0.46332 3.51351 0.617761 3.14286 1.03475 2.96525C1.25869 2.60232 1.85328 2.5251 2 2C2.33977 1.66795 2.53282 1.19691 2.96525 1.03475C3.10425 0.579151 3.46718 0.432432 3.70656 0.293436C3.97683 0.19305 4 0 4 0L4.29344 0.293436C4.51737 0.432432 4.60232 0.872587 5.03475 1.03475C5.16602 1.49035 5.82239 1.50579 6 2C6.50965 2.15444 6.82625 2.50193 6.96525 2.96525C7.35135 3.17374 7.77606 3.26641 7.70656 3.70656L8 4Z" fill="#534A3C"/>
<path d="M328 4L327.707 4.29344C327.583 4.54054 327.205 4.67954 326.965 5.03475C326.888 5.55212 326.317 5.64479 326 6C325.792 6.4556 325.421 6.74903 325.035 6.96525C324.618 7.14286 324.417 7.45946 324.293 7.70656C324.046 7.83012 324 8 324 8L323.707 7.70656C322.903 8.139 323.452 7.07336 322.965 6.96525C322.811 6.53282 322.216 6.46332 322 6C321.707 5.62934 321.459 5.20463 321.035 5.03475C320.903 4.57915 320.741 4.21622 320.293 4.29344L320 4C320 4 320.201 3.97683 320.293 3.70656C320.463 3.51351 320.618 3.14286 321.035 2.96525C321.259 2.60232 321.853 2.5251 322 2C322.34 1.66795 322.533 1.19691 322.965 1.03475C323.104 0.579151 323.467 0.432432 323.707 0.293436C323.977 0.19305 324 0 324 0L324.293 0.293436C324.517 0.432432 324.602 0.872587 325.035 1.03475C325.166 1.49035 325.822 1.50579 326 2C326.51 2.15444 326.826 2.50193 326.965 2.96525C327.351 3.17374 327.776 3.26641 327.707 3.70656L328 4Z" fill="#534A3C"/>
</svg>
