<svg width="1928" height="150" viewBox="0 0 1928 150" fill="none" xmlns="http://www.w3.org/2000/svg">
<path d="M1924.18 109.461C1921.43 92.589 1922.57 92.3103 1922.57 75.0538C1922.57 57.7974 1924.22 57.7974 1924.22 40.5409C1924.22 23.2844 1932.85 18.4393 1924.03 5.76246C1915.88 -5.94539 1911.81 3.81115 1899.81 3.81115C1887.82 3.81115 1887.81 7.51465 1875.81 7.51465C1863.81 7.51465 1863.81 3.90407 1851.8 3.90407C1839.79 3.90407 1839.8 5.72264 1827.79 5.72264C1815.79 5.72264 1815.8 5.17839 1803.79 5.17839C1791.78 5.17839 1791.79 3.99699 1779.78 3.99699C1767.77 3.99699 1767.78 6.86422 1755.78 6.86422C1743.79 6.86422 1743.79 6.17396 1731.79 6.17396C1719.79 6.17396 1719.79 4.10318 1707.79 4.10318C1695.79 4.10318 1695.79 7.99252 1683.79 7.99252C1671.8 7.99252 1671.8 4.50141 1659.8 4.50141C1647.8 4.50141 1647.8 7.97925 1635.8 7.97925C1623.8 7.97925 1623.8 4.35539 1611.81 4.35539C1599.81 4.35539 1599.81 3.7846 1587.81 3.7846C1575.81 3.7846 1575.81 6.24033 1563.81 6.24033C1551.81 6.24033 1551.81 3.89079 1539.82 3.89079C1527.82 3.89079 1527.82 7.40846 1515.82 7.40846C1503.82 7.40846 1503.82 7.40846 1491.82 7.40846C1479.82 7.40846 1479.82 6.43944 1467.83 6.43944C1455.83 6.43944 1455.83 6.12086 1443.83 6.12086C1431.83 6.12086 1431.83 5.45715 1419.83 5.45715C1407.83 5.45715 1407.83 6.87749 1395.84 6.87749C1383.84 6.87749 1383.84 4.89963 1371.84 4.89963C1359.84 4.89963 1359.84 5.08547 1347.84 5.08547C1335.84 5.08547 1335.84 7.34209 1323.85 7.34209C1311.85 7.34209 1311.85 6.81112 1299.85 6.81112C1287.85 6.81112 1287.85 6.86422 1275.85 6.86422C1263.85 6.86422 1263.85 3.93062 1251.86 3.93062C1239.86 3.93062 1239.86 5.49697 1227.86 5.49697C1215.86 5.49697 1215.86 5.0722 1203.86 5.0722C1191.87 5.0722 1191.87 6.82439 1179.87 6.82439C1167.87 6.82439 1167.87 6.21378 1155.87 6.21378C1143.87 6.21378 1143.87 4.20938 1131.87 4.20938C1119.88 4.20938 1119.88 6.53236 1107.88 6.53236C1095.88 6.53236 1095.88 8.31111 1083.88 8.31111C1071.88 8.31111 1071.88 4.40849 1059.88 4.40849C1047.89 4.40849 1047.89 7.15625 1035.89 7.15625C1023.89 7.15625 1023.89 3.50584 1011.89 3.50584C999.892 3.50584 999.892 7.26244 987.894 7.26244C975.896 7.26244 975.896 4.75362 963.898 4.75362C951.899 4.75362 951.899 7.85978 939.901 7.85978C927.903 7.85978 927.903 7.85978 915.904 7.85978C903.906 7.85978 903.906 6.81112 891.908 6.81112C879.91 6.81112 879.91 3.65186 867.911 3.65186C855.913 3.65186 855.913 3.54567 843.915 3.54567C831.916 3.54567 831.916 7.92615 819.918 7.92615C807.92 7.92615 807.92 6.00139 795.922 6.00139C783.923 6.00139 783.923 6.89077 771.925 6.89077C759.927 6.89077 759.927 4.46159 747.928 4.46159C735.93 4.46159 735.93 6.65183 723.932 6.65183C711.934 6.65183 711.934 5.00583 699.935 5.00583C687.937 5.00583 687.937 7.28899 675.939 7.28899C663.94 7.28899 663.94 8.4173 651.942 8.4173C639.944 8.4173 639.944 4.12973 627.946 4.12973C615.947 4.12973 615.947 4.97928 603.949 4.97928C591.951 4.97928 591.951 6.67838 579.952 6.67838C567.954 6.67838 567.954 4.1961 555.956 4.1961C543.957 4.1961 543.957 4.1961 531.959 4.1961C519.961 4.1961 519.961 4.26247 507.963 4.26247C495.964 4.26247 495.964 8.01907 483.966 8.01907C471.968 8.01907 471.968 4.143 459.969 4.143C447.971 4.143 447.971 5.35096 435.973 5.35096C423.975 5.35096 423.975 5.05892 411.976 5.05892C399.978 5.05892 399.978 7.80669 387.98 7.80669C375.981 7.80669 375.981 6.7182 363.983 6.7182C351.985 6.7182 351.985 4.56778 339.987 4.56778C327.988 4.56778 327.988 6.3067 315.99 6.3067C303.992 6.3067 303.992 5.77573 291.993 5.77573C279.995 5.77573 279.995 6.20051 267.997 6.20051C255.999 6.20051 255.999 4.72707 244 4.72707C232.002 4.72707 232.002 7.42173 220.004 7.42173C208.005 7.42173 208.005 6.49254 196.007 6.49254C184.009 6.49254 184.009 6.73148 172.011 6.73148C160.012 6.73148 160.012 3.66513 148.014 3.66513C136.016 3.66513 136.016 3.86425 124.017 3.86425C112.019 3.86425 112.019 4.1961 100.021 4.1961C88.0225 4.1961 88.0225 4.7138 76.0243 4.7138C64.026 4.7138 64.026 6.05449 52.0277 6.05449C40.0294 6.05449 40.0294 3.8377 28.0311 3.8377C16.0328 3.8377 12.6333 -5.17549 4.50446 6.51909C-4.31429 19.196 2.53474 23.2844 2.53474 40.5409C2.53474 57.7974 3.88454 57.7974 3.88454 75.0538C3.88454 92.3103 4.50446 92.3103 4.50446 109.567C4.50446 126.823 4.10451 150 4.10451 150H1923.83C1923.83 150 1927.16 127.66 1924.19 109.447L1924.18 109.461Z" fill="#FFEBC2"/>
</svg>
