<svg width="328" height="80" viewBox="0 0 328 80" fill="none" xmlns="http://www.w3.org/2000/svg">
<path d="M325.794 77.8554C320.666 82.4438 318.57 78.0533 311.551 78.0533C304.533 78.0533 304.533 76.9321 297.515 76.9321C290.497 76.9321 290.497 76.7625 283.479 76.7625C276.461 76.7625 276.461 77.5162 269.442 77.5162C262.424 77.5162 262.424 77.0169 255.406 77.0169C248.388 77.0169 248.388 76.9132 241.37 76.9132C234.352 76.9132 234.352 76.7248 227.334 76.7248C220.315 76.7248 220.315 76.8944 213.307 76.8944C206.299 76.8944 206.289 78.1192 199.271 78.1192C192.253 78.1192 192.253 77.7989 185.235 77.7989C178.216 77.7989 178.216 78.3076 171.198 78.3076C164.18 78.3076 164.18 77.177 157.162 77.177C150.144 77.177 150.144 78.1757 143.126 78.1757C136.108 78.1757 136.108 76.8096 129.089 76.8096C122.071 76.8096 122.071 78.383 115.053 78.383C108.035 78.383 108.035 76.9886 101.017 76.9886C93.9986 76.9886 93.9986 76.9509 86.9805 76.9509C79.9623 76.9509 79.9623 76.8473 72.9442 76.8473C65.926 76.8473 65.926 76.8473 58.9079 76.8473C51.8897 76.8473 51.8897 76.9415 44.8716 76.9415C37.8534 76.9415 37.8534 76.8284 30.8353 76.8284C23.8171 76.8284 23.8171 77.0451 16.7891 77.0451C9.76115 77.0451 7.31021 82.8112 2.1721 78.2228C-2.6215 73.936 2.01461 71.3638 2.01461 65.0889C2.01461 58.8141 3.58951 58.8141 3.58951 52.5298C3.58951 46.2455 2.79222 46.2455 2.79222 39.9706C2.79222 33.6957 2.51661 33.6863 2.51661 27.4114C2.51661 21.1365 1.93587 21.1271 1.93587 14.8428C1.93587 8.5585 -2.32621 6.27844 2.4674 1.99155C7.59566 -2.59684 9.75131 2.17999 16.7695 2.17999C23.7876 2.17999 23.7876 2.53801 30.8058 2.53801C37.8239 2.53801 37.8239 2.89604 44.8421 2.89604C51.8602 2.89604 51.8602 1.98213 58.8784 1.98213C65.8965 1.98213 65.8965 3.19753 72.9147 3.19753C79.9328 3.19753 79.9328 2.1423 86.9509 2.1423C93.9691 2.1423 93.9691 3.0091 100.987 3.0091C108.005 3.0091 108.005 1.61468 115.014 1.61468C122.022 1.61468 122.032 3.19753 129.05 3.19753C136.068 3.19753 136.068 1.38856 143.086 1.38856C150.104 1.38856 150.104 2.73587 157.123 2.73587C164.141 2.73587 164.141 1.80312 171.159 1.80312C178.177 1.80312 178.177 2.73587 185.195 2.73587C192.213 2.73587 192.213 1.48278 199.231 1.48278C206.25 1.48278 206.25 2.07635 213.268 2.07635C220.286 2.07635 220.286 1.44509 227.304 1.44509C234.322 1.44509 234.322 1.47335 241.34 1.47335C248.359 1.47335 248.359 2.56628 255.377 2.56628C262.395 2.56628 262.395 1.83138 269.413 1.83138C276.431 1.83138 276.431 1.67121 283.449 1.67121C290.467 1.67121 290.467 1.8408 297.486 1.8408C304.504 1.8408 304.504 2.52859 311.532 2.52859C318.56 2.52859 319.928 -1.77715 325.056 2.81124C329.85 7.09813 325.972 8.5585 325.972 14.8334C325.972 21.1083 326.031 21.1083 326.031 27.3926C326.031 33.6769 325.017 33.6769 325.017 39.9517C325.017 46.2266 325.283 46.236 325.283 52.5109C325.283 58.7858 323.294 59.1344 324.751 65.2585C326.336 71.9385 330.578 73.5685 325.785 77.8648L325.794 77.8554Z" fill="#FFEBC2"/>
</svg>
