<svg width="1200" height="56" viewBox="0 0 1200 56" fill="none" xmlns="http://www.w3.org/2000/svg">
<path d="M1196.88 53.3503C1190.71 59.1616 1187.7 53.6022 1178.8 53.6022C1169.9 53.6022 1169.9 52.2978 1160.99 52.2978C1152.09 52.2978 1152.09 52.0909 1143.18 52.0909C1134.28 52.0909 1134.28 52.9635 1125.37 52.9635C1116.47 52.9635 1116.47 52.3788 1107.56 52.3788C1098.65 52.3788 1098.66 52.2618 1089.75 52.2618C1080.85 52.2618 1080.85 52.0369 1071.94 52.0369C1063.03 52.0369 1063.04 52.2348 1054.13 52.2348C1045.23 52.2348 1045.23 53.6652 1036.32 53.6652C1027.42 53.6652 1027.42 53.2964 1018.51 53.2964C1009.6 53.2964 1009.61 53.8901 1000.7 53.8901C991.793 53.8901 991.802 52.5767 982.893 52.5767C973.983 52.5767 973.983 53.7371 965.083 53.7371C956.183 53.7371 956.183 52.1449 947.273 52.1449C938.373 52.1449 938.373 53.98 929.464 53.98C920.564 53.98 920.564 52.3518 911.654 52.3518C902.754 52.3518 902.754 52.3068 893.844 52.3068C884.934 52.3068 884.934 52.1899 876.034 52.1899C867.135 52.1899 867.135 52.1899 858.225 52.1899C849.315 52.1899 849.315 52.2978 840.415 52.2978C831.515 52.2978 831.515 52.1629 822.605 52.1629C813.695 52.1629 813.695 52.4148 804.796 52.4148C795.896 52.4148 795.896 54.034 786.986 54.034C778.076 54.034 778.076 53.9171 769.176 53.9171C760.276 53.9171 760.276 52.1629 751.367 52.1629C742.467 52.1629 742.467 53.0445 733.567 53.0445C724.667 53.0445 724.667 53.3503 715.757 53.3503C706.847 53.3503 706.857 53.998 697.947 53.998C689.047 53.998 689.047 53.5572 680.138 53.5572C671.228 53.5572 671.238 53.2244 662.328 53.2244C653.428 53.2244 653.428 52.8106 644.518 52.8106C635.618 52.8106 635.618 52.3968 626.708 52.3968C617.799 52.3968 617.809 53.4583 608.899 53.4583C599.989 53.4583 599.999 52.0459 591.089 52.0459C582.189 52.0459 582.189 53.2694 573.279 53.2694C564.37 53.2694 564.37 52.2618 555.47 52.2618C546.57 52.2618 546.57 53.8811 537.66 53.8811C528.75 53.8811 528.75 52.0369 519.85 52.0369C510.95 52.0369 510.95 54.142 502.041 54.142C493.131 54.142 493.131 52.5767 484.231 52.5767C475.331 52.5767 475.331 53.6652 466.421 53.6652C457.511 53.6652 457.511 52.5767 448.611 52.5767C439.712 52.5767 439.702 54.034 430.802 54.034C421.902 54.034 421.902 53.3413 412.992 53.3413C404.082 53.3413 404.082 54.079 395.182 54.079C386.282 54.079 386.273 54.052 377.373 54.052C368.463 54.052 368.463 52.7836 359.563 52.7836C350.653 52.7836 350.653 53.6382 341.753 53.6382C332.843 53.6382 332.843 53.8181 323.944 53.8181C315.044 53.8181 315.034 53.6202 306.134 53.6202C297.234 53.6202 297.224 52.8196 288.324 52.8196C279.414 52.8196 279.414 52.2528 270.514 52.2528C261.605 52.2528 261.605 53.5482 252.705 53.5482C243.805 53.5482 243.795 53.6112 234.895 53.6112C225.995 53.6112 225.995 52.4777 217.085 52.4777C208.185 52.4777 208.185 52.7746 199.276 52.7746C190.366 52.7746 190.366 52.1629 181.466 52.1629C172.556 52.1629 172.556 52.3788 163.656 52.3788C154.746 52.3788 154.746 52.6127 145.846 52.6127C136.937 52.6127 136.937 52.2618 128.037 52.2618C119.137 52.2618 119.127 52.6217 110.227 52.6217C101.327 52.6217 101.317 53.8361 92.4074 53.8361C83.4976 53.8361 83.4976 52.1269 74.5977 52.1269C65.6978 52.1269 65.6879 52.4957 56.7781 52.4957C47.8682 52.4957 47.8682 53.2604 38.9584 53.2604C30.0486 53.2604 30.0486 52.6756 21.1388 52.6756C12.2289 52.6756 8.93747 59.3955 2.77219 53.5752C-3.65164 47.521 3.10034 44.7053 3.10034 36.3122C3.10034 27.9191 3.32905 27.9191 3.32905 19.517C3.32905 11.1149 -2.93567 8.92893 3.48816 2.86575C9.91198 -3.19744 12.2289 2.24503 21.1288 2.24503C30.0287 2.24503 30.0287 1.87621 38.9385 1.87621C47.8483 1.87621 47.8384 2.326 56.7482 2.326C65.658 2.326 65.6481 2.83876 74.5579 2.83876C83.4677 2.83876 83.4578 3.41449 92.3676 3.41449C101.277 3.41449 101.268 3.30654 110.177 3.30654C119.087 3.30654 119.077 3.30654 127.987 3.30654C136.897 3.30654 136.887 2.55089 145.797 2.55089C154.707 2.55089 154.697 3.26156 163.606 3.26156C172.516 3.26156 172.506 1.92119 181.416 1.92119C190.326 1.92119 190.316 2.9647 199.226 2.9647C208.136 2.9647 208.126 2.61386 217.036 2.61386C225.945 2.61386 225.945 1.84922 234.845 1.84922C243.745 1.84922 243.745 3.04566 252.655 3.04566C261.565 3.04566 261.555 1.79524 270.465 1.79524C279.375 1.79524 279.365 2.73081 288.274 2.73081C297.184 2.73081 297.174 2.16407 306.084 2.16407C314.994 2.16407 314.994 1.94817 323.894 1.94817C332.794 1.94817 332.794 1.80424 341.703 1.80424C350.613 1.80424 350.613 1.72328 359.513 1.72328C368.413 1.72328 368.413 3.01868 377.323 3.01868C386.233 3.01868 386.233 2.91972 395.133 2.91972C404.033 2.91972 404.033 3.31554 412.942 3.31554C421.852 3.31554 421.852 2.17307 430.752 2.17307C439.652 2.17307 439.652 2.80278 448.562 2.80278C457.472 2.80278 457.462 2.62286 466.362 2.62286C475.261 2.62286 475.261 2.84776 484.171 2.84776C493.081 2.84776 493.071 2.1101 501.981 2.1101C510.891 2.1101 510.881 3.01868 519.791 3.01868C528.7 3.01868 528.69 3.47746 537.6 3.47746C546.51 3.47746 546.5 2.317 555.41 2.317C564.32 2.317 564.31 2.44294 573.22 2.44294C582.13 2.44294 582.12 1.93018 591.029 1.93018C599.939 1.93018 599.929 3.57642 608.839 3.57642C617.749 3.57642 617.739 1.98416 626.649 1.98416C635.559 1.98416 635.559 1.95717 644.459 1.95717C653.358 1.95717 653.358 1.95717 662.268 1.95717C671.178 1.95717 671.178 3.00968 680.078 3.00968C688.978 3.00968 688.978 2.29001 697.888 2.29001C706.797 2.29001 706.797 1.93018 715.697 1.93018C724.597 1.93018 724.597 3.74734 733.507 3.74734C742.417 3.74734 742.417 3.27056 751.317 3.27056C760.217 3.27056 760.227 2.29901 769.126 2.29901C778.026 2.29901 778.026 3.00068 786.936 3.00068C795.846 3.00068 795.846 2.07411 804.746 2.07411C813.646 2.07411 813.656 3.09964 822.556 3.09964C831.455 3.09964 831.465 2.72181 840.365 2.72181C849.265 2.72181 849.275 3.53144 858.175 3.53144C867.075 3.53144 867.085 1.6783 875.985 1.6783C884.885 1.6783 884.895 1.72328 893.794 1.72328C902.694 1.72328 902.704 3.06366 911.604 3.06366C920.504 3.06366 920.514 3.50445 929.414 3.50445C938.314 3.50445 938.324 3.50445 947.223 3.50445C956.123 3.50445 956.133 2.19106 965.033 2.19106C973.933 2.19106 973.933 3.25257 982.843 3.25257C991.753 3.25257 991.743 1.66031 1000.65 1.66031C1009.56 1.66031 1009.56 3.20759 1018.46 3.20759C1027.36 3.20759 1027.37 2.04713 1036.27 2.04713C1045.17 2.04713 1045.18 3.70236 1054.08 3.70236C1062.98 3.70236 1062.99 2.94671 1071.89 2.94671C1080.79 2.94671 1080.8 1.96616 1089.7 1.96616C1098.6 1.96616 1098.61 2.82077 1107.52 2.82077C1116.43 2.82077 1116.43 3.08165 1125.33 3.08165C1134.23 3.08165 1134.24 2.34399 1143.15 2.34399C1152.06 2.34399 1152.06 2.52391 1160.97 2.52391C1169.88 2.52391 1169.88 1.85821 1178.79 1.85821C1187.7 1.85821 1190.15 -2.82861 1196.32 2.98269C1202.5 8.794 1196.23 11.1239 1196.23 19.526C1196.23 27.9281 1194.02 28.234 1196 36.4382C1198.14 45.2991 1203.31 47.2871 1196.89 53.3503H1196.88Z" fill="#FFEBC2"/>
</svg>