<svg width="16" height="16" viewBox="0 0 16 16" fill="none" xmlns="http://www.w3.org/2000/svg">
<path d="M5.2 1.33334H10.8C12.9333 1.33334 14.6667 3.06668 14.6667 5.20001V10.8C14.6667 11.8255 14.2593 12.809 13.5341 13.5342C12.809 14.2593 11.8255 14.6667 10.8 14.6667H5.2C3.06667 14.6667 1.33334 12.9333 1.33334 10.8V5.20001C1.33334 4.17451 1.74072 3.191 2.46586 2.46586C3.191 1.74072 4.1745 1.33334 5.2 1.33334ZM5.06667 2.66668C4.43015 2.66668 3.8197 2.91953 3.36961 3.36962C2.91953 3.81971 2.66667 4.43016 2.66667 5.06668V10.9333C2.66667 12.26 3.74 13.3333 5.06667 13.3333H10.9333C11.5699 13.3333 12.1803 13.0805 12.6304 12.6304C13.0805 12.1803 13.3333 11.5699 13.3333 10.9333V5.06668C13.3333 3.74001 12.26 2.66668 10.9333 2.66668H5.06667ZM11.5 3.66668C11.721 3.66668 11.933 3.75447 12.0893 3.91075C12.2455 4.06703 12.3333 4.279 12.3333 4.50001C12.3333 4.72102 12.2455 4.93299 12.0893 5.08927C11.933 5.24555 11.721 5.33334 11.5 5.33334C11.279 5.33334 11.067 5.24555 10.9107 5.08927C10.7545 4.93299 10.6667 4.72102 10.6667 4.50001C10.6667 4.279 10.7545 4.06703 10.9107 3.91075C11.067 3.75447 11.279 3.66668 11.5 3.66668ZM8 4.66668C8.88406 4.66668 9.7319 5.01787 10.357 5.64299C10.9821 6.26811 11.3333 7.11596 11.3333 8.00001C11.3333 8.88407 10.9821 9.73191 10.357 10.357C9.7319 10.9822 8.88406 11.3333 8 11.3333C7.11595 11.3333 6.2681 10.9822 5.64298 10.357C5.01786 9.73191 4.66667 8.88407 4.66667 8.00001C4.66667 7.11596 5.01786 6.26811 5.64298 5.64299C6.2681 5.01787 7.11595 4.66668 8 4.66668ZM8 6.00001C7.46957 6.00001 6.96086 6.21072 6.58579 6.5858C6.21072 6.96087 6 7.46958 6 8.00001C6 8.53044 6.21072 9.03915 6.58579 9.41422C6.96086 9.7893 7.46957 10 8 10C8.53044 10 9.03914 9.7893 9.41422 9.41422C9.78929 9.03915 10 8.53044 10 8.00001C10 7.46958 9.78929 6.96087 9.41422 6.5858C9.03914 6.21072 8.53044 6.00001 8 6.00001Z" fill="#6D5E46"/>
</svg>
