<svg width="16" height="16" viewBox="0 0 16 16" fill="none" xmlns="http://www.w3.org/2000/svg">
<path fill-rule="evenodd" clip-rule="evenodd" d="M13.1818 2.95331C13.3466 2.88397 13.5269 2.86006 13.704 2.88405C13.8811 2.90805 14.0486 2.97909 14.1889 3.08977C14.3293 3.20044 14.4374 3.34672 14.5021 3.51336C14.5667 3.68001 14.5855 3.86094 14.5565 4.03731L13.0445 13.2086C12.8978 14.0933 11.9272 14.6006 11.1158 14.16C10.4372 13.7913 9.42915 13.2233 8.52249 12.6306C8.06915 12.334 6.68049 11.384 6.85115 10.708C6.99782 10.13 9.33115 7.95798 10.6645 6.66664C11.1878 6.15931 10.9492 5.86664 10.3312 6.33331C8.79649 7.49198 6.33249 9.25398 5.51782 9.74998C4.79915 10.1873 4.42449 10.262 3.97649 10.1873C3.15915 10.0513 2.40115 9.84064 1.78249 9.58398C0.946488 9.23731 0.987155 8.08798 1.78182 7.75331L13.1818 2.95331Z" fill="#6D5E46"/>
</svg>
