<svg width="16" height="16" viewBox="0 0 16 16" fill="none" xmlns="http://www.w3.org/2000/svg">
<path d="M6.66667 10L10.1267 8.00001L6.66667 6.00001V10ZM14.3733 4.78001C14.46 5.09334 14.52 5.51334 14.56 6.04668C14.6067 6.58001 14.6267 7.04001 14.6267 7.44001L14.6667 8.00001C14.6667 9.46001 14.56 10.5333 14.3733 11.22C14.2067 11.82 13.82 12.2067 13.22 12.3733C12.9067 12.46 12.3333 12.52 11.4533 12.56C10.5867 12.6067 9.79333 12.6267 9.06 12.6267L8 12.6667C5.20667 12.6667 3.46667 12.56 2.78 12.3733C2.18 12.2067 1.79333 11.82 1.62667 11.22C1.54 10.9067 1.48 10.4867 1.44 9.95334C1.39333 9.42001 1.37333 8.96001 1.37333 8.56001L1.33333 8.00001C1.33333 6.54001 1.44 5.46668 1.62667 4.78001C1.79333 4.18001 2.18 3.79334 2.78 3.62668C3.09333 3.54001 3.66667 3.48001 4.54667 3.44001C5.41333 3.39334 6.20667 3.37334 6.94 3.37334L8 3.33334C10.7933 3.33334 12.5333 3.44001 13.22 3.62668C13.82 3.79334 14.2067 4.18001 14.3733 4.78001Z" fill="#6D5E46"/>
</svg>
