<svg width="328" height="976" viewBox="0 0 328 976" fill="none" xmlns="http://www.w3.org/2000/svg">
<path d="M323.668 972.272C315.658 980.555 311.99 972.45 300.566 972.45C289.142 972.45 289.142 971.696 277.708 971.696C266.274 971.696 266.283 972.232 254.849 972.232C243.425 972.232 243.425 971.984 232.001 971.984C220.577 971.984 220.577 971.865 209.143 971.865C197.718 971.865 197.718 971.498 186.294 971.498C178.678 971.498 171.058 971.498 163.436 971.498C152.012 971.498 152.012 972.837 140.578 972.837C129.153 972.837 129.153 971.944 117.719 971.944C106.285 971.944 106.285 972.877 94.861 972.877C83.4368 972.877 83.4368 972.659 72.0027 972.659C60.5687 972.659 60.5687 971.28 49.1445 971.28C37.7202 971.28 37.7105 972.599 26.2862 972.599C14.8522 972.599 11.9644 979.781 3.94501 971.498C-4.07441 963.215 2.706 960.219 2.706 948.414C2.706 936.609 3.47672 936.609 3.47672 924.804C3.47672 912.999 3.73038 912.999 3.73038 901.194C3.73038 889.389 2.65722 889.389 2.65722 877.584C2.65722 865.779 3.09624 865.779 3.09624 853.974C3.09624 842.168 3.30111 842.168 3.30111 830.354C3.30111 818.539 2.6182 818.549 2.6182 806.744C2.6182 794.939 3.96452 794.939 3.96452 783.134C3.96452 771.329 2.57917 771.329 2.57917 759.524C2.57917 747.718 3.26209 747.718 3.26209 735.913C3.26209 724.108 3.20355 724.108 3.20355 712.303C3.20355 700.498 4.02306 700.498 4.02306 688.683C4.02306 676.869 3.22307 676.878 3.22307 665.073C3.22307 653.268 4.02306 653.268 4.02306 641.463C4.02306 629.658 2.47186 629.658 2.47186 617.853C2.47186 606.048 2.68649 606.048 2.68649 594.243C2.68649 582.438 3.22307 582.438 3.22307 570.633C3.22307 558.828 3.99379 558.828 3.99379 547.023C3.99379 535.218 2.706 535.218 2.706 523.413C2.706 511.608 4.13037 511.608 4.13037 499.793C4.13037 487.978 3.53526 487.988 3.53526 476.183C3.53526 464.378 4.26696 464.378 4.26696 452.573C4.26696 440.768 2.53039 440.768 2.53039 428.963C2.53039 417.158 3.87672 417.158 3.87672 405.353C3.87672 393.548 3.72062 393.548 3.72062 381.733C3.72062 369.918 3.64257 369.928 3.64257 358.113C3.64257 346.298 4.18891 346.308 4.18891 334.493C4.18891 322.678 2.68649 322.688 2.68649 310.873C2.68649 299.059 2.96941 299.068 2.96941 287.253C2.96941 275.439 3.11575 275.448 3.11575 263.634C3.11575 251.819 3.36941 251.829 3.36941 240.014C3.36941 228.199 3.50599 228.209 3.50599 216.394C3.50599 204.579 2.68649 204.589 2.68649 192.784C2.68649 180.979 3.74989 180.979 3.74989 169.164C3.74989 157.349 2.98892 157.359 2.98892 145.544C2.98892 133.729 3.47672 133.739 3.47672 121.924C3.47672 110.109 3.69135 110.119 3.69135 98.3038C3.69135 86.4889 3.90599 86.4988 3.90599 74.6839C3.90599 62.8689 3.65233 62.8689 3.65233 51.0639C3.65233 39.2589 3.47672 39.249 3.47672 27.444C3.47672 15.6389 -4.4744 12.5042 3.67184 4.08193C11.8181 -4.3403 14.8327 2.88159 26.2667 2.88159C37.7007 2.88159 37.691 2.96095 49.125 2.96095C60.559 2.96095 60.5492 3.99265 71.9832 3.99265C83.4172 3.99265 83.4075 4.59778 94.8317 4.59778C106.256 4.59778 106.256 3.34784 117.69 3.34784C129.124 3.34784 129.114 3.84384 140.539 3.84384C151.963 3.84384 151.963 3.54624 163.397 3.54624C174.831 3.54624 174.821 4.26049 186.255 4.26049C197.689 4.26049 197.679 4.08193 209.113 4.08193C220.547 4.08193 220.547 4.6573 231.972 4.6573C243.396 4.6573 243.396 4.63746 254.83 4.63746C266.264 4.63746 266.264 3.84384 277.688 3.84384C289.112 3.84384 289.122 4.06209 300.546 4.06209C311.971 4.06209 315.454 -4.52879 323.473 3.75456C331.619 12.1669 323.931 15.6191 323.931 27.434C323.931 39.249 323.102 39.2391 323.102 51.0441C323.102 62.8491 323.2 62.8491 323.2 74.6541C323.2 86.4591 322.468 86.4591 322.468 98.2641C322.468 110.069 323.561 110.069 323.561 121.874C323.561 133.679 323.785 133.679 323.785 145.494C323.785 157.309 324.078 157.299 324.078 169.104C324.078 180.909 323.531 180.909 323.531 192.714C323.531 204.519 324.146 204.519 324.146 216.324C324.146 228.129 323.395 228.129 323.395 239.934C323.395 251.739 323.327 251.739 323.327 263.544C323.327 275.349 324.263 275.349 324.263 287.164C324.263 298.979 323.131 298.969 323.131 310.774C323.131 322.579 323.571 322.579 323.571 334.384C323.571 346.189 322.868 346.189 322.868 357.994C322.868 369.799 323.444 369.799 323.444 381.604C323.444 393.409 323.512 393.409 323.512 405.214C323.512 417.019 323.756 417.019 323.756 428.824C323.756 440.629 323.512 440.629 323.512 452.434C323.512 464.239 322.614 464.239 322.614 476.054C322.614 487.869 323.073 487.859 323.073 499.664C323.073 511.469 324.068 511.469 324.068 523.274C324.068 535.079 323.024 535.079 323.024 546.884C323.024 558.689 322.868 558.689 322.868 570.494C322.868 582.299 324.205 582.299 324.205 594.114C324.205 605.929 323.61 605.919 323.61 617.734C323.61 629.549 322.546 629.539 322.546 641.354C322.546 653.169 323.356 653.159 323.356 664.974C323.356 676.789 323.736 676.779 323.736 688.594C323.736 700.409 322.995 700.399 322.995 712.214C322.995 724.029 323.912 724.019 323.912 735.834C323.912 747.649 322.78 747.639 322.78 759.454C322.78 771.269 322.966 771.259 322.966 783.064C322.966 794.869 323.366 794.869 323.366 806.684C323.366 818.499 322.527 818.489 322.527 830.304C322.527 842.119 322.585 842.109 322.585 853.924C322.585 865.739 323.034 865.729 323.034 877.544C323.034 889.359 322.927 889.349 322.927 901.164C322.927 912.979 324.117 912.979 324.117 924.784C324.117 936.589 321.366 936.767 323.844 948.305C326.517 960.735 331.785 963.859 323.639 972.272H323.668Z" fill="#FFEBC2"/>
</svg>
