<svg width="328" height="1490" viewBox="0 0 328 1490" fill="none" xmlns="http://www.w3.org/2000/svg">
<path d="M323.848 1486.01C315.874 1494.79 312.135 1486.34 300.725 1486.34C289.314 1486.34 289.324 1484.55 277.913 1484.55C266.502 1484.55 266.512 1484.28 255.101 1484.28C243.69 1484.28 243.7 1485.47 232.299 1485.47C220.898 1485.47 220.898 1484.68 209.487 1484.68C198.077 1484.68 198.086 1484.52 186.685 1484.52C175.284 1484.52 175.284 1484.21 163.874 1484.21C152.463 1484.21 152.473 1484.49 141.062 1484.49C129.651 1484.49 129.661 1486.45 118.25 1486.45C106.839 1486.45 106.839 1485.95 95.4383 1485.95C84.0373 1485.95 84.0373 1486.76 72.6266 1486.76C61.2158 1486.76 61.2158 1484.96 49.8148 1484.96C38.4138 1484.96 38.4041 1486.55 27.0031 1486.55C15.6021 1486.55 13.0415 1493.54 5.05784 1484.76C-2.92578 1475.98 3.07167 1473.12 3.07167 1460.58C3.07167 1448.03 5.14547 1448.02 5.14547 1435.47C5.14547 1422.92 5.20388 1422.91 5.20388 1410.37C5.20388 1397.82 5.35966 1397.82 5.35966 1385.26C5.35966 1372.7 5.35966 1372.7 5.35966 1360.16C5.35966 1347.61 5.21362 1347.61 5.21362 1335.05C5.21362 1322.49 5.37913 1322.49 5.37913 1309.94C5.37913 1297.4 5.05784 1297.39 5.05784 1284.84C5.05784 1272.29 3.00352 1272.29 3.00352 1259.73C3.00352 1247.18 3.1593 1247.18 3.1593 1234.63C3.1593 1222.08 5.39861 1222.08 5.39861 1209.52C5.39861 1196.96 4.26922 1196.96 4.26922 1184.42C4.26922 1171.86 3.87977 1171.86 3.87977 1159.31C3.87977 1146.76 3.0522 1146.75 3.0522 1134.21C3.0522 1121.66 3.6169 1121.65 3.6169 1109.1C3.6169 1096.55 4.04529 1096.54 4.04529 1084C4.04529 1071.45 4.57104 1071.44 4.57104 1058.89C4.57104 1046.33 5.09679 1046.33 5.09679 1033.78C5.09679 1021.24 3.74347 1021.23 3.74347 1008.68C3.74347 996.121 5.54465 996.121 5.54465 983.573C5.54465 971.026 3.98687 971.015 3.98687 958.468C3.98687 945.91 5.27204 945.91 5.27204 933.362C5.27204 920.815 3.20798 920.804 3.20798 908.257C3.20798 895.709 5.55439 895.699 5.55439 883.151C5.55439 870.604 2.86721 870.593 2.86721 858.046C2.86721 845.498 4.86312 845.498 4.86312 832.94C4.86312 820.393 3.48059 820.393 3.48059 807.835C3.48059 795.277 4.86312 795.277 4.86312 782.729C4.86312 770.182 3.01326 770.182 3.01326 757.624C3.01326 745.066 3.89924 745.066 3.89924 732.518C3.89924 719.971 2.96457 719.971 2.96457 707.413C2.96457 694.855 3.00352 694.855 3.00352 682.307C3.00352 669.76 4.61972 669.76 4.61972 657.202C4.61972 644.644 3.52927 644.644 3.52927 632.096C3.52927 619.538 3.2956 619.538 3.2956 606.991C3.2956 594.443 3.53901 594.443 3.53901 581.885C3.53901 569.327 4.55156 569.327 4.55156 556.78C4.55156 544.232 5.27204 544.222 5.27204 531.674C5.27204 519.127 3.62663 519.116 3.62663 506.569C3.62663 494.021 3.54874 494.011 3.54874 481.463C3.54874 468.916 4.98969 468.905 4.98969 456.358C4.98969 443.81 4.60998 443.8 4.60998 431.252C4.60998 418.694 5.38887 418.694 5.38887 406.147C5.38887 393.589 5.10652 393.589 5.10652 381.031C5.10652 368.473 4.8047 368.473 4.8047 355.925C4.8047 343.378 5.24283 343.367 5.24283 330.82C5.24283 318.262 4.78523 318.262 4.78523 305.714C4.78523 293.167 3.23719 293.156 3.23719 280.609C3.23719 268.061 5.41808 268.051 5.41808 255.503C5.41808 242.956 4.95075 242.945 4.95075 230.387C4.95075 217.829 3.97713 217.829 3.97713 205.282C3.97713 192.734 4.72681 192.724 4.72681 180.176C4.72681 167.618 3.30534 167.618 3.30534 155.071C3.30534 142.513 3.92845 142.513 3.92845 129.955C3.92845 117.397 4.19133 117.397 4.19133 104.839C4.19133 92.2806 4.44447 92.2806 4.44447 79.7226C4.44447 67.1646 3.56821 67.1646 3.56821 54.6066C3.56821 42.0486 3.09114 42.0486 3.09114 29.4906C3.09114 16.9326 -4.32779 12.904 3.82135 3.93401C11.7952 -4.84714 15.5923 4.46906 26.9933 4.46906C38.3944 4.46906 38.3944 5.25591 49.8051 5.25591C61.2158 5.25591 61.2061 5.09854 72.6169 5.09854C84.0276 5.09854 84.0179 5.09854 95.4189 5.09854C106.82 5.09854 106.82 4.05991 118.231 4.05991C129.641 4.05991 129.632 5.03559 141.033 5.03559C152.434 5.03559 152.434 3.18913 163.844 3.18913C175.255 3.18913 175.245 4.62643 186.656 4.62643C198.067 4.62643 198.057 4.15433 209.468 4.15433C220.879 4.15433 220.879 3.1052 232.28 3.1052C243.681 3.1052 243.681 4.74184 255.091 4.74184C266.502 4.74184 266.502 3.02127 277.903 3.02127C289.304 3.02127 289.314 4.3117 300.715 4.3117C312.116 4.3117 316.069 -5.015 324.052 3.76615C332.202 12.7361 324.539 16.8697 324.539 29.4172C324.539 41.9647 324.714 41.9752 324.714 54.5227C324.714 67.0702 324.822 67.0807 324.822 79.6282C324.822 92.1757 323.166 92.1757 323.166 104.734C323.166 117.292 323.293 117.292 323.293 129.839C323.293 142.387 322.796 142.387 322.796 154.945C322.796 167.503 324.247 167.503 324.247 180.05C324.247 192.598 323.449 192.608 323.449 205.156C323.449 217.703 323.682 217.703 323.682 230.261C323.682 242.819 323.4 242.819 323.4 255.367C323.4 267.914 324.335 267.914 324.335 280.472C324.335 293.03 323.176 293.03 323.176 305.578C323.176 318.136 322.592 318.136 322.592 330.683C322.592 343.231 324.072 343.241 324.072 355.789C324.072 368.336 323.916 368.347 323.916 380.894C323.916 393.442 324.568 393.452 324.568 406C324.568 418.547 322.475 418.558 322.475 431.105C322.475 443.663 324.5 443.663 324.5 456.211C324.5 468.758 324.539 468.769 324.539 481.316C324.539 493.864 324.539 493.874 324.539 506.422C324.539 518.969 323.205 518.98 323.205 531.527C323.205 544.085 324.121 544.085 324.121 556.633C324.121 569.191 324.578 569.191 324.578 581.738C324.578 594.286 322.261 594.296 322.261 606.844C322.261 619.391 322.874 619.402 322.874 631.949C322.874 644.497 324.111 644.497 324.111 657.055C324.111 669.613 323.225 669.602 323.225 682.16C323.225 694.718 324.403 694.718 324.403 707.266C324.403 719.813 323.098 719.813 323.098 732.371C323.098 744.929 323.575 744.929 323.575 757.477C323.575 770.024 322.543 770.024 322.543 782.582C322.543 795.14 324.899 795.14 324.899 807.688C324.899 820.235 324.841 820.235 324.841 832.793C324.841 845.351 323.137 845.351 323.137 857.899C323.137 870.446 322.573 870.457 322.573 883.004C322.573 895.552 322.573 895.552 322.573 908.11C322.573 920.668 324.247 920.668 324.247 933.215C324.247 945.763 322.894 945.773 322.894 958.321C322.894 970.868 324.919 970.879 324.919 983.426C324.919 995.984 322.942 995.984 322.942 1008.53C322.942 1021.08 324.422 1021.09 324.422 1033.64C324.422 1046.18 322.319 1046.2 322.319 1058.74C322.319 1071.29 323.274 1071.3 323.274 1083.85C323.274 1096.41 324.52 1096.41 324.52 1108.96C324.52 1121.52 323.439 1121.52 323.439 1134.07C323.439 1146.62 323.108 1146.63 323.108 1159.18C323.108 1171.73 324.052 1171.73 324.052 1184.28C324.052 1196.84 323.828 1196.84 323.828 1209.39C323.828 1221.93 324.676 1221.94 324.676 1234.49C324.676 1247.05 323.098 1247.05 323.098 1259.61C323.098 1267.98 323.108 1276.35 323.127 1284.71C323.127 1297.27 322.845 1297.27 322.845 1309.82C322.845 1322.37 324.062 1322.38 324.062 1334.92C324.062 1347.48 324.16 1347.48 324.16 1360.04C324.16 1372.6 323.098 1372.6 323.098 1385.16C323.098 1397.71 323.867 1397.71 323.867 1410.27C323.867 1422.83 323.507 1422.83 323.507 1435.39C323.507 1447.95 320.839 1448.29 323.342 1460.56C326.039 1473.81 332.026 1476.98 323.877 1485.95L323.848 1486.01Z" fill="#FFEBC2"/>
</svg>
