<svg width="1200" height="1030" viewBox="0 0 1200 1030" fill="none" xmlns="http://www.w3.org/2000/svg">
<path d="M1195.37 1026.11C1186.92 1034.35 1183.2 1026.38 1171.28 1026.38C1159.37 1026.38 1159.37 1024.96 1147.46 1024.96C1135.55 1024.96 1135.55 1024.74 1123.64 1024.74C1111.73 1024.74 1111.73 1025.68 1099.81 1025.68C1087.9 1025.68 1087.9 1025.05 1075.99 1025.05C1064.08 1025.05 1064.08 1024.92 1052.17 1024.92C1040.26 1024.92 1040.26 1024.68 1028.34 1024.68C1016.43 1024.68 1016.43 1024.89 1004.52 1024.89C992.61 1024.89 992.61 1026.44 980.698 1026.44C968.787 1026.44 968.787 1026.04 956.875 1026.04C944.964 1026.04 944.964 1026.69 933.052 1026.69C921.14 1026.69 921.14 1025.26 909.229 1025.26C897.317 1025.26 897.317 1026.52 885.406 1026.52C873.494 1026.52 873.494 1024.8 861.582 1024.8C849.671 1024.8 849.671 1026.79 837.759 1026.79C825.848 1026.79 825.848 1025.02 813.936 1025.02C802.025 1025.02 802.025 1024.97 790.123 1024.97C778.221 1024.97 778.211 1024.85 766.31 1024.85C758.369 1024.85 750.428 1024.85 742.486 1024.85C730.575 1024.85 730.575 1024.96 718.673 1024.96C706.762 1024.96 706.762 1024.82 694.85 1024.82C682.938 1024.82 682.938 1025.09 671.027 1025.09C659.115 1025.09 659.115 1026.84 647.204 1026.84C635.292 1026.84 635.292 1026.72 623.381 1026.72C611.469 1026.72 611.469 1024.82 599.557 1024.82C587.646 1024.82 587.646 1025.77 575.734 1025.77C563.823 1025.77 563.823 1026.1 551.911 1026.1C539.999 1026.1 539.999 1026.81 528.088 1026.81C516.176 1026.81 516.176 1026.33 504.265 1026.33C492.353 1026.33 492.353 1025.97 480.442 1025.97C468.53 1025.97 468.53 1025.52 456.618 1025.52C444.707 1025.52 444.707 1025.07 432.795 1025.07C420.884 1025.07 420.884 1026.22 408.972 1026.22C397.06 1026.22 397.06 1024.69 385.149 1024.69C373.237 1024.69 373.237 1026.02 361.326 1026.02C349.414 1026.02 349.414 1024.92 337.502 1024.92C325.591 1024.92 325.591 1026.68 313.679 1026.68C301.768 1026.68 301.768 1024.68 289.856 1024.68C277.945 1024.68 277.945 1026.96 266.033 1026.96C254.121 1026.96 254.121 1025.26 242.21 1025.26C230.298 1025.26 230.298 1026.44 218.387 1026.44C206.475 1026.44 206.475 1025.26 194.563 1025.26C182.652 1025.26 182.652 1026.84 170.74 1026.84C158.829 1026.84 158.829 1026.09 146.917 1026.09C135.005 1026.09 135.005 1026.89 123.094 1026.89C111.182 1026.89 111.182 1026.86 99.2707 1026.86C87.3591 1026.86 87.3591 1025.49 75.4476 1025.49C63.536 1025.49 63.536 1026.42 51.6145 1026.42C39.6929 1026.42 39.7029 1026.61 27.7814 1026.61C15.8698 1026.61 12.0084 1034.48 3.55121 1026.24C-4.83653 1018.06 4.2659 1014.24 4.2659 1002.62C4.2659 991.009 4.89126 991.009 4.89126 979.395C4.89126 967.782 3.46187 967.782 3.46187 956.168C3.46187 944.555 3.39239 944.555 3.39239 932.941C3.39239 921.328 4.6431 921.328 4.6431 909.714C4.6431 898.101 4.31553 898.101 4.31553 886.487C4.31553 874.874 4.99052 874.874 4.99052 863.26C4.99052 851.647 4.75229 851.647 4.75229 840.033C4.75229 828.42 4.49421 828.42 4.49421 816.806C4.49421 805.193 4.88133 805.193 4.88133 793.579C4.88133 781.966 4.48428 781.966 4.48428 770.362C4.48428 758.748 3.14423 758.748 3.14423 747.145C3.14423 735.531 5.03023 735.531 5.03023 723.917C5.03023 712.304 4.62325 712.304 4.62325 700.7C4.62325 689.096 3.77951 689.087 3.77951 677.473C3.77951 665.86 4.42472 665.86 4.42472 654.256C4.42472 642.652 3.19386 642.642 3.19386 631.029C3.19386 619.415 3.72988 619.415 3.72988 607.812C3.72988 596.198 3.95819 596.198 3.95819 584.585C3.95819 572.971 4.17657 572.971 4.17657 561.358C4.17657 549.744 3.41224 549.744 3.41224 538.131C3.41224 526.517 3.00526 526.517 3.00526 514.904C3.00526 503.29 3.50158 503.29 3.50158 491.676C3.50158 480.063 4.06738 480.063 4.06738 468.449C4.06738 456.836 4.70266 456.836 4.70266 445.222C4.70266 433.609 4.58354 433.609 4.58354 421.995C4.58354 410.382 4.58354 410.382 4.58354 398.768C4.58354 387.155 3.74973 387.155 3.74973 375.541C3.74973 363.928 4.53391 363.928 4.53391 352.314C4.53391 340.701 3.05489 340.701 3.05489 329.087C3.05489 317.474 4.20634 317.474 4.20634 305.86C4.20634 294.247 3.81922 294.247 3.81922 282.633C3.81922 271.02 2.97548 271.02 2.97548 259.406C2.97548 247.793 4.29568 247.793 4.29568 236.179C4.29568 224.566 2.91592 224.566 2.91592 212.952C2.91592 201.339 3.94826 201.339 3.94826 189.725C3.94826 178.112 3.3229 178.112 3.3229 166.498C3.3229 154.885 3.08467 154.885 3.08467 143.271C3.08467 131.658 2.92585 131.658 2.92585 120.044C2.92585 108.431 2.83651 108.431 2.83651 96.817C2.83651 85.2035 4.2659 85.2035 4.2659 73.59C4.2659 61.9765 4.15671 61.9765 4.15671 50.363C4.15671 38.7494 4.59347 38.7494 4.59347 27.1262C4.59347 15.5029 -4.87624 11.6902 3.5115 3.5091C11.8992 -4.67204 15.8598 4.01616 27.7714 4.01616C39.683 4.01616 39.683 3.82114 51.5946 3.82114C63.5062 3.82114 63.5062 4.06491 75.4178 4.06491C87.3294 4.06491 87.3294 3.26533 99.241 3.26533C111.153 3.26533 111.153 4.25018 123.064 4.25018C134.976 4.25018 134.976 4.74749 146.887 4.74749C158.799 4.74749 158.799 3.4896 170.71 3.4896C182.622 3.4896 182.622 3.62612 194.534 3.62612C206.445 3.62612 206.445 3.07031 218.357 3.07031C230.268 3.07031 230.268 4.85475 242.18 4.85475C254.092 4.85475 254.092 3.12881 266.003 3.12881C277.915 3.12881 277.915 3.09956 289.826 3.09956C301.738 3.09956 301.738 3.09956 313.65 3.09956C325.561 3.09956 325.561 4.24043 337.473 4.24043C349.384 4.24043 349.384 3.46035 361.296 3.46035C373.207 3.46035 373.207 3.07031 385.119 3.07031C397.031 3.07031 397.031 5.04002 408.932 5.04002C420.834 5.04002 420.844 4.52321 432.746 4.52321C444.647 4.52321 444.657 3.4701 456.569 3.4701C468.48 3.4701 468.48 4.23068 480.382 4.23068C492.284 4.23068 492.294 3.22632 504.205 3.22632C516.117 3.22632 516.117 4.33794 528.028 4.33794C539.94 4.33794 539.94 3.9284 551.851 3.9284C563.763 3.9284 563.763 4.806 575.675 4.806C587.586 4.806 587.586 2.79728 599.498 2.79728C611.409 2.79728 611.409 2.84603 623.321 2.84603C635.233 2.84603 635.233 4.29894 647.144 4.29894C659.056 4.29894 659.056 4.77674 670.967 4.77674C682.879 4.77674 682.879 4.77674 694.791 4.77674C706.702 4.77674 706.702 3.35309 718.614 3.35309C730.525 3.35309 730.525 4.50371 742.437 4.50371C754.348 4.50371 754.348 2.77777 766.26 2.77777C778.172 2.77777 778.172 4.45496 790.083 4.45496C801.995 4.45496 801.995 3.19707 813.906 3.19707C825.818 3.19707 825.818 4.99127 837.73 4.99127C849.641 4.99127 849.641 4.17218 861.553 4.17218C873.464 4.17218 873.464 3.10931 885.376 3.10931C897.287 3.10931 897.287 4.03566 909.199 4.03566C921.111 4.03566 921.111 4.31844 933.022 4.31844C944.934 4.31844 944.934 3.51886 956.845 3.51886C968.757 3.51886 968.757 3.71388 980.669 3.71388C992.58 3.71388 992.58 2.9923 1004.49 2.9923C1016.4 2.9923 1016.4 4.33794 1028.31 4.33794C1040.23 4.33794 1040.23 4.31844 1052.14 4.31844C1064.05 4.31844 1064.05 4.56222 1075.96 4.56222C1087.87 4.56222 1087.87 3.52861 1099.78 3.52861C1111.7 3.52861 1111.7 3.44085 1123.61 3.44085C1135.52 3.44085 1135.52 4.3477 1147.44 4.3477C1159.36 4.3477 1159.35 3.69437 1171.27 3.69437C1183.2 3.69437 1186.61 -4.26249 1195.08 3.98691C1203.46 12.168 1194.92 15.5712 1194.92 27.1749C1194.92 38.7787 1194.47 38.7884 1194.47 50.402C1194.47 62.0155 1194.47 62.0155 1194.47 73.629C1194.47 85.2425 1196.11 85.2425 1196.11 96.856C1196.11 108.47 1195.01 108.47 1195.01 120.083C1195.01 131.697 1196.15 131.697 1196.15 143.31C1196.15 154.924 1195.88 154.924 1195.88 166.537C1195.88 178.151 1194.18 178.151 1194.18 189.764C1194.18 201.378 1195.8 201.378 1195.8 212.991C1195.8 224.605 1194.17 224.605 1194.17 236.218C1194.17 247.832 1195.99 247.832 1195.99 259.435C1195.99 271.049 1195.02 271.049 1195.02 282.653C1195.02 294.266 1194.7 294.266 1194.7 305.88C1194.7 317.493 1196.04 317.493 1196.04 329.097C1196.04 340.701 1195.49 340.711 1195.49 352.324C1195.49 363.938 1195.24 363.938 1195.24 375.541C1195.24 387.155 1196.09 387.155 1196.09 398.768C1196.09 410.382 1194.4 410.382 1194.4 421.986C1194.4 433.599 1196.13 433.599 1196.13 445.213C1196.13 456.826 1195.28 456.826 1195.28 468.44C1195.28 480.053 1195.35 480.053 1195.35 491.667C1195.35 503.28 1194.32 503.28 1194.32 514.894C1194.32 526.507 1195.33 526.507 1195.33 538.121C1195.33 549.734 1194.33 549.734 1194.33 561.348C1194.33 572.961 1196.28 572.961 1196.28 584.575C1196.28 596.188 1196.01 596.188 1196.01 607.802C1196.01 619.415 1195.34 619.415 1195.34 631.029C1195.34 642.642 1194.36 642.642 1194.36 654.256C1194.36 665.869 1195.98 665.869 1195.98 677.483C1195.98 689.096 1194.19 689.096 1194.19 700.71C1194.19 712.323 1194.94 712.324 1194.94 723.937C1194.94 735.551 1194.02 735.551 1194.02 747.164C1194.02 758.778 1196.2 758.778 1196.2 770.391C1196.2 782.005 1194.51 782.005 1194.51 793.618C1194.51 805.232 1194.71 805.232 1194.71 816.845C1194.71 828.459 1194.81 828.459 1194.81 840.072C1194.81 851.686 1194.13 851.686 1194.13 863.299C1194.13 874.913 1196.01 874.913 1196.01 886.526C1196.01 898.14 1195.65 898.14 1195.65 909.753C1195.65 921.367 1195.47 921.367 1195.47 932.98C1195.47 944.594 1195.16 944.594 1195.16 956.207C1195.16 967.821 1194.98 967.821 1194.98 979.434C1194.98 991.048 1193.43 991.136 1195.98 1002.48C1198.73 1014.72 1203.75 1017.98 1195.36 1026.16L1195.37 1026.11Z" fill="#FFEBC2"/>
</svg>
