<svg width="1920" height="123" viewBox="0 0 1920 123" fill="none" xmlns="http://www.w3.org/2000/svg">
<path d="M1920.18 89.7577C1917.43 75.923 1918.57 75.6944 1918.57 61.5441C1918.57 47.3938 1920.22 47.3938 1920.22 33.2435C1920.22 19.0932 1928.85 15.1202 1920.03 4.72522C1911.88 -4.87522 1907.81 3.12514 1895.81 3.12514C1883.82 3.12514 1883.81 6.16202 1871.81 6.16202C1859.81 6.16202 1859.81 3.20134 1847.8 3.20134C1835.79 3.20134 1835.8 4.69256 1823.79 4.69256C1811.79 4.69256 1811.8 4.24628 1799.79 4.24628C1787.78 4.24628 1787.79 3.27753 1775.78 3.27753C1763.77 3.27753 1763.78 5.62866 1751.78 5.62866C1739.79 5.62866 1739.79 5.06265 1727.79 5.06265C1715.79 5.06265 1715.79 3.36461 1703.79 3.36461C1691.79 3.36461 1691.79 6.55387 1679.79 6.55387C1667.8 6.55387 1667.8 3.69116 1655.8 3.69116C1643.8 3.69116 1643.8 6.54299 1631.8 6.54299C1619.8 6.54299 1619.8 3.57142 1607.81 3.57142C1595.81 3.57142 1595.81 3.10337 1583.81 3.10337C1571.81 3.10337 1571.81 5.11707 1559.81 5.11707C1547.81 5.11707 1547.81 3.19045 1535.82 3.19045C1523.82 3.19045 1523.82 6.07494 1511.82 6.07494C1499.82 6.07494 1499.82 6.07494 1487.82 6.07494C1475.82 6.07494 1475.82 5.28034 1463.83 5.28034C1451.83 5.28034 1451.83 5.01911 1439.83 5.01911C1427.83 5.01911 1427.83 4.47486 1415.83 4.47486C1403.83 4.47486 1403.83 5.63954 1391.84 5.63954C1379.84 5.63954 1379.84 4.0177 1367.84 4.0177C1355.84 4.0177 1355.84 4.17009 1343.84 4.17009C1331.84 4.17009 1331.84 6.02051 1319.85 6.02051C1307.85 6.02051 1307.85 5.58512 1295.85 5.58512C1283.85 5.58512 1283.85 5.62866 1271.85 5.62866C1259.85 5.62866 1259.85 3.22311 1247.86 3.22311C1235.86 3.22311 1235.86 4.50752 1223.86 4.50752C1211.86 4.50752 1211.86 4.1592 1199.86 4.1592C1187.87 4.1592 1187.87 5.596 1175.87 5.596C1163.87 5.596 1163.87 5.0953 1151.87 5.0953C1139.87 5.0953 1139.87 3.45169 1127.87 3.45169C1115.88 3.45169 1115.88 5.35654 1103.88 5.35654C1091.88 5.35654 1091.88 6.81511 1079.88 6.81511C1067.88 6.81511 1067.88 3.61496 1055.88 3.61496C1043.89 3.61496 1043.89 5.86812 1031.89 5.86812C1019.89 5.86812 1019.89 2.87479 1007.89 2.87479C995.892 2.87479 995.892 5.9552 983.894 5.9552C971.896 5.9552 971.896 3.89797 959.898 3.89797C947.899 3.89797 947.899 6.44502 935.901 6.44502C923.903 6.44502 923.903 6.44502 911.904 6.44502C899.906 6.44502 899.906 5.58512 887.908 5.58512C875.91 5.58512 875.91 2.99452 863.911 2.99452C851.913 2.99452 851.913 2.90745 839.915 2.90745C827.916 2.90745 827.916 6.49945 815.918 6.49945C803.92 6.49945 803.92 4.92114 791.922 4.92114C779.923 4.92114 779.923 5.65043 767.925 5.65043C755.927 5.65043 755.927 3.6585 743.928 3.6585C731.93 3.6585 731.93 5.4545 719.932 5.4545C707.934 5.4545 707.934 4.10478 695.935 4.10478C683.937 4.10478 683.937 5.97697 671.939 5.97697C659.94 5.97697 659.94 6.90219 647.942 6.90219C635.944 6.90219 635.944 3.38638 623.946 3.38638C611.947 3.38638 611.947 4.08301 599.949 4.08301C587.951 4.08301 587.951 5.47627 575.952 5.47627C563.954 5.47627 563.954 3.4408 551.956 3.4408C539.957 3.4408 539.957 3.4408 527.959 3.4408C515.961 3.4408 515.961 3.49523 503.963 3.49523C491.964 3.49523 491.964 6.57564 479.966 6.57564C467.968 6.57564 467.968 3.39726 455.969 3.39726C443.971 3.39726 443.971 4.38779 431.973 4.38779C419.975 4.38779 419.975 4.14832 407.976 4.14832C395.978 4.14832 395.978 6.40148 383.98 6.40148C371.981 6.40148 371.981 5.50892 359.983 5.50892C347.985 5.50892 347.985 3.74558 335.987 3.74558C323.988 3.74558 323.988 5.17149 311.99 5.17149C299.992 5.17149 299.992 4.7361 287.993 4.7361C275.995 4.7361 275.995 5.08442 263.997 5.08442C251.999 5.08442 251.999 3.8762 240 3.8762C228.002 3.8762 228.002 6.08582 216.004 6.08582C204.005 6.08582 204.005 5.32388 192.007 5.32388C180.009 5.32388 180.009 5.51981 168.011 5.51981C156.012 5.51981 156.012 3.00541 144.014 3.00541C132.016 3.00541 132.016 3.16868 120.017 3.16868C108.019 3.16868 108.019 3.4408 96.0208 3.4408C84.0225 3.4408 84.0225 3.86531 72.0243 3.86531C60.026 3.86531 60.026 4.96468 48.0277 4.96468C36.0294 4.96468 36.0294 3.14691 24.0311 3.14691C12.0328 3.14691 8.6333 -4.2439 0.504456 5.34565C-8.31429 15.7407 -1.46526 19.0932 -1.46526 33.2435C-1.46526 47.3938 -0.115455 47.3938 -0.115455 61.5441C-0.115455 75.6944 0.504456 75.6944 0.504456 89.8448C0.504456 103.995 0.104513 123 0.104513 123H1919.83C1919.83 123 1923.16 104.681 1920.19 89.7468L1920.18 89.7577Z" fill="#FFEBC2"/>
</svg>
