<svg width="1200" height="56" viewBox="0 0 1200 56" fill="none" xmlns="http://www.w3.org/2000/svg">
<path d="M1196.88 53.3502C1190.71 59.1615 1187.7 53.6021 1178.8 53.6021C1169.9 53.6021 1169.9 52.2977 1160.99 52.2977C1152.09 52.2977 1152.09 52.0908 1143.18 52.0908C1134.28 52.0908 1134.28 52.9634 1125.37 52.9634C1116.47 52.9634 1116.47 52.3787 1107.56 52.3787C1098.65 52.3787 1098.66 52.2617 1089.75 52.2617C1080.85 52.2617 1080.85 52.0368 1071.94 52.0368C1063.03 52.0368 1063.04 52.2348 1054.13 52.2348C1045.23 52.2348 1045.23 53.6651 1036.32 53.6651C1027.42 53.6651 1027.42 53.2963 1018.51 53.2963C1009.6 53.2963 1009.61 53.89 1000.7 53.89C991.793 53.89 991.803 52.5766 982.893 52.5766C973.983 52.5766 973.983 53.7371 965.083 53.7371C956.183 53.7371 956.183 52.1448 947.273 52.1448C938.374 52.1448 938.374 53.9799 929.464 53.9799C920.564 53.9799 920.564 52.3517 911.654 52.3517C902.754 52.3517 902.754 52.3067 893.844 52.3067C884.934 52.3067 884.934 52.1898 876.035 52.1898C867.135 52.1898 867.135 52.1898 858.225 52.1898C849.315 52.1898 849.315 52.2977 840.415 52.2977C831.515 52.2977 831.515 52.1628 822.605 52.1628C813.696 52.1628 813.696 52.4147 804.796 52.4147C795.896 52.4147 795.896 54.0339 786.986 54.0339C778.076 54.0339 778.076 53.917 769.176 53.917C760.276 53.917 760.277 52.1628 751.367 52.1628C742.467 52.1628 742.467 53.0444 733.567 53.0444C724.667 53.0444 724.667 53.3502 715.757 53.3502C706.847 53.3502 706.857 53.9979 697.947 53.9979C689.048 53.9979 689.048 53.5571 680.138 53.5571C671.228 53.5571 671.238 53.2243 662.328 53.2243C653.428 53.2243 653.428 52.8105 644.518 52.8105C635.619 52.8105 635.618 52.3967 626.709 52.3967C617.799 52.3967 617.809 53.4582 608.899 53.4582C599.989 53.4582 599.999 52.0458 591.089 52.0458C582.189 52.0458 582.189 53.2693 573.28 53.2693C564.37 53.2693 564.37 52.2617 555.47 52.2617C546.57 52.2617 546.57 53.881 537.66 53.881C528.75 53.881 528.75 52.0368 519.85 52.0368C510.951 52.0368 510.951 54.1419 502.041 54.1419C493.131 54.1419 493.131 52.5766 484.231 52.5766C475.331 52.5766 475.331 53.6651 466.421 53.6651C457.512 53.6651 457.512 52.5766 448.612 52.5766C439.712 52.5766 439.702 54.0339 430.802 54.0339C421.902 54.0339 421.902 53.3412 412.992 53.3412C404.082 53.3412 404.082 54.0789 395.183 54.0789C386.283 54.0789 386.273 54.0519 377.373 54.0519C368.463 54.0519 368.463 52.7835 359.563 52.7835C350.653 52.7835 350.653 53.6381 341.753 53.6381C332.844 53.6381 332.844 53.818 323.944 53.818C315.044 53.818 315.034 53.6201 306.134 53.6201C297.234 53.6201 297.224 52.8195 288.324 52.8195C279.414 52.8195 279.414 52.2527 270.515 52.2527C261.605 52.2527 261.605 53.5481 252.705 53.5481C243.805 53.5481 243.795 53.6111 234.895 53.6111C225.995 53.6111 225.995 52.4776 217.085 52.4776C208.186 52.4776 208.186 52.7745 199.276 52.7745C190.366 52.7745 190.366 52.1628 181.466 52.1628C172.556 52.1628 172.556 52.3787 163.656 52.3787C154.747 52.3787 154.747 52.6126 145.847 52.6126C136.937 52.6126 136.937 52.2617 128.037 52.2617C119.137 52.2617 119.127 52.6216 110.227 52.6216C101.327 52.6216 101.317 53.836 92.4076 53.836C83.4978 53.836 83.4978 52.1268 74.5979 52.1268C65.698 52.1268 65.6881 52.4956 56.7782 52.4956C47.8684 52.4956 47.8684 53.2603 38.9586 53.2603C30.0488 53.2603 30.0488 52.6755 21.1389 52.6755C12.2291 52.6755 8.93765 59.3954 2.77237 53.5751C-3.65145 47.5209 3.10052 44.7052 3.10052 36.3121C3.10052 27.919 3.32924 27.919 3.32924 19.5169C3.32924 11.1148 -2.93548 8.92884 3.48834 2.86566C9.91216 -3.19753 12.2291 2.24494 21.129 2.24494C30.0289 2.24494 30.0289 1.87611 38.9387 1.87611C47.8485 1.87611 47.8386 2.32591 56.7484 2.32591C65.6582 2.32591 65.6483 2.83867 74.5581 2.83867C83.4679 2.83867 83.458 3.4144 92.3678 3.4144C101.278 3.4144 101.268 3.30645 110.178 3.30645C119.087 3.30645 119.077 3.30645 127.987 3.30645C136.897 3.30645 136.887 2.5508 145.797 2.5508C154.707 2.5508 154.697 3.26147 163.607 3.26147C172.516 3.26147 172.507 1.92109 181.416 1.92109C190.326 1.92109 190.316 2.96461 199.226 2.96461C208.136 2.96461 208.126 2.61377 217.036 2.61377C225.946 2.61377 225.946 1.84913 234.845 1.84913C243.745 1.84913 243.745 3.04557 252.655 3.04557C261.565 3.04557 261.555 1.79515 270.465 1.79515C279.375 1.79515 279.365 2.73072 288.275 2.73072C297.184 2.73072 297.174 2.16398 306.084 2.16398C314.994 2.16398 314.994 1.94808 323.894 1.94808C332.794 1.94808 332.794 1.80415 341.704 1.80415C350.614 1.80415 350.614 1.72319 359.513 1.72319C368.413 1.72319 368.413 3.01858 377.323 3.01858C386.233 3.01858 386.233 2.91963 395.133 2.91963C404.033 2.91963 404.033 3.31545 412.943 3.31545C421.852 3.31545 421.852 2.17298 430.752 2.17298C439.652 2.17298 439.652 2.80268 448.562 2.80268C457.472 2.80268 457.462 2.62277 466.362 2.62277C475.262 2.62277 475.262 2.84766 484.171 2.84766C493.081 2.84766 493.071 2.11001 501.981 2.11001C510.891 2.11001 510.881 3.01858 519.791 3.01858C528.701 3.01858 528.691 3.47737 537.6 3.47737C546.51 3.47737 546.5 2.31691 555.41 2.31691C564.32 2.31691 564.31 2.44285 573.22 2.44285C582.13 2.44285 582.12 1.93009 591.03 1.93009C599.939 1.93009 599.929 3.57633 608.839 3.57633C617.749 3.57633 617.739 1.98406 626.649 1.98406C635.559 1.98406 635.559 1.95708 644.459 1.95708C653.359 1.95708 653.359 1.95708 662.268 1.95708C671.178 1.95708 671.178 3.00959 680.078 3.00959C688.978 3.00959 688.978 2.28992 697.888 2.28992C706.798 2.28992 706.798 1.93009 715.698 1.93009C724.597 1.93009 724.597 3.74725 733.507 3.74725C742.417 3.74725 742.417 3.27047 751.317 3.27047C760.217 3.27047 760.227 2.29892 769.127 2.29892C778.027 2.29892 778.027 3.00059 786.936 3.00059C795.846 3.00059 795.846 2.07402 804.746 2.07402C813.646 2.07402 813.656 3.09955 822.556 3.09955C831.456 3.09955 831.466 2.72172 840.365 2.72172C849.265 2.72172 849.275 3.53135 858.175 3.53135C867.075 3.53135 867.085 1.67821 875.985 1.67821C884.885 1.67821 884.895 1.72319 893.795 1.72319C902.694 1.72319 902.704 3.06356 911.604 3.06356C920.504 3.06356 920.514 3.50436 929.414 3.50436C938.314 3.50436 938.324 3.50436 947.224 3.50436C956.124 3.50436 956.134 2.19097 965.033 2.19097C973.933 2.19097 973.933 3.25248 982.843 3.25248C991.753 3.25248 991.743 1.66021 1000.65 1.66021C1009.56 1.66021 1009.56 3.2075 1018.46 3.2075C1027.36 3.2075 1027.37 2.04704 1036.27 2.04704C1045.17 2.04704 1045.18 3.70227 1054.08 3.70227C1062.98 3.70227 1062.99 2.94662 1071.89 2.94662C1080.79 2.94662 1080.8 1.96607 1089.7 1.96607C1098.6 1.96607 1098.61 2.82068 1107.52 2.82068C1116.43 2.82068 1116.43 3.08156 1125.33 3.08156C1134.23 3.08156 1134.24 2.3439 1143.15 2.3439C1152.06 2.3439 1152.06 2.52381 1160.97 2.52381C1169.88 2.52381 1169.88 1.85812 1178.79 1.85812C1187.7 1.85812 1190.15 -2.8287 1196.32 2.9826C1202.5 8.79391 1196.23 11.1238 1196.23 19.5259C1196.23 27.928 1194.02 28.2339 1196 36.4381C1198.14 45.299 1203.31 47.287 1196.89 53.3502H1196.88Z" fill="#D9D9D9"/>
</svg>
