<svg width="768" height="80" viewBox="0 0 768 80" fill="none" xmlns="http://www.w3.org/2000/svg">
<path d="M765.783 78.2129C761.468 82.1445 759.648 78.3744 753.682 78.3744C747.716 78.3744 747.716 77.4912 741.75 77.4912C735.784 77.4912 735.784 77.3582 729.828 77.3582C723.872 77.3582 723.862 77.947 717.906 77.947C711.95 77.947 711.94 77.5482 705.984 77.5482C700.028 77.5482 700.018 77.4722 694.052 77.4722C688.086 77.4722 688.086 77.3202 682.12 77.3202C676.154 77.3202 676.154 77.4532 670.188 77.4532C664.222 77.4532 664.222 78.4219 658.256 78.4219C652.29 78.4219 652.29 78.1749 646.334 78.1749C640.368 78.1749 640.368 78.5738 634.402 78.5738C628.436 78.5738 628.436 77.6906 622.47 77.6906C616.504 77.6906 616.504 78.4788 610.538 78.4788C604.572 78.4788 604.572 77.4057 598.606 77.4057C592.64 77.4057 592.64 78.6498 586.674 78.6498C580.708 78.6498 580.708 77.5482 574.742 77.5482C568.776 77.5482 568.776 77.5197 562.81 77.5197C556.844 77.5197 556.844 77.4342 550.878 77.4342C544.912 77.4342 544.912 77.4342 538.946 77.4342C532.98 77.4342 532.98 77.5102 527.014 77.5102C521.048 77.5102 521.048 77.4152 515.082 77.4152C509.116 77.4152 509.116 77.5861 503.15 77.5861C497.184 77.5861 497.184 78.6783 491.218 78.6783C485.252 78.6783 485.252 78.6023 479.286 78.6023C473.32 78.6023 473.32 77.4152 467.354 77.4152C461.388 77.4152 461.388 78.0135 455.422 78.0135C449.456 78.0135 449.456 78.2224 443.49 78.2224C437.524 78.2224 437.524 78.6593 431.558 78.6593C425.592 78.6593 425.592 78.3554 419.626 78.3554C413.66 78.3554 413.66 78.1275 407.694 78.1275C401.728 78.1275 401.728 77.8521 395.762 77.8521C389.796 77.8521 389.796 77.5766 383.83 77.5766C377.864 77.5766 377.864 78.2984 371.898 78.2984C365.932 78.2984 365.932 77.3392 359.966 77.3392C354 77.3392 354 78.1654 348.034 78.1654C342.068 78.1654 342.068 77.4817 336.102 77.4817C330.136 77.4817 330.136 78.5738 324.17 78.5738C318.204 78.5738 318.204 77.3297 312.238 77.3297C306.272 77.3297 306.272 78.7542 300.306 78.7542C294.34 78.7542 294.34 77.7001 288.374 77.7001C282.408 77.7001 282.408 78.4313 276.442 78.4313C270.476 78.4313 270.476 77.7001 264.51 77.7001C258.544 77.7001 258.544 78.6878 252.578 78.6878C246.612 78.6878 246.612 78.2224 240.646 78.2224C234.68 78.2224 234.68 78.7162 228.714 78.7162C222.748 78.7162 222.748 78.6973 216.782 78.6973C210.816 78.6973 210.816 77.8426 204.85 77.8426C198.884 77.8426 198.884 78.4219 192.918 78.4219C186.952 78.4219 186.952 78.5453 180.986 78.5453C175.02 78.5453 175.02 78.4124 169.054 78.4124C163.088 78.4124 163.088 77.871 157.122 77.871C151.156 77.871 151.156 77.4912 145.19 77.4912C139.224 77.4912 139.224 78.3649 133.258 78.3649C127.292 78.3649 127.292 78.4124 121.326 78.4124C115.36 78.4124 115.36 77.6431 109.394 77.6431C103.428 77.6431 103.428 77.8426 97.4619 77.8426C91.4959 77.8426 91.4959 77.4247 85.5299 77.4247C79.5639 77.4247 79.5639 77.5766 73.5979 77.5766C67.6319 77.5766 67.6319 77.7381 61.6659 77.7381C55.6999 77.7381 55.6999 77.5007 49.7339 77.5007C43.7679 77.5007 43.7679 77.7381 37.7919 77.7381C31.816 77.7381 31.8259 78.5548 25.8599 78.5548C19.8939 78.5548 19.884 77.3962 13.918 77.3962C7.95198 77.3962 6.59969 81.6887 2.26439 77.7571C-2.0709 73.8255 1.85672 72.6289 1.85672 67.2063C1.85672 61.7837 2.27434 61.7837 2.27434 56.3611C2.27434 50.9385 1.48881 50.9385 1.48881 45.5064C1.48881 40.0743 1.83683 40.0838 1.83683 34.6517C1.83683 29.2196 1.98598 29.2291 1.98598 23.797C1.98598 18.3649 2.12519 18.3649 2.12519 12.9423C2.12519 7.51966 -2.37914 5.58234 1.72745 1.84065C6.04286 -2.09097 7.92215 1.49877 13.8882 1.49877C19.8542 1.49877 19.8542 1.80266 25.8202 1.80266C31.7862 1.80266 31.7862 2.14455 37.7422 2.14455C43.6983 2.14455 43.7082 2.53391 49.6643 2.53391C55.6203 2.53391 55.6303 2.45794 61.5863 2.45794C67.5424 2.45794 67.5523 2.45794 73.5183 2.45794C79.4843 2.45794 79.4843 1.94511 85.4503 1.94511C91.4163 1.94511 91.4163 2.41995 97.3823 2.41995C103.348 2.41995 103.348 1.50827 109.314 1.50827C115.28 1.50827 115.28 2.21102 121.236 2.21102C127.192 2.21102 127.202 1.9736 133.168 1.9736C139.134 1.9736 139.134 1.46078 145.1 1.46078C151.066 1.46078 151.066 2.268 157.032 2.268C162.998 2.268 162.998 1.4228 168.964 1.4228C174.93 1.4228 174.93 2.05908 180.896 2.05908C186.862 2.05908 186.862 1.67921 192.828 1.67921C198.794 1.67921 198.794 1.52726 204.76 1.52726C210.726 1.52726 210.726 1.43229 216.692 1.43229C222.658 1.43229 222.658 1.37531 228.624 1.37531C234.59 1.37531 234.59 2.24901 240.556 2.24901C246.522 2.24901 246.522 2.18253 252.488 2.18253C258.454 2.18253 258.454 2.44844 264.42 2.44844C270.386 2.44844 270.386 1.67921 276.352 1.67921C282.318 1.67921 282.318 2.10656 288.284 2.10656C294.25 2.10656 294.25 1.9831 300.216 1.9831C306.182 1.9831 306.182 2.13505 312.148 2.13505C318.114 2.13505 318.114 1.64122 324.08 1.64122C330.046 1.64122 330.046 2.25851 336.012 2.25851C341.978 2.25851 341.978 2.5719 347.944 2.5719C353.91 2.5719 353.91 1.78367 359.876 1.78367C365.842 1.78367 365.842 1.86914 371.808 1.86914C377.774 1.86914 377.774 1.52726 383.74 1.52726C389.706 1.52726 389.706 2.63837 395.672 2.63837C401.638 2.63837 401.638 1.56525 407.604 1.56525C413.57 1.56525 413.57 1.54625 419.536 1.54625C425.502 1.54625 425.502 1.54625 431.468 1.54625C437.434 1.54625 437.434 2.25851 443.4 2.25851C449.366 2.25851 449.366 1.77417 455.332 1.77417C461.298 1.77417 461.298 1.53676 467.264 1.53676C473.23 1.53676 473.23 2.76183 479.196 2.76183C485.162 2.76183 485.162 2.43894 491.128 2.43894C497.094 2.43894 497.094 1.78367 503.06 1.78367C509.026 1.78367 509.026 2.25851 514.992 2.25851C520.958 2.25851 520.958 1.63172 526.924 1.63172C532.89 1.63172 532.89 2.32498 538.856 2.32498C544.822 2.32498 544.822 2.06857 550.788 2.06857C556.754 2.06857 556.754 2.61938 562.72 2.61938C568.686 2.61938 568.686 1.36582 574.652 1.36582C580.618 1.36582 580.618 1.39431 586.584 1.39431C592.55 1.39431 592.55 2.29649 598.516 2.29649C604.482 2.29649 604.482 2.60039 610.448 2.60039C616.414 2.60039 616.414 2.60039 622.38 2.60039C628.346 2.60039 628.346 1.71719 634.312 1.71719C640.278 1.71719 640.278 2.43894 646.244 2.43894C652.21 2.43894 652.21 1.36582 658.176 1.36582C664.142 1.36582 664.142 2.41045 670.108 2.41045C676.074 2.41045 676.074 1.62223 682.04 1.62223C688.006 1.62223 688.006 2.74284 693.972 2.74284C699.938 2.74284 699.938 2.23951 705.904 2.23951C711.87 2.23951 711.87 1.57474 717.836 1.57474C723.802 1.57474 723.802 2.15404 729.778 2.15404C735.754 2.15404 735.744 2.33448 741.71 2.33448C747.676 2.33448 747.686 1.83115 753.652 1.83115C759.618 1.83115 761.378 -1.93903 765.704 1.9926C770.029 5.92422 766.221 7.51966 766.221 12.9518C766.221 18.3839 765.346 18.3744 765.346 23.797C765.346 29.2196 765.366 29.2196 765.366 34.6517C765.366 40.0838 765.207 40.0743 765.207 45.5064C765.207 50.9385 765.883 50.929 765.883 56.3611C765.883 61.7932 764.68 61.8501 765.932 67.1493C767.295 72.9138 769.89 74.4997 765.773 78.2414L765.783 78.2129Z" fill="#FFEBC2"/>
</svg>
