<svg width="1200" height="56" viewBox="0 0 1200 56" fill="none" xmlns="http://www.w3.org/2000/svg">
<path d="M1196.88 53.3504C1190.71 59.1617 1187.7 53.6022 1178.8 53.6022C1169.9 53.6022 1169.9 52.2978 1160.99 52.2978C1152.09 52.2978 1152.09 52.0909 1143.18 52.0909C1134.28 52.0909 1134.28 52.9635 1125.37 52.9635C1116.47 52.9635 1116.47 52.3788 1107.56 52.3788C1098.65 52.3788 1098.66 52.2619 1089.75 52.2619C1080.85 52.2619 1080.85 52.037 1071.94 52.037C1063.03 52.037 1063.04 52.2349 1054.13 52.2349C1045.23 52.2349 1045.23 53.6652 1036.32 53.6652C1027.42 53.6652 1027.42 53.2964 1018.51 53.2964C1009.6 53.2964 1009.61 53.8901 1000.7 53.8901C991.793 53.8901 991.802 52.5767 982.893 52.5767C973.983 52.5767 973.983 53.7372 965.083 53.7372C956.183 53.7372 956.183 52.1449 947.273 52.1449C938.373 52.1449 938.373 53.9801 929.464 53.9801C920.564 53.9801 920.564 52.3518 911.654 52.3518C902.754 52.3518 902.754 52.3068 893.844 52.3068C884.934 52.3068 884.934 52.1899 876.034 52.1899C867.135 52.1899 867.135 52.1899 858.225 52.1899C849.315 52.1899 849.315 52.2978 840.415 52.2978C831.515 52.2978 831.515 52.1629 822.605 52.1629C813.695 52.1629 813.695 52.4148 804.796 52.4148C795.896 52.4148 795.896 54.034 786.986 54.034C778.076 54.034 778.076 53.9171 769.176 53.9171C760.276 53.9171 760.276 52.1629 751.367 52.1629C742.467 52.1629 742.467 53.0445 733.567 53.0445C724.667 53.0445 724.667 53.3504 715.757 53.3504C706.847 53.3504 706.857 53.9981 697.947 53.9981C689.047 53.9981 689.047 53.5573 680.138 53.5573C671.228 53.5573 671.238 53.2244 662.328 53.2244C653.428 53.2244 653.428 52.8106 644.518 52.8106C635.618 52.8106 635.618 52.3968 626.708 52.3968C617.799 52.3968 617.809 53.4583 608.899 53.4583C599.989 53.4583 599.999 52.046 591.089 52.046C582.189 52.046 582.189 53.2694 573.279 53.2694C564.37 53.2694 564.37 52.2619 555.47 52.2619C546.57 52.2619 546.57 53.8811 537.66 53.8811C528.75 53.8811 528.75 52.037 519.85 52.037C510.95 52.037 510.95 54.142 502.041 54.142C493.131 54.142 493.131 52.5767 484.231 52.5767C475.331 52.5767 475.331 53.6652 466.421 53.6652C457.511 53.6652 457.511 52.5767 448.611 52.5767C439.712 52.5767 439.702 54.034 430.802 54.034C421.902 54.034 421.902 53.3414 412.992 53.3414C404.082 53.3414 404.082 54.079 395.182 54.079C386.282 54.079 386.273 54.052 377.373 54.052C368.463 54.052 368.463 52.7836 359.563 52.7836C350.653 52.7836 350.653 53.6382 341.753 53.6382C332.843 53.6382 332.843 53.8181 323.944 53.8181C315.044 53.8181 315.034 53.6202 306.134 53.6202C297.234 53.6202 297.224 52.8196 288.324 52.8196C279.414 52.8196 279.414 52.2529 270.514 52.2529C261.605 52.2529 261.605 53.5483 252.705 53.5483C243.805 53.5483 243.795 53.6112 234.895 53.6112C225.995 53.6112 225.995 52.4778 217.085 52.4778C208.185 52.4778 208.185 52.7746 199.276 52.7746C190.366 52.7746 190.366 52.1629 181.466 52.1629C172.556 52.1629 172.556 52.3788 163.656 52.3788C154.746 52.3788 154.746 52.6127 145.846 52.6127C136.937 52.6127 136.937 52.2619 128.037 52.2619C119.137 52.2619 119.127 52.6217 110.227 52.6217C101.327 52.6217 101.317 53.8361 92.4074 53.8361C83.4976 53.8361 83.4976 52.1269 74.5977 52.1269C65.6978 52.1269 65.6879 52.4958 56.7781 52.4958C47.8682 52.4958 47.8682 53.2604 38.9584 53.2604C30.0486 53.2604 30.0486 52.6757 21.1388 52.6757C12.2289 52.6757 8.93747 59.3956 2.77219 53.5753C-3.65164 47.5211 3.10034 44.7054 3.10034 36.3123C3.10034 27.9192 3.32905 27.9192 3.32905 19.5171C3.32905 11.115 -2.93567 8.92896 3.48816 2.86578C9.91198 -3.19741 12.2289 2.24507 21.1288 2.24507C30.0287 2.24507 30.0287 1.87624 38.9385 1.87624C47.8483 1.87624 47.8384 2.32603 56.7482 2.32603C65.658 2.32603 65.6481 2.83879 74.5579 2.83879C83.4677 2.83879 83.4578 3.41452 92.3676 3.41452C101.277 3.41452 101.268 3.30657 110.177 3.30657C119.087 3.30657 119.077 3.30657 127.987 3.30657C136.897 3.30657 136.887 2.55092 145.797 2.55092C154.707 2.55092 154.697 3.26159 163.606 3.26159C172.516 3.26159 172.506 1.92122 181.416 1.92122C190.326 1.92122 190.316 2.96473 199.226 2.96473C208.136 2.96473 208.126 2.61389 217.036 2.61389C225.945 2.61389 225.945 1.84925 234.845 1.84925C243.745 1.84925 243.745 3.04569 252.655 3.04569C261.565 3.04569 261.555 1.79527 270.465 1.79527C279.375 1.79527 279.365 2.73084 288.274 2.73084C297.184 2.73084 297.174 2.1641 306.084 2.1641C314.994 2.1641 314.994 1.9482 323.894 1.9482C332.794 1.9482 332.794 1.80427 341.703 1.80427C350.613 1.80427 350.613 1.72331 359.513 1.72331C368.413 1.72331 368.413 3.01871 377.323 3.01871C386.233 3.01871 386.233 2.91975 395.133 2.91975C404.033 2.91975 404.033 3.31557 412.942 3.31557C421.852 3.31557 421.852 2.1731 430.752 2.1731C439.652 2.1731 439.652 2.80281 448.562 2.80281C457.472 2.80281 457.462 2.62289 466.362 2.62289C475.261 2.62289 475.261 2.84779 484.171 2.84779C493.081 2.84779 493.071 2.11013 501.981 2.11013C510.891 2.11013 510.881 3.01871 519.791 3.01871C528.7 3.01871 528.69 3.47749 537.6 3.47749C546.51 3.47749 546.5 2.31703 555.41 2.31703C564.32 2.31703 564.31 2.44297 573.22 2.44297C582.13 2.44297 582.12 1.93021 591.029 1.93021C599.939 1.93021 599.929 3.57645 608.839 3.57645C617.749 3.57645 617.739 1.98419 626.649 1.98419C635.559 1.98419 635.559 1.9572 644.459 1.9572C653.358 1.9572 653.358 1.9572 662.268 1.9572C671.178 1.9572 671.178 3.00971 680.078 3.00971C688.978 3.00971 688.978 2.29004 697.888 2.29004C706.797 2.29004 706.797 1.93021 715.697 1.93021C724.597 1.93021 724.597 3.74737 733.507 3.74737C742.417 3.74737 742.417 3.27059 751.317 3.27059C760.217 3.27059 760.227 2.29904 769.126 2.29904C778.026 2.29904 778.026 3.00071 786.936 3.00071C795.846 3.00071 795.846 2.07414 804.746 2.07414C813.646 2.07414 813.656 3.09967 822.556 3.09967C831.455 3.09967 831.465 2.72184 840.365 2.72184C849.265 2.72184 849.275 3.53147 858.175 3.53147C867.075 3.53147 867.085 1.67833 875.985 1.67833C884.885 1.67833 884.895 1.72331 893.794 1.72331C902.694 1.72331 902.704 3.06369 911.604 3.06369C920.504 3.06369 920.514 3.50448 929.414 3.50448C938.314 3.50448 938.324 3.50448 947.223 3.50448C956.123 3.50448 956.133 2.19109 965.033 2.19109C973.933 2.19109 973.933 3.2526 982.843 3.2526C991.753 3.2526 991.743 1.66034 1000.65 1.66034C1009.56 1.66034 1009.56 3.20762 1018.46 3.20762C1027.36 3.20762 1027.37 2.04716 1036.27 2.04716C1045.17 2.04716 1045.18 3.70239 1054.08 3.70239C1062.98 3.70239 1062.99 2.94674 1071.89 2.94674C1080.79 2.94674 1080.8 1.96619 1089.7 1.96619C1098.6 1.96619 1098.61 2.8208 1107.52 2.8208C1116.43 2.8208 1116.43 3.08168 1125.33 3.08168C1134.23 3.08168 1134.24 2.34402 1143.15 2.34402C1152.06 2.34402 1152.06 2.52394 1160.97 2.52394C1169.88 2.52394 1169.88 1.85824 1178.79 1.85824C1187.7 1.85824 1190.15 -2.82858 1196.32 2.98272C1202.5 8.79403 1196.23 11.1239 1196.23 19.526C1196.23 27.9282 1194.02 28.234 1196 36.4382C1198.14 45.2991 1203.31 47.2872 1196.89 53.3504H1196.88Z" fill="white"/>
</svg>
