<svg width="408" height="456" viewBox="0 0 408 456" fill="none" xmlns="http://www.w3.org/2000/svg">
<path d="M403.585 452.236C395.272 460.583 391.625 452.442 379.86 452.442C368.096 452.442 368.096 451.361 356.331 451.361C344.567 451.361 344.567 451.194 332.802 451.194C321.038 451.194 321.038 451.921 309.274 451.921C297.509 451.921 297.509 451.44 285.745 451.44C273.98 451.44 273.98 451.341 262.216 451.341C250.451 451.341 250.451 451.155 238.687 451.155C226.923 451.155 226.923 451.322 215.158 451.322C203.394 451.322 203.394 452.511 191.629 452.511C179.865 452.511 179.865 452.207 168.101 452.207C156.336 452.207 156.336 452.698 144.572 452.698C132.807 452.698 132.807 451.607 121.043 451.607C109.278 451.607 109.278 452.57 97.514 452.57C85.7495 452.57 85.7495 451.243 73.9851 451.243C62.2207 451.243 62.2207 452.767 50.4563 452.767C38.6919 452.767 38.6919 451.41 26.9176 451.42C15.1434 451.43 12.1729 459.914 3.84956 451.577C-4.47377 443.24 4.14367 440.252 4.14367 428.454C4.14367 416.656 4.14367 416.656 4.14367 404.859C4.14367 393.061 4.05543 393.061 4.05543 381.264C4.05543 369.466 4.16327 369.466 4.16327 357.669C4.16327 345.871 3.9574 345.871 3.9574 334.073C3.9574 322.276 2.61429 322.276 2.61429 310.478C2.61429 298.681 2.71233 298.681 2.71233 286.883C2.71233 275.085 4.17308 275.085 4.17308 263.288C4.17308 251.49 3.4378 251.49 3.4378 239.693C3.4378 227.895 3.1829 227.895 3.1829 216.097C3.1829 204.3 2.6437 204.3 2.6437 192.502C2.6437 180.705 3.00644 180.705 3.00644 168.907C3.00644 157.109 3.28094 157.109 3.28094 145.312C3.28094 133.514 3.62407 133.514 3.62407 121.717C3.62407 109.919 3.9672 109.919 3.9672 98.1215C3.9672 86.3239 3.08487 86.3239 3.08487 74.5264C3.08487 62.7288 4.26131 62.7288 4.26131 50.9312C4.26131 39.1336 3.24173 39.1336 3.24173 27.3262C3.24173 15.5188 -4.45417 12.5694 3.86916 4.22256C12.1925 -4.12423 15.1336 3.08213 26.898 3.08213C38.6624 3.08213 38.6624 4.61581 50.4269 4.61581C62.1913 4.61581 62.1913 2.86584 73.9557 2.86584C85.7201 2.86584 85.7201 4.16357 97.4846 4.16357C109.249 4.16357 109.249 3.25909 121.013 3.25909C132.778 3.25909 132.778 4.16357 144.542 4.16357C156.307 4.16357 156.307 2.95432 168.071 2.95432C179.836 2.95432 179.836 3.53437 191.6 3.53437C203.364 3.53437 203.364 2.92482 215.129 2.92482C226.893 2.92482 226.893 2.95432 238.658 2.95432C250.422 2.95432 250.422 4.00627 262.186 4.00627C273.951 4.00627 273.951 3.29842 285.715 3.29842C297.48 3.29842 297.48 3.15095 309.244 3.15095C321.009 3.15095 321.009 3.30825 332.773 3.30825C344.537 3.30825 344.537 3.96695 356.302 3.96695C368.066 3.96695 368.066 4.43885 379.841 4.43885C391.615 4.43885 395.311 -4.87142 403.634 3.47538C411.957 11.8222 403.791 15.5286 403.791 27.3262C403.791 39.1238 402.85 39.1238 402.85 50.9214C402.85 62.7189 403.095 62.7189 403.095 74.5165C403.095 86.3141 402.585 86.3141 402.585 98.1117C402.585 109.909 402.771 109.909 402.771 121.707C402.771 133.504 402.967 133.504 402.967 145.302C402.967 157.1 402.683 157.1 402.683 168.897C402.683 180.695 402.977 180.695 402.977 192.492C402.977 204.29 403.977 204.29 403.977 216.088C403.977 227.885 402.556 227.885 402.556 239.683C402.556 251.48 402.86 251.48 402.86 263.278C402.86 275.076 403.497 275.076 403.497 286.873C403.497 298.671 403.007 298.671 403.007 310.468C403.007 322.266 403.928 322.266 403.928 334.063C403.928 345.861 403.526 345.861 403.526 357.659C403.526 369.456 403.35 369.456 403.35 381.254C403.35 393.051 403.183 393.051 403.183 404.849C403.183 416.647 401.232 416.833 403.742 428.366C406.448 440.773 411.879 443.909 403.556 452.256L403.585 452.236Z" fill="#FFEBC2"/>
</svg>
