<svg width="18" height="18" viewBox="0 0 18 18" fill="none" xmlns="http://www.w3.org/2000/svg">
<path d="M7.33333 12.75V5.24996L12.3333 8.99996M9 0.666626C7.90565 0.666626 6.82202 0.882174 5.81097 1.30096C4.79992 1.71975 3.88126 2.33358 3.10744 3.1074C1.54464 4.67021 0.666666 6.78982 0.666666 8.99996C0.666666 11.2101 1.54464 13.3297 3.10744 14.8925C3.88126 15.6663 4.79992 16.2802 5.81097 16.699C6.82202 17.1177 7.90565 17.3333 9 17.3333C11.2101 17.3333 13.3298 16.4553 14.8926 14.8925C16.4554 13.3297 17.3333 11.2101 17.3333 8.99996C17.3333 7.90561 17.1178 6.82198 16.699 5.81093C16.2802 4.79988 15.6664 3.88122 14.8926 3.1074C14.1187 2.33358 13.2001 1.71975 12.189 1.30096C11.178 0.882174 10.0943 0.666626 9 0.666626Z" fill="#A1845E"/>
</svg>
