<svg width="328" height="168" viewBox="0 0 328 168" fill="none" xmlns="http://www.w3.org/2000/svg">
<path d="M323.804 164.424C315.825 172.436 312.294 164.482 300.872 164.482C289.45 164.482 289.45 164.243 278.018 164.243C266.586 164.243 266.596 164.415 255.164 164.415C243.732 164.415 243.742 164.329 232.319 164.329C220.897 164.329 220.897 164.29 209.465 164.29C198.033 164.29 198.043 164.176 186.621 164.176C175.199 164.176 175.199 164.176 163.767 164.176C152.335 164.176 152.345 164.606 140.913 164.606C129.481 164.606 129.491 164.319 118.059 164.319C106.627 164.319 106.627 164.625 95.2044 164.625C83.7823 164.625 83.7823 164.558 72.3503 164.558C60.9184 164.558 60.9184 164.109 49.4962 164.109C38.074 164.109 38.0643 164.539 26.6421 164.539C15.2199 164.539 11.9425 172.197 3.96354 164.185C-4.01541 156.173 3.54411 152.884 3.54411 141.411C3.54411 129.938 3.80747 129.938 3.80747 118.465C3.80747 106.992 3.89526 106.992 3.89526 95.5194C3.89526 84.0465 3.53435 84.0465 3.53435 72.5735C3.53435 61.1005 3.68067 61.1005 3.68067 49.6275C3.68067 38.1546 3.74894 38.1546 3.74894 26.6816C3.74894 15.2086 -4.58115 11.7572 3.59288 3.55399C11.7669 -4.64918 15.2101 3.9173 26.6323 3.9173C38.0545 3.9173 38.0545 3.45838 49.4865 3.45838C60.9184 3.45838 60.9086 3.68784 72.3406 3.68784C83.7725 3.68784 83.7627 3.66872 95.1849 3.66872C106.607 3.66872 106.607 3.93642 118.039 3.93642C129.471 3.93642 129.461 3.66872 140.883 3.66872C152.306 3.66872 152.306 3.92686 163.738 3.92686C175.169 3.92686 175.16 3.41058 186.592 3.41058C198.024 3.41058 198.014 3.4775 209.446 3.4775C220.878 3.4775 220.878 3.65916 232.3 3.65916C243.722 3.65916 243.722 3.9173 255.154 3.9173C266.586 3.9173 266.586 3.49663 278.008 3.49663C289.43 3.49663 289.44 3.96511 300.862 3.96511C312.284 3.96511 315.698 -4.25719 323.687 3.75477C331.676 11.7667 323.434 15.1991 323.434 26.6625C323.434 38.1354 324.019 38.1354 324.019 49.6084C324.019 61.0814 323.57 61.0814 323.57 72.5544C323.57 84.0273 323.629 84.0273 323.629 95.5003C323.629 106.973 323.658 106.973 323.658 118.446C323.658 129.919 321.024 130.225 323.482 141.45C326.106 153.448 331.998 156.211 323.824 164.424H323.804Z" fill="#FFEBC2"/>
</svg>
