<svg width="408" height="232" viewBox="0 0 408 232" fill="none" xmlns="http://www.w3.org/2000/svg">
<path d="M403.666 228.37C395.21 236.434 391.732 228.544 379.974 228.544C368.217 228.544 368.217 227.587 356.459 227.587C344.702 227.587 344.702 227.442 332.944 227.442C321.187 227.442 321.187 228.08 309.429 228.08C297.672 228.08 297.672 227.655 285.914 227.655C274.157 227.655 274.157 227.568 262.399 227.568C250.642 227.568 250.642 227.403 238.884 227.403C227.126 227.403 227.126 227.548 215.369 227.548C203.611 227.548 203.611 228.593 191.854 228.593C180.096 228.593 180.096 228.322 168.339 228.322C156.581 228.322 156.581 228.757 144.824 228.757C133.066 228.757 133.066 227.8 121.309 227.8C109.551 227.8 109.551 228.651 97.7937 228.651C86.0362 228.651 86.0362 227.49 74.2787 227.49C62.5212 227.49 62.5212 228.834 50.7637 228.834C39.0061 228.834 39.0061 227.645 27.2388 227.645C15.4715 227.645 12.5811 235.845 4.12549 227.771C-4.33013 219.697 4.39003 216.97 4.39003 205.754C4.39003 194.537 4.39003 194.537 4.39003 183.331C4.39003 172.114 4.31165 172.114 4.31165 160.898C4.31165 149.681 4.40963 149.681 4.40963 138.465C4.40963 127.249 4.22347 127.249 4.22347 116.032C4.22347 104.816 3.02812 104.816 3.02812 93.5994C3.02812 82.383 3.1163 82.383 3.1163 71.1666C3.1163 59.9502 4.41943 59.9502 4.41943 48.7338C4.41943 37.5174 3.76296 37.5174 3.76296 26.301C3.76296 15.0846 -4.58488 11.5359 3.5866 3.74245C11.7581 -4.05101 15.4617 3.22031 27.2192 3.22031C38.9767 3.22031 38.9767 3.54907 50.7343 3.54907C62.4918 3.54907 62.4918 3.7908 74.2493 3.7908C86.0068 3.7908 86.0068 4.09055 97.7644 4.09055C109.522 4.09055 109.522 4.3903 121.279 4.3903C133.037 4.3903 133.037 3.61675 144.794 3.61675C156.552 3.61675 156.552 4.65137 168.309 4.65137C180.067 4.65137 180.067 3.75212 191.825 3.75212C203.582 3.75212 203.582 4.48699 215.34 4.48699C227.097 4.48699 227.097 3.29766 238.855 3.29766C250.612 3.29766 250.612 4.6417 262.37 4.6417C274.127 4.6417 274.127 3.10428 285.885 3.10428C297.642 3.10428 297.642 4.24526 309.4 4.24526C321.157 4.24526 321.157 3.45237 332.915 3.45237C344.672 3.45237 344.672 4.24526 356.43 4.24526C368.187 4.24526 368.187 3.18163 379.955 3.18163C391.722 3.18163 395.132 -4.33142 403.597 3.73278C412.063 11.797 404.195 15.0652 404.195 26.2816C404.195 37.498 404.175 37.498 404.175 48.7048C404.175 59.9115 403.235 59.9212 403.235 71.1376C403.235 82.354 403.871 82.354 403.871 93.5704C403.871 104.787 404.009 104.787 404.009 116.003C404.009 127.22 403.862 127.22 403.862 138.436C403.862 149.652 403.274 149.652 403.274 160.869C403.274 172.085 402.852 172.085 402.852 183.302C402.852 194.518 401.344 194.711 403.803 205.667C406.448 217.473 411.827 220.557 403.656 228.351L403.666 228.37Z" fill="#FFEBC2"/>
</svg>
