<svg width="384" height="378" viewBox="0 0 384 378" fill="none" xmlns="http://www.w3.org/2000/svg">
<path d="M380.038 374.268C371.653 382.514 368.015 374.523 356.247 374.523C344.479 374.523 344.479 373.162 332.711 373.162C320.943 373.162 320.943 372.946 309.175 372.946C297.406 372.946 297.406 373.857 285.638 373.857C273.87 373.857 273.87 373.25 262.102 373.25C250.334 373.25 250.334 373.132 238.566 373.132C226.798 373.132 226.798 372.897 215.03 372.897C203.262 372.897 203.262 373.103 191.494 373.103C179.726 373.103 179.726 374.601 167.957 374.601C156.189 374.601 156.189 374.209 144.421 374.209C132.653 374.209 132.653 374.836 120.885 374.836C109.117 374.836 109.117 373.465 97.349 373.465C85.5809 373.465 85.5809 374.679 73.8128 374.679C62.0447 374.679 62.0447 373.015 50.2766 373.015C38.5086 373.015 38.5086 374.934 26.7307 374.934C14.9528 374.934 12.1284 381.701 3.74368 373.455C-4.5136 365.337 4.02807 362.449 4.02807 350.883C4.02807 339.318 4.15556 339.318 4.15556 327.753C4.15556 320.043 4.15556 312.333 4.15556 304.623C4.15556 293.058 4.03788 293.058 4.03788 281.493C4.03788 269.928 4.17517 269.928 4.17517 258.363C4.17517 246.798 3.91039 246.798 3.91039 235.233C3.91039 223.668 2.22363 223.668 2.22363 212.103C2.22363 200.538 2.35112 200.538 2.35112 188.973C2.35112 177.408 4.19479 177.408 4.19479 165.842C4.19479 154.277 3.27295 154.277 3.27295 142.712C3.27295 131.147 2.94933 131.147 2.94933 119.572C2.94933 108.007 2.27267 108.007 2.27267 96.4325C2.27267 84.8577 2.73358 84.8674 2.73358 73.2926C2.73358 61.7275 3.08663 61.7275 3.08663 50.1527C3.08663 38.5778 3.51812 38.5778 3.51812 27.0128C3.51812 15.4379 -4.53321 12.5295 3.72406 4.41143C11.9813 -3.70663 14.9626 3.5203 26.7307 3.5203C38.4988 3.5203 38.4988 4.99899 50.2668 4.99899C62.0349 4.99899 62.0349 3.71616 73.803 3.71616C85.5711 3.71616 85.5711 4.77376 97.3392 4.77376C109.107 4.77376 109.107 3.07964 120.875 3.07964C132.643 3.07964 132.643 5.00878 144.412 5.00878C156.18 5.00878 156.18 2.80545 167.948 2.80545C179.716 2.80545 179.716 4.44081 191.484 4.44081C203.252 4.44081 203.252 3.30487 215.02 3.30487C226.788 3.30487 226.788 4.44081 238.556 4.44081C250.324 4.44081 250.324 2.92296 262.092 2.92296C273.86 2.92296 273.86 3.64761 285.629 3.64761C297.397 3.64761 297.397 2.87399 309.165 2.87399C320.933 2.87399 320.933 2.90337 332.701 2.90337C344.469 2.90337 344.469 4.22537 356.247 4.22537C368.025 4.22537 371.781 -4.76424 380.175 3.48113C388.57 11.7265 380.528 15.4379 380.528 27.003C380.528 38.568 380.322 38.568 380.322 50.1331C380.322 61.6982 379.489 61.6982 379.489 73.2632C379.489 84.8283 378.9 84.8283 378.9 96.3933C378.9 107.958 380.254 107.958 380.254 119.523C380.254 131.089 380.322 131.089 380.322 142.654C380.322 154.219 379.136 154.219 379.136 165.784C379.136 177.349 379.45 177.349 379.45 188.914C379.45 200.479 378.812 200.479 378.812 212.044C378.812 223.609 379.038 223.609 379.038 235.174C379.038 246.739 379.283 246.739 379.283 258.314C379.283 269.879 378.92 269.879 378.92 281.454C378.92 293.019 379.293 293.019 379.293 304.594C379.293 316.159 380.558 316.159 380.558 327.734C380.558 339.309 376.292 339.798 378.793 351.089C381.499 363.291 388.295 366.15 380.038 374.268Z" fill="#FFEBC2"/>
</svg>
