<svg width="328" height="334" viewBox="0 0 328 334" fill="none" xmlns="http://www.w3.org/2000/svg">
<path d="M323.966 330.316C315.965 338.472 312.33 330.54 300.919 330.54C289.507 330.54 289.507 329.359 278.086 329.359C266.665 329.359 266.675 329.174 255.253 329.174C243.832 329.174 243.842 329.964 232.43 329.964C221.019 329.964 221.019 329.437 209.598 329.437C198.176 329.437 198.186 329.33 186.775 329.33C175.363 329.33 175.363 329.125 163.942 329.125C152.521 329.125 152.53 329.311 141.109 329.311C129.688 329.311 129.698 330.608 118.277 330.608C106.855 330.608 106.855 330.277 95.4438 330.277C84.0323 330.277 84.0323 330.813 72.6111 330.813C61.1898 330.813 61.1898 329.623 49.7783 329.623C38.3668 329.623 38.3571 330.677 26.9456 330.677C15.5341 330.677 12.7275 337.653 4.72681 329.496C-3.2739 321.339 3.31377 318.471 3.31377 306.831C3.31377 295.19 4.78528 295.19 4.78528 283.56C4.78528 271.92 4.82426 271.92 4.82426 260.28C4.82426 248.64 4.93146 248.64 4.93146 237C4.93146 225.36 4.93146 225.36 4.93146 213.72C4.93146 202.08 4.83401 202.08 4.83401 190.449C4.83401 178.809 4.95095 178.809 4.95095 167.179C4.95095 155.549 4.72681 155.539 4.72681 143.899C4.72681 132.259 3.26505 132.259 3.26505 120.619C3.26505 108.979 3.37224 108.979 3.37224 97.3386C3.37224 85.6985 4.96069 85.6985 4.96069 74.0584C4.96069 62.4184 4.1616 62.4184 4.1616 50.7783C4.1616 39.1382 3.87899 39.1382 3.87899 27.4982C3.87899 15.8581 -4.61872 11.9651 3.52816 3.65212C11.6751 -4.66082 15.5146 3.81799 26.9261 3.81799C38.3376 3.81799 38.3376 4.12046 49.7588 4.12046C61.1801 4.12046 61.1703 4.49122 72.5916 4.49122C84.0128 4.49122 84.0031 4.86199 95.4146 4.86199C106.826 4.86199 106.826 3.89605 118.247 3.89605C129.669 3.89605 129.659 5.17421 141.07 5.17421C152.482 5.17421 152.482 4.06192 163.903 4.06192C175.324 4.06192 175.314 4.97907 186.736 4.97907C198.157 4.97907 198.147 3.50577 209.568 3.50577C220.99 3.50577 220.99 5.17421 232.401 5.17421C243.813 5.17421 243.813 3.26184 255.234 3.26184C266.655 3.26184 266.655 4.6766 278.067 4.6766C289.478 4.6766 289.488 3.69115 300.899 3.69115C312.311 3.69115 315.39 -3.62658 323.391 4.53025C331.392 12.6871 324.57 15.8288 324.57 27.4689C324.57 39.109 323.946 39.109 323.946 50.7393C323.946 62.3793 324.609 62.3793 324.609 74.0194C324.609 85.6595 324.58 85.6595 324.58 97.2996C324.58 108.94 323.43 108.94 323.43 120.58C323.43 132.22 324.21 132.22 324.21 143.85C324.21 155.48 324.375 155.49 324.375 167.12C324.375 178.751 324.2 178.761 324.2 190.401C324.2 202.041 323.479 202.041 323.479 213.681C323.479 225.321 322.972 225.321 322.972 236.961C322.972 248.601 324.141 248.601 324.141 260.241C324.141 271.881 324.2 271.881 324.2 283.521C324.2 295.161 320.711 295.552 323.186 306.928C325.847 319.163 332.103 322.003 323.956 330.306L323.966 330.316Z" fill="#FFEBC2"/>
</svg>
