<svg width="372" height="378" viewBox="0 0 372 378" fill="none" xmlns="http://www.w3.org/2000/svg">
<path d="M368.162 374.268C360.039 382.514 356.514 374.523 345.114 374.523C333.714 374.523 333.714 373.162 322.313 373.162C310.913 373.162 310.913 372.946 299.513 372.946C288.112 372.946 288.112 373.857 276.712 373.857C265.312 373.857 265.312 373.25 253.911 373.25C242.511 373.25 242.511 373.132 231.111 373.132C219.71 373.132 219.71 372.897 208.31 372.897C196.91 372.897 196.91 373.103 185.509 373.103C174.109 373.103 174.109 374.601 162.709 374.601C151.308 374.601 151.308 374.209 139.908 374.209C128.508 374.209 128.508 374.836 117.107 374.836C105.707 374.836 105.707 373.465 94.3068 373.465C82.9065 373.465 82.9065 374.679 71.5062 374.679C60.1058 374.679 60.1058 373.015 48.7055 373.015C37.3052 373.015 37.3052 374.934 25.8953 374.934C14.4855 374.934 11.7494 381.701 3.62669 373.455C-4.37255 365.337 3.90219 362.449 3.90219 350.883C3.90219 339.318 4.0257 339.318 4.0257 327.753C4.0257 320.043 4.0257 312.333 4.0257 304.623C4.0257 293.058 3.91169 293.058 3.91169 281.493C3.91169 269.928 4.0447 269.928 4.0447 258.363C4.0447 246.798 3.78819 246.798 3.78819 235.233C3.78819 223.668 2.15414 223.668 2.15414 212.103C2.15414 200.538 2.27765 200.538 2.27765 188.973C2.27765 177.408 4.0637 177.408 4.0637 165.842C4.0637 154.277 3.17067 154.277 3.17067 142.712C3.17067 131.147 2.85716 131.147 2.85716 119.572C2.85716 108.007 2.20165 108.007 2.20165 96.4325C2.20165 84.8577 2.64816 84.8674 2.64816 73.2926C2.64816 61.7275 2.99017 61.7275 2.99017 50.1527C2.99017 38.5778 3.40818 38.5778 3.40818 27.0128C3.40818 15.4379 -4.39155 12.5295 3.60769 4.41143C11.6069 -3.70663 14.495 3.5203 25.8953 3.5203C37.2957 3.5203 37.2957 4.99899 48.696 4.99899C60.0963 4.99899 60.0963 3.71616 71.4967 3.71616C82.897 3.71616 82.897 4.77376 94.2973 4.77376C105.698 4.77376 105.698 3.07964 117.098 3.07964C128.498 3.07964 128.498 5.00878 139.899 5.00878C151.299 5.00878 151.299 2.80545 162.699 2.80545C174.1 2.80545 174.1 4.44081 185.5 4.44081C196.9 4.44081 196.9 3.30487 208.301 3.30487C219.701 3.30487 219.701 4.44081 231.101 4.44081C242.502 4.44081 242.502 2.92296 253.902 2.92296C265.302 2.92296 265.302 3.64761 276.703 3.64761C288.103 3.64761 288.103 2.87399 299.503 2.87399C310.904 2.87399 310.904 2.90337 322.304 2.90337C333.704 2.90337 333.704 4.22537 345.114 4.22537C356.524 4.22537 360.163 -4.76424 368.295 3.48113C376.427 11.7265 368.637 15.4379 368.637 27.003C368.637 38.568 368.437 38.568 368.437 50.1331C368.437 61.6982 367.63 61.6982 367.63 73.2632C367.63 84.8283 367.06 84.8283 367.06 96.3933C367.06 107.958 368.371 107.958 368.371 119.523C368.371 131.089 368.437 131.089 368.437 142.654C368.437 154.219 367.288 154.219 367.288 165.784C367.288 177.349 367.592 177.349 367.592 188.914C367.592 200.479 366.974 200.479 366.974 212.044C366.974 223.609 367.193 223.609 367.193 235.174C367.193 246.739 367.43 246.739 367.43 258.314C367.43 269.879 367.079 269.879 367.079 281.454C367.079 293.019 367.44 293.019 367.44 304.594C367.44 316.159 368.665 316.159 368.665 327.734C368.665 339.309 364.533 339.798 366.955 351.089C369.577 363.291 376.161 366.15 368.162 374.268Z" fill="#FFEBC2"/>
</svg>
