<svg width="756" height="348" viewBox="0 0 756 348" fill="none" xmlns="http://www.w3.org/2000/svg">
<path 
d=
"M752.739 345.157C746.49 351.463 743.644 345.324 734.728 345.324C725.802 345.324 725.802 344.43 716.875 344.43C707.949 344.43 707.949 344.293 699.023 344.293C690.097 344.293 690.097 344.892 681.181 344.892C672.255 344.892 672.255 344.489 663.329 344.489C654.403 344.489 654.403 344.411 645.477 344.411C636.551 344.411 636.551 344.253 627.634 344.253C618.718 344.253 618.708 344.391 609.782 344.391C600.856 344.391 600.856 345.373 591.93 345.373C583.004 345.373 583.004 345.118 574.078 345.118C565.152 345.118 565.152 345.53 556.226 345.53C547.3 345.53 547.3 344.627 538.374 344.627C529.447 344.627 529.447 345.422 520.521 345.422C511.595 345.422 511.595 344.322 502.669 344.322C493.743 344.322 493.743 345.589 484.817 345.589C475.891 345.589 475.891 344.47 466.965 344.47C458.039 344.47 458.039 344.44 449.113 344.44C440.187 344.44 440.187 344.361 431.26 344.361C422.334 344.361 422.334 344.361 413.408 344.361C404.482 344.361 404.482 344.44 395.556 344.44C386.63 344.44 386.63 344.352 377.704 344.352C368.778 344.352 368.778 344.519 359.852 344.519C350.926 344.519 350.926 345.629 342 345.629C333.074 345.629 333.074 345.55 324.147 345.55C315.221 345.55 315.221 344.342 306.295 344.342C297.369 344.342 297.369 344.951 288.443 344.951C279.517 344.951 279.517 345.167 270.591 345.167C261.665 345.167 261.665 345.609 252.739 345.609C243.813 345.609 243.813 345.304 234.887 345.304C225.96 345.304 225.96 345.079 217.034 345.079C208.108 345.079 208.108 344.794 199.182 344.794C190.256 344.794 190.256 344.509 181.33 344.509C172.404 344.509 172.404 345.236 163.478 345.236C154.552 345.236 154.552 344.263 145.626 344.263C136.7 344.263 136.7 345.108 127.773 345.108C118.847 345.108 118.847 344.411 109.921 344.411C100.995 344.411 100.995 345.53 92.0691 345.53C83.143 345.53 83.143 344.263 74.217 344.263C65.2909 344.263 65.2909 345.717 56.3549 345.717C47.4189 345.717 47.4288 344.636 38.4928 344.636C29.5568 344.636 29.5667 345.383 20.6307 345.383C11.7046 345.383 9.29454 351.051 3.03636 344.745C-3.22182 338.438 2.13383 336.012 2.13383 327.014C2.13383 318.016 2.61981 318.016 2.61981 309.028C2.61981 300.04 2.10408 300.03 2.10408 291.042C2.10408 282.054 2.12391 282.044 2.12391 273.046C2.12391 264.048 3.0066 264.048 3.0066 255.06C3.0066 246.072 2.41153 246.063 2.41153 237.065C2.41153 228.067 2.2826 228.067 2.2826 219.079C2.2826 210.091 2.42145 210.081 2.42145 201.093C2.42145 192.105 2.97685 192.095 2.97685 183.107C2.97685 174.119 3.36365 174.109 3.36365 165.111C3.36365 156.113 2.46112 156.113 2.46112 147.125C2.46112 138.137 2.42145 138.127 2.42145 129.129C2.42145 120.131 3.20496 120.131 3.20496 111.134C3.20496 102.136 2.99669 102.136 2.99669 93.1378C2.99669 84.1399 3.42315 84.1399 3.42315 75.1519C3.42315 66.1638 3.27439 66.154 3.27439 57.1561C3.27439 48.1582 3.1157 48.1582 3.1157 39.1603C3.1157 30.1624 3.35373 30.1624 3.35373 21.1646C3.35373 12.1667 -3.35076 9.79933 3.01652 3.37508C9.26478 -2.9313 11.7046 2.63835 20.6307 2.63835C29.5568 2.63835 29.5568 3.81711 38.4828 3.81711C47.4089 3.81711 47.4089 3.56172 56.335 3.56172C65.2611 3.56172 65.2611 3.03127 74.1773 3.03127C83.0935 3.03127 83.1034 3.43402 92.0295 3.43402C100.956 3.43402 100.956 2.66782 109.882 2.66782C118.808 2.66782 118.808 3.0018 127.724 3.0018C136.64 3.0018 136.65 3.14915 145.576 3.14915C154.502 3.14915 154.502 3.28667 163.428 3.28667C172.354 3.28667 172.354 2.81517 181.28 2.81517C190.207 2.81517 190.207 2.55977 199.133 2.55977C208.059 2.55977 208.059 2.86428 216.985 2.86428C225.911 2.86428 225.911 3.21791 234.837 3.21791C243.763 3.21791 243.763 3.61083 252.689 3.61083C261.615 3.61083 261.615 3.53225 270.541 3.53225C279.467 3.53225 279.467 3.53225 288.393 3.53225C297.32 3.53225 297.32 3.01163 306.246 3.01163C315.172 3.01163 315.172 3.50278 324.098 3.50278C333.024 3.50278 333.024 2.57941 341.95 2.57941C350.876 2.57941 350.876 3.29649 359.802 3.29649C368.728 3.29649 368.728 3.06074 377.654 3.06074C386.58 3.06074 386.58 2.54012 395.507 2.54012C404.433 2.54012 404.433 3.35543 413.359 3.35543C422.285 3.35543 422.285 2.49101 431.211 2.49101C440.137 2.49101 440.137 3.13933 449.063 3.13933C457.989 3.13933 457.989 2.74641 466.915 2.74641C475.841 2.74641 475.841 2.59906 484.767 2.59906C493.694 2.59906 493.694 2.50083 502.62 2.50083C511.546 2.50083 511.546 2.44189 520.472 2.44189C529.398 2.44189 529.398 3.33579 538.324 3.33579C547.25 3.33579 547.25 3.26703 556.176 3.26703C565.102 3.26703 565.102 3.54207 574.028 3.54207C582.954 3.54207 582.954 2.75623 591.88 2.75623C600.807 2.75623 600.807 3.18844 609.733 3.18844C618.659 3.18844 618.659 3.06074 627.585 3.06074C636.511 3.06074 636.511 3.21791 645.437 3.21791C654.363 3.21791 654.363 2.70711 663.289 2.70711C672.215 2.70711 672.215 3.33579 681.141 3.33579C690.067 3.33579 690.067 3.65012 699.003 3.65012C707.939 3.65012 707.93 2.85446 716.866 2.85446C725.802 2.85446 725.792 2.94287 734.728 2.94287C743.664 2.94287 746.728 -3.55015 752.986 2.75623C759.245 9.0626 752.005 12.1372 752.005 21.1351C752.005 30.133 753.115 30.133 753.115 39.121C753.115 48.1091 753.135 48.1189 753.135 57.107C753.135 66.095 753.135 66.1049 753.135 75.1027C753.135 84.1006 752.411 84.1006 752.411 93.0887C752.411 102.077 752.917 102.087 752.917 111.084C752.917 120.082 753.165 120.082 753.165 129.07C753.165 138.058 751.905 138.068 751.905 147.056C751.905 156.044 752.243 156.054 752.243 165.042C752.243 174.03 752.917 174.04 752.917 183.038C752.917 192.036 752.431 192.036 752.431 201.024C752.431 210.012 753.076 210.022 753.076 219.02C753.076 228.018 752.362 228.018 752.362 237.016C752.362 246.013 752.62 246.013 752.62 255.011C752.62 264.009 752.054 264.009 752.054 272.997C752.054 281.985 753.344 281.995 753.344 290.993C753.344 299.991 753.314 299.991 753.314 308.989C753.314 317.987 750.457 318.242 752.391 327.034C754.474 336.493 759.145 338.733 752.778 345.147L752.739 345.157Z" fill="#FFEBC2"/>
</svg>
