<svg width="767" height="354" viewBox="0 0 767 354" fill="none" xmlns="http://www.w3.org/2000/svg">
<path d="M763.677 351.09C757.338 357.505 754.45 351.26 745.404 351.26C736.348 351.26 736.348 350.351 727.292 350.351C718.237 350.351 718.237 350.211 709.181 350.211C700.125 350.211 700.125 350.82 691.079 350.82C682.024 350.82 682.024 350.411 672.968 350.411C663.912 350.411 663.912 350.331 654.856 350.331C645.8 350.331 645.8 350.171 636.755 350.171C627.709 350.171 627.699 350.311 618.643 350.311C609.587 350.311 609.587 351.31 600.531 351.31C591.476 351.31 591.476 351.05 582.42 351.05C573.364 351.05 573.364 351.47 564.308 351.47C555.252 351.47 555.252 350.55 546.197 350.55C537.141 350.55 537.141 351.36 528.085 351.36C519.029 351.36 519.029 350.241 509.974 350.241C500.918 350.241 500.918 351.53 491.862 351.53C482.806 351.53 482.806 350.391 473.75 350.391C464.695 350.391 464.695 350.361 455.639 350.361C446.583 350.361 446.583 350.281 437.527 350.281C428.471 350.281 428.471 350.281 419.416 350.281C410.36 350.281 410.36 350.361 401.304 350.361C392.248 350.361 392.248 350.271 383.192 350.271C374.137 350.271 374.137 350.441 365.081 350.441C356.025 350.441 356.025 351.57 346.969 351.57C337.913 351.57 337.913 351.49 328.858 351.49C319.802 351.49 319.802 350.261 310.746 350.261C301.69 350.261 301.69 350.88 292.634 350.88C283.579 350.88 283.579 351.1 274.523 351.1C265.467 351.1 265.467 351.55 256.411 351.55C247.355 351.55 247.355 351.24 238.3 351.24C229.244 351.24 229.244 351.01 220.188 351.01C211.132 351.01 211.132 350.72 202.077 350.72C193.021 350.72 193.021 350.431 183.965 350.431C174.909 350.431 174.909 351.17 165.853 351.17C156.798 351.17 156.798 350.181 147.742 350.181C138.686 350.181 138.686 351.04 129.63 351.04C120.574 351.04 120.574 350.331 111.519 350.331C102.463 350.331 102.463 351.47 93.407 351.47C84.3512 351.47 84.3512 350.181 75.2954 350.181C66.2396 350.181 66.2396 351.66 57.1738 351.66C48.1079 351.66 48.118 350.56 39.0521 350.56C29.9862 350.56 29.9963 351.32 20.9305 351.32C11.8747 351.32 9.4296 357.085 3.08048 350.67C-3.26864 344.256 2.16484 341.788 2.16484 332.635C2.16484 323.482 2.65788 323.482 2.65788 314.34C2.65788 305.197 2.13465 305.187 2.13465 296.045C2.13465 286.902 2.15478 286.892 2.15478 277.74C2.15478 268.587 3.05029 268.587 3.05029 259.444C3.05029 250.302 2.44657 250.292 2.44657 241.139C2.44657 231.987 2.31577 231.987 2.31577 222.844C2.31577 213.702 2.45664 213.692 2.45664 204.549C2.45664 195.406 3.02011 195.396 3.02011 186.254C3.02011 177.111 3.41252 177.101 3.41252 167.949C3.41252 158.796 2.49688 158.796 2.49688 149.653C2.49688 140.511 2.45664 140.501 2.45664 131.348C2.45664 122.196 3.25153 122.196 3.25153 113.043C3.25153 103.891 3.04023 103.891 3.04023 94.738C3.04023 85.5854 3.4729 85.5855 3.4729 76.4429C3.4729 67.3003 3.32197 67.2903 3.32197 58.1377C3.32197 48.9852 3.16097 48.9852 3.16097 39.8326C3.16097 30.68 3.40246 30.68 3.40246 21.5274C3.40246 12.3749 -3.39945 9.96681 3.06035 3.43211C9.39941 -2.98269 11.8747 2.68272 20.9305 2.68272C29.9863 2.68272 29.9862 3.88174 39.042 3.88174C48.0978 3.88174 48.0978 3.62196 57.1536 3.62196C66.2094 3.62196 66.2094 3.08239 75.2552 3.08239C84.3009 3.08239 84.311 3.49206 93.3668 3.49206C102.423 3.49206 102.423 2.71269 111.478 2.71269C120.534 2.71269 120.534 3.05242 129.58 3.05242C138.626 3.05242 138.636 3.2023 147.691 3.2023C156.747 3.2023 156.747 3.34218 165.803 3.34218C174.859 3.34218 174.859 2.86257 183.915 2.86257C192.97 2.86257 192.97 2.60278 202.026 2.60278C211.082 2.60278 211.082 2.91253 220.138 2.91253C229.194 2.91253 229.194 3.27224 238.249 3.27224C247.305 3.27224 247.305 3.67191 256.361 3.67191C265.417 3.67191 265.417 3.59198 274.473 3.59198C283.528 3.59198 283.528 3.59198 292.584 3.59198C301.64 3.59198 301.64 3.06241 310.696 3.06241C319.752 3.06241 319.752 3.562 328.807 3.562C337.863 3.562 337.863 2.62277 346.919 2.62277C355.975 2.62277 355.975 3.35217 365.031 3.35217C374.086 3.35217 374.086 3.11237 383.142 3.11237C392.198 3.11237 392.198 2.5828 401.254 2.5828C410.309 2.5828 410.309 3.41213 419.365 3.41213C428.421 3.41213 428.421 2.53284 437.477 2.53284C446.533 2.53284 446.533 3.1923 455.588 3.1923C464.644 3.1923 464.644 2.79263 473.7 2.79263C482.756 2.79263 482.756 2.64275 491.812 2.64275C500.867 2.64275 500.867 2.54283 509.923 2.54283C518.979 2.54283 518.979 2.48288 528.035 2.48288C537.091 2.48288 537.091 3.39214 546.146 3.39214C555.202 3.39214 555.202 3.3222 564.258 3.3222C573.314 3.3222 573.314 3.60197 582.37 3.60197C591.425 3.60197 591.425 2.80262 600.481 2.80262C609.537 2.80262 609.537 3.24226 618.593 3.24226C627.649 3.24226 627.649 3.11237 636.704 3.11237C645.76 3.11237 645.76 3.27224 654.816 3.27224C663.872 3.27224 663.872 2.75266 672.928 2.75266C681.983 2.75266 681.983 3.39214 691.039 3.39214C700.095 3.39214 700.095 3.71188 709.161 3.71188C718.227 3.71188 718.217 2.90254 727.282 2.90254C736.348 2.90254 736.338 2.99247 745.404 2.99247C754.47 2.99247 757.579 -3.61218 763.928 2.80262C770.277 9.21742 762.932 12.3449 762.932 21.4975C762.932 30.65 764.059 30.65 764.059 39.7926C764.059 48.9352 764.079 48.9452 764.079 58.0878C764.079 67.2303 764.079 67.2403 764.079 76.3929C764.079 85.5455 763.345 85.5455 763.345 94.6881C763.345 103.831 763.858 103.841 763.858 112.993C763.858 122.146 764.109 122.146 764.109 131.288C764.109 140.431 762.831 140.441 762.831 149.584C762.831 158.726 763.174 158.736 763.174 167.879C763.174 177.021 763.858 177.031 763.858 186.184C763.858 195.336 763.365 195.336 763.365 204.479C763.365 213.622 764.019 213.632 764.019 222.784C764.019 231.937 763.294 231.937 763.294 241.089C763.294 250.242 763.556 250.242 763.556 259.394C763.556 268.547 762.982 268.547 762.982 277.69C762.982 286.832 764.29 286.842 764.29 295.995C764.29 305.147 764.26 305.147 764.26 314.3C764.26 323.452 761.362 323.712 763.324 332.655C765.437 342.277 770.177 344.555 763.717 351.08L763.677 351.09Z" fill="#FFEBC2"/>
</svg>
