<svg width="328" height="296" viewBox="0 0 328 296" fill="none" xmlns="http://www.w3.org/2000/svg">
<path d="M324.754 293.254C318.374 299.348 315.665 293.397 306.733 293.397C297.792 293.397 297.792 292.643 288.85 292.643C279.909 292.643 279.909 292.528 270.967 292.528C262.026 292.528 262.026 293.034 253.084 293.034C244.143 293.034 244.143 292.69 235.201 292.69C226.259 292.69 226.259 292.623 217.318 292.623C208.376 292.623 208.376 292.499 199.435 292.499C190.493 292.499 190.493 292.614 181.552 292.614C172.61 292.614 172.61 293.445 163.669 293.445C154.727 293.445 154.727 293.225 145.786 293.225C136.844 293.225 136.844 293.569 127.903 293.569C118.961 293.569 118.961 292.805 110.02 292.805C101.078 292.805 101.078 293.474 92.1365 293.474C83.195 293.474 83.195 292.547 74.2535 292.547C65.3119 292.547 65.3119 293.617 56.3606 293.617C47.4191 293.617 47.4191 292.671 38.4677 292.671C29.5164 292.671 29.5262 292.643 20.5748 292.643C11.6235 292.643 9.45437 298.823 3.06476 292.729C-3.32485 286.634 3.23162 284.571 3.23162 276.032C3.23162 267.493 3.16291 267.493 3.16291 258.953C3.16291 250.414 3.24143 250.414 3.24143 241.874C3.24143 233.335 3.0942 233.335 3.0942 224.796C3.0942 216.256 2.13233 216.256 2.13233 207.717C2.13233 199.178 2.20103 199.178 2.20103 190.638C2.20103 182.099 3.25125 182.099 3.25125 173.56C3.25125 165.02 2.72123 165.02 2.72123 156.481C2.72123 147.942 2.53475 147.942 2.53475 139.402C2.53475 130.863 2.15196 130.863 2.15196 122.323C2.15196 113.784 2.41696 113.784 2.41696 105.245C2.41696 96.7054 2.61327 96.7054 2.61327 88.166C2.61327 79.6267 2.85864 79.6267 2.85864 71.0873C2.85864 62.5479 3.10402 62.5479 3.10402 53.999C3.10402 45.4501 2.46604 45.4597 2.46604 36.9108C2.46604 28.3618 3.31014 28.3714 3.31014 19.8225C3.31014 11.2736 -3.64875 8.66592 2.61327 2.67691C8.87528 -3.3121 11.6235 3.24047 20.565 3.24047C29.5066 3.24047 29.5066 2.29484 38.4481 2.29484C47.3896 2.29484 47.3896 3.36464 56.3311 3.36464C65.2727 3.36464 65.2727 2.14201 74.2142 2.14201C83.1557 2.14201 83.1557 3.04943 92.0973 3.04943C101.039 3.04943 101.039 2.41901 109.98 2.41901C118.922 2.41901 118.922 3.04943 127.863 3.04943C136.805 3.04943 136.805 2.19932 145.746 2.19932C154.688 2.19932 154.688 2.6005 163.629 2.6005C172.571 2.6005 172.571 2.17066 181.513 2.17066C190.454 2.17066 190.454 2.18977 199.396 2.18977C208.337 2.18977 208.337 2.92526 217.279 2.92526C226.22 2.92526 226.22 2.42856 235.162 2.42856C244.103 2.42856 244.103 2.32349 253.045 2.32349C261.986 2.32349 261.986 2.43811 270.938 2.43811C279.889 2.43811 279.879 2.8966 288.831 2.8966C297.782 2.8966 297.772 3.22137 306.723 3.22137C315.675 3.22137 318.413 -3.5509 324.803 2.54319C331.192 8.63727 324.921 11.264 324.921 19.8034C324.921 28.3427 324.243 28.3427 324.243 36.8821C324.243 45.4215 324.42 45.4215 324.42 53.9608C324.42 62.5002 324.057 62.5002 324.057 71.0395C324.057 79.5789 324.184 79.5789 324.184 88.1182C324.184 96.6576 324.322 96.6576 324.322 105.197C324.322 113.736 324.116 113.736 324.116 122.276C324.116 130.815 324.332 130.815 324.332 139.354C324.332 147.894 325.058 147.894 325.058 156.433C325.058 164.972 324.037 164.972 324.037 173.512C324.037 182.051 324.253 182.051 324.253 190.591C324.253 199.13 324.714 199.13 324.714 207.669C324.714 216.209 324.361 216.209 324.361 224.748C324.361 233.287 325.028 233.287 325.028 241.836C325.028 250.385 324.734 250.376 324.734 258.925C324.734 267.473 322.722 267.664 324.606 276.013C326.638 285.001 331.016 287.255 324.754 293.244V293.254Z" fill="#FFEBC2"/>
</svg>
