<svg width="328" height="226" viewBox="0 0 328 226" fill="none" xmlns="http://www.w3.org/2000/svg">
<path d="M324.754 223.903C318.374 228.556 315.665 224.013 306.733 224.013C297.792 224.013 297.792 223.437 288.85 223.437C279.909 223.437 279.909 223.349 270.967 223.349C262.026 223.349 262.026 223.736 253.084 223.736C244.143 223.736 244.143 223.473 235.201 223.473C226.259 223.473 226.259 223.422 217.318 223.422C208.376 223.422 208.376 223.327 199.435 223.327C190.493 223.327 190.493 223.415 181.552 223.415C172.61 223.415 172.61 224.049 163.669 224.049C154.727 224.049 154.727 223.881 145.786 223.881C136.844 223.881 136.844 224.144 127.903 224.144C118.961 224.144 118.961 223.561 110.02 223.561C101.078 223.561 101.078 224.071 92.1365 224.071C83.195 224.071 83.195 223.364 74.2535 223.364C65.3119 223.364 65.3119 224.18 56.3606 224.18C47.4191 224.18 47.4191 223.458 38.4677 223.458C29.5164 223.458 29.5262 223.437 20.5748 223.437C11.6235 223.437 9.45437 228.155 3.06476 223.502C-3.32485 218.849 3.23162 217.274 3.23162 210.754C3.23162 204.234 3.16291 204.234 3.16291 197.714C3.16291 191.194 3.24143 191.194 3.24143 184.674C3.24143 178.154 3.0942 178.154 3.0942 171.635C3.0942 165.115 2.13233 165.115 2.13233 158.595C2.13233 152.075 2.20103 152.075 2.20103 145.555C2.20103 139.035 3.25125 139.035 3.25125 132.515C3.25125 125.995 2.72123 125.995 2.72123 119.475C2.72123 112.955 2.53475 112.955 2.53475 106.435C2.53475 99.9155 2.15196 99.9155 2.15196 93.3956C2.15196 86.8757 2.41696 86.8757 2.41696 80.3558C2.41696 73.8359 2.61327 73.8359 2.61327 67.3159C2.61327 60.796 2.85864 60.796 2.85864 54.2761C2.85864 47.7562 3.10402 47.7562 3.10402 41.229C3.10402 34.7018 2.46604 34.7091 2.46604 28.1819C2.46604 21.6547 3.31014 21.6619 3.31014 15.1347C3.31014 8.60753 -3.64875 6.61655 2.61327 2.04386C8.87528 -2.52883 11.6235 2.47414 20.565 2.47414C29.5066 2.47414 29.5066 1.75214 38.4481 1.75214C47.3896 1.75214 47.3896 2.56895 56.3311 2.56895C65.2727 2.56895 65.2727 1.63545 74.2142 1.63545C83.1557 1.63545 83.1557 2.32828 92.0973 2.32828C101.039 2.32828 101.039 1.84695 109.98 1.84695C118.922 1.84695 118.922 2.32828 127.863 2.32828C136.805 2.32828 136.805 1.67921 145.746 1.67921C154.688 1.67921 154.688 1.98551 163.629 1.98551C172.571 1.98551 172.571 1.65733 181.513 1.65733C190.454 1.65733 190.454 1.67192 199.396 1.67192C208.337 1.67192 208.337 2.23347 217.279 2.23347C226.22 2.23347 226.22 1.85424 235.162 1.85424C244.103 1.85424 244.103 1.77402 253.045 1.77402C261.986 1.77402 261.986 1.86153 270.938 1.86153C279.889 1.86153 279.879 2.2116 288.831 2.2116C297.782 2.2116 297.772 2.45956 306.723 2.45956C315.675 2.45956 318.413 -2.71116 324.803 1.94176C331.192 6.59467 324.921 8.60024 324.921 15.1202C324.921 21.6401 324.243 21.6401 324.243 28.16C324.243 34.6799 324.42 34.6799 324.42 41.1998C324.42 47.7197 324.057 47.7197 324.057 54.2396C324.057 60.7596 324.184 60.7596 324.184 67.2795C324.184 73.7994 324.322 73.7994 324.322 80.3193C324.322 86.8392 324.116 86.8392 324.116 93.3591C324.116 99.879 324.332 99.879 324.332 106.399C324.332 112.919 325.058 112.919 325.058 119.439C325.058 125.959 324.037 125.959 324.037 132.479C324.037 138.999 324.253 138.999 324.253 145.518C324.253 152.038 324.714 152.038 324.714 158.558C324.714 165.078 324.361 165.078 324.361 171.598C324.361 178.118 325.028 178.118 325.028 184.645C325.028 191.172 324.734 191.165 324.734 197.692C324.734 204.22 322.722 204.365 324.606 210.74C326.638 217.602 331.016 219.323 324.754 223.896V223.903Z" fill="#FFEBC2"/>
</svg>
