<svg width="284" height="256" viewBox="0 0 284 256" fill="none" xmlns="http://www.w3.org/2000/svg">
<path d="M279.506 252.364C271.323 260.401 267.794 252.606 256.315 252.606C244.836 252.606 244.846 251.28 233.366 251.28C221.887 251.28 221.897 251.076 210.418 251.076C198.938 251.076 198.948 251.967 187.479 251.967C176.009 251.967 176.009 251.367 164.54 251.367C153.07 251.367 153.07 251.25 141.601 251.25C130.131 251.25 130.131 251.028 118.652 251.028C107.173 251.028 107.182 251.231 95.7033 251.231C84.2241 251.231 84.2338 252.684 72.7546 252.684C61.2754 252.684 61.2851 252.306 49.8059 252.306C38.3267 252.306 38.3267 252.916 26.8572 252.916C15.3877 252.916 12.4694 259.762 4.28661 251.735C-3.8962 243.707 3.25891 240.851 3.25891 229.589C3.25891 218.317 4.88771 218.317 4.88771 207.056C4.88771 195.794 3.01653 195.794 3.01653 184.522C3.01653 173.251 4.67442 173.251 4.67442 161.989C4.67442 150.727 4.72289 150.718 4.72289 139.456C4.72289 128.194 4.84893 128.185 4.84893 116.923C4.84893 109.408 4.84893 101.897 4.84893 94.3896C4.84893 83.1181 4.73259 83.1181 4.73259 71.8564C4.73259 60.5946 4.86832 60.5849 4.86832 49.3232C4.86832 38.0517 4.61625 38.0517 4.61625 26.7803C4.61625 15.5089 -4.78816 11.4515 3.24921 3.54989C11.2866 -4.35174 15.3877 3.40464 26.8572 3.40464C38.3267 3.40464 38.3267 5.19606 49.8059 5.19606C61.2851 5.19606 61.2754 4.29551 72.7546 4.29551C84.2338 4.29551 84.2241 3.98564 95.6936 3.98564C107.163 3.98564 107.163 3.32717 118.633 3.32717C130.102 3.32717 130.102 3.78229 141.572 3.78229C153.041 3.78229 153.041 4.12121 164.52 4.12121C175.999 4.12121 175.99 4.5376 187.469 4.5376C198.948 4.5376 198.938 4.95398 210.418 4.95398C221.897 4.95398 221.887 3.86944 233.366 3.86944C244.846 3.86944 244.846 5.31227 256.315 5.31227C267.785 5.31227 271.188 -3.92567 279.38 4.11153C287.427 12.0132 278.401 15.4895 278.401 26.7512C278.401 38.0227 280.059 38.0227 280.059 49.2844C280.059 60.5462 278.178 60.5462 278.178 71.8176C278.178 83.0891 280.33 83.0891 280.33 94.3508C280.33 105.622 278.73 105.622 278.73 116.884C278.73 128.146 279.836 128.155 279.836 139.417C279.836 150.689 278.721 150.689 278.721 161.95C278.721 173.212 280.204 173.222 280.204 184.484C280.204 195.745 279.496 195.755 279.496 207.017C279.496 218.279 277.79 218.337 280.224 229.347C282.861 241.238 287.553 244.443 279.506 252.345V252.364Z" fill="#FFEBC2"/>
</svg>
