<svg width="32" height="20" viewBox="0 0 32 20" fill="none" xmlns="http://www.w3.org/2000/svg">
<rect width="32" height="20" rx="10" fill="#4C6545"/>
<path d="M7.91193 7.45455V8.47727H4.33665V7.45455H7.91193ZM5.29545 5.88636H6.5696V12.0781C6.5696 12.3253 6.60653 12.5114 6.6804 12.6364C6.75426 12.7585 6.84943 12.8423 6.96591 12.8878C7.08523 12.9304 7.21449 12.9517 7.35369 12.9517C7.45597 12.9517 7.54545 12.9446 7.62216 12.9304C7.69886 12.9162 7.75852 12.9048 7.80114 12.8963L8.03125 13.9489C7.95739 13.9773 7.85227 14.0057 7.71591 14.0341C7.57955 14.0653 7.40909 14.0824 7.20455 14.0852C6.86932 14.0909 6.55682 14.0312 6.26705 13.9062C5.97727 13.7812 5.7429 13.5881 5.56392 13.3267C5.38494 13.0653 5.29545 12.7372 5.29545 12.3423V5.88636ZM10.7462 14.1449C10.3314 14.1449 9.95643 14.0682 9.62121 13.9148C9.28598 13.7585 9.02036 13.5327 8.82433 13.2372C8.63115 12.9418 8.53456 12.5795 8.53456 12.1506C8.53456 11.7812 8.60558 11.4773 8.74763 11.2386C8.88967 11 9.08143 10.8111 9.32291 10.6719C9.56439 10.5327 9.83428 10.4276 10.1326 10.3565C10.4309 10.2855 10.7348 10.2315 11.0445 10.1946C11.4365 10.1491 11.7547 10.1122 11.999 10.0838C12.2434 10.0526 12.4209 10.0028 12.5317 9.93466C12.6425 9.86648 12.6979 9.75568 12.6979 9.60227V9.57244C12.6979 9.20028 12.5928 8.91193 12.3826 8.70739C12.1752 8.50284 11.8655 8.40057 11.4536 8.40057C11.0246 8.40057 10.6865 8.49574 10.4394 8.68608C10.1951 8.87358 10.026 9.08239 9.93229 9.3125L8.73484 9.03977C8.87689 8.64205 9.08428 8.32102 9.357 8.0767C9.63257 7.82955 9.94933 7.65057 10.3073 7.53977C10.6652 7.42614 11.0417 7.36932 11.4365 7.36932C11.6979 7.36932 11.9749 7.40057 12.2675 7.46307C12.563 7.52273 12.8385 7.63352 13.0942 7.79545C13.3527 7.95739 13.5644 8.18892 13.7292 8.49006C13.8939 8.78835 13.9763 9.17614 13.9763 9.65341V14H12.732V13.1051H12.6809C12.5985 13.2699 12.4749 13.4318 12.3101 13.5909C12.1454 13.75 11.9337 13.8821 11.6752 13.9872C11.4167 14.0923 11.107 14.1449 10.7462 14.1449ZM11.0232 13.1222C11.3755 13.1222 11.6766 13.0526 11.9266 12.9134C12.1794 12.7741 12.3712 12.5923 12.5019 12.3679C12.6354 12.1406 12.7022 11.8977 12.7022 11.6392V10.7955C12.6567 10.8409 12.5687 10.8835 12.438 10.9233C12.3101 10.9602 12.1638 10.9929 11.999 11.0213C11.8343 11.0469 11.6738 11.071 11.5175 11.0938C11.3613 11.1136 11.2306 11.1307 11.1255 11.1449C10.8783 11.1761 10.6525 11.2287 10.4479 11.3026C10.2462 11.3764 10.0843 11.483 9.96212 11.6222C9.8428 11.7585 9.78314 11.9403 9.78314 12.1676C9.78314 12.483 9.89962 12.7216 10.1326 12.8835C10.3655 13.0426 10.6624 13.1222 11.0232 13.1222ZM10.2519 6.42756C10.0502 6.42756 9.87405 6.35369 9.72348 6.20597C9.57291 6.0554 9.49763 5.8821 9.49763 5.68608C9.49763 5.47301 9.57291 5.29545 9.72348 5.15341C9.87405 5.01136 10.0502 4.94034 10.2519 4.94034C10.465 4.94034 10.6425 5.01136 10.7846 5.15341C10.9294 5.29545 11.0019 5.47301 11.0019 5.68608C11.0019 5.8821 10.9294 6.0554 10.7846 6.20597C10.6425 6.35369 10.465 6.42756 10.2519 6.42756ZM12.7576 6.42756C12.5559 6.42756 12.3797 6.35369 12.2292 6.20597C12.0786 6.0554 12.0033 5.8821 12.0033 5.68608C12.0033 5.47301 12.0786 5.29545 12.2292 5.15341C12.3797 5.01136 12.5559 4.94034 12.7576 4.94034C12.9706 4.94034 13.1482 5.01136 13.2902 5.15341C13.4351 5.29545 13.5076 5.47301 13.5076 5.68608C13.5076 5.8821 13.4351 6.0554 13.2902 6.20597C13.1482 6.35369 12.9706 6.42756 12.7576 6.42756ZM15.057 14V13.1264L18.6025 8.62216V8.5625H15.1721V7.45455H20.192V8.38352L16.7829 12.8324V12.892H20.3113V14H15.057ZM23.968 14.1321C23.3231 14.1321 22.7677 13.9943 22.3018 13.7188C21.8388 13.4403 21.4808 13.0497 21.228 12.5469C20.978 12.0412 20.853 11.4489 20.853 10.7699C20.853 10.0994 20.978 9.50852 21.228 8.99716C21.4808 8.4858 21.8331 8.08665 22.2848 7.79972C22.7393 7.51278 23.2706 7.36932 23.8785 7.36932C24.2479 7.36932 24.6058 7.4304 24.9524 7.55256C25.299 7.67472 25.6101 7.86648 25.8856 8.12784C26.1612 8.3892 26.3785 8.72869 26.5376 9.14631C26.6967 9.56108 26.7763 10.0653 26.7763 10.6591V11.1108H21.5731V10.1562H25.5277C25.5277 9.82102 25.4595 9.52415 25.3231 9.26562C25.1868 9.00426 24.995 8.7983 24.7479 8.64773C24.5035 8.49716 24.2166 8.42188 23.8871 8.42188C23.5291 8.42188 23.2166 8.50994 22.9496 8.68608C22.6854 8.85937 22.4808 9.08665 22.3359 9.3679C22.1939 9.64631 22.1229 9.94886 22.1229 10.2756V11.0213C22.1229 11.4588 22.1996 11.831 22.353 12.1378C22.5092 12.4446 22.7265 12.679 23.005 12.8409C23.2834 13 23.6087 13.0795 23.9808 13.0795C24.2223 13.0795 24.4425 13.0455 24.6413 12.9773C24.8402 12.9062 25.0121 12.8011 25.1569 12.6619C25.3018 12.5227 25.4126 12.3509 25.4893 12.1463L26.6953 12.3636C26.5987 12.7187 26.4254 13.0298 26.1754 13.2969C25.9283 13.5611 25.6172 13.767 25.2422 13.9148C24.87 14.0597 24.4453 14.1321 23.968 14.1321Z" fill="white"/>
</svg>
