<svg width="328" height="118" viewBox="0 0 328 118" fill="none" xmlns="http://www.w3.org/2000/svg">
<path d="M323.577 114.478C315.529 122.28 311.939 114.685 300.505 114.685C289.071 114.685 289.081 113.567 277.647 113.567C266.213 113.567 266.223 113.398 254.789 113.398C243.355 113.398 243.365 114.149 231.941 114.149C220.517 114.149 220.517 113.652 209.083 113.652C197.649 113.652 197.659 113.548 186.234 113.548C174.81 113.548 174.81 113.361 163.376 113.361C151.943 113.361 151.952 113.53 140.518 113.53C129.085 113.53 129.094 114.75 117.66 114.75C106.227 114.75 106.227 114.431 94.8024 114.431C83.3783 114.431 83.3783 114.938 71.9445 114.938C60.5106 114.938 60.5106 113.811 49.0865 113.811C37.6624 113.811 37.6526 114.807 26.2285 114.807C14.8044 114.807 12.0239 121.492 3.97535 113.689C-4.07324 105.887 2.59002 103.192 2.59002 92.1135C2.59002 81.0345 4.03389 81.0345 4.03389 69.9555C4.03389 58.8765 4.07291 58.8765 4.07291 47.7975C4.07291 36.7186 4.18023 36.7186 4.18023 25.6396C4.18023 14.5606 -4.17079 11.8941 3.94609 4.03559C12.063 -3.82298 14.7946 4.17642 26.2187 4.17642C37.6428 4.17642 37.6428 4.28909 49.0767 4.28909C60.5106 4.28909 60.5008 4.07314 71.9347 4.07314C83.3686 4.07314 83.3588 2.69296 94.7829 2.69296C106.207 2.69296 106.207 2.79624 117.641 2.79624C129.075 2.79624 129.065 4.29848 140.489 4.29848C151.913 4.29848 151.913 3.53797 163.347 3.53797C174.781 3.53797 174.771 3.27508 186.205 3.27508C197.639 3.27508 197.629 2.72113 209.063 2.72113C220.497 2.72113 220.497 3.09669 231.921 3.09669C243.345 3.09669 243.345 3.37836 254.779 3.37836C266.213 3.37836 266.213 3.73514 277.637 3.73514C289.061 3.73514 289.071 4.09192 300.495 4.09192C311.919 4.09192 315.519 -4.53654 323.577 3.26569C331.636 11.0679 322.407 14.5512 322.407 25.6302C322.407 36.7092 323.499 36.7092 323.499 47.7882C323.499 58.8671 322.602 58.8671 322.602 69.9461C322.602 81.0251 321.568 81.1378 324.026 91.9632C326.67 103.615 331.685 106.601 323.577 114.469V114.478Z" fill="#FFEBC2"/>
</svg>
