<svg width="103" height="86" viewBox="0 0 103 86" fill="none" xmlns="http://www.w3.org/2000/svg">
<path opacity="0.3" d="M7.59643 85.7199C7.14822 86.0426 6.52329 85.9409 6.2006 85.4926L0.942146 78.1886C0.619458 77.7404 0.721222 77.1155 1.16943 76.7928C1.61764 76.4701 2.24257 76.5719 2.56526 77.0201L7.23945 83.5125L13.7319 78.8384C14.1801 78.5157 14.805 78.6174 15.1277 79.0656C15.4504 79.5139 15.3487 80.1388 14.9005 80.4615L7.59643 85.7199ZM102.454 2.08693C101.036 2.1327 99.619 2.20882 98.2031 2.31534L98.053 0.320976C99.4975 0.212311 100.943 0.134665 102.39 0.0879685L102.454 2.08693ZM89.7496 3.31725C86.954 3.77098 84.1727 4.34546 81.4137 5.04122L80.9246 3.10193C83.7395 2.39207 86.5772 1.80597 89.4292 1.34308L89.7496 3.31725ZM73.2578 7.4771C70.5871 8.40224 67.9463 9.44601 65.3432 10.6089L64.5274 8.78285C67.1835 7.59626 69.8781 6.53124 72.6031 5.58728L73.2578 7.4771ZM57.7294 14.4141C55.2644 15.7825 52.8429 17.2654 50.4724 18.8632L49.3545 17.2047C51.773 15.5746 54.2436 14.0617 56.7586 12.6655L57.7294 14.4141ZM43.623 23.9193C42.5231 24.8061 41.4369 25.7202 40.3652 26.6617L39.0452 25.1592C40.138 24.1991 41.2458 23.2668 42.3677 22.3623L43.623 23.9193ZM40.3652 26.6617C39.2936 27.6032 38.2472 28.5626 37.2261 29.5392L35.8437 28.0938C36.8852 27.0978 37.9524 26.1193 39.0452 25.1592L40.3652 26.6617ZM31.33 35.6804C29.4402 37.8255 27.6579 40.0358 25.9834 42.304L24.3744 41.1162C26.0829 38.8019 27.9013 36.5467 29.8293 34.3583L31.33 35.6804ZM21.2294 49.3644C19.7409 51.7961 18.3658 54.2805 17.1044 56.8098L15.3146 55.9172C16.6017 53.3365 18.0048 50.8015 19.5236 48.3203L21.2294 49.3644ZM13.6385 64.5841C12.5932 67.2305 11.6653 69.9147 10.8554 72.6286L8.9389 72.0566C9.76521 69.2879 10.7119 66.5494 11.7783 63.8494L13.6385 64.5841ZM8.77315 80.8826C8.48517 82.2731 8.22715 83.6689 7.99916 85.0691L6.02516 84.7477C6.25773 83.3193 6.52094 81.8954 6.81472 80.477L8.77315 80.8826ZM7.59643 85.7199C7.14822 86.0426 6.52329 85.9409 6.2006 85.4926L0.942146 78.1886C0.619458 77.7404 0.721222 77.1155 1.16943 76.7928C1.61764 76.4701 2.24257 76.5719 2.56526 77.0201L7.23945 83.5125L13.7319 78.8384C14.1801 78.5157 14.805 78.6174 15.1277 79.0656C15.4504 79.5139 15.3487 80.1388 14.9005 80.4615L7.59643 85.7199ZM102.454 2.08693C101.036 2.1327 99.619 2.20882 98.2031 2.31534L98.053 0.320976C99.4975 0.212311 100.943 0.134665 102.39 0.0879685L102.454 2.08693ZM89.7496 3.31725C86.954 3.77098 84.1727 4.34546 81.4137 5.04122L80.9246 3.10193C83.7395 2.39207 86.5772 1.80597 89.4292 1.34308L89.7496 3.31725ZM73.2578 7.4771C70.5871 8.40224 67.9463 9.44601 65.3432 10.6089L64.5274 8.78285C67.1835 7.59626 69.8781 6.53124 72.6031 5.58728L73.2578 7.4771ZM57.7294 14.4141C55.2644 15.7825 52.8429 17.2654 50.4724 18.8632L49.3545 17.2047C51.773 15.5746 54.2436 14.0617 56.7586 12.6655L57.7294 14.4141ZM43.623 23.9193C42.5231 24.8061 41.4369 25.7202 40.3652 26.6617L39.0452 25.1592C40.138 24.1991 41.2458 23.2668 42.3677 22.3623L43.623 23.9193ZM40.3652 26.6617C39.2936 27.6032 38.2472 28.5626 37.2261 29.5392L35.8437 28.0938C36.8852 27.0978 37.9524 26.1193 39.0452 25.1592L40.3652 26.6617ZM31.33 35.6804C29.4402 37.8255 27.6579 40.0358 25.9834 42.304L24.3744 41.1162C26.0829 38.8019 27.9013 36.5467 29.8293 34.3583L31.33 35.6804ZM21.2294 49.3644C19.7409 51.7961 18.3658 54.2805 17.1044 56.8098L15.3146 55.9172C16.6017 53.3365 18.0048 50.8015 19.5236 48.3203L21.2294 49.3644ZM13.6385 64.5841C12.5932 67.2305 11.6653 69.9147 10.8554 72.6286L8.9389 72.0566C9.76521 69.2879 10.7119 66.5494 11.7783 63.8494L13.6385 64.5841ZM8.77315 80.8826C8.48517 82.2731 8.22715 83.6689 7.99916 85.0691L6.02516 84.7477C6.25773 83.3193 6.52094 81.8954 6.81472 80.477L8.77315 80.8826Z" fill="#5C4D3D"/>
</svg>
