<svg width="216" height="216" viewBox="0 0 216 216" fill="none" xmlns="http://www.w3.org/2000/svg">
<path d="M216 108L208.077 115.923C204.741 122.595 194.525 126.347 188.062 135.938C185.977 149.907 170.548 152.409 162 162C156.371 174.301 146.363 182.224 135.938 188.062C124.68 192.857 119.259 201.405 115.923 208.077C109.251 211.413 108 216 108 216L100.077 208.077C78.3938 219.753 93.1969 190.981 80.0618 188.062C75.8919 176.386 59.8378 174.51 54 162C46.0772 151.992 39.4054 140.525 27.9382 135.938C24.3938 123.637 20.0154 113.838 7.92278 115.923L0 108C0 108 5.42085 107.375 7.92278 100.077C12.5097 94.8649 16.6795 84.8571 27.9382 80.0618C33.9846 70.2625 50.0386 68.1776 54 54C63.1737 45.0347 68.3861 32.3166 80.0618 27.9382C83.8147 15.6371 93.6139 11.6757 100.077 7.92278C107.375 5.21236 108 0 108 0L115.923 7.92278C121.969 11.6757 124.263 23.5598 135.938 27.9382C139.483 40.2394 157.205 40.6564 162 54C175.761 58.1699 184.309 67.5521 188.062 80.0618C198.486 85.6911 209.954 88.1931 208.077 100.077L216 108Z" fill="#4C6545"/>
</svg>
