<svg width="892" height="233" viewBox="0 0 892 233" fill="none" xmlns="http://www.w3.org/2000/svg">
<path d="M886.512 229.371C876.771 237.347 872.338 229.696 858.56 229.696C844.782 229.696 844.782 227.948 831.004 227.948C817.226 227.948 817.226 227.68 803.448 227.68C789.67 227.68 789.67 228.855 775.892 228.855C762.114 228.855 762.114 228.072 748.336 228.072C734.558 228.072 734.558 227.919 720.781 227.919C707.003 227.919 707.003 227.623 693.225 227.623C679.447 227.623 679.447 227.891 665.669 227.891C651.891 227.891 651.891 229.801 638.113 229.801C624.335 229.801 624.335 229.304 610.557 229.304C596.779 229.304 596.779 230.097 582.99 230.097C569.2 230.097 569.212 228.34 555.434 228.34C541.656 228.34 541.656 229.887 527.878 229.887C514.1 229.887 514.1 227.757 500.322 227.757C486.544 227.757 486.544 230.212 472.766 230.212C458.988 230.212 458.988 228.034 445.21 228.034C431.433 228.034 431.433 227.977 417.643 227.977C403.853 227.977 403.865 227.814 390.087 227.814C376.309 227.814 376.309 227.814 362.52 227.814C348.73 227.814 348.742 227.967 334.952 227.967C321.163 227.967 321.174 227.785 307.385 227.785C293.595 227.785 293.607 228.12 279.817 228.12C266.028 228.12 266.039 230.279 252.25 230.279C238.46 230.279 238.472 230.116 224.694 230.116C210.916 230.116 210.916 227.766 197.126 227.766C183.337 227.766 183.348 228.951 169.559 228.951C155.769 228.951 155.781 229.362 141.991 229.362C128.202 229.362 128.213 230.221 114.424 230.221C100.634 230.221 100.646 229.629 86.8563 229.629C73.0667 229.629 73.0784 229.18 59.2888 229.18C45.4992 229.18 45.4992 228.626 31.7213 228.626C17.9434 228.626 14.7352 236.335 4.98214 228.359C-4.7709 220.382 3.59385 217.765 3.59385 206.493C3.59385 195.222 5.90378 195.222 5.90378 183.959C5.90378 172.697 3.89717 172.688 3.89717 161.416C3.89717 150.144 5.54212 150.144 5.54212 138.873C5.54212 127.601 2.89387 127.601 2.89387 116.329C2.89387 105.057 5.90378 105.057 5.90378 93.7857C5.90378 82.5139 2.46222 82.5139 2.46222 71.2422C2.46222 59.9705 5.01714 59.9705 5.01714 48.6987C5.01714 37.427 3.24386 37.427 3.24386 26.1553C3.24386 14.8836 -4.96923 12.0847 4.76048 4.1181C14.5019 -3.85808 17.9201 2.37958 31.698 2.37958C45.4759 2.37958 45.4759 3.30616 59.2538 3.30616C73.0317 3.30616 73.0318 2.32227 86.8097 2.32227C100.588 2.32227 100.588 2.36048 114.365 2.36048C128.143 2.36048 128.143 4.06079 141.921 4.06079C155.699 4.06079 155.699 2.91451 169.477 2.91451C183.255 2.91451 183.255 2.66615 197.033 2.66615C210.811 2.66615 210.811 2.92406 224.589 2.92406C238.367 2.92406 238.367 3.99392 252.145 3.99392C265.923 3.99392 265.923 4.74856 279.7 4.74856C293.478 4.74856 293.478 3.01959 307.268 3.01959C321.058 3.01959 321.046 2.93362 334.824 2.93362C348.602 2.93362 348.602 4.45243 362.38 4.45243C376.158 4.45243 376.158 4.05124 389.935 4.05124C403.713 4.05124 403.713 4.87274 417.491 4.87274C431.269 4.87274 431.269 4.57661 445.047 4.57661C458.825 4.57661 458.825 4.26139 472.615 4.26139C486.404 4.26139 486.393 4.72945 500.17 4.72945C513.948 4.72945 513.948 4.25184 527.738 4.25184C541.528 4.25184 541.516 2.62794 555.305 2.62794C569.095 2.62794 569.083 4.9205 582.873 4.9205C596.663 4.9205 596.651 4.42378 610.441 4.42378C624.23 4.42378 624.218 3.40168 638.008 3.40168C651.798 3.40168 651.786 4.18497 665.564 4.18497C679.342 4.18497 679.342 2.69481 693.131 2.69481C706.921 2.69481 706.909 3.35392 720.699 3.35392C734.488 3.35392 734.477 3.63093 748.266 3.63093C762.056 3.63093 762.044 3.8984 775.834 3.8984C789.623 3.8984 789.612 2.97183 803.401 2.97183C817.191 2.97183 817.179 2.4751 830.969 2.4751C844.758 2.4751 844.758 3.0769 858.536 3.0769C872.314 3.0769 876.222 -4.25928 885.975 3.71691C895.729 11.6931 884.984 14.8836 884.984 26.1553C884.984 37.427 885.171 37.427 885.171 48.6892C885.171 59.9514 885.171 59.9609 885.171 71.2327C885.171 82.5044 886.407 82.5044 886.407 93.7761C886.407 105.048 885.252 105.048 885.252 116.32C885.252 127.591 887.445 127.591 887.445 138.863C887.445 150.135 885.73 150.135 885.73 161.406C885.73 172.678 886.302 172.678 886.302 183.95C886.302 195.222 884.529 195.231 887.515 206.245C890.735 218.166 896.242 221.405 886.5 229.371H886.512Z" fill="#FFEBC2"/>
</svg>
