<svg width="768" height="96" viewBox="0 0 768 96" fill="none" xmlns="http://www.w3.org/2000/svg">
<path d="M764.275 92.4618C756.992 100.314 753.828 92.6465 743.542 92.6465C733.257 92.6465 733.266 91.6489 722.98 91.6489C712.695 91.6489 712.704 91.4918 702.418 91.4918C692.133 91.4918 692.141 92.1569 681.865 92.1569C671.588 92.1569 671.588 91.7135 661.311 91.7135C651.034 91.7135 651.034 91.6212 640.749 91.6212C630.464 91.6212 630.472 91.4549 620.195 91.4549C609.919 91.4549 609.919 91.6119 599.633 91.6119C589.348 91.6119 589.356 92.7019 579.08 92.7019C568.803 92.7019 568.803 92.4156 558.518 92.4156C548.232 92.4156 548.241 92.8682 537.964 92.8682C527.687 92.8682 527.687 91.8706 517.402 91.8706C507.117 91.8706 507.125 92.7574 496.84 92.7574C486.554 92.7574 486.563 91.538 476.286 91.538C466.009 91.538 466.009 92.9421 455.724 92.9421C445.439 92.9421 445.447 91.7043 435.162 91.7043C424.877 91.7043 424.885 91.6673 414.6 91.6673C404.314 91.6673 404.323 91.575 394.038 91.575C383.752 91.575 383.761 91.575 373.476 91.575C363.19 91.575 363.199 91.6581 352.913 91.6581C342.628 91.6581 342.637 91.5565 332.351 91.5565C322.066 91.5565 322.066 91.7505 311.789 91.7505C301.512 91.7505 301.512 92.9883 291.227 92.9883C280.942 92.9883 280.95 92.8959 270.665 92.8959C260.38 92.8959 260.388 91.5565 250.103 91.5565C239.818 91.5565 239.826 92.2308 229.541 92.2308C219.255 92.2308 219.264 92.4618 208.979 92.4618C198.693 92.4618 198.693 92.9513 188.417 92.9513C178.14 92.9513 178.14 92.6096 167.854 92.6096C157.569 92.6096 157.578 92.3509 147.292 92.3509C137.007 92.3509 137.015 92.0368 126.73 92.0368C116.445 92.0368 116.445 91.7228 106.168 91.7228C95.8913 91.7228 95.8827 92.5357 85.6059 92.5357C75.3291 92.5357 75.3206 91.4549 65.0438 91.4549C54.767 91.4549 54.7585 92.3879 44.4817 92.3879C34.2049 92.3879 34.1964 91.6212 23.9111 91.6212C13.6257 91.6212 10.2485 100.545 2.96517 92.6927C-4.31814 84.8409 4.10798 81.1921 4.10798 70.1072C4.10798 59.0223 2.62403 59.0223 2.62403 47.9373C2.62403 36.8524 3.7242 36.8524 3.7242 25.7675C3.7242 14.6826 -4.1561 11.1262 3.0931 3.30209C10.3423 -4.52201 13.6513 4.01337 23.9281 4.01337C34.2049 4.01337 34.2049 2.90488 44.4902 2.90488C54.7756 2.90488 54.767 3.43141 65.0523 3.43141C75.3377 3.43141 75.3291 2.86793 85.6059 2.86793C95.8827 2.86793 95.8827 2.89564 106.16 2.89564C116.436 2.89564 116.436 3.86557 126.722 3.86557C137.007 3.86557 136.998 3.20972 147.275 3.20972C157.552 3.20972 157.552 3.07116 167.837 3.07116C178.123 3.07116 178.114 3.21895 188.391 3.21895C198.668 3.21895 198.668 3.82862 208.953 3.82862C219.238 3.82862 219.23 4.26278 229.507 4.26278C239.783 4.26278 239.783 3.27438 250.069 3.27438C260.354 3.27438 260.346 3.22819 270.631 3.22819C280.916 3.22819 280.908 4.09651 291.184 4.09651C301.461 4.09651 301.461 3.86557 311.747 3.86557C322.032 3.86557 322.023 4.33668 332.309 4.33668C342.594 4.33668 342.585 4.17041 352.871 4.17041C363.156 4.17041 363.148 3.9949 373.433 3.9949C383.718 3.9949 383.71 4.26278 393.995 4.26278C404.28 4.26278 404.272 3.98566 414.557 3.98566C424.842 3.98566 424.834 3.06192 435.119 3.06192C445.405 3.06192 445.405 4.3644 455.681 4.3644C465.958 4.3644 465.958 4.08727 476.243 4.08727C486.529 4.08727 486.52 3.50531 496.806 3.50531C507.091 3.50531 507.082 3.94871 517.368 3.94871C527.653 3.94871 527.645 3.09887 537.93 3.09887C548.215 3.09887 548.207 3.46836 558.492 3.46836C568.777 3.46836 568.777 3.6254 579.054 3.6254C589.331 3.6254 589.331 3.78244 599.616 3.78244C609.901 3.78244 609.893 3.2559 620.178 3.2559C630.464 3.2559 630.455 2.96954 640.74 2.96954C651.026 2.96954 651.026 3.31133 661.303 3.31133C671.579 3.31133 671.588 3.6993 681.865 3.6993C692.141 3.6993 692.15 4.13346 702.427 4.13346C712.704 4.13346 712.712 4.05032 722.989 4.05032C733.266 4.05032 733.274 4.05032 743.56 4.05032C753.845 4.05032 756.932 -4.3465 764.215 3.51455C771.499 11.3756 763.755 14.7011 763.755 25.786C763.755 36.8709 764.702 36.8709 764.702 47.9558C764.702 59.0407 761.776 59.3363 763.968 70.1626C766.322 81.8202 771.55 84.6561 764.292 92.4802L764.275 92.4618Z" fill="#FFEBC2"/>
</svg>
