<svg width="1200" height="1180" viewBox="0 0 1200 1180" fill="none" xmlns="http://www.w3.org/2000/svg">
<path d="M1193.01 1174.25C1180.19 1186.87 1174.5 1174.78 1156.52 1174.78C1138.54 1174.78 1138.54 1171.91 1120.55 1171.91C1102.57 1171.91 1102.57 1171.47 1084.59 1171.47C1066.61 1171.47 1066.61 1173.39 1048.63 1173.39C1030.64 1173.39 1030.64 1172.1 1012.66 1172.1C994.679 1172.1 994.679 1171.84 976.697 1171.84C958.715 1171.84 958.715 1171.36 940.732 1171.36C922.75 1171.36 922.75 1171.8 904.768 1171.8C886.786 1171.8 886.786 1174.95 868.804 1174.95C850.822 1174.95 850.822 1174.14 832.84 1174.14C814.858 1174.14 814.858 1175.45 796.875 1175.45C778.893 1175.45 778.893 1172.56 760.911 1172.56C742.929 1172.56 742.929 1175.11 724.947 1175.11C706.965 1175.11 706.965 1171.61 688.983 1171.61C671 1171.61 671 1175.64 653.018 1175.64C635.036 1175.64 635.036 1172.06 617.054 1172.06C599.072 1172.06 599.072 1171.96 581.09 1171.96C563.108 1171.96 563.108 1171.69 545.116 1171.69C527.124 1171.69 527.134 1171.69 509.151 1171.69C491.169 1171.69 491.169 1171.94 473.187 1171.94C455.205 1171.94 455.205 1171.65 437.223 1171.65C419.241 1171.65 419.241 1172.19 401.259 1172.19C383.277 1172.19 383.277 1175.74 365.294 1175.74C347.312 1175.74 347.312 1175.49 329.32 1175.49C311.338 1175.49 311.338 1171.62 293.346 1171.62C275.364 1171.62 275.364 1173.56 257.382 1173.56C239.4 1173.56 239.4 1174.23 221.418 1174.23C203.435 1174.23 203.435 1175.65 185.443 1175.65C167.461 1175.65 167.461 1174.67 149.469 1174.67C131.477 1174.67 131.487 1173.94 113.495 1173.94C95.503 1173.94 95.5129 1173.03 77.5209 1173.03C59.5289 1173.03 59.5289 1172.12 41.5468 1172.12C23.5646 1172.12 17.8673 1186.86 5.03849 1174.24C-7.79035 1161.62 7.92671 1156.01 7.92671 1138.31C7.92671 1120.61 5.23631 1120.61 5.23631 1102.91C5.23631 1085.21 7.45193 1085.21 7.45193 1067.51C7.45193 1049.81 3.89111 1049.81 3.89111 1032.11C3.89111 1014.41 7.94649 1014.41 7.94649 996.716C7.94649 979.017 3.30754 979.017 3.30754 961.318C3.30754 943.62 6.74966 943.62 6.74966 925.921C6.74966 908.222 4.356 908.222 4.356 890.523C4.356 872.824 6.74966 872.824 6.74966 855.126C6.74966 837.427 3.54492 837.427 3.54492 819.738C3.54492 802.049 5.06816 802.039 5.06816 784.35C5.06816 766.661 3.44601 766.651 3.44601 748.952C3.44601 731.254 3.51525 731.254 3.51525 713.565C3.51525 695.876 6.30456 695.866 6.30456 678.177C6.30456 660.488 4.41535 660.478 4.41535 642.789C4.41535 625.1 4.00981 625.09 4.00981 607.402C4.00981 589.703 4.43513 589.703 4.43513 572.004C4.43513 554.305 6.18586 554.305 6.18586 536.606C6.18586 518.907 7.42226 518.907 7.42226 501.209C7.42226 483.51 4.5835 483.51 4.5835 465.811C4.5835 448.112 4.44502 448.112 4.44502 430.413C4.44502 412.715 6.93759 412.715 6.93759 395.016C6.93759 377.317 6.28478 377.317 6.28478 359.618C6.28478 341.919 7.62997 341.919 7.62997 324.22C7.62997 306.522 7.14531 306.522 7.14531 288.823C7.14531 271.124 6.63097 271.124 6.63097 253.425C6.63097 235.726 7.39259 235.726 7.39259 218.028C7.39259 200.329 6.60129 200.329 6.60129 182.63C6.60129 164.931 3.93068 164.931 3.93068 147.232C3.93068 129.533 7.68932 129.533 7.68932 111.835C7.68932 94.1359 6.87825 94.1359 6.87825 76.4371C6.87825 58.7382 5.19675 58.7382 5.19675 41.0295C5.19675 23.3208 -6.40558 18.7575 6.20565 6.34459C19.0246 -6.27621 23.535 4.16688 41.5171 4.16688C59.4992 4.16688 59.4992 5.24584 77.4814 5.24584C95.4635 5.24584 95.4635 5.70117 113.446 5.70117C131.428 5.70117 131.428 6.14661 149.41 6.14661C167.392 6.14661 167.392 4.63212 185.374 4.63212C203.356 4.63212 203.356 3.81053 221.338 3.81053C239.321 3.81053 239.321 4.8004 257.303 4.8004C275.285 4.8004 275.285 5.92884 293.267 5.92884C311.249 5.92884 311.249 7.18597 329.231 7.18597C347.213 7.18597 347.213 6.93851 365.195 6.93851C383.178 6.93851 383.178 6.93851 401.16 6.93851C419.142 6.93851 419.142 5.27553 437.124 5.27553C455.106 5.27553 455.106 6.83952 473.088 6.83952C491.07 6.83952 491.07 3.87982 509.053 3.87982C527.035 3.87982 527.035 6.18621 545.017 6.18621C562.999 6.18621 562.999 5.42401 580.981 5.42401C598.963 5.42401 598.963 3.75114 616.945 3.75114C634.927 3.75114 634.927 6.37428 652.919 6.37428C670.911 6.37428 670.902 3.61256 688.884 3.61256C706.866 3.61256 706.866 5.68138 724.848 5.68138C742.83 5.68138 742.83 4.43414 760.812 4.43414C778.794 4.43414 778.794 3.94911 796.776 3.94911C814.759 3.94911 814.759 3.64225 832.741 3.64225C850.723 3.64225 850.723 3.45418 868.715 3.45418C886.707 3.45418 886.697 6.31489 904.689 6.31489C922.681 6.31489 922.671 6.09712 940.653 6.09712C958.635 6.09712 958.635 6.9682 976.618 6.9682C994.6 6.9682 994.6 4.46384 1012.59 4.46384C1030.58 4.46384 1030.57 5.83976 1048.57 5.83976C1066.56 5.83976 1066.55 5.43391 1084.54 5.43391C1102.53 5.43391 1102.52 5.91894 1120.51 5.91894C1138.51 5.91894 1138.51 4.29556 1156.49 4.29556C1174.47 4.29556 1179.2 -6.49398 1192.03 6.12682C1204.86 18.7476 1190.83 23.3802 1190.83 41.079C1190.83 58.7778 1193.38 58.7778 1193.38 76.4766C1193.38 94.1755 1193.11 94.1755 1193.11 111.874C1193.11 129.573 1194.23 129.573 1194.23 147.272C1194.23 164.971 1190.62 164.971 1190.62 182.67C1190.62 200.368 1194.12 200.368 1194.12 218.067C1194.12 235.766 1194.18 235.766 1194.18 253.465C1194.18 265.264 1194.18 277.063 1194.18 288.862C1194.18 306.561 1191.88 306.561 1191.88 324.26C1191.88 341.959 1193.46 341.959 1193.46 359.648C1193.46 377.337 1194.24 377.347 1194.24 395.036C1194.24 412.724 1190.25 412.734 1190.25 430.433C1190.25 448.132 1191.31 448.132 1191.31 465.821C1191.31 483.51 1193.43 483.52 1193.43 501.209C1193.43 518.898 1191.9 518.907 1191.9 536.596C1191.9 554.285 1193.94 554.295 1193.94 571.984C1193.94 589.683 1191.67 589.683 1191.67 607.382C1191.67 625.081 1192.49 625.081 1192.49 642.779C1192.49 660.478 1190.7 660.478 1190.7 678.177C1190.7 695.876 1194.78 695.876 1194.78 713.575C1194.78 731.273 1194.68 731.273 1194.68 748.972C1194.68 766.671 1191.73 766.671 1191.73 784.37C1191.73 802.069 1190.75 802.069 1190.75 819.768C1190.75 837.466 1190.74 837.466 1190.74 855.165C1190.74 872.864 1193.63 872.864 1193.63 890.563C1193.63 908.262 1191.29 908.262 1191.29 925.96C1191.29 943.659 1194.79 943.659 1194.79 961.358C1194.79 979.057 1191.38 979.057 1191.38 996.756C1191.38 1014.45 1193.94 1014.45 1193.94 1032.15C1193.94 1049.85 1190.3 1049.85 1190.3 1067.55C1190.3 1085.25 1191.95 1085.25 1191.95 1102.95C1191.95 1120.65 1190.22 1120.71 1194.06 1137.99C1198.24 1156.73 1205.56 1161.89 1192.95 1174.3L1193.01 1174.25Z" fill="#FFEBC2"/>
</svg>
