<svg width="1200" height="504" viewBox="0 0 1200 504" fill="none" xmlns="http://www.w3.org/2000/svg">
<path d="M1195.48 500.067C1187.06 508.415 1183.3 500.332 1171.39 500.332C1159.47 500.332 1159.47 498.907 1147.56 498.907C1135.65 498.907 1135.65 498.68 1123.74 498.68C1111.82 498.68 1111.82 499.634 1099.91 499.634C1088 499.634 1088 498.995 1076.09 498.995C1064.17 498.995 1064.17 498.867 1052.26 498.867C1040.35 498.867 1040.35 498.621 1028.44 498.621C1016.52 498.621 1016.52 498.838 1004.61 498.838C992.699 498.838 992.699 500.401 980.787 500.401C968.874 500.401 968.874 499.998 956.962 499.998C945.049 499.998 945.049 500.647 933.137 500.647C921.224 500.647 921.224 499.211 909.312 499.211C897.399 499.211 897.399 500.48 885.487 500.48C873.575 500.48 873.575 498.739 861.662 498.739C849.75 498.739 849.75 500.745 837.837 500.745C825.925 500.745 825.925 498.966 814.012 498.966C802.1 498.966 802.1 498.916 790.197 498.916C778.295 498.916 778.285 498.789 766.382 498.789C754.48 498.789 754.47 498.789 742.558 498.789C730.645 498.789 730.645 498.907 718.743 498.907C706.84 498.907 706.83 498.759 694.918 498.759C683.005 498.759 683.005 499.034 671.093 499.034C659.18 499.034 659.18 500.804 647.268 500.804C635.355 500.804 635.355 500.676 623.443 500.676C611.531 500.676 611.531 498.759 599.618 498.759C587.706 498.759 587.706 499.723 575.793 499.723C563.881 499.723 563.881 500.057 551.968 500.057C540.056 500.057 540.056 500.765 528.144 500.765C516.231 500.765 516.231 500.283 504.319 500.283C492.406 500.283 492.406 499.919 480.494 499.919C468.581 499.919 468.581 499.467 456.669 499.467C444.756 499.467 444.756 499.015 432.844 499.015C420.931 499.015 420.931 500.175 409.019 500.175C397.107 500.175 397.107 498.631 385.194 498.631C373.282 498.631 373.282 499.968 361.369 499.968C349.457 499.968 349.457 498.867 337.544 498.867C325.632 498.867 325.632 500.637 313.719 500.637C301.807 500.637 301.807 498.621 289.895 498.621C277.982 498.621 277.982 500.922 266.07 500.922C254.157 500.922 254.157 499.211 242.245 499.211C230.332 499.211 230.332 500.401 218.42 500.401C206.507 500.401 206.507 499.211 194.595 499.211C182.683 499.211 182.683 500.804 170.77 500.804C158.858 500.804 158.858 500.047 146.945 500.047C135.033 500.047 135.033 500.853 123.12 500.853C111.208 500.853 111.208 500.824 99.2955 500.824C87.383 500.824 87.383 499.438 75.4706 499.438C63.5581 499.438 63.5582 500.372 51.6358 500.372C39.7134 500.372 39.7233 500.568 27.801 500.568C15.8786 500.568 11.9971 508.533 3.56907 500.195C-4.85898 491.856 4.28382 488.002 4.28382 476.202C4.28382 464.403 4.90922 464.403 4.90922 452.603C4.90922 440.804 3.47973 440.804 3.47973 429.004C3.47973 417.205 3.41024 417.205 3.41024 405.405C3.41024 393.605 4.66105 393.605 4.66105 381.806C4.66105 370.006 4.33345 370.006 4.33345 358.207C4.33345 346.407 5.00849 346.407 5.00849 334.608C5.00849 322.808 4.77024 322.808 4.77024 311.009C4.77024 299.209 4.51214 299.209 4.51214 287.41C4.51214 275.61 4.8993 275.61 4.8993 263.811C4.8993 252.011 4.50221 252.011 4.50221 240.212C4.50221 228.412 3.16206 228.412 3.16206 216.612C3.16206 204.813 5.0482 204.813 5.0482 193.013C5.0482 181.214 4.64119 181.214 4.64119 169.414C4.64119 157.615 3.79739 157.615 3.79739 145.815C3.79739 134.016 4.44265 134.016 4.44265 122.216C4.44265 110.417 3.2117 110.417 3.2117 98.6171C3.2117 86.8176 3.74776 86.8176 3.74776 75.0181C3.74776 63.2185 3.97608 63.2185 3.97608 51.419C3.97608 39.6195 4.19448 39.6195 4.19448 27.8101C4.19448 16.0007 -4.8292 12.1954 3.59885 3.85703C12.0269 -4.4813 15.8885 3.29656 27.801 3.29656C39.7134 3.29656 39.7134 3.7882 51.6259 3.7882C63.5383 3.7882 63.5383 4.34868 75.4507 4.34868C87.3632 4.34868 87.3632 4.97799 99.2756 4.97799C111.188 4.97799 111.188 4.85999 123.101 4.85999C135.013 4.85999 135.013 4.85999 146.925 4.85999C158.838 4.85999 158.838 4.03403 170.75 4.03403C182.663 4.03403 182.663 4.81083 194.575 4.81083C206.488 4.81083 206.488 3.34572 218.4 3.34572C230.313 3.34572 230.313 4.48634 242.225 4.48634C254.137 4.48634 254.137 4.10286 266.05 4.10286C277.962 4.10286 277.962 3.26706 289.875 3.26706C301.787 3.26706 301.787 4.57484 313.7 4.57484C325.612 4.57484 325.612 3.20806 337.525 3.20806C349.437 3.20806 349.437 4.23069 361.349 4.23069C373.262 4.23069 373.262 3.61121 385.174 3.61121C397.087 3.61121 397.087 3.37522 408.989 3.37522C420.892 3.37522 420.902 3.21789 432.804 3.21789C444.707 3.21789 444.717 3.1294 456.629 3.1294C468.542 3.1294 468.542 4.54534 480.444 4.54534C492.347 4.54534 492.357 4.43718 504.269 4.43718C516.181 4.43718 516.181 4.86983 528.094 4.86983C540.006 4.86983 540.006 3.62104 551.919 3.62104C563.831 3.62104 563.831 4.30935 575.744 4.30935C587.656 4.30935 587.656 4.11269 599.568 4.11269C611.481 4.11269 611.481 4.35851 623.393 4.35851C635.306 4.35851 635.306 3.55221 647.218 3.55221C659.131 3.55221 659.131 4.54534 671.043 4.54534C682.956 4.54534 682.956 5.04682 694.868 5.04682C706.78 5.04682 706.78 3.77837 718.693 3.77837C730.605 3.77837 730.605 3.91603 742.518 3.91603C754.43 3.91603 754.43 3.35555 766.343 3.35555C778.255 3.35555 778.255 5.15498 790.168 5.15498C802.08 5.15498 802.08 3.41455 813.992 3.41455C825.905 3.41455 825.905 3.38505 837.817 3.38505C849.73 3.38505 849.73 3.38505 861.642 3.38505C873.555 3.38505 873.555 4.53551 885.467 4.53551C897.38 4.53551 897.38 3.74887 909.292 3.74887C921.204 3.74887 921.204 3.35555 933.117 3.35555C945.029 3.35555 945.029 5.34181 956.942 5.34181C968.854 5.34181 968.854 4.82066 980.767 4.82066C992.679 4.82066 992.679 3.7587 1004.59 3.7587C1016.5 3.7587 1016.5 4.52567 1028.42 4.52567C1040.33 4.52567 1040.33 3.51288 1052.24 3.51288C1064.15 3.51288 1064.15 4.63384 1076.07 4.63384C1087.98 4.63384 1087.98 4.22085 1099.89 4.22085C1111.8 4.22085 1111.8 5.10582 1123.72 5.10582C1135.63 5.10582 1135.63 3.08023 1147.55 3.08023C1159.47 3.08023 1159.46 3.1294 1171.39 3.1294C1183.31 3.1294 1186.54 -3.852 1194.97 4.49618C1203.4 12.8345 1194.38 16.0499 1194.38 27.8396C1194.38 35.7059 1194.38 43.5723 1194.38 51.4387C1194.38 63.2382 1195.83 63.2382 1195.83 75.0377C1195.83 86.8373 1194.65 86.8373 1194.65 98.6368C1194.65 110.436 1196.41 110.436 1196.41 122.236C1196.41 134.035 1194.7 134.035 1194.7 145.835C1194.7 157.634 1195.98 157.634 1195.98 169.434C1195.98 181.234 1194.16 181.234 1194.16 193.033C1194.16 204.833 1194.99 204.833 1194.99 216.632C1194.99 228.432 1196.07 228.432 1196.07 240.231C1196.07 252.031 1195.13 252.031 1195.13 263.83C1195.13 275.63 1194.84 275.63 1194.84 287.429C1194.84 299.229 1195.66 299.229 1195.66 311.028C1195.66 322.828 1195.46 322.828 1195.46 334.628C1195.46 346.427 1196.19 346.427 1196.19 358.227C1196.19 370.026 1194.82 370.026 1194.82 381.826C1194.82 393.625 1194.84 393.625 1194.84 405.425C1194.84 417.224 1194.6 417.224 1194.6 429.024C1194.6 440.823 1195.65 440.823 1195.65 452.623C1195.65 464.422 1193.17 464.59 1195.73 476.114C1198.49 488.552 1203.91 491.748 1195.48 500.096V500.067Z" fill="#FFEBC2"/>
</svg>
