<svg width="1200" height="317" viewBox="0 0 1200 317" fill="none" xmlns="http://www.w3.org/2000/svg">
<path d="M1195.78 313.073C1187.41 321.408 1183.59 313.337 1171.68 313.337C1159.76 313.337 1159.76 311.923 1147.84 311.923C1135.93 311.923 1135.93 311.699 1124.01 311.699C1112.1 311.699 1112.1 312.645 1100.18 312.645C1088.27 312.645 1088.27 312.011 1076.35 312.011C1064.43 312.011 1064.43 311.884 1052.52 311.884C1040.6 311.884 1040.6 311.641 1028.69 311.641C1016.77 311.641 1016.77 311.855 1004.86 311.855C992.94 311.855 992.94 313.405 981.025 313.405C969.109 313.405 969.109 313.005 957.193 313.005C945.278 313.005 945.278 313.649 933.362 313.649C921.446 313.649 921.446 312.225 909.53 312.225C897.615 312.225 897.615 313.483 885.699 313.483C873.783 313.483 873.783 311.758 861.868 311.758C849.952 311.758 849.952 313.746 838.036 313.746C826.12 313.746 826.12 311.982 814.205 311.982C802.289 311.982 802.289 311.933 790.383 311.933C778.477 311.933 778.468 311.806 766.562 311.806C754.656 311.806 754.646 311.806 742.73 311.806C730.815 311.806 730.815 311.923 718.909 311.923C707.003 311.923 706.993 311.777 695.077 311.777C683.162 311.777 683.162 312.05 671.246 312.05C659.33 312.05 659.33 313.805 647.415 313.805C635.499 313.805 635.499 313.678 623.583 313.678C611.667 313.678 611.667 311.777 599.752 311.777C587.836 311.777 587.836 312.732 575.92 312.732C564.005 312.732 564.005 313.064 552.089 313.064C540.173 313.064 540.173 313.766 528.257 313.766C516.342 313.766 516.342 313.288 504.426 313.288C492.51 313.288 492.51 312.927 480.595 312.927C468.679 312.927 468.679 312.479 456.763 312.479C444.848 312.479 444.848 312.03 432.932 312.03C421.016 312.03 421.016 313.181 409.1 313.181C397.185 313.181 397.185 311.65 385.269 311.65C373.353 311.65 373.353 312.976 361.438 312.976C349.522 312.976 349.522 311.884 337.606 311.884C325.69 311.884 325.69 313.639 313.775 313.639C301.859 313.639 301.859 311.641 289.943 311.641C278.028 311.641 278.028 313.921 266.112 313.921C254.196 313.921 254.196 312.225 242.28 312.225C230.365 312.225 230.365 313.405 218.449 313.405C206.533 313.405 206.533 312.225 194.618 312.225C182.702 312.225 182.702 313.805 170.786 313.805C158.87 313.805 158.87 313.054 146.955 313.054C135.039 313.054 135.039 313.853 123.123 313.853C111.208 313.853 111.208 313.824 99.2919 313.824C87.3762 313.824 87.3762 312.45 75.4605 312.45C63.5448 312.45 63.5448 313.376 51.6191 313.376C39.6935 313.376 39.7034 313.571 27.7778 313.571C15.8521 313.571 11.9001 321.534 3.53923 313.19C-4.82163 304.847 4.25417 300.918 4.25417 289.036C4.25417 277.154 4.87974 277.154 4.87974 265.272C4.87974 253.389 3.44986 253.389 3.44986 241.507C3.44986 229.625 3.38035 229.625 3.38035 217.743C3.38035 205.861 4.6315 205.861 4.6315 193.978C4.6315 182.096 4.30382 182.096 4.30382 170.214C4.30382 158.332 4.97904 158.332 4.97904 146.45C4.97904 134.567 4.74073 134.567 4.74073 122.675C4.74073 110.783 4.48255 110.793 4.48255 98.9012C4.48255 87.0092 4.86981 87.019 4.86981 75.127C4.86981 63.235 4.47262 63.2448 4.47262 51.3528C4.47262 39.4609 3.13211 39.4609 3.13211 27.5786C3.13211 15.6964 -3.79887 13.0354 4.70101 4.55503C13.2009 -3.9253 15.8521 4.4673 27.7678 4.4673C39.6836 4.4673 39.6835 3.63876 51.5993 3.63876C63.515 3.63876 63.515 4.27235 75.4307 4.27235C87.3464 4.27235 87.3464 3.06366 99.2621 3.06366C111.178 3.06366 111.178 3.59003 123.094 3.59003C135.009 3.59003 135.009 3.81422 146.925 3.81422C158.841 3.81422 158.841 4.02866 170.756 4.02866C182.672 4.02866 182.672 3.27811 194.588 3.27811C206.504 3.27811 206.504 2.87846 218.419 2.87846C230.335 2.87846 230.335 3.36583 242.251 3.36583C254.166 3.36583 254.166 3.92144 266.082 3.92144C277.998 3.92144 277.998 4.54528 289.913 4.54528C301.829 4.54528 301.829 4.42831 313.745 4.42831C325.661 4.42831 325.661 4.42831 337.576 4.42831C349.492 4.42831 349.492 3.60952 361.408 3.60952C373.323 3.60952 373.323 4.37958 385.239 4.37958C397.155 4.37958 397.155 2.9272 409.061 2.9272C420.966 2.9272 420.976 4.05791 432.882 4.05791C444.788 4.05791 444.798 3.67775 456.714 3.67775C468.629 3.67775 468.629 2.84922 480.535 2.84922C492.441 2.84922 492.451 4.14564 504.366 4.14564C516.282 4.14564 516.282 2.79073 528.198 2.79073C540.114 2.79073 540.114 3.80447 552.029 3.80447C563.945 3.80447 563.945 3.19038 575.861 3.19038C587.776 3.19038 587.776 2.95644 599.692 2.95644C611.608 2.95644 611.608 2.80048 623.524 2.80048C635.439 2.80048 635.439 2.71275 647.355 2.71275C659.271 2.71275 659.271 4.11639 671.186 4.11639C683.102 4.11639 683.102 4.00917 695.018 4.00917C706.934 4.00917 706.934 4.43806 718.849 4.43806C730.765 4.43806 730.765 3.20013 742.681 3.20013C754.596 3.20013 754.596 3.88245 766.512 3.88245C778.428 3.88245 778.428 3.6875 790.344 3.6875C802.259 3.6875 802.259 3.93119 814.175 3.93119C826.091 3.93119 826.091 3.13189 838.006 3.13189C849.922 3.13189 849.922 4.11639 861.838 4.11639C873.754 4.11639 873.754 4.61352 885.669 4.61352C897.585 4.61352 897.585 3.35609 909.501 3.35609C921.416 3.35609 921.416 3.49255 933.332 3.49255C945.248 3.49255 945.248 2.93694 957.163 2.93694C969.079 2.93694 969.079 4.72074 980.995 4.72074C992.911 4.72074 992.911 2.99543 1004.83 2.99543C1016.74 2.99543 1016.74 2.96619 1028.66 2.96619C1040.57 2.96619 1040.57 2.96619 1052.49 2.96619C1064.4 2.96619 1064.4 4.10664 1076.32 4.10664C1088.24 4.10664 1088.24 3.32684 1100.15 3.32684C1112.07 3.32684 1112.07 2.93694 1123.98 2.93694C1135.9 2.93694 1135.9 4.90594 1147.82 4.90594C1159.75 4.90594 1159.74 4.38932 1171.67 4.38932C1183.59 4.38932 1187.49 -4.85132 1195.85 3.4828C1204.22 11.8169 1195.23 15.7062 1195.23 27.5884C1195.23 39.4706 1196.25 39.4706 1196.25 51.3528C1196.25 63.235 1195.12 63.235 1195.12 75.1172C1195.12 86.9995 1195.54 86.9995 1195.54 98.8817C1195.54 110.764 1194.64 110.764 1194.64 122.646C1194.64 134.528 1196.69 134.528 1196.69 146.411C1196.69 158.293 1196.64 158.293 1196.64 170.175C1196.64 182.057 1195.16 182.057 1195.16 193.949C1195.16 205.841 1194.67 205.831 1194.67 217.723C1194.67 229.615 1194.67 229.606 1194.67 241.497C1194.67 253.38 1196.12 253.38 1196.12 265.272C1196.12 277.164 1192.38 277.554 1194.96 289.163C1197.75 301.679 1204.29 304.603 1195.8 313.073H1195.78Z" fill="#FFEBC2"/>
</svg>
