<svg width="312" height="468" viewBox="0 0 312 468" fill="none" xmlns="http://www.w3.org/2000/svg">
<path d="M309.239 465.632C304.381 470.832 302.061 465.847 295.089 465.847C288.118 465.847 288.118 464.731 281.147 464.731C274.175 464.731 274.175 464.557 267.204 464.557C260.233 464.557 260.233 465.304 253.262 465.304C246.29 465.304 246.29 464.802 239.319 464.802C232.348 464.802 232.348 464.7 225.376 464.7C218.405 464.7 218.405 464.505 211.434 464.505C204.462 464.505 204.462 464.679 197.491 464.679C190.52 464.679 190.52 465.908 183.548 465.908C176.577 465.908 176.577 465.591 169.606 465.591C162.634 465.591 162.634 466.102 155.663 466.102C148.692 466.102 148.692 464.976 141.72 464.976C134.749 464.976 134.749 465.969 127.778 465.969C120.807 465.969 120.807 464.608 113.835 464.608C106.864 464.608 106.864 466.184 99.8926 466.184C92.9212 466.184 92.9213 464.792 85.9499 464.792C78.9786 464.792 78.9786 464.751 72.0073 464.751C65.036 464.751 65.036 464.649 58.0647 464.649C51.0934 464.649 51.0934 464.649 44.1122 464.649C37.1311 464.649 37.1409 464.741 30.1696 464.741C23.1884 464.741 23.1884 464.628 16.2171 464.628C9.2458 464.628 7.53492 470.228 2.66779 465.017C-2.19935 459.806 1.49771 457.974 1.49771 450.511C1.49771 443.048 1.59603 443.048 1.59603 435.585C1.59603 428.122 3.04142 428.122 3.04142 420.659C3.04142 413.196 2.31381 413.196 2.31381 405.732C2.31381 398.269 2.05816 398.269 2.05816 390.806C2.05816 383.343 1.5272 383.343 1.5272 375.88C1.5272 368.417 1.89101 368.417 1.89101 360.954C1.89101 353.491 2.16632 353.491 2.16632 346.028C2.16632 338.565 2.51046 338.565 2.51046 331.102C2.51046 323.639 2.8546 323.639 2.8546 316.176C2.8546 308.713 1.9795 308.713 1.9795 301.25C1.9795 293.787 3.14958 293.787 3.14958 286.323C3.14958 278.86 2.13682 278.86 2.13682 271.397C2.13682 263.934 2.96276 263.934 2.96276 256.471C2.96276 249.008 1.62553 249.008 1.62553 241.545C1.62553 234.082 3.13975 234.082 3.13975 226.629C3.13975 219.176 1.39938 219.166 1.39938 211.703C1.39938 204.24 2.68745 204.24 2.68745 196.777C2.68745 189.314 1.79268 189.314 1.79268 181.851C1.79268 174.388 2.68745 174.388 2.68745 166.925C2.68745 159.462 1.48787 159.462 1.48787 151.999C1.48787 144.535 2.05816 144.535 2.05816 137.072C2.05816 129.609 1.44854 129.609 1.44854 122.146C1.44854 114.683 1.47804 114.683 1.47804 107.22C1.47804 99.7571 2.5203 99.7571 2.5203 92.294C2.5203 84.831 1.81235 84.831 1.81235 77.3679C1.81235 69.9048 1.66486 69.9048 1.66486 62.4418C1.66486 54.9787 1.82218 54.9787 1.82218 47.5054C1.82218 40.0321 2.48097 40.0424 2.48097 32.5793C2.48097 25.1162 2.9431 25.106 2.9431 17.6429C2.9431 10.1799 -2.99579 7.79455 1.99917 2.43015C6.99413 -2.93425 9.23596 2.25611 16.2073 2.25611C23.1786 2.25611 23.1786 3.22867 30.1499 3.22867C37.1212 3.22867 37.1212 2.97273 44.0925 2.97273C51.0639 2.97273 51.0639 3.49484 58.0352 3.49484C65.0065 3.49484 65.0065 3.31057 71.9778 3.31057C78.9491 3.31057 78.9491 3.10582 85.9204 3.10582C92.8917 3.10582 92.8917 3.4027 99.8631 3.4027C106.834 3.4027 106.834 3.09558 113.806 3.09558C120.777 3.09558 120.777 2.05136 127.748 2.05136C134.72 2.05136 134.72 3.51531 141.691 3.51531C148.662 3.51531 148.662 3.19795 155.634 3.19795C162.605 3.19795 162.605 2.54276 169.576 2.54276C176.548 2.54276 176.548 3.04439 183.519 3.04439C190.49 3.04439 190.49 2.09231 197.461 2.09231C204.433 2.09231 204.433 2.51205 211.404 2.51205C218.375 2.51205 218.375 2.68608 225.347 2.68608C232.318 2.68608 232.318 2.86012 239.289 2.86012C246.261 2.86012 246.261 2.26635 253.232 2.26635C260.203 2.26635 260.203 1.94899 267.184 1.94899C274.166 1.94899 274.156 2.33801 281.127 2.33801C288.098 2.33801 288.108 2.77822 295.08 2.77822C302.051 2.77822 303.762 -2.11526 308.629 3.09558C313.624 8.4395 308.56 10.1491 308.56 17.6122C308.56 25.0753 308.56 25.0753 308.56 32.5383C308.56 40.0014 309.18 40.0014 309.18 47.4645C309.18 54.9275 308.599 54.9275 308.599 62.3906C308.599 69.8537 309.71 69.8537 309.71 77.3167C309.71 84.7798 308.845 84.7798 308.845 92.2428C308.845 99.7059 309.13 99.7059 309.13 107.169C309.13 114.632 309.76 114.632 309.76 122.095C309.76 129.558 308.776 129.558 308.776 137.021C308.776 144.484 309.809 144.484 309.809 151.947C309.809 159.41 309.032 159.41 309.032 166.873C309.032 174.337 309.494 174.337 309.494 181.8C309.494 189.263 309.671 189.263 309.671 196.726C309.671 204.189 309.789 204.189 309.789 211.652C309.789 219.115 309.858 219.115 309.858 226.578C309.858 234.041 308.786 234.041 308.786 241.494C308.786 248.947 308.865 248.957 308.865 256.42C308.865 263.883 308.54 263.883 308.54 271.346C308.54 278.809 309.474 278.809 309.474 286.272C309.474 293.735 308.963 293.735 308.963 301.198C308.963 308.661 309.111 308.661 309.111 316.125C309.111 323.588 308.924 323.588 308.924 331.051C308.924 338.514 309.533 338.514 309.533 345.977C309.533 353.44 308.786 353.44 308.786 360.903C308.786 368.366 308.403 368.366 308.403 375.829C308.403 383.292 309.356 383.292 309.356 390.755C309.356 398.218 309.258 398.218 309.258 405.681C309.258 413.144 309.681 413.144 309.681 420.618C309.681 428.091 308.324 428.081 308.324 435.544C308.324 443.007 308.088 443.048 309.622 450.347C311.284 458.23 314.214 460.267 309.219 465.632H309.239Z" fill="#FFEBC2"/>
</svg>
