<svg width="316" height="32" viewBox="0 0 316 32" fill="none" xmlns="http://www.w3.org/2000/svg">
<path d="M314.662 25.4498C312.702 27.573 311.633 25.573 308.673 25.6299C305.714 25.6868 305.714 25.3171 302.754 25.374C299.794 25.4308 299.794 25.374 296.845 25.4214C293.895 25.4688 293.895 25.7152 290.935 25.7721C287.975 25.8289 287.975 25.6678 285.016 25.7152C282.056 25.7626 282.056 25.7342 279.096 25.791C276.137 25.8479 276.137 25.791 273.187 25.8384C270.237 25.8858 270.227 25.9522 267.277 25.9996C264.328 26.047 264.328 26.4545 261.368 26.5019C258.408 26.5493 258.408 26.4545 255.449 26.5019C252.489 26.5493 252.499 26.7199 249.539 26.7768C246.579 26.8337 246.579 26.464 243.62 26.5209C240.66 26.5778 240.67 26.9 237.71 26.9474C234.751 26.9948 234.741 26.5588 231.791 26.6157C228.841 26.6726 228.841 27.1844 225.891 27.2318C222.942 27.2792 222.922 26.8337 219.972 26.8906C217.022 26.9474 217.012 26.9285 214.053 26.9853C211.093 27.0422 211.093 27.0043 208.143 27.0612C205.193 27.118 205.183 27.118 202.224 27.1654C199.264 27.2128 199.264 27.2507 196.314 27.3076C193.365 27.3645 193.355 27.3266 190.405 27.374C187.455 27.4214 187.455 27.4972 184.495 27.5541C181.536 27.6109 181.546 28.0564 178.596 28.1133C175.646 28.1702 175.636 28.1323 172.676 28.1891C169.717 28.246 169.707 27.7531 166.757 27.81C163.807 27.8669 163.807 28.1133 160.848 28.1607C157.888 28.2081 157.898 28.3029 154.938 28.3503C151.978 28.3977 151.988 28.5872 149.029 28.6346C146.069 28.682 146.069 28.5683 143.119 28.6157C140.169 28.6631 140.16 28.5778 137.2 28.6346C134.24 28.6915 134.24 28.5778 131.281 28.6346C128.321 28.6915 128.321 28.5778 125.361 28.6346C122.401 28.6915 122.411 28.9853 119.452 29.0422C116.492 29.0991 116.482 28.701 113.532 28.7579C110.583 28.8147 110.583 29.156 107.623 29.2034C104.663 29.2507 104.663 28.9759 101.704 29.0327C98.7438 29.0896 98.7537 29.5351 95.7941 29.592C92.8344 29.6489 92.8245 29.137 89.8648 29.1844C86.9051 29.2318 86.915 29.8289 83.9553 29.8763C80.9956 29.9237 80.9857 29.4972 78.0261 29.5446C75.0664 29.592 75.0763 29.9048 72.1166 29.9522C69.1569 29.9996 69.1569 29.7057 66.1972 29.7531C63.2376 29.8005 63.2475 30.2081 60.2878 30.265C57.3281 30.3218 57.3281 30.1228 54.3684 30.1797C51.4087 30.2365 51.4186 30.4356 48.4589 30.4925C45.4993 30.5493 45.4993 30.5398 42.5396 30.5872C39.5799 30.6346 39.57 30.2839 36.6103 30.3408C33.6506 30.3977 33.6605 30.6346 30.7009 30.6915C27.7412 30.7484 27.7412 30.7958 24.7815 30.8526C21.8218 30.9095 21.8218 30.8526 18.8621 30.9095C15.9025 30.9664 15.8926 30.7389 12.9329 30.7958C9.97319 30.8526 9.96329 30.6915 7.00361 30.7484C4.04393 30.8053 3.03427 33.2318 0.985262 31.1749C-1.20233 28.9759 0.935769 28.0564 0.935769 25.0233C0.935769 21.9901 1.26242 21.9901 1.26242 18.9664C1.26242 15.9427 1.17334 15.9332 1.17334 12.9C1.17334 9.86686 1.35151 9.86686 1.35151 6.83369C1.35151 3.80051 -0.954864 3.09909 1.23273 0.900039C3.27184 -1.15683 4.03403 0.947432 6.99371 1.0043C9.95339 1.06118 9.95339 1.15596 12.9032 1.21284C15.853 1.26971 15.8629 1.16544 18.8126 1.21284C21.7624 1.26023 21.7723 0.928475 24.732 0.985347C27.6917 1.04222 27.6818 1.51615 30.6316 1.57302C33.5813 1.6299 33.5913 1.52563 36.5509 1.57302C39.5106 1.62042 39.5106 1.41189 42.4703 1.46876C45.43 1.52563 45.4201 1.68677 48.3798 1.74364C51.3394 1.80051 51.3394 1.48772 54.2991 1.54459C57.2588 1.60146 57.2489 1.73416 60.2086 1.79103C63.1683 1.84791 63.1683 1.90478 66.118 1.95217C69.0678 1.99956 69.0777 2.06592 72.0275 2.11331C74.9773 2.1607 74.9872 1.97113 77.9469 2.028C80.9066 2.08487 80.9066 1.98061 83.8662 2.028C86.8259 2.07539 86.816 2.2081 89.7757 2.26497C92.7354 2.32184 92.7255 2.46402 95.6852 2.51141C98.6448 2.55881 98.6349 2.71994 101.595 2.77682C104.554 2.83369 104.554 2.79577 107.504 2.85265C110.454 2.90952 110.464 2.90952 113.423 2.95691C116.383 3.0043 116.383 2.79577 119.343 2.85265C122.303 2.90952 122.293 3.09909 125.252 3.15596C128.212 3.21284 128.212 2.83369 131.172 2.89056C134.131 2.94743 134.121 3.23179 137.081 3.28866C140.041 3.34554 140.041 3.25075 143 3.29814C145.96 3.34554 145.96 3.13701 148.92 3.19388C151.88 3.25075 151.87 3.5825 154.819 3.6299C157.769 3.67729 157.779 3.33606 160.739 3.39293C163.698 3.4498 163.689 3.70573 166.648 3.7626C169.608 3.81947 169.608 3.65833 172.568 3.7152C175.527 3.77208 175.527 3.7152 178.477 3.7626C181.427 3.80999 181.437 3.78156 184.396 3.82895C187.356 3.87634 187.356 3.85738 190.306 3.91426C193.256 3.97113 193.256 4.33132 196.215 4.37871C199.175 4.42611 199.175 4.40715 202.135 4.45454C205.094 4.50193 205.094 4.61568 208.044 4.67255C210.994 4.72942 211.004 4.40715 213.964 4.46402C216.923 4.52089 216.923 4.69151 219.873 4.74838C222.823 4.80525 222.833 4.74838 225.792 4.80525C228.752 4.86212 228.752 4.919 231.712 4.97587C234.671 5.03274 234.671 4.82421 237.631 4.88108C240.591 4.93795 240.581 5.1844 243.541 5.24127C246.5 5.29814 246.5 5.42137 249.45 5.47824C252.4 5.53511 252.42 5.21284 255.369 5.26023C258.319 5.30762 258.329 5.34554 261.279 5.40241C264.229 5.45928 264.239 5.3171 267.198 5.36449C270.158 5.41189 270.148 5.87634 273.108 5.93321C276.067 5.99009 276.077 5.54459 279.037 5.60146C281.997 5.65833 281.997 5.64885 284.956 5.70573C287.916 5.7626 287.916 5.7626 290.876 5.80999C293.835 5.85738 293.825 6.15122 296.785 6.2081C299.745 6.26497 299.745 6.06592 302.714 6.11331C305.684 6.1607 305.674 6.06592 308.644 6.11331C311.613 6.1607 312.385 4.51141 314.345 6.63464C316.523 8.99483 314.415 9.60146 314.415 12.7484C314.415 15.8953 314.019 15.9427 314.692 19.0233C315.414 22.3218 316.82 23.0517 314.642 25.4119L314.662 25.4498Z" fill="url(#paint0_linear_1361_31533)"/>
<defs>
<linearGradient id="paint0_linear_1361_31533" x1="157.904" y1="0" x2="157.904" y2="32.0007" gradientUnits="userSpaceOnUse">
<stop offset="0.58" stop-color="#FFEBC2"/>
<stop offset="1" stop-color="#998D74"/>
</linearGradient>
</defs>
</svg>
