<svg width="329" height="22" viewBox="0 0 329 22" fill="none" xmlns="http://www.w3.org/2000/svg">
<path d="M325.615 15.1422C323.971 17.4929 322.586 15.2749 319.636 15.3223C316.686 15.3697 316.676 14.9905 313.726 15.0474C310.777 15.1043 310.777 15.0379 307.827 15.0853C304.877 15.1327 304.877 15.3886 301.927 15.436C298.977 15.4834 298.977 15.3128 296.028 15.3602C293.078 15.4076 293.078 15.3791 290.128 15.4265C287.178 15.4739 287.178 15.4076 284.228 15.455C281.279 15.5024 281.279 15.5592 278.329 15.6066C275.379 15.654 275.389 16.0711 272.439 16.1185C269.489 16.1659 269.489 16.0616 266.54 16.109C263.59 16.1564 263.59 16.327 260.64 16.3744C257.69 16.4218 257.68 16.0427 254.731 16.09C251.781 16.1374 251.781 16.4692 248.831 16.5166C245.881 16.564 245.871 16.109 242.922 16.1564C239.972 16.2038 239.982 16.7346 237.032 16.782C234.082 16.8294 234.072 16.3649 231.122 16.4123C228.173 16.4597 228.173 16.4502 225.223 16.4976C222.273 16.545 222.273 16.5071 219.323 16.564C216.374 16.6209 216.374 16.6114 213.424 16.6588C210.474 16.7062 210.474 16.7346 207.524 16.7915C204.574 16.8483 204.574 16.8009 201.625 16.8483C198.675 16.8957 198.675 16.9716 195.725 17.019C192.775 17.0664 192.785 17.5308 189.835 17.5782C186.886 17.6256 186.886 17.5877 183.936 17.6445C180.986 17.7014 180.976 17.1896 178.026 17.237C175.077 17.2844 175.077 17.5403 172.127 17.5877C169.177 17.6351 169.177 17.7204 166.227 17.7773C163.277 17.8341 163.277 18.0142 160.328 18.0616C157.378 18.109 157.378 17.9858 154.428 18.0332C151.478 18.0806 151.478 17.9858 148.519 18.0332C145.559 18.0806 145.569 17.9668 142.619 18.0142C139.669 18.0616 139.669 17.9479 136.72 17.9953C133.77 18.0427 133.77 18.346 130.82 18.3934C127.87 18.4408 127.86 18.0332 124.91 18.0806C121.961 18.128 121.961 18.4787 119.011 18.5261C116.061 18.5735 116.051 18.2796 113.101 18.3365C110.152 18.3934 110.162 18.8483 107.202 18.8957C104.242 18.9431 104.242 18.4123 101.292 18.4597C98.3427 18.5071 98.3525 19.1137 95.4028 19.1611C92.453 19.2085 92.4431 18.763 89.4933 18.8104C86.5435 18.8578 86.5435 19.1706 83.5937 19.218C80.644 19.2654 80.6341 18.9526 77.6843 19C74.7345 19.0474 74.7345 19.4645 71.7847 19.5118C68.8349 19.5592 68.825 19.3602 65.8752 19.4076C62.9255 19.455 62.9255 19.6635 59.9757 19.7204C57.0259 19.7773 57.0259 19.7583 54.0761 19.8057C51.1263 19.8531 51.1164 19.4929 48.1666 19.5403C45.2169 19.5877 45.2169 19.8341 42.2671 19.8815C39.3173 19.9289 39.3173 19.9858 36.3576 20.0332C33.3979 20.0806 33.4078 20.0332 30.4482 20.0711C27.4885 20.109 27.4885 19.891 24.5387 19.9384C21.5889 19.9858 21.579 19.8246 18.6292 19.872C15.6794 19.9194 15.6794 20.2891 12.7297 20.3365C9.77987 20.3839 9.76998 20.4028 6.82019 20.4502C3.87041 20.4976 3.03893 22.3744 1.03941 20.2796C-1.17788 17.9479 0.999816 17.2464 0.999816 14.0806C0.999816 10.9147 1.18789 10.9242 1.18789 7.75829C1.18789 4.59242 -1.14818 3.91943 1.06911 1.5782C3.04883 -0.51659 3.86051 1.62559 6.81029 1.67298C9.76008 1.72038 9.76008 1.82464 12.7099 1.87204C15.6596 1.91943 15.6596 1.81516 18.6094 1.87204C21.5592 1.92891 21.5691 1.56872 24.5189 1.61611C27.4687 1.66351 27.4588 2.1564 30.4086 2.20379C33.3583 2.25118 33.3583 2.14692 36.3081 2.20379C39.2579 2.26066 39.2579 2.03317 42.2176 2.08057C45.1773 2.12796 45.1674 2.29858 48.1172 2.34597C51.0669 2.39336 51.0768 2.07109 54.0266 2.11848C56.9764 2.16588 56.9764 2.30806 59.9262 2.35545C62.876 2.40284 62.876 2.45971 65.8258 2.51659C68.7755 2.57346 68.7755 2.62085 71.7253 2.66824C74.6751 2.71564 74.6751 2.51659 77.6348 2.56398C80.5945 2.61137 80.5846 2.50711 83.5343 2.5545C86.4841 2.60189 86.4841 2.7346 89.4339 2.78199C92.3837 2.82938 92.3837 2.98104 95.3335 3.02843C98.2833 3.07583 98.2833 3.24644 101.233 3.29384C104.183 3.34123 104.183 3.31279 107.133 3.36019C110.082 3.40758 110.082 3.40758 113.032 3.45497C115.982 3.50237 115.992 3.28436 118.942 3.33175C121.891 3.37915 121.891 3.58768 124.841 3.63507C127.791 3.68246 127.801 3.29384 130.751 3.34123C133.7 3.38862 133.691 3.69194 136.64 3.73934C139.59 3.78673 139.59 3.69194 142.54 3.73934C145.49 3.78673 145.49 3.56872 148.439 3.61611C151.389 3.66351 151.389 4.00474 154.339 4.05213C157.289 4.09952 157.299 3.73934 160.249 3.78673C163.198 3.83412 163.188 4.109 166.138 4.1564C169.088 4.20379 169.088 4.04265 172.038 4.09005C174.988 4.13744 174.988 4.07109 177.937 4.12796C180.887 4.18483 180.887 4.12796 183.837 4.18483C186.787 4.2417 186.787 4.21327 189.736 4.26066C192.686 4.30806 192.686 4.6872 195.636 4.7346C198.586 4.78199 198.586 4.75355 201.536 4.80095C204.485 4.84834 204.485 4.96208 207.435 5.00948C210.385 5.05687 210.395 4.7346 213.345 4.78199C216.294 4.82938 216.294 5.00948 219.244 5.05687C222.194 5.10426 222.194 5.05687 225.144 5.10426C228.094 5.15166 228.094 5.21801 231.043 5.2654C233.993 5.31279 234.003 5.10426 236.953 5.15166C239.903 5.19905 239.903 5.46445 242.852 5.51185C245.802 5.55924 245.802 5.69194 248.752 5.73933C251.702 5.78673 251.712 5.45497 254.661 5.50237C257.611 5.54976 257.611 5.58768 260.571 5.63507C263.53 5.68246 263.53 5.54028 266.48 5.58768C269.43 5.63507 269.42 6.109 272.37 6.1564C275.32 6.20379 275.33 5.74881 278.279 5.79621C281.229 5.8436 281.229 5.83412 284.189 5.88151C287.149 5.92891 287.139 5.92891 290.098 5.9763C293.058 6.0237 293.048 6.32701 295.998 6.37441C298.948 6.4218 298.958 6.21327 301.907 6.26066C304.857 6.30806 304.857 6.20379 307.817 6.26066C310.777 6.31753 310.767 6.82938 313.716 6.87678C316.666 6.92417 316.676 6.79147 319.636 6.83886C322.595 6.88625 323.11 5.18009 325.624 6.67772C329.505 8.99052 328.059 11.7109 325.634 15.1706L325.615 15.1422Z" fill="url(#paint0_linear_1361_31532)"/>
<defs>
<linearGradient id="paint0_linear_1361_31532" x1="164.034" y1="0.66098" x2="164.034" y2="21.2686" gradientUnits="userSpaceOnUse">
<stop offset="0.58" stop-color="#FFEBC2"/>
<stop offset="1" stop-color="#998D74"/>
</linearGradient>
</defs>
</svg>
