<svg width="384" height="414" viewBox="0 0 384 414" fill="none" xmlns="http://www.w3.org/2000/svg">
<path d="M381.701 411.738C376.746 416.716 374.505 411.925 367.486 411.925C360.468 411.925 360.468 410.937 353.449 410.937C346.431 410.937 346.431 410.779 339.412 410.779C332.394 410.779 332.394 411.441 325.375 411.441C318.356 411.441 318.356 410.997 311.338 410.997C304.319 410.997 304.319 410.908 297.301 410.908C290.282 410.908 290.282 410.74 283.264 410.74C276.245 410.74 276.245 410.888 269.226 410.888C262.208 410.888 262.208 411.975 255.189 411.975C248.171 411.975 248.171 411.698 241.152 411.698C234.133 411.698 234.133 412.152 227.115 412.152C220.096 412.152 220.096 411.155 213.078 411.155C206.059 411.155 206.059 412.034 199.041 412.034C192.022 412.034 192.022 410.829 185.003 410.829C177.985 410.829 177.985 412.222 170.966 412.222C163.948 412.222 163.948 410.987 156.929 410.987C149.911 410.987 149.911 410.947 142.892 410.947C135.873 410.947 135.873 410.858 128.855 410.858C121.836 410.858 121.836 410.858 114.818 410.858C107.799 410.858 107.799 410.947 100.78 410.947C93.7619 410.947 93.7619 410.849 86.7433 410.849C79.7248 410.849 79.7248 411.036 72.6963 411.036C65.6678 411.036 65.6777 412.261 58.6591 412.261C51.6406 412.261 51.6406 412.172 44.6121 412.172C37.5935 412.172 37.5935 410.839 30.575 410.839C23.5465 410.839 23.5465 411.51 16.5279 411.51C9.49947 411.51 7.30802 416.667 2.35256 411.688C-2.60289 406.71 1.80964 404.507 1.80964 397.464C1.80964 390.421 2.14526 390.411 2.14526 383.358C2.14526 376.305 2.40192 376.305 2.40192 369.262C2.40192 362.219 2.71781 362.209 2.71781 355.166C2.71781 348.123 3.03369 348.113 3.03369 341.07C3.03369 334.027 2.23411 334.017 2.23411 326.974C2.23411 319.931 3.31009 319.921 3.31009 312.878C3.31009 305.835 2.38218 305.825 2.38218 298.772C2.38218 291.719 3.14228 291.719 3.14228 284.676C3.14228 277.633 1.91822 277.623 1.91822 270.58C1.91822 263.537 3.31009 263.527 3.31009 256.484C3.31009 249.44 1.71092 249.431 1.71092 242.388C1.71092 235.344 2.89549 235.335 2.89549 228.282C2.89549 221.229 2.07616 221.239 2.07616 214.186C2.07616 207.133 2.89549 207.133 2.89549 200.089C2.89549 193.046 1.78989 193.037 1.78989 185.984C1.78989 178.931 2.31308 178.931 2.31308 171.888C2.31308 164.844 1.76028 164.835 1.76028 157.791C1.76028 150.748 1.78002 150.739 1.78002 143.686C1.78002 136.633 2.73755 136.633 2.73755 129.58C2.73755 122.527 2.08604 122.527 2.08604 115.474C2.08604 108.421 1.94784 108.421 1.94784 101.368C1.94784 94.3148 2.09591 94.3148 2.09591 87.2619C2.09591 80.2089 2.69806 80.2089 2.69806 73.1559C2.69806 66.103 3.12254 66.103 3.12254 59.05C3.12254 51.9971 2.14526 51.9971 2.14526 44.9441C2.14526 37.8911 2.09591 37.8911 2.09591 30.8382C2.09591 23.7852 2.95472 23.7852 2.95472 16.7224C2.95472 9.65953 -2.34623 7.77282 2.62896 2.7745C7.60416 -2.22382 9.46986 3.30792 16.4884 3.30792C23.507 3.30792 23.507 3.13999 30.5256 3.13999C37.5442 3.13999 37.5442 2.96218 44.5628 2.96218C51.5813 2.96218 51.5813 3.22889 58.5999 3.22889C65.6185 3.22889 65.6185 2.96218 72.6371 2.96218C79.6557 2.96218 79.6556 2.04352 86.6742 2.04352C93.6928 2.04352 93.6928 3.33755 100.711 3.33755C107.73 3.33755 107.73 3.06096 114.749 3.06096C121.767 3.06096 121.767 2.47816 128.786 2.47816C135.804 2.47816 135.804 2.92267 142.823 2.92267C149.841 2.92267 149.841 2.08303 156.86 2.08303C163.879 2.08303 163.879 2.4584 170.897 2.4584C177.916 2.4584 177.916 2.61645 184.934 2.61645C191.953 2.61645 191.953 2.76462 198.971 2.76462C205.99 2.76462 205.99 2.24108 213.009 2.24108C220.027 2.24108 220.027 1.9645 227.046 1.9645C234.064 1.9645 234.064 2.30035 241.083 2.30035C248.102 2.30035 248.102 2.6856 255.12 2.6856C262.139 2.6856 262.139 3.12023 269.157 3.12023C276.176 3.12023 276.176 3.03133 283.194 3.03133C290.213 3.03133 290.213 3.03133 297.232 3.03133C304.25 3.03133 304.25 2.4584 311.279 2.4584C318.307 2.4584 318.297 2.99182 325.316 2.99182C332.334 2.99182 332.334 1.97437 339.363 1.97437C346.391 1.97437 346.381 2.76462 353.4 2.76462C360.419 2.76462 360.428 2.49791 367.447 2.49791C374.466 2.49791 377.012 -2.85602 381.968 2.11267C386.923 7.08135 381.257 9.6299 381.257 16.6829C381.257 23.7358 382.205 23.7358 382.205 30.7888C382.205 37.8417 381.494 37.8417 381.494 44.8848C381.494 51.9279 381.918 51.9378 381.918 58.9809C381.918 66.024 382.086 66.0338 382.086 73.0769C382.086 80.12 382.195 80.1299 382.195 87.173C382.195 94.216 382.254 94.2259 382.254 101.269C382.254 108.312 381.267 108.322 381.267 115.375C381.267 122.428 381.346 122.428 381.346 129.471C381.346 136.514 381.05 136.524 381.05 143.567C381.05 150.61 381.909 150.62 381.909 157.663C381.909 164.706 381.435 164.716 381.435 171.759C381.435 178.802 381.573 178.812 381.573 185.865C381.573 192.918 381.405 192.908 381.405 199.961C381.405 207.014 381.958 207.014 381.958 214.057C381.958 221.1 381.267 221.11 381.267 228.163C381.267 235.216 380.921 235.216 380.921 242.259C380.921 249.302 381.8 249.312 381.8 256.355C381.8 263.398 381.701 263.408 381.701 270.461C381.701 277.514 382.086 277.514 382.086 284.567C382.086 291.62 380.842 291.62 380.842 298.673C380.842 305.726 382.047 305.726 382.047 312.779C382.047 319.832 382.067 319.832 382.067 326.885C382.067 333.938 382.067 333.938 382.067 340.991C382.067 348.044 381.277 348.044 381.277 355.097C381.277 362.15 381.82 362.15 381.82 369.203C381.82 376.255 382.086 376.255 382.086 383.308C382.086 390.361 379.214 390.697 380.724 397.582C382.363 405.03 386.617 406.71 381.642 411.718L381.701 411.738Z" fill="#FFEBC2"/>
</svg>
