<svg width="1200" height="132" viewBox="0 0 1200 132" fill="none" xmlns="http://www.w3.org/2000/svg">
<path d="M1196.02 128.397C1187.23 136.021 1183.84 128.641 1171.92 128.641C1160 128.641 1160 127.278 1148.08 127.278C1136.16 127.278 1136.16 127.062 1124.24 127.062C1112.32 127.062 1112.32 127.974 1100.4 127.974C1088.48 127.974 1088.48 127.363 1076.56 127.363C1064.64 127.363 1064.64 127.24 1052.72 127.24C1040.8 127.24 1040.8 127.005 1028.88 127.005C1016.96 127.005 1016.96 127.212 1005.04 127.212C993.125 127.212 993.125 128.707 981.205 128.707C969.285 128.707 969.285 128.321 957.365 128.321C945.446 128.321 945.446 128.942 933.526 128.942C921.606 128.942 921.606 127.569 909.686 127.569C897.767 127.569 897.767 128.782 885.847 128.782C873.927 128.782 873.927 127.118 862.007 127.118C850.088 127.118 850.088 129.036 838.168 129.036C826.248 129.036 826.248 127.334 814.328 127.334C802.409 127.334 802.409 127.287 790.499 127.287C778.589 127.287 778.579 127.165 766.669 127.165C758.723 127.165 750.776 127.165 742.83 127.165C730.91 127.165 730.91 127.278 719 127.278C707.081 127.278 707.081 127.137 695.161 127.137C683.241 127.137 683.241 127.4 671.321 127.4C659.402 127.4 659.402 129.092 647.482 129.092C635.562 129.092 635.562 128.97 623.642 128.97C611.723 128.97 611.723 127.137 599.803 127.137C587.883 127.137 587.883 128.058 575.963 128.058C564.044 128.058 564.044 128.378 552.124 128.378C540.204 128.378 540.204 129.055 528.284 129.055C516.365 129.055 516.365 128.594 504.445 128.594C492.525 128.594 492.525 128.246 480.605 128.246C468.686 128.246 468.686 127.814 456.766 127.814C444.846 127.814 444.846 127.381 432.926 127.381C421.007 127.381 421.007 128.491 409.087 128.491C397.167 128.491 397.167 127.015 385.248 127.015C373.328 127.015 373.328 128.293 361.408 128.293C349.488 128.293 349.488 127.24 337.569 127.24C325.649 127.24 325.649 128.933 313.729 128.933C301.809 128.933 301.809 127.005 289.89 127.005C277.97 127.005 277.97 129.205 266.05 129.205C254.13 129.205 254.13 127.569 242.211 127.569C230.291 127.569 230.291 128.707 218.371 128.707C206.451 128.707 206.451 127.569 194.532 127.569C182.612 127.569 182.612 129.092 170.692 129.092C158.772 129.092 158.772 128.368 146.853 128.368C134.933 128.368 134.933 129.139 123.013 129.139C111.093 129.139 111.093 129.111 99.1737 129.111C87.254 129.111 87.254 127.786 75.3343 127.786C63.4145 127.786 63.4145 128.679 51.4848 128.679C39.5552 128.679 39.5651 128.867 27.6354 128.867C15.7157 128.867 12.1994 136.143 3.40855 128.519C-4.64721 121.534 4.10387 117.783 4.10387 107.442C4.10387 97.1006 4.72966 97.1006 4.72966 86.7594C4.72966 76.4183 3.29929 76.4183 3.29929 66.0771C3.29929 55.736 3.22976 55.736 3.22976 45.3948C3.22976 35.0537 4.48133 35.0537 4.48133 24.7126C4.48133 14.3714 -4.02142 11.2691 4.03434 4.28409C12.8251 -3.34016 15.7058 5.01737 27.6255 5.01737C39.5452 5.01737 39.5452 4.79175 51.465 4.79175C63.3847 4.79175 63.3847 4.54732 75.3045 4.54732C87.2242 4.54732 87.2242 4.91396 99.1439 4.91396C111.064 4.91396 111.064 4.53792 122.983 4.53792C134.903 4.53792 134.903 3.26878 146.823 3.26878C158.743 3.26878 158.743 5.05498 170.662 5.05498C182.582 5.05498 182.582 4.66953 194.502 4.66953C206.422 4.66953 206.422 3.87044 218.341 3.87044C230.261 3.87044 230.261 4.48151 242.181 4.48151C254.101 4.48151 254.101 3.31578 266.02 3.31578C277.94 3.31578 277.94 3.82344 289.86 3.82344C301.78 3.82344 301.78 4.03966 313.699 4.03966C325.619 4.03966 325.619 4.24649 337.539 4.24649C349.458 4.24649 349.458 3.52261 361.378 3.52261C373.298 3.52261 373.298 3.13716 385.218 3.13716C397.137 3.13716 397.137 3.60721 409.047 3.60721C420.957 3.60721 420.967 4.14307 432.877 4.14307C444.787 4.14307 444.797 4.74474 456.716 4.74474C468.636 4.74474 468.636 4.63193 480.546 4.63193C492.456 4.63193 492.466 4.63193 504.385 4.63193C516.305 4.63193 516.305 3.84224 528.225 3.84224C540.145 3.84224 540.145 4.58492 552.064 4.58492C563.984 4.58492 563.984 3.18417 575.904 3.18417C587.824 3.18417 587.824 4.27469 599.743 4.27469C611.663 4.27469 611.663 3.90805 623.583 3.90805C635.503 3.90805 635.503 3.10896 647.422 3.10896C659.342 3.10896 659.342 4.3593 671.262 4.3593C683.182 4.3593 683.182 3.05255 695.101 3.05255C707.021 3.05255 707.021 4.03026 718.941 4.03026C730.86 4.03026 730.86 3.438 742.78 3.438C754.7 3.438 754.7 3.21237 766.62 3.21237C778.539 3.21237 778.539 3.06195 790.459 3.06195C802.379 3.06195 802.379 2.97734 814.299 2.97734C826.218 2.97734 826.218 4.33109 838.138 4.33109C850.058 4.33109 850.058 4.22768 861.978 4.22768C873.897 4.22768 873.897 4.64133 885.817 4.64133C897.737 4.64133 897.737 3.4474 909.657 3.4474C921.576 3.4474 921.576 4.10547 933.496 4.10547C945.416 4.10547 945.416 3.91745 957.336 3.91745C969.255 3.91745 969.255 4.15247 981.175 4.15247C993.095 4.15247 993.095 3.38159 1005.01 3.38159C1016.93 3.38159 1016.93 4.33109 1028.85 4.33109C1040.77 4.33109 1040.77 4.81055 1052.69 4.81055C1064.61 4.81055 1064.61 3.59781 1076.53 3.59781C1088.45 3.59781 1088.45 3.72943 1100.37 3.72943C1112.29 3.72943 1112.29 3.19357 1124.21 3.19357C1136.13 3.19357 1136.13 4.91396 1148.06 4.91396C1159.99 4.91396 1159.98 3.24997 1171.91 3.24997C1183.84 3.24997 1187.56 -4.18625 1196.35 3.438C1204.4 10.423 1196.63 14.3808 1196.63 24.722C1196.63 35.0631 1195.47 35.0631 1195.47 45.4042C1195.47 55.7454 1196.27 55.7454 1196.27 66.0865C1196.27 76.4277 1196.66 76.4277 1196.66 86.7688C1196.66 97.11 1192.26 97.5988 1194.69 107.686C1197.32 118.648 1204.07 121.412 1196.02 128.406V128.397Z" fill="#FFEBC2"/>
</svg>
