<svg width="408" height="532" viewBox="0 0 408 532" fill="none" xmlns="http://www.w3.org/2000/svg">
<path d="M403.839 528.209C395.563 536.598 391.851 528.446 380.098 528.446C368.346 528.446 368.346 527.176 356.593 527.176C344.84 527.176 344.84 526.979 333.088 526.979C321.335 526.979 321.335 527.825 309.582 527.825C297.83 527.825 297.83 527.254 286.077 527.254C274.324 527.254 274.324 527.146 262.572 527.146C250.819 527.146 250.819 526.929 239.066 526.929C227.313 526.929 227.313 527.126 215.561 527.126C203.808 527.126 203.808 528.515 192.055 528.515C180.303 528.515 180.303 528.15 168.55 528.15C156.797 528.15 156.797 528.731 145.045 528.731C133.292 528.731 133.292 527.461 121.539 527.461C109.786 527.461 109.786 528.583 98.0338 528.583C86.2811 528.583 86.2811 527.038 74.5284 527.038C62.7757 527.038 62.7757 528.82 51.023 528.82C39.2703 528.82 39.2703 527.244 27.5078 527.244C15.7453 527.244 12.8267 535.811 4.54104 527.432C-3.74461 519.052 4.88383 516.069 4.88383 504.165C4.88383 492.261 4.88383 492.261 4.88383 480.357C4.88383 468.453 4.7761 468.453 4.7761 456.55C4.7761 444.646 4.90342 444.646 4.90342 432.742C4.90342 420.838 4.65857 420.838 4.65857 408.934C4.65857 397.03 3.10134 397.03 3.10134 385.126C3.10134 373.222 3.21887 373.222 3.21887 361.318C3.21887 349.414 4.91321 349.414 4.91321 337.51C4.91321 325.606 4.06114 325.606 4.06114 313.703C4.06114 301.799 3.76732 301.799 3.76732 289.895C3.76732 277.991 3.14051 277.991 3.14051 266.087C3.14051 254.183 3.57145 254.183 3.57145 242.279C3.57145 230.375 3.89465 230.375 3.89465 218.471C3.89465 206.567 4.2962 206.567 4.2962 194.663C4.2962 182.759 4.69775 182.759 4.69775 170.856C4.69775 158.952 3.66939 158.952 3.66939 147.048C3.66939 135.144 5.04053 135.144 5.04053 123.24C5.04053 111.336 3.85547 111.336 3.85547 99.4321C3.85547 87.5282 4.82507 87.5282 4.82507 75.6242C4.82507 63.7203 3.25804 63.7203 3.25804 51.8066C3.25804 39.8928 5.04053 39.9027 5.04053 27.9889C5.04053 16.0751 -5.03741 11.9102 3.30701 3.4623C11.6514 -4.98564 15.7649 4.68321 27.5176 4.68321C39.2703 4.68321 39.2703 3.62968 51.023 3.62968C62.7757 3.62968 62.7757 4.68321 74.5284 4.68321C86.2811 4.68321 86.2811 3.26538 98.0338 3.26538C109.786 3.26538 109.786 3.93491 121.539 3.93491C133.292 3.93491 133.292 3.21615 145.045 3.21615C156.797 3.21615 156.797 3.24569 168.55 3.24569C180.303 3.24569 180.303 4.47645 192.055 4.47645C203.808 4.47645 203.808 3.63953 215.561 3.63953C227.313 3.63953 227.313 3.4623 239.066 3.4623C250.819 3.4623 250.819 3.64937 262.572 3.64937C274.324 3.64937 274.324 4.42721 286.077 4.42721C297.83 4.42721 297.83 4.96875 309.582 4.96875C321.335 4.96875 321.335 3.7183 333.088 3.7183C344.84 3.7183 344.84 3.65922 356.593 3.65922C368.346 3.65922 368.346 4.76198 380.108 4.76198C391.871 4.76198 395.113 -4.01088 403.398 4.37798C411.684 12.7668 402.713 16.0554 402.713 27.9594C402.713 39.8633 402.928 39.8633 402.928 51.7672C402.928 63.6711 403.153 63.6711 403.153 75.575C403.153 87.4789 402.82 87.4789 402.82 99.3828C402.82 111.287 403.163 111.287 403.163 123.191C403.163 135.095 404.338 135.095 404.338 146.999C404.338 158.902 402.683 158.902 402.683 170.806C402.683 182.71 403.036 182.71 403.036 194.614C403.036 206.518 403.78 206.518 403.78 218.422C403.78 230.326 403.212 230.326 403.212 242.23C403.212 254.134 404.289 254.134 404.289 266.038C404.289 277.942 403.819 277.942 403.819 289.845C403.819 301.749 403.614 301.749 403.614 313.653C403.614 325.557 403.418 325.557 403.418 337.461C403.418 349.365 404.084 349.365 404.084 361.269C404.084 373.173 404.446 373.173 404.446 385.077C404.446 396.981 404.015 396.981 404.015 408.885C404.015 420.789 403.516 420.789 403.516 432.692C403.516 444.596 402.967 444.596 402.967 456.5C402.967 468.404 403.075 468.404 403.075 480.318C403.075 492.232 400.558 492.616 403.085 504.254C405.808 516.788 412.203 519.732 403.859 528.18L403.839 528.209Z" fill="#FFEBC2"/>
</svg>
