<svg width="328" height="396" viewBox="0 0 328 396" fill="none" xmlns="http://www.w3.org/2000/svg">
<path d="M323.871 392.334C315.759 400.425 312.177 392.599 300.746 392.599C289.316 392.599 289.316 391.188 277.875 391.188C266.435 391.188 266.445 390.973 255.005 390.973C243.564 390.973 243.574 391.913 232.144 391.913C220.713 391.913 220.713 391.286 209.273 391.286C197.833 391.286 197.842 391.159 186.412 391.159C174.981 391.159 174.981 390.924 163.541 390.924C152.101 390.924 152.111 391.139 140.67 391.139C129.23 391.139 129.24 392.677 117.799 392.677C106.359 392.677 106.359 392.275 94.9287 392.275C83.4982 392.275 83.4982 392.922 72.0579 392.922C60.6177 392.922 60.6177 391.511 49.1871 391.511C37.7566 391.511 37.7469 392.765 26.3164 392.765C14.8858 392.765 12.2796 399.436 4.16792 391.345C-3.94374 383.254 2.49873 380.668 2.49873 369.267C2.49873 357.866 4.24601 357.856 4.24601 346.455C4.24601 335.053 4.29481 335.043 4.29481 323.642C4.29481 312.241 4.42171 312.231 4.42171 300.829C4.42171 289.428 4.42171 289.418 4.42171 278.017C4.42171 266.616 4.30458 266.606 4.30458 255.204C4.30458 243.793 4.451 243.793 4.451 232.392C4.451 220.981 4.18744 220.981 4.18744 209.579C4.18744 198.178 2.44992 198.178 2.44992 186.767C2.44992 175.356 2.57682 175.356 2.57682 163.954C2.57682 152.543 4.46076 152.543 4.46076 141.142C4.46076 129.731 3.51391 129.731 3.51391 118.319C3.51391 106.908 3.18202 106.908 3.18202 95.4971C3.18202 84.0859 2.48897 84.0859 2.48897 72.6747C2.48897 61.2636 2.96727 61.2636 2.96727 49.8524C2.96727 38.4412 3.32844 38.4412 3.32844 27.0301C3.32844 15.6189 -4.383 12.4845 3.67985 4.44283C11.7427 -3.59886 14.8858 4.98156 26.3164 4.98156C37.7469 4.98156 37.7469 3.83554 49.1871 3.83554C60.6274 3.83554 60.6177 5.36356 72.0579 5.36356C83.4982 5.36356 83.4884 4.04124 94.9189 4.04124C106.349 4.04124 106.349 5.12848 117.79 5.12848C129.23 5.12848 129.22 3.38497 140.651 3.38497C152.081 3.38497 152.081 5.37336 163.522 5.37336C174.962 5.37336 174.952 3.10092 186.392 3.10092C197.833 3.10092 197.823 4.78566 209.263 4.78566C220.703 4.78566 220.703 3.61026 232.134 3.61026C243.564 3.61026 243.564 4.78566 255.005 4.78566C266.445 4.78566 266.445 3.21846 277.875 3.21846C289.306 3.21846 289.316 3.96288 300.746 3.96288C312.177 3.96288 316.237 -4.61754 324.349 3.47313C332.412 11.5148 324.622 15.6189 324.622 27.0203C324.622 38.4217 323.256 38.4315 323.256 49.8328C323.256 61.2342 324.173 61.244 324.173 72.6454C324.173 84.0467 324.369 84.0565 324.369 95.4579C324.369 106.859 324.164 106.869 324.164 118.27C324.164 129.682 323.305 129.682 323.305 141.083C323.305 152.494 322.699 152.494 322.699 163.895C322.699 175.297 324.086 175.307 324.086 186.708C324.086 198.109 324.154 198.109 324.154 209.521C324.154 220.932 322.934 220.932 322.934 232.333C322.934 243.744 323.256 243.744 323.256 255.146C323.256 266.557 322.602 266.557 322.602 277.968C322.602 289.379 322.836 289.379 322.836 300.79C322.836 312.201 323.09 312.201 323.09 323.613C323.09 335.024 322.719 335.024 322.719 346.435C322.719 357.846 320.669 358.228 323.119 369.365C325.764 381.403 331.943 384.293 323.881 392.334H323.871Z" fill="#FFEBC2"/>
</svg>
