<svg width="768" height="233" viewBox="0 0 768 233" fill="none" xmlns="http://www.w3.org/2000/svg">
<path d="M763.275 229.369C754.888 237.345 751.071 229.694 739.208 229.694C727.346 229.694 727.346 227.946 715.483 227.946C703.62 227.946 703.62 227.678 691.758 227.678C679.895 227.678 679.895 228.853 668.033 228.853C656.17 228.853 656.17 228.07 644.307 228.07C632.445 228.07 632.445 227.917 620.582 227.917C608.72 227.917 608.72 227.621 596.857 227.621C584.994 227.621 584.994 227.889 573.132 227.889C561.269 227.889 561.269 229.799 549.407 229.799C537.544 229.799 537.544 229.302 525.681 229.302C513.819 229.302 513.819 230.095 501.946 230.095C490.074 230.095 490.084 228.338 478.221 228.338C466.358 228.338 466.358 229.885 454.496 229.885C442.633 229.885 442.633 227.755 430.771 227.755C418.908 227.755 418.908 230.21 407.045 230.21C395.183 230.21 395.183 228.032 383.32 228.032C371.458 228.032 371.458 227.975 359.585 227.975C347.712 227.975 347.722 227.812 335.86 227.812C323.997 227.812 323.997 227.812 312.124 227.812C300.252 227.812 300.262 227.965 288.389 227.965C276.517 227.965 276.527 227.784 264.654 227.784C252.781 227.784 252.791 228.118 240.919 228.118C229.046 228.118 229.056 230.277 217.183 230.277C205.311 230.277 205.321 230.114 193.458 230.114C181.596 230.114 181.596 227.764 169.723 227.764C157.85 227.764 157.86 228.949 145.988 228.949C134.115 228.949 134.125 229.36 122.253 229.36C110.38 229.36 110.39 230.219 98.5173 230.219C86.6446 230.219 86.6547 229.627 74.782 229.627C62.9094 229.627 62.9194 229.178 51.0468 229.178C39.1742 229.178 39.1742 228.624 27.3116 228.624C15.4489 228.624 12.6867 236.333 4.28947 228.357C-4.10777 220.38 3.09417 217.763 3.09417 206.491C3.09417 195.22 5.08299 195.22 5.08299 183.958C5.08299 172.695 3.35533 172.686 3.35533 161.414C3.35533 150.142 4.77161 150.142 4.77161 138.871C4.77161 127.599 2.49149 127.599 2.49149 116.327C2.49149 105.055 5.08299 105.055 5.08299 93.7837C5.08299 82.512 2.11985 82.512 2.11985 71.2403C2.11985 59.9685 4.3196 59.9685 4.3196 48.6968C4.3196 37.4251 2.79283 37.4251 2.79283 26.1533C2.79283 14.8816 -4.27852 12.0828 4.09862 4.11615C12.4858 -3.86003 15.4289 2.37763 27.2915 2.37763C39.1541 2.37763 39.1541 3.3042 51.0167 3.3042C62.8793 3.3042 62.8793 2.32031 74.7419 2.32031C86.6045 2.32031 86.6045 2.35852 98.4671 2.35852C110.33 2.35852 110.33 4.05884 122.192 4.05884C134.055 4.05884 134.055 2.91256 145.917 2.91256C157.78 2.91256 157.78 2.6642 169.643 2.6642C181.505 2.6642 181.505 2.92211 193.368 2.92211C205.23 2.92211 205.23 3.99197 217.093 3.99197C228.956 3.99197 228.956 4.7466 240.818 4.7466C252.681 4.7466 252.681 3.01763 264.554 3.01763C276.426 3.01763 276.416 2.93166 288.279 2.93166C300.141 2.93166 300.141 4.45048 312.004 4.45048C323.867 4.45048 323.867 4.04928 335.729 4.04928C347.592 4.04928 347.592 4.87078 359.454 4.87078C371.317 4.87078 371.317 4.57466 383.18 4.57466C395.042 4.57466 395.042 4.25943 406.915 4.25943C418.787 4.25943 418.777 4.7275 430.64 4.7275C442.503 4.7275 442.503 4.24988 454.375 4.24988C466.248 4.24988 466.238 2.62599 478.11 2.62599C489.983 2.62599 489.973 4.91854 501.846 4.91854C513.718 4.91854 513.708 4.42182 525.581 4.42182C537.454 4.42182 537.444 3.39973 549.316 3.39973C561.189 3.39973 561.179 4.18302 573.041 4.18302C584.904 4.18302 584.904 2.69286 596.777 2.69286C608.649 2.69286 608.639 3.35196 620.512 3.35196C632.385 3.35196 632.375 3.62898 644.247 3.62898C656.12 3.62898 656.11 3.89645 667.982 3.89645C679.855 3.89645 679.845 2.96987 691.718 2.96987C703.59 2.96987 703.58 2.47315 715.453 2.47315C727.326 2.47315 727.326 3.07495 739.188 3.07495C751.051 3.07495 754.416 -4.26123 762.813 3.71495C771.21 11.6911 761.959 14.8816 761.959 26.1533C761.959 37.4251 762.12 37.4251 762.12 48.6872C762.12 59.9494 762.12 59.959 762.12 71.2307C762.12 82.5024 763.185 82.5024 763.185 93.7742C763.185 105.046 762.19 105.046 762.19 116.318C762.19 127.589 764.079 127.589 764.079 138.861C764.079 150.133 762.602 150.133 762.602 161.405C762.602 172.676 763.094 172.676 763.094 183.948C763.094 195.22 761.567 195.229 764.139 206.243C766.911 218.164 771.652 221.403 763.265 229.369H763.275Z" fill="#FFEBC2"/>
</svg>
