<svg width="26" height="159" viewBox="0 0 26 159" fill="none" xmlns="http://www.w3.org/2000/svg">
<path opacity="0.3" d="M23.3818 158.28C23.227 158.81 22.6718 159.115 22.1416 158.96L13.5023 156.438C12.9722 156.283 12.6679 155.727 12.8227 155.197C12.9774 154.667 13.5327 154.363 14.0629 154.518L21.7422 156.76L23.9844 149.08C24.1392 148.55 24.6944 148.246 25.2246 148.401C25.7547 148.556 26.059 149.111 25.9042 149.641L23.3818 158.28ZM23.238 1.57785C22.5052 2.61287 21.7575 3.73437 21.0018 4.93933L19.3075 3.87663C20.0818 2.6421 20.85 1.48946 21.6057 0.422148L23.238 1.57785ZM16.9784 12.0493C15.8074 14.3328 14.6463 16.798 13.519 19.4333L11.6802 18.6467C12.8253 15.9697 14.0062 13.4624 15.1987 11.1367L16.9784 12.0493ZM10.5419 27.0469C9.65723 29.5305 8.81266 32.1278 8.0227 34.8318L6.10295 34.2709C6.90382 31.5296 7.76032 28.8955 8.65785 26.3758L10.5419 27.0469ZM5.94705 42.7545C5.34394 45.3478 4.79552 48.021 4.31215 50.7691L2.34239 50.4227C2.83213 47.6383 3.38783 44.9296 3.99903 42.3014L5.94705 42.7545ZM3.11245 58.8584C2.79024 61.5206 2.53181 64.2423 2.34528 67.0195L0.349777 66.8855C0.538727 64.0722 0.800522 61.3151 1.12694 58.6181L3.11245 58.8584ZM2.01383 75.1845C1.97586 77.8728 2.00733 80.6062 2.11485 83.3815L0.116346 83.4589C0.00744438 80.648 -0.0244331 77.8793 0.0140285 75.1562L2.01383 75.1845ZM2.64502 91.5355C2.88966 94.2143 3.20697 96.9273 3.60242 99.6719L1.62287 99.9571C1.22242 97.1779 0.901072 94.4304 0.653309 91.7174L2.64502 91.5355ZM4.97774 107.74C5.49688 110.376 6.08981 113.037 6.76111 115.722L4.82083 116.207C4.14132 113.489 3.54104 110.795 3.01543 108.126L4.97774 107.74ZM8.94533 123.618C9.72753 126.195 10.5836 128.792 11.5175 131.406L9.6341 132.079C8.68932 129.434 7.82308 126.807 7.0315 124.198L8.94533 123.618ZM14.4506 139.041C15.4727 141.527 16.5667 144.026 17.7359 146.537L15.9228 147.381C14.7408 144.842 13.6346 142.316 12.6009 139.802L14.4506 139.041ZM21.3563 153.883C21.9858 155.093 22.6332 156.305 23.2988 157.519L21.5449 158.481C20.8724 157.253 20.2183 156.029 19.5821 154.806L21.3563 153.883ZM23.3818 158.28C23.227 158.81 22.6718 159.115 22.1416 158.96L13.5023 156.438C12.9722 156.283 12.6679 155.727 12.8227 155.197C12.9774 154.667 13.5327 154.363 14.0629 154.518L21.7422 156.76L23.9844 149.08C24.1392 148.55 24.6944 148.246 25.2246 148.401C25.7547 148.556 26.059 149.111 25.9042 149.641L23.3818 158.28ZM23.238 1.57785C22.5052 2.61287 21.7575 3.73437 21.0018 4.93933L19.3075 3.87663C20.0818 2.6421 20.85 1.48946 21.6057 0.422148L23.238 1.57785ZM16.9784 12.0493C15.8074 14.3328 14.6463 16.798 13.519 19.4333L11.6802 18.6467C12.8253 15.9697 14.0062 13.4624 15.1987 11.1367L16.9784 12.0493ZM10.5419 27.0469C9.65723 29.5305 8.81266 32.1278 8.0227 34.8318L6.10295 34.2709C6.90382 31.5296 7.76032 28.8955 8.65785 26.3758L10.5419 27.0469ZM5.94705 42.7545C5.34394 45.3478 4.79552 48.021 4.31215 50.7691L2.34239 50.4227C2.83213 47.6383 3.38783 44.9296 3.99903 42.3014L5.94705 42.7545ZM3.11245 58.8584C2.79024 61.5206 2.53181 64.2423 2.34528 67.0195L0.349777 66.8855C0.538727 64.0722 0.800522 61.3151 1.12694 58.6181L3.11245 58.8584ZM2.01383 75.1845C1.97586 77.8728 2.00733 80.6062 2.11485 83.3815L0.116346 83.4589C0.00744438 80.648 -0.0244331 77.8793 0.0140285 75.1562L2.01383 75.1845ZM2.64502 91.5355C2.88966 94.2143 3.20697 96.9273 3.60242 99.6719L1.62287 99.9571C1.22242 97.1779 0.901072 94.4304 0.653309 91.7174L2.64502 91.5355ZM4.97774 107.74C5.49688 110.376 6.08981 113.037 6.76111 115.722L4.82083 116.207C4.14132 113.489 3.54104 110.795 3.01543 108.126L4.97774 107.74ZM8.94533 123.618C9.72753 126.195 10.5836 128.792 11.5175 131.406L9.6341 132.079C8.68932 129.434 7.82308 126.807 7.0315 124.198L8.94533 123.618ZM14.4506 139.041C15.4727 141.527 16.5667 144.026 17.7359 146.537L15.9228 147.381C14.7408 144.842 13.6346 142.316 12.6009 139.802L14.4506 139.041ZM21.3563 153.883C21.9858 155.093 22.6332 156.305 23.2988 157.519L21.5449 158.481C20.8724 157.253 20.2183 156.029 19.5821 154.806L21.3563 153.883Z" fill="#5C4D3D"/>
</svg>
