<svg width="27" height="159" viewBox="0 0 27 159" fill="none" xmlns="http://www.w3.org/2000/svg">
<path opacity="0.3" d="M3.04008 158.28C3.19487 158.81 3.75012 159.115 4.28027 158.96L12.9196 156.438C13.4497 156.283 13.754 155.727 13.5992 155.197C13.4444 154.667 12.8892 154.363 12.359 154.518L4.67965 156.76L2.4375 149.08C2.28271 148.55 1.72746 148.246 1.19731 148.401C0.667159 148.556 0.362869 149.111 0.517657 149.641L3.04008 158.28ZM3.18386 1.57785C3.91668 2.61287 4.66434 3.73437 5.4201 4.93933L7.11441 3.87663C6.3401 2.6421 5.57183 1.48946 4.81614 0.422148L3.18386 1.57785ZM9.44349 12.0493C10.6144 14.3328 11.7756 16.798 12.9028 19.4333L14.7417 18.6467C13.5965 15.9697 12.4157 13.4624 11.2232 11.1367L9.44349 12.0493ZM15.88 27.0469C16.7646 29.5305 17.6092 32.1278 18.3992 34.8318L20.3189 34.2709C19.5181 31.5296 18.6616 28.8955 17.764 26.3758L15.88 27.0469ZM20.4748 42.7545C21.0779 45.3478 21.6264 48.021 22.1097 50.7691L24.0795 50.4227C23.5897 47.6383 23.034 44.9296 22.4228 42.3014L20.4748 42.7545ZM23.3094 58.8584C23.6316 61.5206 23.8901 64.2423 24.0766 67.0195L26.0721 66.8855C25.8831 64.0722 25.6214 61.3151 25.2949 58.6181L23.3094 58.8584ZM24.408 75.1845C24.446 77.8728 24.4145 80.6062 24.307 83.3815L26.3055 83.4589C26.4144 80.648 26.4463 77.8793 26.4078 75.1562L24.408 75.1845ZM23.7769 91.5355C23.5322 94.2143 23.2149 96.9273 22.8195 99.6719L24.799 99.9571C25.1995 97.1779 25.5208 94.4304 25.7686 91.7174L23.7769 91.5355ZM21.4441 107.74C20.925 110.376 20.3321 113.037 19.6608 115.722L21.601 116.207C22.2806 113.489 22.8808 110.795 23.4064 108.126L21.4441 107.74ZM17.4765 123.618C16.6943 126.195 15.8382 128.792 14.9044 131.406L16.7878 132.079C17.7326 129.434 18.5988 126.807 19.3904 124.198L17.4765 123.618ZM11.9713 139.041C10.9492 141.527 9.85517 144.026 8.68598 146.537L10.4991 147.381C11.6811 144.842 12.7873 142.316 13.821 139.802L11.9713 139.041ZM5.06557 153.883C4.43603 155.093 3.78865 156.305 3.12305 157.519L4.87695 158.481C5.54943 157.253 6.20358 156.029 6.83975 154.806L5.06557 153.883ZM3.04008 158.28C3.19487 158.81 3.75012 159.115 4.28027 158.96L12.9196 156.438C13.4497 156.283 13.754 155.727 13.5992 155.197C13.4444 154.667 12.8892 154.363 12.359 154.518L4.67965 156.76L2.4375 149.08C2.28271 148.55 1.72746 148.246 1.19731 148.401C0.667159 148.556 0.362869 149.111 0.517657 149.641L3.04008 158.28ZM3.18386 1.57785C3.91668 2.61287 4.66434 3.73437 5.4201 4.93933L7.11441 3.87663C6.3401 2.6421 5.57183 1.48946 4.81614 0.422148L3.18386 1.57785ZM9.44349 12.0493C10.6144 14.3328 11.7756 16.798 12.9028 19.4333L14.7417 18.6467C13.5965 15.9697 12.4157 13.4624 11.2232 11.1367L9.44349 12.0493ZM15.88 27.0469C16.7646 29.5305 17.6092 32.1278 18.3992 34.8318L20.3189 34.2709C19.5181 31.5296 18.6616 28.8955 17.764 26.3758L15.88 27.0469ZM20.4748 42.7545C21.0779 45.3478 21.6264 48.021 22.1097 50.7691L24.0795 50.4227C23.5897 47.6383 23.034 44.9296 22.4228 42.3014L20.4748 42.7545ZM23.3094 58.8584C23.6316 61.5206 23.8901 64.2423 24.0766 67.0195L26.0721 66.8855C25.8831 64.0722 25.6214 61.3151 25.2949 58.6181L23.3094 58.8584ZM24.408 75.1845C24.446 77.8728 24.4145 80.6062 24.307 83.3815L26.3055 83.4589C26.4144 80.648 26.4463 77.8793 26.4078 75.1562L24.408 75.1845ZM23.7769 91.5355C23.5322 94.2143 23.2149 96.9273 22.8195 99.6719L24.799 99.9571C25.1995 97.1779 25.5208 94.4304 25.7686 91.7174L23.7769 91.5355ZM21.4441 107.74C20.925 110.376 20.3321 113.037 19.6608 115.722L21.601 116.207C22.2806 113.489 22.8808 110.795 23.4064 108.126L21.4441 107.74ZM17.4765 123.618C16.6943 126.195 15.8382 128.792 14.9044 131.406L16.7878 132.079C17.7326 129.434 18.5988 126.807 19.3904 124.198L17.4765 123.618ZM11.9713 139.041C10.9492 141.527 9.85517 144.026 8.68598 146.537L10.4991 147.381C11.6811 144.842 12.7873 142.316 13.821 139.802L11.9713 139.041ZM5.06557 153.883C4.43603 155.093 3.78865 156.305 3.12305 157.519L4.87695 158.481C5.54943 157.253 6.20358 156.029 6.83975 154.806L5.06557 153.883Z" fill="#5C4D3D"/>
</svg>
