<svg width="768" height="876" viewBox="0 0 768 876" fill="none" xmlns="http://www.w3.org/2000/svg">
<path d="M763.725 872.245C755.276 880.6 751.635 872.404 739.763 872.404C727.891 872.404 727.891 871.73 716.028 871.73C704.166 871.73 704.156 872.216 692.284 872.216C680.412 872.216 680.412 871.988 668.55 871.988C656.678 871.988 656.678 871.879 644.806 871.879C632.933 871.879 632.933 871.552 621.061 871.552C609.189 871.552 609.189 871.552 597.317 871.552C585.445 871.552 585.445 872.751 573.573 872.751C561.701 872.751 561.701 871.948 549.829 871.948C537.956 871.948 537.956 872.781 526.084 872.781C514.212 872.781 514.212 872.582 502.34 872.582C490.468 872.582 490.468 871.344 478.596 871.344C466.724 871.344 466.724 872.523 454.852 872.523C442.98 872.523 442.98 871.334 431.107 871.334C419.235 871.334 419.235 872.662 407.363 872.662C395.491 872.662 395.491 871.958 383.619 871.958C371.747 871.958 371.747 871.72 359.875 871.72C348.003 871.72 348.003 872.691 336.13 872.691C324.258 872.691 324.258 872.295 312.386 872.295C300.514 872.295 300.514 872.107 288.642 872.107C276.77 872.107 276.77 872.731 264.898 872.731C253.026 872.731 253.026 871.502 241.153 871.502C229.281 871.502 229.281 872.761 217.409 872.761C205.537 872.761 205.537 872.136 193.665 872.136C181.793 872.136 181.793 872.186 169.921 872.186C158.049 872.186 158.049 871.443 146.176 871.443C134.304 871.443 134.304 872.176 122.432 872.176C110.56 872.176 110.56 871.453 98.688 871.453C86.8159 871.453 86.8159 872.87 74.9438 872.87C63.0716 872.87 63.0716 872.672 51.1995 872.672C39.3274 872.672 39.3274 872.176 27.4454 872.176C15.5733 872.176 12.5261 879.976 4.06721 871.621C-4.27295 863.386 3.04819 860.274 3.04819 848.54C3.04819 836.806 4.34423 836.806 4.34423 825.072C4.34423 813.339 3.80998 813.339 3.80998 801.615C3.80998 789.891 4.47284 789.881 4.47284 778.157C4.47284 766.433 2.8899 766.433 2.8899 754.7C2.8899 742.966 4.11668 742.966 4.11668 731.242C4.11668 719.518 3.96828 719.518 3.96828 707.784C3.96828 696.05 3.89903 696.05 3.89903 684.317C3.89903 672.583 4.3937 672.583 4.3937 660.859C4.3937 649.135 3.0284 649.125 3.0284 637.391C3.0284 625.658 3.28563 625.658 3.28563 613.934C3.28563 602.21 3.41425 602.2 3.41425 590.476C3.41425 578.752 3.6418 578.742 3.6418 567.019C3.6418 555.285 3.77041 555.285 3.77041 543.561C3.77041 531.827 3.0284 531.827 3.0284 520.103C3.0284 508.379 3.99796 508.369 3.99796 496.636C3.99796 484.902 3.30542 484.902 3.30542 473.178C3.30542 461.454 3.75062 461.444 3.75062 449.72C3.75062 437.997 3.94849 437.987 3.94849 426.263C3.94849 414.539 4.14636 414.529 4.14636 402.805C4.14636 391.081 3.91881 391.071 3.91881 379.338C3.91881 367.604 3.76052 367.604 3.76052 355.87C3.76052 344.136 4.03753 344.136 4.03753 332.402C4.03753 320.669 2.87011 320.669 2.87011 308.935C2.87011 297.201 2.93936 297.201 2.93936 285.467C2.93936 273.734 3.86935 273.734 3.86935 262C3.86935 250.266 4.41348 250.266 4.41348 238.532C4.41348 226.798 3.29553 226.798 3.29553 215.065C3.29553 203.331 3.74073 203.331 3.74073 191.607C3.74073 179.873 3.47361 179.873 3.47361 168.139C3.47361 156.406 4.11668 156.406 4.11668 144.672C4.11668 132.938 3.95839 132.938 3.95839 121.204C3.95839 109.471 4.47284 109.471 4.47284 97.7367C4.47284 89.9142 4.46625 82.0917 4.45306 74.2692C4.45306 62.5354 3.74073 62.5354 3.74073 50.8016C3.74073 39.0678 3.9386 39.0678 3.9386 27.3341C3.9386 15.6003 -4.70826 12.0722 3.62201 3.82685C12.071 -4.52752 15.5535 3.40071 27.4157 3.40071C39.2779 3.40071 39.2878 4.15389 51.1501 4.15389C63.0123 4.15389 63.0222 4.0647 74.8943 4.0647C86.7664 4.0647 86.7664 4.72869 98.6286 4.72869C110.491 4.72869 110.501 3.72775 122.373 3.72775C134.245 3.72775 134.245 3.51963 146.117 3.51963C157.989 3.51963 157.989 3.25205 169.861 3.25205C181.733 3.25205 181.733 3.74757 193.606 3.74757C205.478 3.74757 205.478 3.18268 217.35 3.18268C229.222 3.18268 229.222 3.86649 241.094 3.86649C252.966 3.86649 252.966 3.92595 264.838 3.92595C276.71 3.92595 276.71 3.07367 288.583 3.07367C300.455 3.07367 300.455 4.10434 312.327 4.10434C324.199 4.10434 324.199 3.70793 336.071 3.70793C347.943 3.70793 347.943 4.34219 359.815 4.34219C371.687 4.34219 371.687 3.81694 383.56 3.81694C395.432 3.81694 395.432 3.75748 407.304 3.75748C419.176 3.75748 419.176 3.52954 431.048 3.52954C442.92 3.52954 442.92 3.75748 454.792 3.75748C466.664 3.75748 466.664 4.58003 478.537 4.58003C490.409 4.58003 490.409 4.1638 502.281 4.1638C514.153 4.1638 514.153 3.26196 526.025 3.26196C537.897 3.26196 537.897 4.21335 549.769 4.21335C561.641 4.21335 561.641 4.36201 573.513 4.36201C585.386 4.36201 585.386 3.14304 597.258 3.14304C609.13 3.14304 609.13 3.68811 621.002 3.68811C632.874 3.68811 632.874 4.65931 644.746 4.65931C656.618 4.65931 656.618 3.91604 668.49 3.91604C680.363 3.91604 680.363 3.56918 692.235 3.56918C704.107 3.56918 704.107 4.24308 715.979 4.24308C727.851 4.24308 727.851 3.41062 739.733 3.41062C751.615 3.41062 754.633 -4.07165 763.091 4.28272C771.55 12.6371 763.091 15.6102 763.091 27.344C763.091 39.0777 763.457 39.0777 763.457 50.8115C763.457 62.5453 762.696 62.5453 762.696 74.2692C762.696 85.993 762.745 86.003 762.745 97.7268C762.745 109.451 763.161 109.451 763.161 121.184C763.161 132.918 763.062 132.918 763.062 144.642C763.062 156.366 764.14 156.366 764.14 168.1C764.14 179.834 763.903 179.834 763.903 191.567C763.903 203.301 763.18 203.301 763.18 215.025C763.18 226.749 762.785 226.759 762.785 238.493C762.785 250.226 763.408 250.226 763.408 261.95C763.408 273.674 764.101 273.684 764.101 285.408C764.101 297.132 764.18 297.142 764.18 308.865C764.18 320.589 762.903 320.599 762.903 332.323C762.903 344.047 763.972 344.057 763.972 355.781C763.972 367.505 763.082 367.515 763.082 379.248C763.082 390.982 762.715 390.982 762.715 402.706C762.715 414.43 764.091 414.44 764.091 426.164C764.091 437.888 763.665 437.897 763.665 449.621C763.665 461.345 762.715 461.355 762.715 473.079C762.715 484.803 763.556 484.813 763.556 496.547C763.556 508.28 762.894 508.28 762.894 520.014C762.894 531.748 763.477 531.748 763.477 543.482C763.477 555.215 763.349 555.215 763.349 566.949C763.349 578.683 762.983 578.683 762.983 590.417C762.983 602.151 762.636 602.151 762.636 613.884C762.636 625.618 763.537 625.618 763.537 637.352C763.537 649.086 763.626 649.086 763.626 660.819C763.626 672.553 762.765 672.553 762.765 684.277C762.765 696.001 764.18 696.011 764.18 707.745C764.18 719.478 763.438 719.478 763.438 731.212C763.438 742.946 763.715 742.946 763.715 754.68C763.715 766.414 763.289 766.414 763.289 778.147C763.289 789.881 762.696 789.881 762.696 801.615C762.696 813.349 764.081 813.349 764.081 825.082C764.081 836.816 760.895 837.114 763.418 848.57C766.139 860.928 772.045 864.01 763.715 872.255L763.725 872.245Z" fill="#FFEBC2"/>
</svg>
