<svg width="328" height="1236" viewBox="0 0 328 1236" fill="none" xmlns="http://www.w3.org/2000/svg">
<path d="M323.445 1232.27C315.462 1240.53 311.71 1232.49 300.296 1232.49C288.882 1232.49 288.882 1231.55 277.458 1231.55C266.034 1231.55 266.044 1232.23 254.62 1232.23C243.196 1232.23 243.206 1231.91 231.792 1231.91C220.378 1231.91 220.378 1231.75 208.954 1231.75C197.53 1231.75 197.54 1231.29 186.126 1231.29C174.712 1231.29 174.712 1231.29 163.288 1231.29C151.864 1231.29 151.874 1232.98 140.45 1232.98C129.026 1232.98 129.036 1231.84 117.612 1231.84C106.189 1231.84 106.189 1233.03 94.7746 1233.03C83.3606 1233.03 83.3606 1232.75 71.9368 1232.75C60.513 1232.75 60.513 1231 49.0989 1231C37.6849 1231 37.6751 1232.67 26.2611 1232.67C14.847 1232.67 12.0788 1239.54 4.08607 1231.28C-4.07239 1222.85 2.50701 1220.13 2.50701 1208.32C2.50701 1196.51 3.49149 1196.51 3.49149 1184.7C3.49149 1172.89 3.81315 1172.89 3.81315 1161.08C3.81315 1149.27 2.44853 1149.27 2.44853 1137.46C2.44853 1125.66 3.00412 1125.66 3.00412 1113.85C3.00412 1102.04 3.2673 1102.04 3.2673 1090.23C3.2673 1078.42 2.39979 1078.42 2.39979 1066.61C2.39979 1054.8 4.11531 1054.8 4.11531 1042.99C4.11531 1031.18 2.35106 1031.18 2.35106 1019.37C2.35106 1007.56 3.21856 1007.56 3.21856 995.75C3.21856 983.941 3.15033 983.941 3.15033 972.131C3.15033 960.321 4.19329 960.321 4.19329 948.512C4.19329 936.702 3.16983 936.702 3.16983 924.893C3.16983 913.083 4.18354 913.083 4.18354 901.274C4.18354 889.464 2.20485 889.464 2.20485 877.655C2.20485 865.845 2.47777 865.845 2.47777 854.035C2.47777 842.226 3.16983 842.226 3.16983 830.416C3.16983 818.607 4.1543 818.607 4.1543 806.797C4.1543 794.988 2.50701 794.988 2.50701 783.178C2.50701 771.369 4.32975 771.369 4.32975 759.559C4.32975 747.75 3.57921 747.75 3.57921 735.94C3.57921 724.13 4.5052 724.13 4.5052 712.321C4.5052 700.511 2.29257 700.511 2.29257 688.702C2.29257 676.892 4.00809 676.892 4.00809 665.083C4.00809 653.273 3.8034 653.273 3.8034 641.464C3.8034 629.654 3.70593 629.654 3.70593 617.844C3.70593 606.035 4.39798 606.035 4.39798 594.225C4.39798 582.416 2.48752 582.416 2.48752 570.606C2.48752 558.797 2.84817 558.797 2.84817 546.987C2.84817 535.178 3.03336 535.178 3.03336 523.368C3.03336 511.558 3.35502 511.559 3.35502 499.749C3.35502 487.939 3.53047 487.939 3.53047 476.13C3.53047 464.32 2.48752 464.32 2.48752 452.511C2.48752 440.701 3.84239 440.701 3.84239 428.892C3.84239 417.082 2.86766 417.082 2.86766 405.273C2.86766 393.463 3.48174 393.463 3.48174 381.653C3.48174 369.844 3.75466 369.844 3.75466 358.025C3.75466 346.205 4.02759 346.215 4.02759 334.405C4.02759 322.596 3.70593 322.596 3.70593 310.776C3.70593 298.967 3.49149 298.967 3.49149 287.157C3.49149 275.348 3.88138 275.348 3.88138 263.538C3.88138 251.729 2.24384 251.729 2.24384 239.909C2.24384 228.09 2.34131 228.1 2.34131 216.28C2.34131 204.461 3.63769 204.471 3.63769 192.661C3.63769 180.852 4.39798 180.852 4.39798 169.042C4.39798 157.233 2.83842 157.233 2.83842 145.423C2.83842 133.613 3.46224 133.613 3.46224 121.794C3.46224 109.975 3.0821 109.984 3.0821 98.165C3.0821 86.3456 3.97885 86.3555 3.97885 74.5361C3.97885 62.7166 3.75466 62.7265 3.75466 50.9071C3.75466 39.0877 4.47596 39.0877 4.47596 27.2781C4.47596 15.4587 -4.00416 12.8223 4.1543 4.37982C12.3128 -4.06262 14.8276 3.67875 26.2513 3.67875C37.6751 3.67875 37.6654 3.95523 49.0892 3.95523C60.513 3.95523 60.5032 3.52077 71.927 3.52077C83.3508 3.52077 83.3411 2.95794 94.7551 2.95794C106.169 2.95794 106.169 4.02435 117.593 4.02435C129.017 4.02435 129.007 3.90586 140.421 3.90586C151.835 3.90586 151.835 4.84391 163.259 4.84391C174.683 4.84391 174.673 3.4319 186.097 3.4319C197.521 3.4319 197.511 3.13567 208.935 3.13567C220.358 3.13567 220.358 2.75058 231.772 2.75058C243.186 2.75058 243.186 3.45165 254.61 3.45165C266.034 3.45165 266.034 2.65184 277.448 2.65184C288.862 2.65184 288.872 3.62938 300.286 3.62938C311.7 3.62938 315.073 -4.57608 323.065 3.68863C331.058 11.9533 324.235 15.4291 324.235 27.2386C324.235 39.0482 322.802 39.0482 322.802 50.8577C322.802 62.6673 323.358 62.6673 323.358 74.4768C323.358 86.2864 322.471 86.2864 322.471 98.0959C322.471 109.905 323.211 109.905 323.211 121.715C323.211 133.525 323.289 133.525 323.289 145.334C323.289 157.144 323.601 157.144 323.601 168.953C323.601 180.763 323.289 180.763 323.289 192.572C323.289 204.382 322.139 204.382 322.139 216.191C322.139 228.001 322.724 228.001 322.724 239.811C322.724 251.62 323.991 251.62 323.991 263.43C323.991 275.239 322.666 275.239 322.666 287.049C322.666 298.858 322.461 298.858 322.461 310.668C322.461 322.477 324.167 322.477 324.167 334.287C324.167 346.096 323.406 346.096 323.406 357.906C323.406 369.716 322.052 369.716 322.052 381.525C322.052 393.335 323.085 393.335 323.085 405.144C323.085 416.954 323.572 416.954 323.572 428.763C323.572 440.573 322.636 440.573 322.636 452.382C322.636 464.192 323.806 464.192 323.806 476.002C323.806 487.811 322.363 487.811 322.363 499.621C322.363 511.43 322.597 511.43 322.597 523.24C322.597 535.049 323.104 535.049 323.104 546.859C323.104 558.668 322.042 558.668 322.042 570.478C322.042 582.287 322.11 582.287 322.11 594.097C322.11 605.907 322.685 605.907 322.685 617.716C322.685 629.526 322.549 629.526 322.549 641.335C322.549 653.145 324.059 653.145 324.059 664.954C324.059 676.764 323.728 676.764 323.728 688.573C323.728 700.383 322.724 700.383 322.724 712.193C322.724 724.002 322.169 724.002 322.169 735.812C322.169 747.621 323.036 747.621 323.036 759.431C323.036 771.24 324.011 771.24 324.011 783.05C324.011 794.859 324.118 794.859 324.118 806.669C324.118 818.478 322.334 818.478 322.334 830.288C322.334 842.098 323.835 842.098 323.835 853.907C323.835 865.717 322.588 865.717 322.588 877.536C322.588 889.356 322.081 889.346 322.081 901.155C322.081 912.965 324.001 912.965 324.001 924.784C324.001 936.604 323.416 936.594 323.416 948.403C323.416 960.213 322.091 960.213 322.091 972.022C322.091 983.832 323.27 983.832 323.27 995.651C323.27 1007.47 322.334 1007.46 322.334 1019.28C322.334 1031.1 323.153 1031.09 323.153 1042.9C323.153 1054.71 322.968 1054.71 322.968 1066.52C322.968 1078.33 322.451 1078.33 322.451 1090.14C322.451 1101.95 321.974 1101.95 321.974 1113.77C321.974 1125.59 323.231 1125.58 323.231 1137.4C323.231 1149.21 323.348 1149.21 323.348 1161.02C323.348 1172.84 322.139 1172.83 322.139 1184.65C322.139 1196.47 321.593 1196.53 324.098 1208.08C326.798 1220.55 331.633 1223.78 323.475 1232.23L323.445 1232.27Z" fill="#FFEBC2"/>
</svg>
