<svg width="1200" height="624" viewBox="0 0 1200 624" fill="none" xmlns="http://www.w3.org/2000/svg">
<path d="M1195.43 620.038C1186.99 628.437 1183.25 620.306 1171.34 620.306C1159.43 620.306 1159.43 618.866 1147.52 618.866C1135.61 618.866 1135.61 618.638 1123.69 618.638C1111.78 618.638 1111.78 619.601 1099.87 619.601C1087.96 619.601 1087.96 618.956 1076.05 618.956C1064.14 618.956 1064.14 618.827 1052.22 618.827C1040.31 618.827 1040.31 618.578 1028.4 618.578C1016.49 618.578 1016.49 618.797 1004.58 618.797C992.664 618.797 992.664 620.375 980.752 620.375C968.841 620.375 968.841 619.968 956.929 619.968C945.017 619.968 945.017 620.624 933.105 620.624C921.193 620.624 921.193 619.174 909.281 619.174C897.369 619.174 897.369 620.455 885.457 620.455C873.546 620.455 873.546 618.698 861.634 618.698C849.722 618.698 849.722 620.723 837.81 620.723C825.898 620.723 825.898 618.926 813.986 618.926C802.074 618.926 802.074 618.876 790.172 618.876C778.271 618.876 778.261 618.747 766.359 618.747C754.457 618.747 754.447 618.747 742.535 618.747C730.623 618.747 730.623 618.866 718.721 618.866C706.819 618.866 706.809 618.717 694.897 618.717C682.986 618.717 682.986 618.995 671.074 618.995C659.162 618.995 659.162 620.782 647.25 620.782C635.338 620.782 635.338 620.653 623.426 620.653C611.514 620.653 611.514 618.717 599.602 618.717C587.691 618.717 587.691 619.69 575.779 619.69C563.867 619.69 563.867 620.028 551.955 620.028C540.043 620.028 540.043 620.743 528.131 620.743C516.219 620.743 516.219 620.256 504.307 620.256C492.396 620.256 492.396 619.889 480.484 619.889C468.572 619.889 468.572 619.432 456.66 619.432C444.748 619.432 444.748 618.975 432.836 618.975C420.924 618.975 420.924 620.147 409.012 620.147C397.101 620.147 397.101 618.588 385.189 618.588C373.277 618.588 373.277 619.939 361.365 619.939C349.453 619.939 349.453 618.827 337.541 618.827C325.629 618.827 325.629 620.614 313.718 620.614C301.806 620.614 301.806 618.578 289.894 618.578C277.982 618.578 277.982 620.901 266.07 620.901C254.158 620.901 254.158 619.174 242.246 619.174C230.334 619.174 230.334 620.375 218.423 620.375C206.511 620.375 206.511 619.174 194.599 619.174C182.687 619.174 182.687 620.782 170.775 620.782C158.863 620.782 158.863 620.018 146.951 620.018C135.04 620.018 135.04 620.832 123.128 620.832C111.216 620.832 111.216 620.802 99.3039 620.802C87.392 620.802 87.392 619.402 75.4802 619.402C63.5683 619.402 63.5683 620.346 51.6465 620.346C39.7247 620.346 39.7346 620.544 27.8128 620.544C15.891 620.544 12.0395 628.566 3.58211 620.167C-4.87532 611.768 4.29682 607.936 4.29682 596.102C4.29682 584.268 4.92219 584.268 4.92219 572.435C4.92219 560.601 3.49277 560.601 3.49277 548.767C3.49277 536.933 3.42328 536.933 3.42328 525.099C3.42328 513.265 4.67403 513.265 4.67403 501.422C4.67403 489.578 4.34645 489.588 4.34645 477.754C4.34645 465.92 5.02146 465.92 5.02146 454.087C5.02146 442.253 4.78322 442.253 4.78322 430.419C4.78322 418.585 4.52513 418.585 4.52513 406.751C4.52513 394.918 4.91227 394.918 4.91227 383.074C4.91227 371.24 4.5152 371.24 4.5152 359.396C4.5152 347.562 3.17512 347.562 3.17512 335.719C3.17512 323.875 5.06116 323.885 5.06116 312.041C5.06116 300.207 4.65417 300.207 4.65417 288.364C4.65417 276.53 3.81042 276.53 3.81042 264.686C3.81042 252.842 4.45564 252.852 4.45564 241.009C4.45564 229.165 3.22475 229.175 3.22475 217.331C3.22475 205.497 3.76079 205.497 3.76079 193.663C3.76079 181.83 3.9891 181.83 3.9891 169.986C3.9891 158.152 4.20748 158.152 4.20748 146.308C4.20748 134.465 3.44314 134.475 3.44314 122.631C3.44314 110.797 3.03615 110.797 3.03615 98.9534C3.03615 87.1096 3.53247 87.1196 3.53247 75.2758C3.53247 63.4321 4.09829 63.4321 4.09829 51.5983C4.09829 39.7645 4.73359 39.7546 4.73359 27.9208C4.73359 16.077 -3.972 13.0392 4.42586 4.68998C12.8237 -3.6592 15.891 4.86868 27.8029 4.86868C39.7148 4.86868 39.7148 4.03475 51.6266 4.03475C63.5385 4.03475 63.5385 4.81904 75.4504 4.81904C87.3623 4.81904 87.3623 3.33981 99.2741 3.33981C111.186 3.33981 111.186 4.49143 123.098 4.49143C135.01 4.49143 135.01 4.10425 146.922 4.10425C158.833 4.10425 158.833 3.26039 170.745 3.26039C182.657 3.26039 182.657 4.58077 194.569 4.58077C206.481 4.58077 206.481 3.20083 218.393 3.20083C230.305 3.20083 230.305 4.23331 242.217 4.23331C254.128 4.23331 254.128 3.60786 266.04 3.60786C277.952 3.60786 277.952 3.3696 289.864 3.3696C301.776 3.3696 301.776 3.21075 313.688 3.21075C325.6 3.21075 325.6 3.12141 337.511 3.12141C349.423 3.12141 349.423 4.55099 361.335 4.55099C373.247 4.55099 373.247 4.44179 385.159 4.44179C397.071 4.44179 397.071 4.87861 408.973 4.87861C420.875 4.87861 420.885 3.61779 432.787 3.61779C444.689 3.61779 444.698 4.31273 456.61 4.31273C468.522 4.31273 468.522 4.11417 480.424 4.11417C492.326 4.11417 492.336 4.36237 504.248 4.36237C516.16 4.36237 516.16 3.5483 528.072 3.5483C539.984 3.5483 539.984 4.55099 551.895 4.55099C563.807 4.55099 563.807 5.0573 575.719 5.0573C587.631 5.0573 587.631 3.77663 599.543 3.77663C611.455 3.77663 611.455 3.91562 623.367 3.91562C635.278 3.91562 635.278 3.34974 647.19 3.34974C659.102 3.34974 659.102 5.16651 671.014 5.16651C682.926 5.16651 682.926 3.40931 694.838 3.40931C706.75 3.40931 706.75 3.37952 718.662 3.37952C730.573 3.37952 730.573 3.37952 742.485 3.37952C754.397 3.37952 754.397 4.54106 766.309 4.54106C778.221 4.54106 778.221 3.74685 790.133 3.74685C802.045 3.74685 802.045 3.34974 813.957 3.34974C825.868 3.34974 825.868 5.35513 837.78 5.35513C849.692 5.35513 849.692 4.82897 861.604 4.82897C873.516 4.82897 873.516 3.75678 885.428 3.75678C897.34 3.75678 897.34 4.53114 909.251 4.53114C921.163 4.53114 921.163 3.50858 933.075 3.50858C944.987 3.50858 944.987 4.64034 956.899 4.64034C968.811 4.64034 968.811 4.22338 980.723 4.22338C992.635 4.22338 992.635 5.11687 1004.55 5.11687C1016.46 5.11687 1016.46 3.07177 1028.37 3.07177C1040.28 3.07177 1040.28 3.12141 1052.19 3.12141C1064.11 3.12141 1064.11 4.60063 1076.02 4.60063C1087.93 4.60063 1087.93 5.08709 1099.84 5.08709C1111.75 5.08709 1111.75 5.08709 1123.66 5.08709C1135.58 5.08709 1135.58 3.63764 1147.5 3.63764C1159.42 3.63764 1159.41 4.80911 1171.33 4.80911C1183.25 4.80911 1187.54 -4.99944 1196 3.39938C1204.46 11.7982 1194.64 16.077 1194.64 27.9108C1194.64 39.7446 1195.92 39.7446 1195.92 51.5784C1195.92 63.4122 1194.09 63.4122 1194.09 75.246C1194.09 87.0799 1194.93 87.0799 1194.93 98.9137C1194.93 110.747 1196.01 110.747 1196.01 122.591C1196.01 134.435 1195.07 134.425 1195.07 146.259C1195.07 158.093 1194.78 158.093 1194.78 169.926C1194.78 181.76 1195.59 181.76 1195.59 193.594C1195.59 205.428 1195.39 205.428 1195.39 217.262C1195.39 229.095 1196.13 229.095 1196.13 240.939C1196.13 252.783 1194.76 252.773 1194.76 264.617C1194.76 276.46 1194.78 276.45 1194.78 288.294C1194.78 300.138 1194.53 300.128 1194.53 311.972C1194.53 323.806 1195.58 323.806 1195.58 335.649C1195.58 347.493 1195.67 347.483 1195.67 359.327C1195.67 371.171 1194.75 371.161 1194.75 383.004C1194.75 394.848 1195.41 394.838 1195.41 406.682C1195.41 418.526 1195.11 418.516 1195.11 430.349C1195.11 442.183 1194.96 442.183 1194.96 454.027C1194.96 465.871 1194.51 465.861 1194.51 477.705C1194.51 489.548 1194.51 489.538 1194.51 501.382C1194.51 513.216 1196.15 513.216 1196.15 525.06C1196.15 536.903 1195.05 536.893 1195.05 548.737C1195.05 560.581 1196.19 560.581 1196.19 572.415C1196.19 584.258 1193.35 584.368 1195.9 595.923C1198.65 608.412 1203.8 611.689 1195.4 620.038H1195.43Z" fill="#FFEBC2"/>
</svg>
