<svg width="1200" height="656" viewBox="0 0 1200 656" fill="none" xmlns="http://www.w3.org/2000/svg">
<path d="M1195.86 652.237C1187.36 660.211 1183.68 652.493 1171.76 652.493C1159.84 652.493 1159.84 651.118 1147.93 651.118C1136.01 651.118 1136.01 650.9 1124.09 650.9C1112.18 650.9 1112.18 651.82 1100.26 651.82C1088.34 651.82 1088.34 651.203 1076.43 651.203C1064.51 651.203 1064.51 651.08 1052.59 651.08C1040.68 651.08 1040.68 650.843 1028.76 650.843C1016.84 650.843 1016.84 651.052 1004.93 651.052C993.01 651.052 993.01 652.559 981.094 652.559C969.177 652.559 969.177 652.171 957.261 652.171C945.344 652.171 945.344 652.796 933.427 652.796C921.511 652.796 921.511 651.412 909.594 651.412C897.678 651.412 897.678 652.635 885.761 652.635C873.844 652.635 873.844 650.957 861.928 650.957C850.011 650.957 850.011 652.891 838.095 652.891C826.178 652.891 826.178 651.175 814.261 651.175C802.345 651.175 802.345 651.128 790.438 651.128C778.531 651.128 778.521 651.004 766.615 651.004C758.67 651.004 750.726 651.004 742.782 651.004C730.865 651.004 730.865 651.118 718.958 651.118C707.042 651.118 707.042 650.976 695.125 650.976C683.208 650.976 683.208 651.241 671.292 651.241C659.375 651.241 659.375 652.948 647.459 652.948C635.542 652.948 635.542 652.825 623.625 652.825C611.709 652.825 611.709 650.976 599.792 650.976C587.876 650.976 587.876 651.905 575.959 651.905C564.042 651.905 564.042 652.227 552.126 652.227C540.209 652.227 540.209 652.91 528.293 652.91C516.376 652.91 516.376 652.446 504.459 652.446C492.543 652.446 492.543 652.095 480.626 652.095C468.71 652.095 468.71 651.659 456.793 651.659C444.876 651.659 444.876 651.222 432.96 651.222C421.043 651.222 421.043 652.341 409.127 652.341C397.21 652.341 397.21 650.853 385.293 650.853C373.377 650.853 373.377 652.142 361.46 652.142C349.544 652.142 349.544 651.08 337.627 651.08C325.71 651.08 325.71 652.787 313.794 652.787C301.877 652.787 301.877 650.843 289.961 650.843C278.044 650.843 278.044 653.062 266.127 653.062C254.211 653.062 254.211 651.412 242.294 651.412C230.378 651.412 230.378 652.559 218.461 652.559C206.544 652.559 206.544 651.412 194.628 651.412C182.711 651.412 182.711 652.948 170.795 652.948C158.878 652.948 158.878 652.218 146.961 652.218C135.045 652.218 135.045 652.995 123.128 652.995C111.212 652.995 111.212 652.967 99.2949 652.967C87.3783 652.967 87.3783 651.63 75.4617 651.63C63.5451 651.63 63.5451 652.531 51.6186 652.531C39.692 652.531 39.702 652.72 27.7754 652.72C15.8588 652.72 12.0455 660.334 3.53509 652.36C-4.81646 644.529 4.25008 640.802 4.25008 629.624C4.25008 618.445 4.87571 618.445 4.87571 607.257C4.87571 596.069 3.44571 596.079 3.44571 584.9C3.44571 573.722 3.3762 573.722 3.3762 562.543C3.3762 551.365 4.62744 551.365 4.62744 540.186C4.62744 529.008 4.29974 529.008 4.29974 517.829C4.29974 506.651 4.97501 506.651 4.97501 495.472C4.97501 484.294 4.73668 484.294 4.73668 473.106C4.73668 461.918 4.47849 461.927 4.47849 450.749C4.47849 439.57 4.86577 439.57 4.86577 428.392C4.86577 417.213 4.46855 417.213 4.46855 406.035C4.46855 394.856 3.12794 394.856 3.12794 383.678C3.12794 372.499 5.01473 372.499 5.01473 361.311C5.01473 350.123 4.60758 350.132 4.60758 338.944C4.60758 327.756 3.76349 327.766 3.76349 316.578C3.76349 305.39 4.40897 305.399 4.40897 294.211C4.40897 283.023 3.17759 283.033 3.17759 271.845C3.17759 260.657 3.71384 260.666 3.71384 249.478C3.71384 238.3 3.94224 238.3 3.94224 227.112C3.94224 215.924 4.16071 215.933 4.16071 204.745C4.16071 193.567 3.39606 193.567 3.39606 182.388C3.39606 171.21 2.98891 171.21 2.98891 160.022C2.98891 148.834 3.48544 148.843 3.48544 137.655C3.48544 126.467 4.05147 126.477 4.05147 115.289C4.05147 104.101 4.68703 104.11 4.68703 92.9222C4.68703 81.7342 4.56786 81.7437 4.56786 70.5557C4.56786 63.097 4.56786 55.6415 4.56786 48.1891C4.56786 37.0011 3.7337 37.0011 3.7337 25.8226C3.7337 14.6346 -4.01209 11.6859 4.33946 3.84484C12.691 -3.99625 15.8489 2.58382 27.7655 2.58382C39.6821 2.58382 39.6821 3.68365 51.5987 3.68365C63.5153 3.68365 63.5153 3.31388 75.4319 3.31388C87.3485 3.31388 87.3485 2.50796 99.2651 2.50796C111.182 2.50796 111.182 3.76899 123.098 3.76899C135.015 3.76899 135.015 2.45108 146.932 2.45108C158.848 2.45108 158.848 3.43714 170.765 3.43714C182.681 3.43714 182.681 2.83981 194.598 2.83981C206.515 2.83981 206.515 2.61226 218.431 2.61226C230.348 2.61226 230.348 2.46056 242.264 2.46056C254.181 2.46056 254.181 2.37523 266.098 2.37523C278.014 2.37523 278.014 3.74054 289.931 3.74054C301.847 3.74054 301.847 3.63625 313.764 3.63625C325.681 3.63625 325.681 4.05343 337.597 4.05343C349.514 4.05343 349.514 2.84929 361.43 2.84929C373.347 2.84929 373.347 3.51299 385.264 3.51299C397.18 3.51299 397.18 3.32336 409.087 3.32336C420.994 3.32336 421.003 3.5604 432.91 3.5604C444.817 3.5604 444.827 2.78292 456.743 2.78292C468.66 2.78292 468.66 3.74054 480.567 3.74054C492.473 3.74054 492.483 4.22409 504.4 4.22409C516.316 4.22409 516.316 3.001 528.233 3.001C540.15 3.001 540.15 3.13373 552.066 3.13373C563.983 3.13373 563.983 2.5933 575.899 2.5933C587.816 2.5933 587.816 4.32839 599.733 4.32839C611.649 4.32839 611.649 2.65018 623.566 2.65018C635.482 2.65018 635.482 2.62174 647.399 2.62174C659.316 2.62174 659.316 2.62174 671.232 2.62174C683.149 2.62174 683.149 3.73106 695.065 3.73106C706.982 3.73106 706.982 2.97255 718.899 2.97255C730.815 2.97255 730.815 2.5933 742.732 2.5933C754.648 2.5933 754.648 4.50853 766.565 4.50853C778.482 4.50853 778.482 4.00602 790.398 4.00602C802.315 4.00602 802.315 2.98203 814.231 2.98203C826.148 2.98203 826.148 3.72158 838.065 3.72158C849.981 3.72158 849.981 2.745 861.898 2.745C873.814 2.745 873.814 3.82587 885.731 3.82587C897.648 3.82587 897.648 3.42766 909.564 3.42766C921.481 3.42766 921.481 4.28098 933.398 4.28098C945.314 4.28098 945.314 2.32782 957.231 2.32782C969.147 2.32782 969.147 2.37523 981.064 2.37523C992.981 2.37523 992.981 3.78795 1004.9 3.78795C1016.81 3.78795 1016.81 4.25253 1028.73 4.25253C1040.65 4.25253 1040.65 4.25253 1052.56 4.25253C1064.48 4.25253 1064.48 2.86826 1076.4 2.86826C1088.31 2.86826 1088.31 3.98706 1100.23 3.98706C1112.15 3.98706 1112.15 2.30886 1124.06 2.30886C1135.98 2.30886 1135.98 3.93965 1147.91 3.93965C1159.83 3.93965 1159.82 2.71655 1171.75 2.71655C1183.68 2.71655 1186.34 -3.80662 1194.84 4.1672C1203.34 12.141 1195.34 14.6157 1195.34 25.7942C1195.34 36.9727 1196.43 36.9727 1196.43 48.1607C1196.43 59.3392 1195.48 59.3392 1195.48 70.5177C1195.48 81.6963 1195.2 81.6963 1195.2 92.8748C1195.2 104.053 1196.01 104.053 1196.01 115.232C1196.01 126.41 1195.81 126.41 1195.81 137.589C1195.81 148.767 1196.55 148.767 1196.55 159.946C1196.55 171.124 1195.18 171.124 1195.18 182.312C1195.18 189.765 1195.18 197.217 1195.2 204.669C1195.2 215.848 1194.95 215.848 1194.95 227.027C1194.95 238.205 1196 238.205 1196 249.384C1196 260.562 1196.09 260.562 1196.09 271.741C1196.09 282.919 1195.17 282.919 1195.17 294.107C1195.17 305.295 1195.83 305.286 1195.83 316.474C1195.83 327.652 1195.52 327.652 1195.52 338.84C1195.52 350.019 1195.37 350.019 1195.37 361.207C1195.37 372.395 1194.93 372.385 1194.93 383.573C1194.93 394.761 1194.93 394.752 1194.93 405.94C1194.93 417.128 1196.57 417.118 1196.57 428.306C1196.57 439.494 1195.46 439.485 1195.46 450.673C1195.46 461.851 1196.61 461.851 1196.61 473.03C1196.61 484.208 1196.34 484.208 1196.34 495.396C1196.34 506.575 1194.64 506.575 1194.64 517.763C1194.64 528.941 1196.26 528.941 1196.26 540.129C1196.26 551.308 1194.63 551.308 1194.63 562.496C1194.63 573.684 1196.45 573.674 1196.45 584.862C1196.45 596.05 1195.47 596.05 1195.47 607.229C1195.47 618.417 1192.63 618.758 1195.17 629.681C1197.91 641.485 1204.16 644.386 1195.81 652.227L1195.86 652.237Z" fill="#FFEBC2"/>
</svg>
