<svg width="328" height="1412" viewBox="0 0 328 1412" fill="none" xmlns="http://www.w3.org/2000/svg">
<path d="M323.843 1408.22C315.869 1416.54 312.13 1408.54 300.72 1408.54C289.309 1408.54 289.319 1406.84 277.908 1406.84C266.497 1406.84 266.507 1406.58 255.096 1406.58C243.686 1406.58 243.695 1407.71 232.294 1407.71C220.893 1407.71 220.893 1406.96 209.482 1406.96C198.072 1406.96 198.081 1406.81 186.68 1406.81C175.279 1406.81 175.279 1406.52 163.869 1406.52C152.458 1406.52 152.468 1406.78 141.057 1406.78C129.646 1406.78 129.656 1408.64 118.245 1408.64C106.834 1408.64 106.834 1408.16 95.4335 1408.16C84.0324 1408.16 84.0324 1408.94 72.6217 1408.94C61.211 1408.94 61.211 1407.23 49.81 1407.23C38.4089 1407.23 38.3992 1408.74 26.9982 1408.74C15.5972 1408.74 13.0366 1415.36 5.05296 1407.04C-2.93067 1398.72 3.06679 1396.01 3.06679 1384.12C3.06679 1372.23 5.14059 1372.22 5.14059 1360.33C5.14059 1348.44 5.199 1348.43 5.199 1336.54C5.199 1324.65 5.35478 1324.65 5.35478 1312.75C5.35478 1300.85 5.35478 1300.85 5.35478 1288.96C5.35478 1277.07 5.20874 1277.07 5.20874 1265.17C5.20874 1253.27 5.37425 1253.26 5.37425 1241.37C5.37425 1229.48 5.05296 1229.47 5.05296 1217.58C5.05296 1205.69 2.99864 1205.69 2.99864 1193.79C2.99864 1181.89 3.15441 1181.89 3.15441 1170C3.15441 1158.11 5.39372 1158.11 5.39372 1146.21C5.39372 1134.31 4.26433 1134.31 4.26433 1122.42C4.26433 1110.52 3.87489 1110.52 3.87489 1098.63C3.87489 1086.74 3.04732 1086.73 3.04732 1074.83C3.04732 1062.94 3.61201 1062.93 3.61201 1051.04C3.61201 1039.15 4.0404 1039.14 4.0404 1027.25C4.0404 1015.36 4.56615 1015.35 4.56615 1003.46C4.56615 991.56 5.0919 991.56 5.0919 979.67C5.0919 967.779 3.73858 967.769 3.73858 955.878C3.73858 943.978 5.53977 943.978 5.53977 932.087C5.53977 920.196 3.98199 920.186 3.98199 908.296C3.98199 896.395 5.26715 896.395 5.26715 884.504C5.26715 872.614 3.2031 872.604 3.2031 860.713C3.2031 848.822 5.5495 848.812 5.5495 836.922C5.5495 825.031 2.86233 825.021 2.86233 813.13C2.86233 801.24 4.85824 801.24 4.85824 789.339C4.85824 777.448 3.47571 777.448 3.47571 765.548C3.47571 753.647 4.85824 753.647 4.85824 741.756C4.85824 729.866 3.00837 729.866 3.00837 717.965C3.00837 706.064 3.89436 706.064 3.89436 694.174C3.89436 682.283 2.95969 682.283 2.95969 670.382C2.95969 658.482 2.99864 658.482 2.99864 646.591C2.99864 634.7 4.61483 634.7 4.61483 622.8C4.61483 610.899 3.52439 610.899 3.52439 599.008C3.52439 587.108 3.29072 587.108 3.29072 575.217C3.29072 563.326 3.53412 563.326 3.53412 551.426C3.53412 539.525 4.54668 539.525 4.54668 527.634C4.54668 515.744 5.26715 515.734 5.26715 503.843C5.26715 491.952 3.62175 491.942 3.62175 480.052C3.62175 468.161 3.54386 468.151 3.54386 456.26C3.54386 444.37 4.98481 444.36 4.98481 432.469C4.98481 420.578 4.6051 420.568 4.6051 408.678C4.6051 396.777 5.38399 396.777 5.38399 384.886C5.38399 372.986 5.10164 372.986 5.10164 361.085C5.10164 349.185 4.79982 349.185 4.79982 337.294C4.79982 325.403 5.23795 325.393 5.23795 313.503C5.23795 301.602 4.78035 301.602 4.78035 289.711C4.78035 277.821 3.2323 277.811 3.2323 265.92C3.2323 254.029 5.4132 254.019 5.4132 242.129C5.4132 230.238 4.94586 230.228 4.94586 218.327C4.94586 206.427 3.97225 206.427 3.97225 194.536C3.97225 182.645 4.72193 182.635 4.72193 170.745C4.72193 158.844 3.30046 158.844 3.30046 146.953C3.30046 135.053 3.92357 135.053 3.92357 123.152C3.92357 111.251 4.18644 111.251 4.18644 99.3507C4.18644 87.4501 4.43958 87.4501 4.43958 75.5495C4.43958 63.6488 3.56333 63.6488 3.56333 51.7482C3.56333 39.8476 3.08626 39.8476 3.08626 27.9469C3.08626 16.0463 -4.33267 12.2285 3.81647 3.72808C11.7904 -4.59342 15.5875 4.23513 26.9885 4.23513C38.3895 4.23513 38.3895 4.98078 49.8002 4.98078C61.211 4.98078 61.2012 4.83165 72.612 4.83165C84.0227 4.83165 84.013 4.83165 95.414 4.83165C106.815 4.83165 106.815 3.84739 118.226 3.84739C129.636 3.84739 129.627 4.772 141.028 4.772C152.429 4.772 152.429 3.0222 163.839 3.0222C175.25 3.0222 175.241 4.38426 186.651 4.38426C198.062 4.38426 198.052 3.93687 209.463 3.93687C220.874 3.93687 220.874 2.94266 232.275 2.94266C243.676 2.94266 243.676 4.49362 255.087 4.49362C266.497 4.49362 266.497 2.86312 277.898 2.86312C289.299 2.86312 289.309 4.086 300.71 4.086C312.111 4.086 316.064 -4.75249 324.048 3.56901C332.197 12.0695 324.534 15.9866 324.534 27.8773C324.534 39.768 324.71 39.778 324.71 51.6687C324.71 63.5594 324.817 63.5693 324.817 75.46C324.817 87.3507 323.162 87.3507 323.162 99.2513C323.162 111.152 323.288 111.152 323.288 123.043C323.288 134.933 322.792 134.933 322.792 146.834C322.792 158.735 324.242 158.735 324.242 170.625C324.242 182.516 323.444 182.526 323.444 194.417C323.444 206.307 323.678 206.307 323.678 218.208C323.678 230.109 323.395 230.109 323.395 241.999C323.395 253.89 324.33 253.89 324.33 265.791C324.33 277.691 323.171 277.691 323.171 289.582C323.171 301.483 322.587 301.483 322.587 313.373C322.587 325.264 324.067 325.274 324.067 337.165C324.067 349.055 323.911 349.065 323.911 360.956C323.911 372.847 324.564 372.857 324.564 384.747C324.564 396.638 322.47 396.648 322.47 408.539C322.47 420.439 324.495 420.439 324.495 432.33C324.495 444.221 324.534 444.231 324.534 456.121C324.534 468.012 324.534 468.022 324.534 479.913C324.534 491.803 323.2 491.813 323.2 503.704C323.2 515.605 324.116 515.605 324.116 527.495C324.116 539.396 324.573 539.396 324.573 551.287C324.573 563.177 322.256 563.187 322.256 575.078C322.256 586.969 322.869 586.979 322.869 598.869C322.869 610.76 324.106 610.76 324.106 622.661C324.106 634.561 323.22 634.551 323.22 646.452C323.22 658.353 324.398 658.353 324.398 670.243C324.398 682.134 323.093 682.134 323.093 694.035C323.093 705.935 323.57 705.935 323.57 717.826C323.57 729.717 322.538 729.717 322.538 741.617C322.538 753.518 324.895 753.518 324.895 765.409C324.895 777.299 324.836 777.299 324.836 789.2C324.836 801.101 323.132 801.101 323.132 812.991C323.132 824.882 322.568 824.892 322.568 836.783C322.568 848.673 322.568 848.673 322.568 860.574C322.568 872.475 324.242 872.475 324.242 884.365C324.242 896.256 322.889 896.266 322.889 908.157C322.889 920.047 324.914 920.057 324.914 931.948C324.914 943.849 322.938 943.849 322.938 955.739C322.938 967.63 324.417 967.64 324.417 979.531C324.417 991.421 322.314 991.431 322.314 1003.32C322.314 1015.21 323.269 1015.22 323.269 1027.11C323.269 1039.01 324.515 1039.01 324.515 1050.91C324.515 1062.82 323.434 1062.82 323.434 1074.71C323.434 1086.6 323.103 1086.61 323.103 1098.5C323.103 1110.4 324.048 1110.4 324.048 1122.29C324.048 1134.19 323.824 1134.19 323.824 1146.08C323.824 1157.97 324.671 1157.98 324.671 1169.87C324.671 1181.77 323.093 1181.77 323.093 1193.67C323.093 1201.61 323.103 1209.54 323.123 1217.46C323.123 1229.36 322.84 1229.36 322.84 1241.25C322.84 1253.15 324.057 1253.16 324.057 1265.05C324.057 1276.95 324.155 1276.95 324.155 1288.85C324.155 1300.75 323.093 1300.75 323.093 1312.65C323.093 1324.55 323.863 1324.55 323.863 1336.45C323.863 1348.35 323.502 1348.35 323.502 1360.25C323.502 1372.15 320.835 1372.48 323.337 1384.1C326.034 1396.66 332.021 1399.66 323.872 1408.16L323.843 1408.22Z" fill="#FFEBC2"/>
</svg>
