<svg width="768" height="884" viewBox="0 0 768 884" fill="none" xmlns="http://www.w3.org/2000/svg">
<path d="M765.04 880.664C759.627 887.735 757.245 880.89 749.622 880.89C741.998 880.89 741.998 879.676 734.375 879.676C726.751 879.676 726.751 879.484 719.128 879.484C711.504 879.484 711.504 880.295 703.881 880.295C696.258 880.295 696.258 879.751 688.634 879.751C681.011 879.751 681.011 879.643 673.387 879.643C665.764 879.643 665.764 879.433 658.141 879.433C650.517 879.433 650.517 879.618 642.894 879.618C635.27 879.618 635.27 880.948 627.647 880.948C620.024 880.948 620.024 880.605 612.4 880.605C604.777 880.605 604.777 881.158 597.153 881.158C589.53 881.158 589.53 879.936 581.906 879.936C574.283 879.936 574.283 881.015 566.66 881.015C559.036 881.015 559.036 879.534 551.413 879.534C543.789 879.534 543.789 881.241 536.166 881.241C528.543 881.241 528.543 879.726 520.919 879.726C513.296 879.726 513.296 879.685 505.679 879.685C498.062 879.685 498.055 879.576 490.438 879.576C485.356 879.576 480.274 879.576 475.191 879.576C467.568 879.576 467.568 879.676 459.951 879.676C452.327 879.676 452.327 879.551 444.704 879.551C437.081 879.551 437.081 879.785 429.457 879.785C421.834 879.785 421.834 881.291 414.21 881.291C406.587 881.291 406.587 881.183 398.964 881.183C391.34 881.183 391.34 879.551 383.717 879.551C376.093 879.551 376.093 880.371 368.47 880.371C360.846 880.371 360.846 880.655 353.223 880.655C345.6 880.655 345.6 881.258 337.976 881.258C330.353 881.258 330.353 880.848 322.729 880.848C315.106 880.848 315.106 880.538 307.483 880.538C299.859 880.538 299.859 880.153 292.236 880.153C284.612 880.153 284.612 879.768 276.989 879.768C269.365 879.768 269.365 880.756 261.742 880.756C254.119 880.756 254.119 879.442 246.495 879.442C238.872 879.442 238.872 880.58 231.248 880.58C223.625 880.58 223.625 879.643 216.002 879.643C208.378 879.643 208.378 881.149 200.755 881.149C193.131 881.149 193.131 879.433 185.508 879.433C177.884 879.433 177.884 881.392 170.261 881.392C162.638 881.392 162.638 879.936 155.014 879.936C147.391 879.936 147.391 880.948 139.767 880.948C132.144 880.948 132.144 879.936 124.521 879.936C116.897 879.936 116.897 881.291 109.274 881.291C101.65 881.291 101.65 880.647 94.0269 880.647C86.4035 880.647 86.4035 881.333 78.7801 881.333C71.1567 881.333 71.1567 881.308 63.5333 881.308C55.9099 881.308 55.9099 880.128 48.2864 880.128C40.663 880.128 40.663 880.923 33.0333 880.923C25.4035 880.923 25.4098 881.09 17.7801 881.09C10.1567 881.09 7.6854 887.844 2.27277 880.772C-3.09538 873.751 2.73018 870.47 2.73018 860.503C2.73018 850.536 3.13041 850.536 3.13041 840.568C3.13041 830.601 2.2156 830.601 2.2156 820.634C2.2156 810.666 2.17113 810.666 2.17113 800.699C2.17113 790.732 2.97159 790.732 2.97159 780.764C2.97159 770.797 2.76194 770.797 2.76194 760.83C2.76194 750.862 3.19394 750.862 3.19394 740.895C3.19394 730.928 3.04147 730.928 3.04147 720.96C3.04147 710.993 2.87629 710.993 2.87629 701.026C2.87629 691.058 3.12405 691.058 3.12405 681.091C3.12405 671.124 2.86994 671.124 2.86994 661.165C2.86994 651.198 2.01231 651.198 2.01231 641.239C2.01231 631.271 3.21935 631.271 3.21935 621.304C3.21935 611.337 2.95888 611.337 2.95888 601.378C2.95888 591.419 2.41889 591.41 2.41889 581.443C2.41889 571.476 2.83182 571.476 2.83182 561.517C2.83182 551.558 2.04407 551.549 2.04407 541.582C2.04407 531.615 2.38712 531.615 2.38712 521.656C2.38712 511.688 2.53324 511.688 2.53324 501.721C2.53324 491.754 2.673 491.754 2.673 481.786C2.673 471.819 2.18383 471.819 2.18383 461.852C2.18383 451.885 1.92337 451.885 1.92337 441.917C1.92337 431.95 2.24101 431.95 2.24101 421.983C2.24101 412.015 2.60312 412.015 2.60312 402.048C2.60312 392.081 3.0097 392.081 3.0097 382.113C3.0097 372.146 2.93347 372.146 2.93347 362.179C2.93347 352.211 2.93347 352.211 2.93347 342.244C2.93347 332.277 2.39983 332.277 2.39983 322.309C2.39983 312.342 2.9017 312.342 2.9017 302.375C2.9017 292.407 1.95513 292.407 1.95513 282.44C1.95513 272.473 2.69206 272.473 2.69206 262.505C2.69206 252.538 2.4443 252.538 2.4443 242.571C2.4443 232.603 1.90431 232.603 1.90431 222.636C1.90431 212.669 2.74924 212.669 2.74924 202.701C2.74924 192.734 1.86619 192.734 1.86619 182.767C1.86619 172.799 2.52689 172.799 2.52689 162.832C2.52689 152.865 2.12666 152.865 2.12666 142.897C2.12666 132.93 1.97419 132.93 1.97419 122.963C1.97419 112.995 1.87254 112.995 1.87254 103.028C1.87254 93.0608 1.81537 93.0608 1.81537 83.0934C1.81537 73.1261 2.73018 73.1261 2.73018 63.1588C2.73018 53.1915 2.6603 53.1915 2.6603 43.2241C2.6603 33.2568 2.93982 33.2568 2.93982 23.2811C2.93982 13.3054 -3.12079 10.0332 2.24736 3.0117C7.61552 -4.00979 10.1503 3.44688 17.7737 3.44688C25.3971 3.44688 25.3971 3.2795 33.0205 3.2795C40.644 3.2795 40.644 3.48872 48.2674 3.48872C55.8908 3.48872 55.8908 2.80248 63.5142 2.80248C71.1376 2.80248 71.1376 3.64773 78.761 3.64773C86.3845 3.64773 86.3844 4.07454 94.0079 4.07454C101.631 4.07454 101.631 2.99496 109.255 2.99496C116.878 2.99496 116.878 3.11212 124.502 3.11212C132.125 3.11212 132.125 2.6351 139.748 2.6351C147.372 2.6351 147.372 4.1666 154.995 4.1666C162.619 4.1666 162.619 2.68531 170.242 2.68531C177.865 2.68531 177.865 2.6602 185.489 2.6602C193.112 2.6602 193.112 2.6602 200.736 2.6602C208.359 2.6602 208.359 3.63936 215.983 3.63936C223.606 3.63936 223.606 2.96985 231.229 2.96985C238.853 2.96985 238.853 2.6351 246.476 2.6351C254.1 2.6351 254.1 4.32561 261.717 4.32561C269.334 4.32561 269.34 3.88206 276.957 3.88206C284.574 3.88206 284.581 2.97822 292.204 2.97822C299.827 2.97822 299.827 3.63099 307.444 3.63099C315.062 3.63099 315.068 2.769 322.691 2.769C330.315 2.769 330.315 3.72305 337.938 3.72305C345.562 3.72305 345.562 3.37156 353.185 3.37156C360.808 3.37156 360.808 4.12476 368.432 4.12476C376.055 4.12476 376.055 2.40077 383.679 2.40077C391.302 2.40077 391.302 2.44261 398.925 2.44261C406.549 2.44261 406.549 3.68958 414.172 3.68958C421.796 3.68958 421.796 4.09965 429.419 4.09965C437.042 4.09965 437.042 4.09965 444.666 4.09965C452.289 4.09965 452.289 2.8778 459.913 2.8778C467.536 2.8778 467.536 3.86532 475.16 3.86532C482.783 3.86532 482.783 2.38403 490.406 2.38403C498.03 2.38403 498.03 3.82348 505.653 3.82348C513.277 3.82348 513.277 2.74389 520.9 2.74389C528.523 2.74389 528.523 4.28377 536.147 4.28377C543.77 4.28377 543.77 3.58078 551.394 3.58078C559.017 3.58078 559.017 2.66857 566.641 2.66857C574.264 2.66857 574.264 3.46362 581.887 3.46362C589.511 3.46362 589.511 3.70631 597.134 3.70631C604.758 3.70631 604.758 3.02007 612.381 3.02007C620.004 3.02007 620.004 3.18744 627.628 3.18744C635.251 3.18744 635.251 2.56815 642.875 2.56815C650.498 2.56815 650.498 3.72305 658.122 3.72305C665.745 3.72305 665.745 3.70631 673.368 3.70631C680.992 3.70631 680.992 3.91554 688.615 3.91554C696.239 3.91554 696.239 3.02844 703.862 3.02844C711.485 3.02844 711.485 2.95312 719.109 2.95312C726.732 2.95312 726.732 3.73142 734.362 3.73142C741.992 3.73142 741.985 3.17071 749.615 3.17071C757.245 3.17071 759.43 -3.65829 764.849 3.42177C770.217 10.4433 764.748 13.364 764.748 23.3229C764.748 33.2819 764.462 33.2903 764.462 43.2576C764.462 53.2249 764.462 53.2249 764.462 63.1923C764.462 73.1596 765.51 73.1596 765.51 83.1269C765.51 93.0942 764.805 93.0942 764.805 103.062C764.805 113.029 765.535 113.029 765.535 122.996C765.535 132.964 765.364 132.964 765.364 142.931C765.364 152.898 764.278 152.898 764.278 162.866C764.278 172.833 765.313 172.833 765.313 182.8C765.313 192.768 764.271 192.767 764.271 202.735C764.271 212.702 765.434 212.702 765.434 222.661C765.434 232.628 764.811 232.628 764.811 242.587C764.811 252.555 764.608 252.555 764.608 262.522C764.608 272.489 765.466 272.489 765.466 282.448C765.466 292.407 765.116 292.416 765.116 302.383C765.116 312.35 764.951 312.35 764.951 322.309C764.951 332.277 765.497 332.277 765.497 342.244C765.497 352.211 764.417 352.211 764.417 362.17C764.417 372.138 765.523 372.138 765.523 382.105C765.523 392.072 764.976 392.072 764.976 402.039C764.976 412.007 765.021 412.007 765.021 421.974C765.021 431.941 764.366 431.941 764.366 441.909C764.366 451.876 765.008 451.876 765.008 461.843C765.008 471.811 764.373 471.811 764.373 481.778C764.373 491.745 765.618 491.745 765.618 501.713C765.618 511.68 765.447 511.68 765.447 521.647C765.447 531.615 765.014 531.615 765.014 541.582C765.014 551.549 764.392 551.549 764.392 561.517C764.392 571.484 765.427 571.484 765.427 581.451C765.427 591.419 764.284 591.419 764.284 601.386C764.284 611.353 764.76 611.353 764.76 621.321C764.76 631.288 764.176 631.288 764.176 641.255C764.176 651.223 765.567 651.223 765.567 661.19C765.567 671.157 764.487 671.157 764.487 681.125C764.487 691.092 764.614 691.092 764.614 701.059C764.614 711.027 764.678 711.027 764.678 720.994C764.678 730.961 764.246 730.961 764.246 740.929C764.246 750.896 765.447 750.896 765.447 760.863C765.447 770.831 765.218 770.831 765.218 780.798C765.218 790.765 765.103 790.765 765.103 800.733C765.103 810.7 764.9 810.7 764.9 820.667C764.9 830.635 764.786 830.635 764.786 840.602C764.786 850.569 763.795 850.645 765.427 860.378C767.187 870.889 770.402 873.684 765.034 880.706L765.04 880.664Z" fill="#FFEBC2"/>
</svg>
