<svg width="1200" height="1340" viewBox="0 0 1200 1340" fill="none" xmlns="http://www.w3.org/2000/svg">
<path d="M1195.79 1335.99C1187.35 1344.4 1183.58 1336.28 1171.67 1336.28C1159.76 1336.28 1159.76 1334.68 1147.85 1334.68C1135.94 1334.68 1135.94 1334.43 1124.03 1334.43C1112.12 1334.43 1112.12 1335.51 1100.21 1335.51C1088.3 1335.51 1088.3 1334.78 1076.39 1334.78C1064.48 1334.78 1064.48 1334.65 1052.57 1334.65C1040.66 1334.65 1040.66 1334.38 1028.75 1334.38C1016.84 1334.38 1016.84 1334.63 1004.93 1334.63C993.02 1334.63 993.02 1336.39 981.11 1336.39C969.2 1336.39 969.2 1335.94 957.29 1335.94C945.38 1335.94 945.38 1336.67 933.47 1336.67C921.56 1336.67 921.56 1335.05 909.65 1335.05C897.74 1335.05 897.74 1336.48 885.83 1336.48C873.92 1336.48 873.92 1334.52 862.01 1334.52C850.099 1334.52 850.099 1336.78 838.189 1336.78C826.279 1336.78 826.279 1334.77 814.369 1334.77C802.459 1334.77 802.459 1334.72 790.559 1334.72C778.659 1334.72 778.649 1334.57 766.749 1334.57C758.809 1334.57 750.869 1334.57 742.929 1334.57C731.019 1334.57 731.019 1334.71 719.119 1334.71C707.209 1334.71 707.209 1334.54 695.299 1334.54C683.389 1334.54 683.389 1334.84 671.478 1334.84C659.568 1334.84 659.568 1336.84 647.658 1336.84C635.748 1336.84 635.748 1336.69 623.838 1336.69C611.928 1336.69 611.928 1334.53 600.018 1334.53C588.108 1334.53 588.108 1335.62 576.198 1335.62C564.288 1335.62 564.288 1336 552.378 1336C540.468 1336 540.468 1336.79 528.558 1336.79C516.648 1336.79 516.648 1336.25 504.738 1336.25C492.828 1336.25 492.828 1335.83 480.918 1335.83C469.008 1335.83 469.008 1335.32 457.098 1335.32C445.188 1335.32 445.188 1334.81 433.278 1334.81C421.368 1334.81 421.368 1336.13 409.457 1336.13C397.547 1336.13 397.547 1334.38 385.637 1334.38C373.727 1334.38 373.727 1335.89 361.817 1335.89C349.907 1335.89 349.907 1334.65 337.997 1334.65C326.087 1334.65 326.087 1336.64 314.177 1336.64C302.267 1336.64 302.267 1334.37 290.357 1334.37C278.447 1334.37 278.447 1336.97 266.537 1336.97C254.627 1336.97 254.627 1335.04 242.717 1335.04C230.807 1335.04 230.807 1336.38 218.897 1336.38C206.987 1336.38 206.987 1335.04 195.077 1335.04C183.167 1335.04 183.167 1336.84 171.256 1336.84C159.346 1336.84 159.346 1335.99 147.436 1335.99C135.526 1335.99 135.526 1336.89 123.616 1336.89C111.706 1336.89 111.706 1336.85 99.7962 1336.85C87.8862 1336.85 87.8862 1335.28 75.9761 1335.28C64.0661 1335.28 64.0661 1336.34 52.1461 1336.34C40.236 1336.34 40.236 1336.57 28.3161 1336.57C16.406 1336.57 12.4856 1344.57 4.03943 1336.15C-4.40678 1327.72 4.83343 1323.82 4.83343 1311.94C4.83343 1300.05 5.52818 1300.05 5.52818 1288.16C5.52818 1276.27 3.94017 1276.28 3.94017 1264.39C3.94017 1252.5 3.86077 1252.51 3.86077 1240.62C3.86077 1228.73 5.26021 1228.74 5.26021 1216.85C5.26021 1204.95 4.89298 1204.96 4.89298 1193.07C4.89298 1181.18 5.64728 1181.19 5.64728 1169.3C5.64728 1157.41 5.37931 1157.42 5.37931 1145.53C5.37931 1133.64 5.09148 1133.65 5.09148 1121.76C5.09148 1109.86 5.51826 1109.87 5.51826 1097.98C5.51826 1086.09 5.08155 1086.1 5.08155 1074.21C5.08155 1062.32 3.58287 1062.33 3.58287 1050.44C3.58287 1038.55 5.68698 1038.56 5.68698 1026.66C5.68698 1014.77 5.23043 1014.78 5.23043 1002.89C5.23043 991.001 4.28755 991.01 4.28755 979.119C4.28755 967.228 5.01208 967.238 5.01208 955.347C5.01208 943.455 3.64242 943.465 3.64242 931.574C3.64242 919.683 4.24785 919.693 4.24785 907.801C4.24785 895.91 4.5059 895.92 4.5059 884.029C4.5059 872.137 4.75403 872.147 4.75403 860.256C4.75403 848.365 3.90047 848.375 3.90047 836.483C3.90047 824.592 3.44392 824.602 3.44392 812.711C3.44392 800.82 3.99973 800.829 3.99973 788.948C3.99973 777.067 4.63493 777.067 4.63493 765.185C4.63493 753.304 5.33961 753.304 5.33961 741.413C5.33961 729.521 5.20065 729.531 5.20065 717.65C5.20065 705.769 5.20065 705.769 5.20065 693.877C5.20065 681.986 4.2677 681.996 4.2677 670.115C4.2677 658.233 5.1411 658.233 5.1411 646.342C5.1411 634.451 3.48362 634.461 3.48362 622.579C3.48362 610.698 4.77388 610.698 4.77388 598.807C4.77388 586.915 4.3471 586.925 4.3471 575.034C4.3471 563.143 3.40422 563.153 3.40422 551.261C3.40422 539.37 4.87313 539.38 4.87313 527.489C4.87313 515.598 3.32482 515.598 3.32482 503.716C3.32482 491.835 4.48605 491.835 4.48605 479.944C4.48605 468.052 3.7913 468.062 3.7913 456.171C3.7913 444.28 3.52332 444.29 3.52332 432.398C3.52332 420.507 3.3546 420.517 3.3546 408.626C3.3546 396.734 3.25535 396.744 3.25535 384.853C3.25535 372.962 4.85328 372.962 4.85328 361.08C4.85328 349.199 4.73418 349.199 4.73418 337.308C4.73418 325.416 5.22051 325.416 5.22051 313.535C5.22051 301.654 3.82107 301.644 3.82107 289.762C3.82107 277.881 4.59523 277.871 4.59523 265.99C4.59523 254.108 4.36695 254.099 4.36695 242.217C4.36695 230.336 4.64485 230.326 4.64485 218.445C4.64485 206.563 3.74167 206.563 3.74167 194.672C3.74167 182.781 4.8632 182.791 4.8632 170.899C4.8632 159.008 5.42893 159.008 5.42893 147.127C5.42893 135.245 3.99973 135.235 3.99973 123.354C3.99973 111.473 4.1486 111.463 4.1486 99.5814C4.1486 87.7001 3.5134 87.6901 3.5134 75.8088C3.5134 63.9274 5.53811 63.9175 5.53811 52.0362C5.53811 40.1548 3.57295 40.1449 3.57295 28.2536C3.57295 16.3623 -4.60529 12.2197 3.80122 3.81536C12.2077 -4.589 16.3961 3.52727 28.3061 3.52727C40.2162 3.52727 40.2162 4.81872 52.1262 4.81872C64.0363 4.81872 64.0363 3.92464 75.9463 3.92464C87.8564 3.92464 87.8564 3.48753 99.7664 3.48753C111.676 3.48753 111.676 5.73267 123.587 5.73267C135.497 5.73267 135.497 5.13662 147.407 5.13662C159.317 5.13662 159.317 3.94451 171.227 3.94451C183.137 3.94451 183.137 4.80879 195.047 4.80879C206.957 4.80879 206.957 3.66635 218.867 3.66635C230.777 3.66635 230.777 4.93793 242.687 4.93793C254.597 4.93793 254.597 4.48096 266.507 4.48096C278.417 4.48096 278.417 5.48431 290.327 5.48431C302.237 5.48431 302.237 3.19944 314.147 3.19944C326.057 3.19944 326.057 3.25904 337.967 3.25904C349.877 3.25904 349.877 4.90813 361.787 4.90813C373.698 4.90813 373.698 5.45451 385.608 5.45451C397.518 5.45451 397.518 5.45451 409.418 5.45451C421.318 5.45451 421.328 3.83523 433.228 3.83523C445.128 3.83523 445.138 5.14655 457.048 5.14655C468.958 5.14655 468.958 3.17957 480.858 3.17957C492.758 3.17957 492.768 5.08694 504.678 5.08694C516.588 5.08694 516.588 3.65641 528.498 3.65641C540.408 3.65641 540.408 5.69293 552.318 5.69293C564.229 5.69293 564.229 4.76905 576.139 4.76905C588.049 4.76905 588.049 3.55707 599.959 3.55707C611.869 3.55707 611.869 4.6101 623.779 4.6101C635.689 4.6101 635.689 4.928 647.599 4.928C659.509 4.928 659.509 4.01405 671.419 4.01405C683.329 4.01405 683.329 4.2326 695.239 4.2326C707.149 4.2326 707.149 3.41799 719.059 3.41799C730.969 3.41799 730.969 4.94787 742.879 4.94787C754.789 4.94787 754.789 4.91806 766.699 4.91806C778.609 4.91806 778.609 5.19622 790.519 5.19622C802.429 5.19622 802.429 4.01405 814.34 4.01405C826.25 4.01405 826.25 3.9147 838.16 3.9147C850.07 3.9147 850.07 4.94787 861.98 4.94787C873.89 4.94787 873.89 4.2028 885.8 4.2028C897.71 4.2028 897.71 4.5505 909.62 4.5505C921.53 4.5505 921.53 4.71938 933.44 4.71938C945.35 4.71938 945.35 5.22602 957.26 5.22602C969.17 5.22602 969.17 5.22602 981.08 5.22602C992.99 5.22602 992.99 3.38819 1004.9 3.38819C1016.81 3.38819 1016.81 4.62004 1028.72 4.62004C1040.63 4.62004 1040.63 3.33852 1052.54 3.33852C1064.45 3.33852 1064.45 3.63655 1076.36 3.63655C1088.27 3.63655 1088.27 5.53399 1100.18 5.53399C1112.09 5.53399 1112.09 3.71602 1124 3.71602C1135.91 3.71602 1135.91 5.54392 1147.83 5.54392C1159.75 5.54392 1159.74 3.5074 1171.66 3.5074C1183.58 3.5074 1186.99 -3.85387 1195.43 4.57036C1203.87 12.9946 1195.05 16.402 1195.05 28.2834C1195.05 40.1647 1196.54 40.1647 1196.54 52.056C1196.54 63.9473 1195.93 63.9374 1195.93 75.8287C1195.93 87.71 1195.64 87.71 1195.64 99.6013C1195.64 111.493 1196.59 111.483 1196.59 123.374C1196.59 135.265 1194.71 135.255 1194.71 147.147C1194.71 159.028 1196.63 159.028 1196.63 170.919C1196.63 182.81 1195.68 182.801 1195.68 194.692C1195.68 206.583 1195.76 206.573 1195.76 218.464C1195.76 230.356 1194.62 230.346 1194.62 242.237C1194.62 254.128 1195.74 254.118 1195.74 266.01C1195.74 277.901 1194.63 277.891 1194.63 289.782C1194.63 301.674 1196.8 301.664 1196.8 313.555C1196.8 325.446 1196.5 325.436 1196.5 337.328C1196.5 349.219 1195.75 349.209 1195.75 361.1C1195.75 372.992 1194.67 372.982 1194.67 384.873C1194.67 396.764 1196.47 396.754 1196.47 408.646C1196.47 420.527 1194.48 420.527 1194.48 432.418C1194.48 444.309 1195.3 444.299 1195.3 456.191C1195.3 468.082 1194.28 468.072 1194.28 479.963C1194.28 491.845 1196.7 491.845 1196.7 503.736C1196.7 515.627 1194.83 515.617 1194.83 527.509C1194.83 539.39 1195.05 539.39 1195.05 551.271C1195.05 563.153 1195.16 563.153 1195.16 575.034C1195.16 586.915 1194.41 586.915 1194.41 598.807C1194.41 610.698 1196.5 610.688 1196.5 622.569C1196.5 634.451 1196.11 634.451 1196.11 646.342C1196.11 658.223 1195.91 658.223 1195.91 670.105C1195.91 681.986 1195.56 681.986 1195.56 693.877C1195.56 705.759 1195.36 705.759 1195.36 717.64C1195.36 729.521 1196.5 729.521 1196.5 741.413C1196.5 753.294 1195.01 753.294 1195.01 765.185C1195.01 777.077 1196.08 777.067 1196.08 788.958C1196.08 800.839 1195.4 800.839 1195.4 812.731C1195.4 824.622 1195.1 824.622 1195.1 836.503C1195.1 848.385 1194.81 848.385 1194.81 860.276C1194.81 872.167 1195.16 872.157 1195.16 884.049C1195.16 895.94 1195.4 895.93 1195.4 907.821C1195.4 919.712 1194.97 919.703 1194.97 931.594C1194.97 943.485 1196.77 943.475 1196.77 955.366C1196.77 967.258 1196.66 967.258 1196.66 979.139C1196.66 991.02 1195.24 991.02 1195.24 1002.91C1195.24 1014.8 1194.41 1014.8 1194.41 1026.68C1194.41 1038.57 1196.13 1038.58 1196.13 1050.46C1196.13 1062.35 1195.44 1062.35 1195.44 1074.23C1195.44 1086.11 1195.86 1086.12 1195.86 1098C1195.86 1109.88 1194.88 1109.89 1194.88 1121.77C1194.88 1133.66 1195.12 1133.66 1195.12 1145.55C1195.12 1157.44 1194.33 1157.43 1194.33 1169.32C1194.33 1177.25 1194.34 1185.17 1194.36 1193.09C1194.36 1204.98 1195.46 1204.98 1195.46 1216.87C1195.46 1228.75 1195.16 1228.76 1195.16 1240.64C1195.16 1252.52 1195.63 1252.53 1195.63 1264.41C1195.63 1276.29 1196.25 1276.3 1196.25 1288.18C1196.25 1300.07 1192.53 1300.44 1195.09 1312.06C1197.86 1324.6 1204.21 1327.64 1195.8 1336.05L1195.79 1335.99Z" fill="#FFEBC2"/>
</svg>
  