<svg width="1200" height="900" viewBox="0 0 1200 900" fill="none" xmlns="http://www.w3.org/2000/svg">
<path d="M1195.75 896.06C1187.27 904.41 1183.57 896.328 1171.65 896.328C1159.74 896.328 1159.74 894.891 1147.83 894.891C1135.92 894.891 1135.92 894.664 1124.01 894.664C1112.1 894.664 1112.1 895.624 1100.19 895.624C1088.27 895.624 1088.27 894.981 1076.36 894.981C1064.45 894.981 1064.45 894.852 1052.54 894.852C1040.63 894.852 1040.63 894.604 1028.72 894.604C1016.8 894.604 1016.81 894.822 1004.89 894.822C992.982 894.822 992.982 896.397 981.071 896.397C969.159 896.397 969.159 895.991 957.248 895.991C945.336 895.991 945.336 896.645 933.425 896.645C921.513 896.645 921.513 895.198 909.602 895.198C897.69 895.198 897.69 896.476 885.779 896.476C873.867 896.476 873.867 894.723 861.956 894.723C850.044 894.723 850.044 896.744 838.133 896.744C826.221 896.744 826.221 894.951 814.31 894.951C802.398 894.951 802.398 894.901 790.497 894.901C778.595 894.901 778.585 894.773 766.684 894.773C754.782 894.773 754.772 894.773 742.861 894.773C730.949 894.773 730.95 894.891 719.048 894.891C707.146 894.891 707.136 894.743 695.225 894.743C683.314 894.743 683.314 895.02 671.402 895.02C659.491 895.02 659.491 896.803 647.579 896.803C635.668 896.803 635.668 896.674 623.756 896.674C611.845 896.674 611.845 894.743 599.933 894.743C588.022 894.743 588.022 895.714 576.11 895.714C564.199 895.714 564.199 896.05 552.287 896.05C540.376 896.05 540.376 896.763 528.464 896.763C516.553 896.763 516.553 896.278 504.641 896.278C492.73 896.278 492.73 895.912 480.818 895.912C468.907 895.912 468.907 895.456 456.995 895.456C445.084 895.456 445.084 895 433.173 895C421.261 895 421.261 896.169 409.35 896.169C397.438 896.169 397.438 894.614 385.527 894.614C373.615 894.614 373.615 895.961 361.704 895.961C349.792 895.961 349.792 894.852 337.881 894.852C325.969 894.852 325.969 896.635 314.058 896.635C302.146 896.635 302.146 894.604 290.235 894.604C278.323 894.604 278.323 896.922 266.412 896.922C254.5 896.922 254.5 895.198 242.589 895.198C230.677 895.198 230.677 896.397 218.766 896.397C206.855 896.397 206.855 895.198 194.943 895.198C183.032 895.198 183.032 896.803 171.12 896.803C159.209 896.803 159.209 896.04 147.297 896.04C135.386 896.04 135.386 896.853 123.474 896.853C111.563 896.853 111.563 896.823 99.6513 896.823C87.7398 896.823 87.7398 895.426 75.8283 895.426C63.9168 895.426 63.9168 896.367 51.9954 896.367C40.074 896.367 40.084 896.565 28.1626 896.565C16.2412 896.565 12.4196 904.538 3.93263 896.189C-4.55429 887.839 4.64732 884.066 4.64732 872.329C4.64732 860.592 5.27267 860.602 5.27267 848.875C5.27267 837.148 3.8433 837.148 3.8433 825.421C3.8433 813.694 3.77381 813.694 3.77381 801.967C3.77381 790.24 5.02452 790.24 5.02452 778.513C5.02452 766.786 4.69695 766.786 4.69695 755.059C4.69695 743.332 5.37193 743.332 5.37193 731.605C5.37193 719.878 5.13371 719.878 5.13371 708.151C5.13371 696.424 4.87562 696.424 4.87562 684.697C4.87562 672.97 5.26275 672.97 5.26275 661.244C5.26275 649.517 4.8657 649.517 4.8657 637.79C4.8657 626.063 3.52566 626.063 3.52566 614.336C3.52566 602.609 5.41164 602.609 5.41164 590.882C5.41164 579.155 5.00466 579.155 5.00466 567.428C5.00466 555.701 4.16093 555.701 4.16093 543.974C4.16093 532.247 4.80614 532.247 4.80614 520.52C4.80614 508.793 3.57529 508.793 3.57529 497.056C3.57529 485.329 4.1113 485.329 4.1113 473.602C4.1113 461.875 4.33961 461.875 4.33961 450.148C4.33961 438.421 4.55798 438.421 4.55798 426.694C4.55798 414.967 3.79366 414.967 3.79366 403.24C3.79366 391.513 3.38669 391.513 3.38669 379.786C3.38669 368.059 3.883 368.059 3.883 356.323C3.883 344.586 4.4488 344.596 4.4488 332.869C4.4488 321.142 5.08407 321.142 5.08407 309.405C5.08407 297.678 4.96496 297.678 4.96496 285.941C4.96496 274.204 4.96496 274.214 4.96496 262.477C4.96496 250.75 4.13116 250.75 4.13116 239.013C4.13116 227.276 4.91533 227.286 4.91533 215.55C4.91533 203.813 3.43632 203.823 3.43632 192.096C3.43632 180.369 4.58776 180.369 4.58776 168.642C4.58776 156.915 4.20064 156.915 4.20064 145.178C4.20064 133.441 3.35691 133.451 3.35691 121.714C3.35691 109.987 4.6771 109.987 4.6771 98.2501C4.6771 86.5232 3.29735 86.5232 3.29735 74.7863C3.29735 63.0494 4.32968 63.0593 4.32968 51.3225C4.32968 39.5856 3.70433 39.5856 3.70433 27.8586C3.70433 16.1317 -4.64363 12.0114 3.72418 3.77081C12.092 -4.46977 16.2511 3.36472 28.1626 3.36472C40.074 3.36472 40.074 3.27558 51.9855 3.27558C63.897 3.27558 63.897 4.70183 75.8085 4.70183C87.7199 4.70183 87.7199 4.59288 99.6314 4.59288C111.543 4.59288 111.543 5.02868 123.454 5.02868C135.366 5.02868 135.366 3.77081 147.277 3.77081C159.189 3.77081 159.189 4.46412 171.1 4.46412C183.012 4.46412 183.012 4.26603 194.923 4.26603C206.835 4.26603 206.835 4.51365 218.746 4.51365C230.658 4.51365 230.658 3.70147 242.569 3.70147C254.481 3.70147 254.481 4.70183 266.392 4.70183C278.304 4.70183 278.304 5.20696 290.215 5.20696C302.126 5.20696 302.126 3.92928 314.038 3.92928C325.949 3.92928 325.949 4.06794 337.861 4.06794C349.772 4.06794 349.772 3.50338 361.684 3.50338C373.595 3.50338 373.595 5.31591 385.507 5.31591C397.418 5.31591 397.418 3.56281 409.32 3.56281C421.221 3.56281 421.231 3.5331 433.133 3.5331C445.034 3.5331 445.044 3.5331 456.956 3.5331C468.867 3.5331 468.867 4.69193 480.769 4.69193C492.67 4.69193 492.68 3.89956 504.592 3.89956C516.503 3.89956 516.503 3.50338 528.415 3.50338C540.326 3.50338 540.326 5.5041 552.238 5.5041C564.149 5.5041 564.149 4.97916 576.061 4.97916C587.972 4.97916 587.972 3.90947 599.884 3.90947C611.795 3.90947 611.795 4.68202 623.706 4.68202C635.618 4.68202 635.618 3.66186 647.529 3.66186C659.441 3.66186 659.441 4.79097 671.352 4.79097C683.264 4.79097 683.264 4.37498 695.175 4.37498C707.087 4.37498 707.087 5.26639 718.998 5.26639C730.91 5.26639 730.91 3.22606 742.821 3.22606C754.733 3.22606 754.733 3.27558 766.644 3.27558C778.556 3.27558 778.556 4.75135 790.467 4.75135C802.379 4.75135 802.379 5.23668 814.29 5.23668C826.202 5.23668 826.202 5.23668 838.113 5.23668C850.024 5.23668 850.024 3.79061 861.936 3.79061C873.847 3.79061 873.847 4.95935 885.759 4.95935C897.67 4.95935 897.67 3.20625 909.582 3.20625C921.493 3.20625 921.493 4.90983 933.405 4.90983C945.316 4.90983 945.316 3.63214 957.228 3.63214C969.139 3.63214 969.139 5.45458 981.051 5.45458C992.962 5.45458 992.962 4.62259 1004.87 4.62259C1016.79 4.62259 1016.79 3.543 1028.7 3.543C1040.61 3.543 1040.61 4.48393 1052.52 4.48393C1064.43 4.48393 1064.43 4.77116 1076.34 4.77116C1088.25 4.77116 1088.25 3.95899 1100.17 3.95899C1112.08 3.95899 1112.08 4.15708 1123.99 4.15708C1135.9 4.15708 1135.9 3.42415 1147.82 3.42415C1159.74 3.42415 1159.73 4.79097 1171.65 4.79097C1183.58 4.79097 1186.74 -3.68731 1195.22 4.66221C1203.7 13.0117 1194.86 16.1218 1194.86 27.8487C1194.86 39.5757 1195.91 39.5757 1195.91 51.3027C1195.91 63.0296 1196 63.0296 1196 74.7566C1196 86.4835 1195.08 86.4835 1195.08 98.2105C1195.08 109.937 1195.75 109.937 1195.75 121.664C1195.75 133.391 1195.44 133.391 1195.44 145.118C1195.44 156.845 1195.29 156.845 1195.29 168.572C1195.29 180.299 1194.84 180.299 1194.84 192.026C1194.84 203.753 1194.84 203.753 1194.84 215.48C1194.84 227.207 1196.48 227.207 1196.48 238.934C1196.48 250.661 1195.38 250.661 1195.38 262.388C1195.38 274.115 1196.52 274.115 1196.52 285.842C1196.52 297.569 1196.25 297.569 1196.25 309.296C1196.25 321.023 1194.55 321.023 1194.55 332.75C1194.55 344.477 1196.17 344.477 1196.17 356.204C1196.17 367.931 1194.54 367.931 1194.54 379.658C1194.54 391.385 1196.36 391.385 1196.36 403.122C1196.36 414.848 1195.39 414.848 1195.39 426.575C1195.39 438.302 1195.07 438.302 1195.07 450.029C1195.07 461.756 1196.41 461.756 1196.41 473.483C1196.41 485.21 1195.86 485.21 1195.86 496.937C1195.86 508.664 1195.61 508.664 1195.61 520.391C1195.61 532.118 1196.46 532.118 1196.46 543.855C1196.46 555.592 1194.77 555.582 1194.77 567.309C1194.77 579.036 1196.5 579.036 1196.5 590.773C1196.5 602.51 1195.65 602.5 1195.65 614.237C1195.65 625.974 1195.72 625.964 1195.72 637.7C1195.72 649.437 1194.69 649.427 1194.69 661.164C1194.69 672.891 1195.7 672.891 1195.7 684.628C1195.7 696.365 1194.7 696.355 1194.7 708.082C1194.7 719.809 1196.65 719.809 1196.65 731.536C1196.65 743.263 1196.38 743.263 1196.38 755C1196.38 766.737 1195.71 766.727 1195.71 778.464C1195.71 790.191 1194.73 790.191 1194.73 801.928C1194.73 813.664 1196.35 813.654 1196.35 825.391C1196.35 837.118 1194.56 837.118 1194.56 848.855C1194.56 860.592 1192.77 860.899 1195.31 872.359C1198.05 884.739 1204.1 887.81 1195.74 896.06H1195.75Z" fill="#FFEBC2"/>
</svg>
