<svg width="768" height="1388" viewBox="0 0 768 1388" fill="none" xmlns="http://www.w3.org/2000/svg">
<path d="M763.361 1383.93C755.009 1392.93 751.164 1384.19 739.302 1384.19C727.44 1384.19 727.44 1383.12 715.589 1383.12C703.737 1383.12 703.727 1383.89 691.865 1383.89C680.004 1383.89 680.004 1383.53 668.152 1383.53C656.3 1383.53 656.29 1383.36 644.429 1383.36C632.567 1383.36 632.567 1382.85 620.705 1382.85C608.844 1382.85 608.844 1382.85 596.982 1382.85C585.12 1382.85 585.12 1384.75 573.259 1384.75C561.397 1384.75 561.397 1383.48 549.536 1383.48C537.674 1383.48 537.674 1384.81 525.812 1384.81C513.951 1384.81 513.951 1384.5 502.089 1384.5C490.228 1384.5 490.228 1382.54 478.366 1382.54C466.504 1382.54 466.504 1384.42 454.643 1384.42C442.781 1384.42 442.781 1382.53 430.919 1382.53C419.058 1382.53 419.058 1384.63 407.196 1384.63C395.334 1384.63 395.334 1383.51 383.473 1383.51C371.611 1383.51 371.611 1383.14 359.75 1383.14C347.888 1383.14 347.888 1384.69 336.026 1384.69C324.165 1384.69 324.165 1384.06 312.303 1384.06C300.441 1384.06 300.441 1383.76 288.58 1383.76C276.718 1383.76 276.718 1384.75 264.857 1384.75C252.995 1384.75 252.995 1382.79 241.133 1382.79C229.272 1382.79 229.272 1384.79 217.41 1384.79C205.548 1384.79 205.548 1383.8 193.687 1383.8C181.825 1383.8 181.825 1383.87 169.964 1383.87C158.102 1383.87 158.102 1382.69 146.24 1382.69C134.379 1382.69 134.379 1383.85 122.517 1383.85C110.655 1383.85 110.655 1382.7 98.7938 1382.7C86.9322 1382.7 86.9322 1384.95 75.0706 1384.95C63.209 1384.95 63.209 1384.64 51.3473 1384.64C39.4857 1384.64 39.4857 1383.86 27.6142 1383.86C15.7427 1383.86 12.8069 1391.99 4.44448 1382.99C-3.97728 1373.93 2.92223 1370.83 2.92223 1358.06C2.92223 1345.29 4.85963 1345.29 4.85963 1332.52C4.85963 1319.75 4.05897 1319.75 4.05897 1306.98C4.05897 1294.21 5.04744 1294.21 5.04744 1281.44C5.04744 1268.67 2.69489 1268.67 2.69489 1255.89C2.69489 1243.12 4.51367 1243.12 4.51367 1230.35C4.51367 1217.58 4.29621 1217.58 4.29621 1204.82C4.29621 1192.05 4.19736 1192.05 4.19736 1179.28C4.19736 1166.51 4.92883 1166.51 4.92883 1153.74C4.92883 1140.97 2.89258 1140.97 2.89258 1128.2C2.89258 1115.43 3.27808 1115.43 3.27808 1102.65C3.27808 1089.88 3.47578 1089.88 3.47578 1077.11C3.47578 1064.34 3.81186 1064.34 3.81186 1051.57C3.81186 1038.8 3.99967 1038.8 3.99967 1026.03C3.99967 1013.26 2.89258 1013.26 2.89258 1000.5C2.89258 987.726 4.33574 987.726 4.33574 974.947C4.33574 962.167 3.29785 962.177 3.29785 949.408C3.29785 936.639 3.96013 936.639 3.96013 923.869C3.96013 911.1 4.24678 911.1 4.24678 898.32C4.24678 885.54 4.53344 885.551 4.53344 872.782C4.53344 860.012 4.18747 860.012 4.18747 847.243C4.18747 834.474 3.95024 834.474 3.95024 821.704C3.95024 808.935 4.35551 808.935 4.35551 796.166C4.35551 783.397 2.60592 783.396 2.60592 770.627C2.60592 757.858 2.70477 757.858 2.70477 745.078C2.70477 732.309 4.08863 732.309 4.08863 719.539C4.08863 706.77 4.89917 706.77 4.89917 693.99C4.89917 681.221 3.23854 681.221 3.23854 668.452C3.23854 655.682 3.90082 655.682 3.90082 642.913C3.90082 630.144 3.49555 630.144 3.49555 617.375C3.49555 604.605 4.44448 604.605 4.44448 591.836C4.44448 579.067 4.20724 579.067 4.20724 566.297C4.20724 553.528 4.97825 553.528 4.97825 540.748C4.97825 527.968 4.9486 527.979 4.9486 515.21C4.9486 502.44 3.88105 502.44 3.88105 489.671C3.88105 476.902 4.1677 476.902 4.1677 464.132C4.1677 451.363 3.71301 451.363 3.71301 438.594C3.71301 425.825 3.11993 425.825 3.11993 413.045C3.11993 400.265 4.24678 400.275 4.24678 387.495C4.24678 374.726 4.11828 374.726 4.11828 361.946C4.11828 349.166 5.10675 349.177 5.10675 336.397C5.10675 323.617 3.62405 323.628 3.62405 310.848C3.62405 298.068 3.31762 298.079 3.31762 285.299C3.31762 272.519 2.92223 272.53 2.92223 259.75C2.92223 246.97 3.66359 246.98 3.66359 234.201C3.66359 221.431 2.82339 221.431 2.82339 208.662C2.82339 195.893 3.8514 195.893 3.8514 183.113C3.8514 170.343 3.94036 170.343 3.94036 157.564C3.94036 144.784 2.66523 144.794 2.66523 132.014C2.66523 119.235 4.19736 119.235 4.19736 106.465C4.19736 93.696 3.60428 93.696 3.60428 80.9161C3.60428 68.1363 4.55321 68.1363 4.55321 55.367C4.55321 42.5977 3.77232 42.5871 3.77232 29.8178C3.77232 17.038 -4.68898 13.2146 3.73278 4.14192C12.1545 -4.93072 15.713 3.73001 27.5648 3.73001C39.4165 3.73001 39.4264 4.08911 51.2781 4.08911C63.1299 4.08911 63.1398 5.39878 75.0014 5.39878C86.863 5.39878 86.863 4.73339 98.7148 4.73339C110.566 4.73339 110.576 3.29697 122.438 3.29697C134.3 3.29697 134.3 4.80732 146.161 4.80732C158.023 4.80732 158.023 5.03968 169.885 5.03968C181.746 5.03968 181.746 3.0963 193.608 3.0963C205.469 3.0963 205.469 3.96237 217.331 3.96237C229.193 3.96237 229.193 5.5044 241.054 5.5044C252.916 5.5044 252.916 4.32147 264.778 4.32147C276.639 4.32147 276.639 3.77226 288.501 3.77226C300.362 3.77226 300.362 4.839 312.224 4.839C324.086 4.839 324.086 3.50821 335.947 3.50821C347.809 3.50821 347.809 5.1453 359.671 5.1453C371.532 5.1453 371.532 4.87069 383.394 4.87069C395.255 4.87069 395.255 4.28979 407.117 4.28979C418.979 4.28979 418.979 5.5044 430.84 5.5044C442.702 5.5044 442.702 5.41991 454.564 5.41991C466.425 5.41991 466.425 4.76507 478.287 4.76507C490.148 4.76507 490.148 4.9235 502.01 4.9235C513.872 4.9235 513.872 3.20191 525.733 3.20191C537.595 3.20191 537.595 3.58214 549.457 3.58214C561.318 3.58214 561.318 4.73339 573.18 4.73339C585.041 4.73339 585.041 5.3671 596.903 5.3671C608.765 5.3671 608.765 4.37428 620.626 4.37428C632.488 4.37428 632.488 3.26529 644.35 3.26529C656.211 3.26529 656.211 3.13854 668.073 3.13854C679.934 3.13854 679.934 5.16642 691.796 5.16642C703.658 5.16642 703.658 3.46596 715.519 3.46596C727.381 3.46596 727.381 4.89181 739.252 4.89181C751.124 4.89181 753.813 -3.8851 762.175 5.10305C770.538 14.0912 763.885 17.0168 763.885 29.7861C763.885 42.5554 763.262 42.5554 763.262 55.3247C763.262 68.094 761.849 68.094 761.849 80.8633C761.849 93.6326 763.104 93.6326 763.104 106.402C763.104 119.171 762.106 119.171 762.106 131.951C762.106 144.72 762.976 144.72 762.976 157.49C762.976 170.259 762.778 170.259 762.778 183.028C762.778 195.798 762.225 195.798 762.225 208.567C762.225 221.336 761.71 221.336 761.71 234.105C761.71 246.875 763.055 246.875 763.055 259.644C763.055 272.413 763.183 272.413 763.183 285.193C763.183 297.963 761.898 297.963 761.898 310.732C761.898 323.501 764.004 323.501 764.004 336.27C764.004 349.04 762.897 349.04 762.897 361.809C762.897 374.578 763.302 374.578 763.302 387.348C763.302 400.117 762.669 400.117 762.669 412.897C762.669 425.677 761.79 425.666 761.79 438.435C761.79 451.205 763.855 451.205 763.855 463.974C763.855 476.743 762.867 476.743 762.867 489.523C762.867 502.303 761.72 502.292 761.72 515.062C761.72 527.831 762.877 527.831 762.877 540.6C762.877 553.37 763.776 553.37 763.776 566.139C763.776 578.908 763.361 578.908 763.361 591.677C763.361 604.447 763.757 604.447 763.757 617.216C763.757 629.985 761.908 629.985 761.908 642.765C761.908 655.535 762.393 655.535 762.393 668.304C762.393 681.073 763.055 681.073 763.055 693.853C763.055 706.633 761.839 706.622 761.839 719.392C761.839 732.161 762.699 732.161 762.699 744.93C762.699 757.7 761.938 757.7 761.938 770.469C761.938 783.238 762.363 783.238 762.363 796.007C762.363 808.777 763.401 808.777 763.401 821.546C763.401 834.315 763.154 834.315 763.154 847.095C763.154 859.875 763.786 859.864 763.786 872.634C763.786 885.403 762.076 885.403 762.076 898.172C762.076 910.942 762.501 910.942 762.501 923.711C762.501 936.48 763.865 936.48 763.865 949.25C763.865 962.019 763.865 962.019 763.865 974.799C763.865 987.579 761.859 987.568 761.859 1000.35C761.859 1013.12 761.977 1013.12 761.977 1025.9C761.977 1038.68 763.984 1038.67 763.984 1051.45C763.984 1064.23 762.897 1064.22 762.897 1077C762.897 1089.78 761.958 1089.76 761.958 1102.54C761.958 1115.32 761.898 1115.31 761.898 1128.09C761.898 1140.86 763.974 1140.86 763.974 1153.64C763.974 1166.42 763.233 1166.41 763.233 1179.18C763.233 1191.95 762.867 1191.95 762.867 1204.73C762.867 1217.51 763.964 1217.5 763.964 1230.28C763.964 1243.05 762.482 1243.05 762.482 1255.83C762.482 1268.61 763.421 1268.61 763.421 1281.38C763.421 1294.15 763.213 1294.15 763.213 1306.93C763.213 1319.71 762.383 1319.71 762.383 1332.48C762.383 1345.25 761.404 1345.32 763.984 1357.79C766.771 1371.29 771.743 1374.86 763.322 1383.93H763.361Z" fill="#FFEBC2"/>
</svg>
