<svg width="768" height="1306" viewBox="0 0 768 1306" fill="none" xmlns="http://www.w3.org/2000/svg">
<path d="M763.36 1302.17C755.008 1310.64 751.163 1302.41 739.301 1302.41C727.439 1302.41 727.439 1301.41 715.588 1301.41C703.736 1301.41 703.726 1302.13 691.865 1302.13C680.003 1302.13 680.003 1301.8 668.151 1301.8C656.299 1301.8 656.29 1301.64 644.428 1301.64C632.566 1301.64 632.566 1301.15 620.705 1301.15C608.843 1301.15 608.843 1301.15 596.981 1301.15C585.12 1301.15 585.12 1302.94 573.258 1302.94C561.397 1302.94 561.397 1301.75 549.535 1301.75C537.673 1301.75 537.673 1303 525.812 1303C513.95 1303 513.95 1302.71 502.089 1302.71C490.227 1302.71 490.227 1300.86 478.365 1300.86C466.504 1300.86 466.504 1302.63 454.642 1302.63C442.781 1302.63 442.781 1300.85 430.919 1300.85C419.057 1300.85 419.057 1302.83 407.196 1302.83C395.334 1302.83 395.334 1301.78 383.472 1301.78C371.611 1301.78 371.611 1301.43 359.749 1301.43C347.888 1301.43 347.888 1302.89 336.026 1302.89C324.164 1302.89 324.164 1302.29 312.303 1302.29C300.441 1302.29 300.441 1302.01 288.58 1302.01C276.718 1302.01 276.718 1302.94 264.856 1302.94C252.995 1302.94 252.995 1301.1 241.133 1301.1C229.271 1301.1 229.271 1302.98 217.41 1302.98C205.548 1302.98 205.548 1302.04 193.687 1302.04C181.825 1302.04 181.825 1302.11 169.963 1302.11C158.102 1302.11 158.102 1301 146.24 1301C134.379 1301 134.379 1302.09 122.517 1302.09C110.655 1302.09 110.655 1301.01 98.7937 1301.01C86.9321 1301.01 86.9321 1303.13 75.0705 1303.13C63.2089 1303.13 63.2089 1302.84 51.3473 1302.84C39.4857 1302.84 39.4857 1302.1 27.6142 1302.1C15.7427 1302.1 12.8069 1309.76 4.44447 1301.29C-3.97727 1292.76 2.92223 1289.84 2.92223 1277.83C2.92223 1265.81 4.85963 1265.81 4.85963 1253.8C4.85963 1241.78 4.05897 1241.78 4.05897 1229.77C4.05897 1217.75 5.04744 1217.75 5.04744 1205.74C5.04744 1193.72 2.69488 1193.72 2.69488 1181.7C2.69488 1169.68 4.51366 1169.68 4.51366 1157.67C4.51366 1145.65 4.2962 1145.65 4.2962 1133.64C4.2962 1121.62 4.19735 1121.62 4.19735 1109.61C4.19735 1097.59 4.92882 1097.59 4.92882 1085.58C4.92882 1073.56 2.89258 1073.56 2.89258 1061.55C2.89258 1049.53 3.27808 1049.53 3.27808 1037.51C3.27808 1025.49 3.47577 1025.49 3.47577 1013.48C3.47577 1001.46 3.81185 1001.46 3.81185 989.448C3.81185 977.433 3.99966 977.433 3.99966 965.418C3.99966 953.403 2.89258 953.403 2.89258 941.389C2.89258 929.374 4.33574 929.374 4.33574 917.349C4.33574 905.324 3.29785 905.334 3.29785 893.319C3.29785 881.304 3.96012 881.304 3.96012 869.289C3.96012 857.274 4.24678 857.274 4.24678 845.249C4.24678 833.225 4.53343 833.234 4.53343 821.22C4.53343 809.205 4.18747 809.205 4.18747 797.19C4.18747 785.175 3.95024 785.175 3.95024 773.16C3.95024 761.145 4.35551 761.145 4.35551 749.13C4.35551 737.115 2.60592 737.115 2.60592 725.1C2.60592 713.085 2.70477 713.085 2.70477 701.06C2.70477 689.046 4.08862 689.046 4.08862 677.031C4.08862 665.016 4.89917 665.016 4.89917 652.991C4.89917 640.976 3.23854 640.976 3.23854 628.961C3.23854 616.946 3.90081 616.946 3.90081 604.931C3.90081 592.916 3.49554 592.916 3.49554 580.901C3.49554 568.886 4.44447 568.886 4.44447 556.872C4.44447 544.857 4.20724 544.857 4.20724 532.842C4.20724 520.827 4.97824 520.827 4.97824 508.802C4.97824 496.777 4.94859 496.787 4.94859 484.772C4.94859 472.757 3.88105 472.757 3.88105 460.742C3.88105 448.727 4.1677 448.727 4.1677 436.712C4.1677 424.698 3.71301 424.698 3.71301 412.683C3.71301 400.668 3.11992 400.668 3.11992 388.643C3.11992 376.618 4.24678 376.628 4.24678 364.603C4.24678 352.588 4.11828 352.588 4.11828 340.563C4.11828 328.538 5.10675 328.548 5.10675 316.524C5.10675 304.499 3.62404 304.509 3.62404 292.484C3.62404 280.459 3.31762 280.469 3.31762 268.444C3.31762 256.419 2.92223 256.429 2.92223 244.404C2.92223 232.379 3.66358 232.389 3.66358 220.364C3.66358 208.35 2.82338 208.35 2.82338 196.335C2.82338 184.32 3.85139 184.32 3.85139 172.295C3.85139 160.28 3.94035 160.28 3.94035 148.255C3.94035 136.23 2.66523 136.24 2.66523 124.215C2.66523 112.19 4.19735 112.19 4.19735 100.176C4.19735 88.1606 3.60427 88.1606 3.60427 76.1358C3.60427 64.1109 4.5532 64.1109 4.5532 52.096C4.5532 40.0811 3.77231 40.0712 3.77231 28.0563C3.77231 16.0314 -4.68897 12.4339 3.73277 3.89723C12.1545 -4.63943 15.713 3.50965 27.5647 3.50965C39.4165 3.50965 39.4263 3.84754 51.2781 3.84754C63.1298 3.84754 63.1397 5.07983 75.0013 5.07983C86.8629 5.07983 86.8629 4.45375 98.7146 4.45375C110.566 4.45375 110.576 3.10219 122.438 3.10219C134.299 3.10219 134.299 4.52331 146.161 4.52331C158.023 4.52331 158.023 4.74195 169.884 4.74195C181.746 4.74195 181.746 2.91337 193.608 2.91337C205.469 2.91337 205.469 3.72828 217.331 3.72828C229.192 3.72828 229.192 5.17921 241.054 5.17921C252.916 5.17921 252.916 4.06617 264.777 4.06617C276.639 4.06617 276.639 3.5494 288.5 3.5494C300.362 3.5494 300.362 4.55313 312.224 4.55313C324.085 4.55313 324.085 3.30095 335.947 3.30095C347.809 3.30095 347.809 4.84133 359.67 4.84133C371.532 4.84133 371.532 4.58294 383.393 4.58294C395.255 4.58294 395.255 4.03636 407.117 4.03636C418.978 4.03636 418.978 5.17921 430.84 5.17921C442.701 5.17921 442.701 5.09971 454.563 5.09971C466.425 5.09971 466.425 4.48356 478.286 4.48356C490.148 4.48356 490.148 4.63263 502.009 4.63263C513.871 4.63263 513.871 3.01275 525.733 3.01275C537.594 3.01275 537.594 3.37052 549.456 3.37052C561.318 3.37052 561.318 4.45375 573.179 4.45375C585.041 4.45375 585.041 5.05002 596.902 5.05002C608.764 5.05002 608.764 4.11586 620.626 4.11586C632.487 4.11586 632.487 3.07238 644.349 3.07238C656.211 3.07238 656.211 2.95313 668.072 2.95313C679.934 2.95313 679.934 4.8612 691.795 4.8612C703.657 4.8612 703.657 3.2612 715.519 3.2612C727.38 3.2612 727.38 4.60282 739.252 4.60282C751.123 4.60282 753.812 -3.65558 762.174 4.80157C770.537 13.2587 763.884 16.0115 763.884 28.0264C763.884 40.0414 763.262 40.0414 763.262 52.0563C763.262 64.0712 761.848 64.0712 761.848 76.0861C761.848 88.101 763.103 88.101 763.103 100.116C763.103 112.131 762.105 112.131 762.105 124.156C762.105 136.171 762.975 136.171 762.975 148.186C762.975 160.2 762.777 160.2 762.777 172.215C762.777 184.23 762.224 184.23 762.224 196.245C762.224 208.26 761.71 208.26 761.71 220.275C761.71 232.29 763.054 232.29 763.054 244.305C763.054 256.32 763.182 256.32 763.182 268.345C763.182 280.36 761.897 280.36 761.897 292.374C761.897 304.389 764.003 304.389 764.003 316.404C764.003 328.419 762.896 328.419 762.896 340.434C762.896 352.449 763.301 352.449 763.301 364.464C763.301 376.479 762.668 376.479 762.668 388.504C762.668 400.529 761.789 400.519 761.789 412.534C761.789 424.548 763.855 424.548 763.855 436.563C763.855 448.578 762.866 448.578 762.866 460.603C762.866 472.628 761.72 472.618 761.72 484.633C761.72 496.648 762.876 496.648 762.876 508.663C762.876 520.678 763.776 520.678 763.776 532.693C763.776 544.708 763.36 544.708 763.36 556.722C763.36 568.737 763.756 568.737 763.756 580.752C763.756 592.767 761.907 592.767 761.907 604.792C761.907 616.807 762.392 616.807 762.392 628.822C762.392 640.837 763.054 640.837 763.054 652.862C763.054 664.886 761.838 664.877 761.838 676.892C761.838 688.906 762.698 688.906 762.698 700.921C762.698 712.936 761.937 712.936 761.937 724.951C761.937 736.966 762.362 736.966 762.362 748.981C762.362 760.996 763.4 760.996 763.4 773.011C763.4 785.026 763.153 785.026 763.153 797.051C763.153 809.075 763.785 809.065 763.785 821.08C763.785 833.095 762.075 833.095 762.075 845.11C762.075 857.125 762.5 857.125 762.5 869.14C762.5 881.155 763.865 881.155 763.865 893.17C763.865 905.185 763.865 905.185 763.865 917.21C763.865 929.235 761.858 929.225 761.858 941.249C761.858 953.264 761.977 953.264 761.977 965.289C761.977 977.314 763.983 977.304 763.983 989.329C763.983 1001.35 762.896 1001.34 762.896 1013.37C762.896 1025.39 761.957 1025.38 761.957 1037.41C761.957 1049.43 761.897 1049.42 761.897 1061.45C761.897 1073.46 763.973 1073.46 763.973 1085.49C763.973 1097.51 763.232 1097.5 763.232 1109.52C763.232 1121.53 762.866 1121.53 762.866 1133.56C762.866 1145.58 763.963 1145.57 763.963 1157.6C763.963 1169.61 762.481 1169.61 762.481 1181.64C762.481 1193.66 763.42 1193.66 763.42 1205.68C763.42 1217.69 763.212 1217.69 763.212 1229.72C763.212 1241.74 762.382 1241.74 762.382 1253.76C762.382 1265.77 761.403 1265.84 763.983 1277.58C766.771 1290.28 771.743 1293.64 763.321 1302.17H763.36Z" fill="#FFEBC2"/>
</svg>
