<svg width="378" height="289" viewBox="0 0 378 289" fill="none" xmlns="http://www.w3.org/2000/svg">
<path d="M373.931 285.293C365.847 293.483 362.133 285.546 350.589 285.546C339.045 285.546 339.045 284.215 327.501 284.215C315.957 284.215 315.957 284.011 304.413 284.011C292.869 284.011 292.869 284.905 281.325 284.905C269.781 284.905 269.781 284.312 258.237 284.312C246.693 284.312 246.693 284.195 235.149 284.195C223.605 284.195 223.605 283.972 212.061 283.972C200.517 283.972 200.517 284.176 188.973 284.176C177.429 284.176 177.429 285.633 165.885 285.633C154.341 285.633 154.341 285.254 142.797 285.254C131.253 285.254 131.253 285.866 119.699 285.866C108.146 285.866 108.155 284.526 96.6016 284.526C85.0478 284.526 85.0576 285.711 73.5039 285.711C61.9501 285.711 61.9599 284.088 50.4061 284.088C38.8524 284.088 38.8524 285.964 27.3084 285.964C15.7644 285.964 12.8515 292.726 4.75804 284.535C-3.33545 276.345 5.02196 273.372 5.02196 261.675C5.02196 249.977 5.14903 249.977 5.14903 238.279C5.14903 226.582 5.14903 226.582 5.14903 214.884C5.14903 203.186 5.03174 203.186 5.03174 191.489C5.03174 179.791 5.16858 179.791 5.16858 168.094C5.16858 156.396 4.91444 156.396 4.91444 144.698C4.91444 133.001 3.25273 133.001 3.25273 121.303C3.25273 109.605 3.3798 109.605 3.3798 97.9079C3.3798 86.2103 5.18813 86.2103 5.18813 74.5126C5.18813 62.815 4.27908 62.815 4.27908 51.1077C4.27908 39.4101 3.96629 39.4101 3.96629 27.7027C3.96629 16.0051 -4.68437 12.0217 3.56552 3.66627C11.8154 -4.68917 15.7644 3.85086 27.3084 3.85086C38.8524 3.85086 38.8524 4.19091 50.3964 4.19091C61.9403 4.19091 61.9403 4.60868 73.4843 4.60868C85.0283 4.60868 85.0283 5.02646 96.5723 5.02646C108.116 5.02646 108.116 3.93831 119.66 3.93831C131.204 3.93831 131.204 5.38593 142.748 5.38593C154.292 5.38593 154.292 4.13262 165.836 4.13262C177.38 4.13262 177.38 5.16248 188.924 5.16248C200.468 5.16248 200.468 3.51082 212.012 3.51082C223.556 3.51082 223.556 5.39565 235.1 5.39565C246.644 5.39565 246.644 3.2485 258.198 3.2485C269.752 3.2485 269.742 4.84186 281.296 4.84186C292.849 4.84186 292.84 3.73428 304.393 3.73428C315.947 3.73428 315.937 4.84186 327.491 4.84186C339.045 4.84186 339.045 3.35537 350.589 3.35537C362.133 3.35537 365.769 -4.05766 373.853 4.13262C381.936 12.3229 374.674 15.9954 374.674 27.693C374.674 39.3906 374.644 39.3906 374.644 51.0883C374.644 62.7859 373.344 62.7859 373.344 74.4835C373.344 86.1811 374.224 86.1811 374.224 97.8787C374.224 109.576 374.41 109.576 374.41 121.274C374.41 132.972 374.214 132.972 374.214 144.669C374.214 156.367 373.393 156.367 373.393 168.064C373.393 179.762 372.817 179.762 372.817 191.46C372.817 203.157 374.146 203.157 374.146 214.855C374.146 226.553 374.214 226.553 374.214 238.26C374.214 249.957 370.559 250.366 373.061 261.801C375.768 274.12 382.181 276.957 373.941 285.313L373.931 285.293Z" fill="#FFEBC2"/>
</svg>
