<svg width="768" height="436" viewBox="0 0 768 436" fill="none" xmlns="http://www.w3.org/2000/svg">
<path d="M763.698 432.237C755.352 440.605 751.664 432.404 739.797 432.404C727.931 432.404 727.931 431.491 716.074 431.491C704.217 431.491 704.208 431.353 692.341 431.353C680.475 431.353 680.475 431.962 668.618 431.962C656.761 431.962 656.751 431.55 644.885 431.55C633.018 431.55 633.018 431.471 621.152 431.471C609.285 431.471 609.285 431.314 597.419 431.314C585.552 431.314 585.552 431.452 573.686 431.452C561.819 431.452 561.819 432.453 549.953 432.453C538.086 432.453 538.086 432.198 526.22 432.198C514.353 432.198 514.353 432.61 502.487 432.61C490.62 432.61 490.62 431.697 478.754 431.697C466.887 431.697 466.887 432.512 455.021 432.512C443.154 432.512 443.154 431.402 431.288 431.402C419.421 431.402 419.421 432.689 407.555 432.689C395.688 432.689 395.688 431.55 383.822 431.55C371.955 431.55 371.955 431.52 360.089 431.52C348.222 431.52 348.222 431.432 336.356 431.432C328.445 431.432 320.534 431.432 312.623 431.432C300.756 431.432 300.756 431.51 288.89 431.51C277.023 431.51 277.023 431.412 265.157 431.412C253.29 431.412 253.29 431.589 241.424 431.589C229.557 431.589 229.557 432.718 217.691 432.718C205.824 432.718 205.824 432.64 193.958 432.64C182.091 432.64 182.091 431.412 170.225 431.412C158.358 431.412 158.358 432.031 146.492 432.031C134.625 432.031 134.625 432.247 122.759 432.247C110.892 432.247 110.892 432.699 99.0259 432.699C87.1594 432.699 87.1594 432.385 75.2929 432.385C63.4264 432.385 63.4264 432.149 51.5599 432.149C39.6934 432.149 39.6934 431.864 27.817 431.864C15.9406 431.864 12.796 440.094 4.43007 431.727C-3.93582 423.359 3.82685 420.187 3.82685 408.293C3.82685 396.4 4.82562 396.4 4.82562 384.506C4.82562 372.613 3.9653 372.613 3.9653 360.719C3.9653 348.826 4.67729 348.826 4.67729 336.932C4.67729 325.039 3.54008 325.039 3.54008 313.145C3.54008 301.252 4.83551 301.252 4.83551 289.358C4.83551 277.465 3.35219 277.465 3.35219 265.572C3.35219 253.678 4.44985 253.678 4.44985 241.785C4.44985 229.891 3.68841 229.891 3.68841 217.998C3.68841 206.104 4.44985 206.104 4.44985 194.211C4.44985 182.317 3.42142 182.317 3.42142 170.424C3.42142 158.53 3.90596 158.53 3.90596 146.637C3.90596 134.743 3.39175 134.743 3.39175 122.85C3.39175 110.956 3.41153 110.956 3.41153 99.063C3.41153 87.1695 4.30151 87.1695 4.30151 75.276C4.30151 63.3826 3.6983 63.3826 3.6983 51.4793C3.6983 39.576 3.56975 39.5858 3.56975 27.6825C3.56975 15.7792 -4.61814 12.0865 3.80708 3.64023C12.2323 -4.806 15.9307 4.092 27.7972 4.092C39.6637 4.092 39.6637 4.48485 51.5203 4.48485C63.3769 4.48485 63.3868 3.5813 75.2533 3.5813C87.1198 3.5813 87.1198 3.5322 98.9764 3.5322C110.833 3.5322 110.843 4.32771 122.709 4.32771C134.576 4.32771 134.576 4.12147 146.442 4.12147C158.309 4.12147 158.309 4.5536 170.175 4.5536C182.042 4.5536 182.042 4.39646 193.908 4.39646C205.775 4.39646 205.775 4.2295 217.641 4.2295C229.508 4.2295 229.508 4.47503 241.374 4.47503C253.241 4.47503 253.241 4.2295 265.107 4.2295C276.974 4.2295 276.974 3.38488 288.84 3.38488C300.707 3.38488 300.707 4.58306 312.573 4.58306C324.44 4.58306 324.44 4.32771 336.306 4.32771C348.173 4.32771 348.173 3.78755 360.039 3.78755C371.906 3.78755 371.906 4.20004 383.772 4.20004C395.639 4.20004 395.639 3.42416 407.505 3.42416C419.372 3.42416 419.372 3.7679 431.238 3.7679C443.105 3.7679 443.105 3.91522 454.971 3.91522C466.838 3.91522 466.838 4.05272 478.704 4.05272C490.571 4.05272 490.571 3.57148 502.437 3.57148C514.304 3.57148 514.304 3.31613 526.17 3.31613C538.037 3.31613 538.037 3.63041 549.903 3.63041C561.77 3.63041 561.77 3.98397 573.636 3.98397C585.503 3.98397 585.503 4.38664 597.369 4.38664C609.236 4.38664 609.236 4.30807 621.102 4.30807C632.969 4.30807 632.969 4.30807 644.836 4.30807C656.702 4.30807 656.702 3.77773 668.569 3.77773C680.435 3.77773 680.435 4.26879 692.302 4.26879C704.168 4.26879 704.168 3.32595 716.035 3.32595C727.901 3.32595 727.901 4.05272 739.777 4.05272C751.654 4.05272 755.224 -4.54083 763.58 3.83665C771.936 12.2141 764.143 15.789 764.143 27.6825C764.143 39.576 763.303 39.576 763.303 51.4695C763.303 63.3629 764.183 63.3629 764.183 75.2564C764.183 87.1499 763.52 87.1499 763.52 99.0433C763.52 110.937 763.916 110.937 763.916 122.83C763.916 134.724 764.074 134.724 764.074 146.617C764.074 158.511 764.173 158.511 764.173 170.404C764.173 182.298 764.232 182.298 764.232 194.191C764.232 206.085 763.323 206.085 763.323 217.978C763.323 229.871 763.392 229.871 763.392 241.765C763.392 253.658 763.115 253.658 763.115 265.552C763.115 277.445 763.916 277.445 763.916 289.339C763.916 301.232 763.471 301.232 763.471 313.126C763.471 325.019 763.599 325.019 763.599 336.913C763.599 348.806 763.441 348.806 763.441 360.7C763.441 372.593 763.955 372.593 763.955 384.496C763.955 396.4 760.771 396.704 763.323 408.332C766.052 420.825 772.114 423.801 763.688 432.257L763.698 432.237Z" fill="#FFEBC2"/>
</svg>
