<svg width="768" height="317" viewBox="0 0 768 317" fill="none" xmlns="http://www.w3.org/2000/svg">
<path d="M763.381 313.255C755.059 321.584 751.353 313.42 739.492 313.42C727.632 313.42 727.632 312.514 715.782 312.514C703.932 312.514 703.922 312.378 692.062 312.378C680.201 312.378 680.201 312.982 668.351 312.982C656.501 312.982 656.491 312.573 644.631 312.573C632.771 312.573 632.771 312.495 620.91 312.495C609.05 312.495 609.05 312.339 597.19 312.339C585.33 312.339 585.33 312.475 573.47 312.475C561.609 312.475 561.609 313.469 549.749 313.469C537.889 313.469 537.889 313.216 526.029 313.216C514.169 313.216 514.169 313.625 502.309 313.625C490.448 313.625 490.448 312.719 478.588 312.719C466.728 312.719 466.728 313.527 454.868 313.527C443.008 313.527 443.008 312.427 431.147 312.427C419.287 312.427 419.287 313.703 407.427 313.703C395.567 313.703 395.567 312.573 383.707 312.573C371.847 312.573 371.847 312.544 359.986 312.544C348.126 312.544 348.126 312.456 336.266 312.456C328.359 312.456 320.452 312.456 312.546 312.456C300.685 312.456 300.685 312.534 288.825 312.534C276.965 312.534 276.965 312.436 265.105 312.436C253.245 312.436 253.245 312.612 241.385 312.612C229.524 312.612 229.524 313.732 217.664 313.732C205.804 313.732 205.804 313.654 193.944 313.654C182.084 313.654 182.084 312.436 170.223 312.436C158.363 312.436 158.363 313.05 146.503 313.05C134.643 313.05 134.643 313.264 122.783 313.264C110.923 313.264 110.923 313.713 99.0624 313.713C87.2022 313.713 87.2022 313.401 75.342 313.401C63.4819 313.401 63.4819 313.167 51.6217 313.167C39.7615 313.167 39.7615 312.885 27.8914 312.885C16.0214 312.885 12.8488 321.077 4.52688 312.748C-3.79502 304.419 3.92398 301.224 3.92398 289.348C3.92398 277.473 4.92222 277.473 4.92222 265.598C4.92222 253.723 4.06235 253.723 4.06235 241.848C4.06235 229.973 4.77396 229.973 4.77396 218.097C4.77396 206.222 3.63736 206.222 3.63736 194.347C3.63736 182.472 4.9321 182.472 4.9321 170.597C4.9321 158.722 3.44958 158.722 3.44958 146.846C3.44958 134.971 4.54664 134.971 4.54664 123.086C4.54664 111.201 3.78562 111.211 3.78562 99.3262C3.78562 87.4413 4.54664 87.451 4.54664 75.5661C4.54664 63.6812 3.51876 63.6909 3.51876 51.806C3.51876 39.9211 4.00305 39.9211 4.00305 28.0459C4.00305 16.1707 -4.77348 12.274 3.6769 3.80848C12.1273 -4.65709 16.0214 3.63313 27.8815 3.63313C39.7417 3.63313 39.7417 4.50989 51.592 4.50989C63.4423 4.50989 63.4522 3.91564 75.3124 3.91564C87.1726 3.91564 87.1726 3.789 99.0229 3.789C110.873 3.789 110.883 3.92538 122.743 3.92538C134.603 3.92538 134.603 4.48066 146.464 4.48066C158.324 4.48066 158.324 4.87033 170.184 4.87033C182.044 4.87033 182.044 3.97409 193.904 3.97409C205.765 3.97409 205.765 3.92538 217.625 3.92538C229.485 3.92538 229.485 4.71446 241.345 4.71446C253.205 4.71446 253.205 4.50989 265.065 4.50989C276.926 4.50989 276.926 4.93852 288.786 4.93852C300.646 4.93852 300.646 4.78265 312.506 4.78265C324.366 4.78265 324.366 4.61704 336.226 4.61704C348.087 4.61704 348.087 4.86059 359.947 4.86059C371.807 4.86059 371.807 4.61704 383.667 4.61704C395.527 4.61704 395.527 3.77926 407.388 3.77926C419.248 3.77926 419.248 4.96775 431.108 4.96775C442.968 4.96775 442.968 4.71446 454.828 4.71446C466.688 4.71446 466.688 4.17867 478.549 4.17867C490.409 4.17867 490.409 4.58782 502.269 4.58782C514.129 4.58782 514.129 3.81822 525.989 3.81822C537.85 3.81822 537.85 4.15918 549.71 4.15918C561.57 4.15918 561.57 4.30531 573.43 4.30531C585.29 4.30531 585.29 4.44169 597.15 4.44169C609.011 4.44169 609.011 3.96435 620.871 3.96435C632.731 3.96435 632.731 3.71106 644.591 3.71106C656.451 3.71106 656.451 4.0228 668.312 4.0228C680.172 4.0228 680.172 4.3735 692.032 4.3735C703.892 4.3735 703.892 4.77291 715.752 4.77291C727.612 4.77291 727.612 4.69498 739.483 4.69498C751.353 4.69498 754.604 -3.76085 762.926 4.57808C771.377 13.0436 763.341 16.1707 763.341 28.0557C763.341 39.9308 762.847 39.9308 762.847 51.806C762.847 63.6812 763.796 63.6812 763.796 75.5564C763.796 87.4315 763.065 87.4315 763.065 99.3067C763.065 111.182 763.312 111.182 763.312 123.057C763.312 134.932 763.845 134.932 763.845 146.807C763.845 158.683 763.005 158.683 763.005 170.558C763.005 182.433 763.885 182.433 763.885 194.318C763.885 206.193 763.223 206.193 763.223 218.078C763.223 229.963 763.618 229.953 763.618 241.838C763.618 253.713 763.776 253.713 763.776 265.598C763.776 277.483 761.305 277.61 763.865 289.222C766.603 301.691 771.851 304.818 763.401 313.284L763.381 313.255Z" fill="#FFEBC2"/>
</svg>
