<svg width="372" height="289" viewBox="0 0 372 289" fill="none" xmlns="http://www.w3.org/2000/svg">
<path d="M367.995 285.293C360.04 293.483 356.385 285.546 345.024 285.546C333.663 285.546 333.663 284.215 322.302 284.215C310.942 284.215 310.942 284.011 299.581 284.011C288.22 284.011 288.22 284.905 276.859 284.905C265.499 284.905 265.499 284.312 254.138 284.312C242.777 284.312 242.777 284.195 231.416 284.195C220.056 284.195 220.056 283.972 208.695 283.972C197.334 283.972 197.334 284.176 185.973 284.176C174.613 284.176 174.613 285.633 163.252 285.633C151.891 285.633 151.891 285.254 140.53 285.254C129.17 285.254 129.17 285.866 117.799 285.866C106.429 285.866 106.439 284.526 95.0682 284.526C83.6979 284.526 83.7075 285.711 72.3371 285.711C60.9668 285.711 60.9764 284.088 49.606 284.088C38.2357 284.088 38.2357 285.964 26.8749 285.964C15.5142 285.964 12.6475 292.726 4.68252 284.535C-3.28251 276.345 4.94225 273.372 4.94225 261.675C4.94225 249.977 5.0673 249.977 5.0673 238.279C5.0673 226.582 5.0673 226.582 5.0673 214.884C5.0673 203.186 4.95187 203.186 4.95187 191.489C4.95187 179.791 5.08654 179.791 5.08654 168.094C5.08654 156.396 4.83643 156.396 4.83643 144.698C4.83643 133.001 3.2011 133.001 3.2011 121.303C3.2011 109.605 3.32616 109.605 3.32616 97.9079C3.32616 86.2103 5.10578 86.2103 5.10578 74.5126C5.10578 62.815 4.21116 62.815 4.21116 51.1077C4.21116 39.4101 3.90333 39.4101 3.90333 27.7027C3.90333 16.0051 -4.61001 12.0217 3.50893 3.66627C11.6279 -4.68917 15.5142 3.85086 26.8749 3.85086C38.2357 3.85086 38.2357 4.19091 49.5964 4.19091C60.9572 4.19091 60.9572 4.60868 72.3179 4.60868C83.6786 4.60868 83.6786 5.02646 95.0394 5.02646C106.4 5.02646 106.4 3.93831 117.761 3.93831C129.122 3.93831 129.122 5.38593 140.482 5.38593C151.843 5.38593 151.843 4.13262 163.204 4.13262C174.565 4.13262 174.565 5.16248 185.925 5.16248C197.286 5.16248 197.286 3.51082 208.647 3.51082C220.008 3.51082 220.008 5.39565 231.368 5.39565C242.729 5.39565 242.729 3.2485 254.099 3.2485C265.47 3.2485 265.46 4.84186 276.831 4.84186C288.201 4.84186 288.191 3.73428 299.562 3.73428C310.932 3.73428 310.922 4.84186 322.293 4.84186C333.663 4.84186 333.663 3.35537 345.024 3.35537C356.385 3.35537 359.963 -4.05766 367.918 4.13262C375.874 12.3229 368.727 15.9954 368.727 27.693C368.727 39.3906 368.698 39.3906 368.698 51.0883C368.698 62.7859 367.418 62.7859 367.418 74.4835C367.418 86.1811 368.284 86.1811 368.284 97.8787C368.284 109.576 368.467 109.576 368.467 121.274C368.467 132.972 368.274 132.972 368.274 144.669C368.274 156.367 367.466 156.367 367.466 168.064C367.466 179.762 366.899 179.762 366.899 191.46C366.899 203.157 368.207 203.157 368.207 214.855C368.207 226.553 368.274 226.553 368.274 238.26C368.274 249.957 364.677 250.366 367.139 261.801C369.804 274.12 376.114 276.957 368.005 285.313L367.995 285.293Z" fill="#FFEBC2"/>
</svg>
