<svg width="328" height="286" viewBox="0 0 328 286" fill="none" xmlns="http://www.w3.org/2000/svg">
<path d="M323.869 282.323C315.833 290.47 312.211 282.537 300.777 282.537C289.343 282.537 289.343 281.375 277.899 281.375C266.455 281.375 266.465 281.199 255.021 281.199C243.577 281.199 243.587 281.981 232.153 281.981C220.719 281.981 220.719 281.463 209.275 281.463C197.831 281.463 197.841 281.355 186.407 281.355C174.973 281.355 174.973 281.16 163.529 281.16C152.085 281.16 152.095 281.336 140.651 281.336C129.207 281.336 129.217 282.606 117.773 282.606C106.329 282.606 106.329 282.274 94.8952 282.274C83.4612 282.274 83.4612 282.801 72.0174 282.801C60.5735 282.801 60.5735 281.629 49.1395 281.629C37.7054 281.629 37.6957 282.664 26.2616 282.664C14.8276 282.664 12.0252 289.649 3.98913 281.502C-4.04693 273.355 2.60259 270.502 2.60259 258.907C2.60259 247.312 4.04771 247.312 4.04771 235.706C4.04771 224.101 4.08677 224.111 4.08677 212.506C4.08677 200.901 4.19418 200.911 4.19418 189.315C4.19418 177.72 4.19418 177.72 4.19418 166.115C4.19418 154.509 4.09653 154.519 4.09653 142.914C4.09653 131.309 4.21371 131.309 4.21371 119.713C4.21371 108.118 3.98913 108.108 3.98913 96.5129C3.98913 84.9078 2.55377 84.9078 2.55377 73.3124C2.55377 61.717 2.66118 61.7072 2.66118 50.1118C2.66118 38.5067 4.22347 38.5067 4.22347 26.9015C4.22347 15.2964 -4.72068 12.0043 3.42279 3.74004C11.5663 -4.52424 14.8178 3.48605 26.2519 3.48605C37.6859 3.48605 37.6859 2.9097 49.1297 2.9097C60.5736 2.9097 60.5638 3.30045 72.0076 3.30045C83.4514 3.30045 83.4417 3.59351 94.8757 3.59351C106.31 3.59351 106.31 3.96472 117.754 3.96472C129.197 3.96472 129.188 4.33593 140.622 4.33593C152.056 4.33593 152.056 3.38837 163.5 3.38837C174.943 3.38837 174.934 4.64852 186.377 4.64852C197.821 4.64852 197.812 3.55443 209.255 3.55443C220.699 3.55443 220.699 4.45315 232.133 4.45315C243.567 4.45315 243.567 3.00739 255.011 3.00739C266.455 3.00739 266.455 4.64852 277.889 4.64852C289.323 4.64852 289.333 2.77294 300.767 2.77294C312.201 2.77294 315.277 -4.12373 323.313 4.02333C331.349 12.1704 324.143 15.2866 324.143 26.8917C324.143 38.4969 323.176 38.4871 323.176 50.0923C323.176 61.6877 324.475 61.6877 324.475 73.2929C324.475 84.898 323.86 84.8882 323.86 96.4836C323.86 108.079 324.514 108.079 324.514 119.684C324.514 131.289 324.484 131.28 324.484 142.885C324.484 154.49 323.352 154.49 323.352 166.085C323.352 177.681 324.113 177.69 324.113 189.286C324.113 200.891 324.279 200.891 324.279 212.486C324.279 224.082 324.104 224.092 324.104 235.687C324.104 247.282 320.93 247.614 323.401 258.946C326.057 271.147 332.013 274.048 323.869 282.313V282.323Z" fill="#FFEBC2"/>
</svg>
